<?xml version="1.0" encoding="UTF-8"?>
<!-- Generator: Adobe Illustrator 25.2.1, SVG Export Plug-In . SVG Version: 6.00 Build 0)  -->
<svg xmlns="http://www.w3.org/2000/svg" xmlns:xlink="http://www.w3.org/1999/xlink" version="1.1" id="Capa_1" x="0px" y="0px" viewBox="0 0 512 512" style="enable-background:new 0 0 512 512;" xml:space="preserve" width="512" height="512">
<g>
	<g>
		<g>
			<path style="fill:#FFFFFF;" d="M250.312,490.786c-2.145,0-4.293-0.023-6.443-0.068c-25.125-0.498-49.109-4.151-71.27-10.858     c-0.479-0.144-0.949-0.315-1.41-0.51c-0.406-0.172-10.056-4.279-22.986-11.584c-0.284-0.152-0.557-0.312-0.818-0.475     c-12.146-7.539-23.653-16.389-34.198-26.304c-4.367-4.05-8.756-8.524-12.976-13.23c-4.225-4.673-8.309-9.62-12.103-14.664     c-6.026-7.954-11.599-16.494-16.534-25.351c-0.092-0.153-0.181-0.305-0.266-0.46c-1.201-2.174-2.769-5.057-4.259-8.088     c-3.195-6.343-6.219-13.215-8.919-20.295c-2.57-6.76-4.832-13.789-6.737-20.911c-0.564-2.057-1.098-4.214-1.605-6.37     c-1.417-6.003-2.572-12.048-3.452-18.056l-36.76-12.419c-4.745-1.603-8.282-5.605-9.288-10.51     c-1.009-4.905,0.665-9.976,4.394-13.319l43.477-38.98c5.187-26.097,15.241-51.253,29.476-73.853     c-12.38-8.18-22.122-19.768-28.16-33.753c-8.186-18.959-8.498-39.971-0.878-59.163c7.617-19.194,22.255-34.271,41.214-42.457     c9.756-4.212,20.057-6.347,30.61-6.347c30.892,0,58.766,18.324,71.008,46.683c0.587,1.359,1.135,2.734,1.641,4.124     c4.323-1.452,8.699-2.773,13.105-3.954c1.442-0.92,2.891-1.791,4.33-2.602c8.041-4.526,17.222-8.103,28.07-10.939l0.731-0.189     c7.913-1.997,16.064-3.001,24.293-3.001c13.643,0,27.167,2.769,39.502,7.972c2.402-22.257,21.302-39.642,44.187-39.642     c24.508,0,44.448,19.939,44.448,44.447c0,0.267-0.002,0.534-0.007,0.801c6.966,3.716,11.656,9.969,13.703,16.165l31.575,65.529     c12.862,26.819,27.313,54.198,38.493,79.87l6.895,14.315c0.837,1.735,1.309,3.623,1.387,5.547l1.004,24.833l11.443-1.379     c0.564-0.068,1.128-0.101,1.687-0.101c4.417,0,8.619,2.079,11.294,5.673c3.017,4.05,3.633,9.405,1.616,14.034l-24.926,57.221     c-2.001,4.591-6.288,7.775-11.262,8.362c-0.552,0.065-1.105,0.097-1.653,0.097c-1.391,0-2.762-0.206-4.071-0.602     c-1.137,3.13-2.358,6.261-3.654,9.358c-2.78,6.721-6.049,13.564-9.696,20.295c-0.426,0.776-0.827,1.507-1.244,2.234     c-0.227,0.433-0.47,0.863-0.717,1.275c-26.551,44.252-66.023,78.984-116.734,91.585c-19.004,4.723-38.505,7.096-57.986,8.768     C269.175,490.367,259.566,490.786,250.312,490.786z"/>
		</g>
	</g>
	<g>
		<g>
			<g>
				<path style="fill:#FFB289;" d="M467.898,281.138v0.094c0,2.582-0.047,5.164-0.141,7.723c-0.141,3.544-0.352,7.065-0.68,10.562      v0.023c-0.868,9.882-2.441,19.576-4.671,29.012c-1.291,5.445-2.793,10.797-4.507,16.055c-1.69,5.235-3.591,10.352-5.68,15.351      c-2.699,6.525-5.751,12.863-9.084,19.013c-0.399,0.728-7.112,12.088-8.004,13.426c-1.174,1.854-2.394,3.662-3.638,5.445      c-1.244,1.808-2.512,3.568-3.826,5.328c-0.329,0.446-2.84,3.732-3.803,4.952c-0.704,0.916-1.432,1.831-2.183,2.723      c-0.798,0.962-1.573,1.925-2.394,2.863c-1.009,1.221-2.042,2.394-3.098,3.568c-1.22,1.385-2.465,2.746-3.709,4.084      c-1.267,1.361-2.535,2.676-3.849,3.99c-1.127,1.127-2.253,2.253-3.403,3.38c-0.282,0.258-0.54,0.493-0.775,0.728      c-1.244,1.197-2.511,2.371-3.802,3.521c-1.291,1.197-2.605,2.347-3.943,3.497c-0.047,0.07-0.117,0.117-0.188,0.164      c-4.085,3.521-8.309,6.877-12.675,10.046c-1.221,0.916-2.465,1.784-3.709,2.652c-1.267,0.892-2.558,1.76-3.849,2.629      c-1.291,0.869-2.582,1.714-3.896,2.535c-1.103,0.704-2.206,1.385-3.309,2.042c-27.275,8.685-58.634,16.149-91.448,18.966      c-11.056,0.939-22.252,1.361-33.519,1.126c-22.51-0.446-45.302-3.544-67.483-10.257c0,0-9.201-3.896-21.618-10.915      c-0.07-0.023-0.141-0.07-0.211-0.118c-11.501-7.135-22.205-15.398-32.016-24.622c-4.225-3.92-8.286-8.074-12.135-12.37      c-3.99-4.413-7.769-8.99-11.337-13.731c-5.798-7.652-11.032-15.703-15.703-24.13c-0.024-0.023-0.024-0.023-0.024-0.023      c-1.361-2.464-2.699-4.953-3.943-7.488c-3.122-6.197-5.915-12.581-8.403-19.107c-2.418-6.361-4.506-12.863-6.291-19.529      c-0.54-1.972-1.033-3.967-1.502-5.962c-1.948-8.262-3.403-16.712-4.272-25.327c-0.798-7.159-1.197-14.459-1.197-21.829      c0-11.384,0.915-22.533,2.723-33.401c5.352-32.791,18.52-62.953,37.485-88.538c1.244-1.69,2.535-3.38,3.849-5.023      c16.384-20.773,36.734-38.283,59.878-51.428c3.991-2.277,8.098-4.413,12.276-6.431c1.056-0.516,2.136-1.009,3.216-1.503      c1.901-0.892,3.826-1.737,5.751-2.558c9.272-3.92,18.872-7.159,28.754-9.694c16.313-4.178,33.401-6.408,51.029-6.408      c17.299,0,34.082,2.136,50.137,6.197h0.023c3.803,0.939,7.558,1.995,11.29,3.192c8.45,2.629,16.666,5.821,24.599,9.506      c0.516,0.211,1.009,0.469,1.526,0.704c4.436,2.089,8.779,4.342,13.027,6.76c2.394,1.338,4.788,2.746,7.112,4.201      c0.258,0.141,0.516,0.305,0.775,0.493c1.432,0.868,2.863,1.784,4.249,2.723c0.258,0.141,0.493,0.305,0.727,0.47      c2.488,1.667,4.929,3.356,7.323,5.117c4.906,3.568,9.624,7.347,14.177,11.361c9.882,8.638,18.919,18.215,26.993,28.613      l0.023,0.023c11.799,24.491,25.672,53.277,37.204,77.2v0.024c1.033,4.178,1.925,8.403,2.676,12.699      C466.842,257.102,467.898,268.979,467.898,281.138z"/>
			</g>
		</g>
		<g>
			<g>
				<g>
					<path style="fill:#F7607D;" d="M198.027,94.663c-13.142,14.507-20.463,34.146-20.024,53.715       c0.128,5.677,0.866,11.482-0.679,16.947c-2.876,10.176-12.818,16.652-17.931,25.909c-3.486,6.312-4.577,13.673-4.814,20.879       c-0.309,9.391,0.778,18.976,4.556,27.579c6.662,15.173,21.191,25.846,36.883,31.17c15.692,5.324,32.575,5.907,49.141,5.522       c24.028-0.557,48.388-3.135,70.666-12.155c22.278-9.02,42.447-25.142,52.292-47.068c9.845-21.926,7.671-49.854-8.614-67.53       c-4.067-4.414-8.917-8.171-12.218-13.184c-3.774-5.73-5.22-12.627-7.503-19.097c-13.733-38.92-58.345-57.588-97.011-47.826       c-0.228,0.058-0.457,0.117-0.685,0.176c-8.606,2.249-16.939,5.205-24.722,9.586C210.158,83.341,203.582,88.532,198.027,94.663z       "/>
				</g>
			</g>
			<g>
				<g>
					<path style="fill:#BD6EEB;" d="M452.218,359.958c-2.699,6.525-5.751,12.863-9.084,19.013       c-0.399,0.728-47.956,53.505-48.027,53.552c-4.084,3.521-84.663,40.173-117.477,42.989       c-11.056,0.939-22.252,1.361-33.519,1.126c-22.51-0.446-137.356-75.309-140.924-80.051c1.596-3.357,0.935-1.985,5.301-10.764       c2.394-4.741,5.117-10.117,8.098-15.914c16.947-32.814,42.72-79.407,64.948-105.79c5.211-6.197,10.234-11.267,14.905-14.787       c0.282-0.235,0.564-0.423,0.822-0.61c0.446-0.329,0.892-0.658,1.338-0.939c0.07-0.047,0.141-0.094,0.211-0.141       c0.657-0.422,1.314-0.845,1.995-1.267c0.094-0.071,0.211-0.117,0.305-0.164c21.359-12.98,55.535-20.421,81.003-24.411       c2.817-0.446,5.516-0.845,8.074-1.197c0,0,0.023,0,0.047,0c7.229-1.033,13.403-1.737,17.839-2.206c0.023,0,0.023,0,0.047,0       c4.765-0.493,7.558-0.704,7.558-0.704s0.422,0.141,1.197,0.399c0.634,0.211,1.479,0.516,2.559,0.892       c6.502,2.347,20.82,7.84,37.274,16.29c3.544,1.807,7.206,3.779,10.891,5.868c22.463,12.722,46.522,30.397,59.549,52.648       C438.956,313.975,446.937,338.292,452.218,359.958z"/>
				</g>
			</g>
			<g>
				<g>
					<g>
						<g>
							<path style="fill:#FF8C9D;" d="M326.529,191.097c7.601-0.806,15.21-3.978,20.025-9.914c4.815-5.936,6.228-14.874,2.23-21.388         c-1.508-2.456-3.778-4.527-6.532-5.376c-2.949-0.91-6.158-0.361-9.086,0.612c-2.956,0.983-5.771,2.393-8.328,4.172         c-0.055,9.978,0.244,19.396,0.188,29.374C325.021,189.514,326.082,190.275,326.529,191.097z"/>
						</g>
					</g>
					<g>
						<g>
							<path style="fill:#512651;" d="M328.091,178.808c-0.101,0-0.204-0.026-0.296-0.08c-0.28-0.164-0.374-0.524-0.211-0.803         c1.669-2.848,3.221-5.382,5.302-7.54c1.719-1.785,4.534-4.009,8.17-4.48c0.316-0.052,0.614,0.185,0.658,0.507         c0.041,0.322-0.186,0.616-0.507,0.658c-3.298,0.426-5.886,2.481-7.477,4.129c-1.992,2.065-3.503,4.538-5.132,7.32         C328.487,178.704,328.293,178.808,328.091,178.808z"/>
						</g>
					</g>
				</g>
				<g>
					<g>
						<path style="fill:#FF8C9D;" d="M327.548,145.198c0,0-1.598-40.352-29.165-54.336c-27.567-13.984-103.478-9.189-111.469,34.359        c-7.991,43.549,4.794,97.086,41.151,109.072c36.357,11.986,89.495-0.799,97.085-31.962        C332.742,171.167,327.548,145.198,327.548,145.198z"/>
					</g>
				</g>
				<g>
					<g>
						<g>
							<path style="fill:#512651;" d="M277.964,182.681c0.449,3.78,3.877,6.48,7.656,6.031c3.78-0.449,6.48-3.877,6.031-7.657         c-0.449-3.78-3.877-6.48-7.657-6.031C280.216,175.473,277.516,178.901,277.964,182.681z"/>
						</g>
					</g>
					<g>
						<g>
							<path style="fill:#512651;" d="M210.159,191.669c0.449,3.78,3.877,6.48,7.657,6.031c3.78-0.449,6.48-3.877,6.031-7.656         c-0.449-3.78-3.877-6.48-7.656-6.031C212.41,184.462,209.71,187.89,210.159,191.669z"/>
						</g>
					</g>
					<g>
						<g>
							<g>
								<path style="fill:#512651;" d="M246.029,207.359c-2.677,0-5.16-1.633-6.608-3.507c-2.286-2.95-2.916-7.115-1.607-10.612          c0.115-0.303,0.447-0.462,0.757-0.343c0.303,0.113,0.456,0.452,0.344,0.755c-1.171,3.123-0.607,6.846,1.433,9.482          c1.497,1.932,4.243,3.574,6.957,2.895c0.323-0.084,0.633,0.113,0.71,0.428c0.08,0.314-0.112,0.633-0.426,0.712          C247.065,207.298,246.543,207.359,246.029,207.359z"/>
							</g>
						</g>
						<g>
							<g>
								<path style="fill:#512651;" d="M253.403,205.961c-0.27,0-0.513-0.188-0.573-0.463c-0.236-1.093,0.3-2.282,1.279-2.825          c0.979-0.547,2.272-0.374,3.074,0.404c0.234,0.226,0.238,0.597,0.014,0.83c-0.222,0.234-0.594,0.24-0.83,0.014          c-0.426-0.414-1.171-0.509-1.687-0.223c-0.529,0.295-0.83,0.962-0.704,1.553c0.069,0.316-0.133,0.629-0.45,0.697          C253.486,205.956,253.445,205.961,253.403,205.961z"/>
							</g>
						</g>
					</g>
					<g>
						<g>
							<path style="fill:#512651;" d="M255.73,214.929c-1.568,0-3.136-0.392-4.502-1.169c-0.282-0.161-0.381-0.518-0.223-0.8         c0.163-0.282,0.525-0.385,0.8-0.22c2.18,1.238,4.94,1.353,7.216,0.308c2.274-1.045,3.982-3.223,4.458-5.681         c0.06-0.318,0.348-0.526,0.688-0.465c0.319,0.062,0.525,0.37,0.463,0.688c-0.548,2.824-2.507,5.324-5.119,6.525         C258.329,214.66,257.03,214.929,255.73,214.929z"/>
						</g>
					</g>
					<g>
						<g>
							<path style="fill:#F7607D;" d="M204.481,172.573c1.183-0.116,2.292-0.609,3.377-1.095c2.609-1.169,6.363-3.211,5.149-6.708         c-0.737-2.124-2.794-2.62-4.835-2.308c-2.353,0.36-4.771,1.827-6.25,3.681C199.822,168.775,200.338,172.979,204.481,172.573z         "/>
						</g>
					</g>
					<g>
						<g>
							<path style="fill:#F7607D;" d="M290.876,160.514c-1.143,0.327-2.355,0.275-3.543,0.221c-2.856-0.13-7.098-0.651-7.252-4.349         c-0.094-2.247,1.637-3.463,3.65-3.922c2.32-0.529,5.109-0.051,7.165,1.13C293.816,155.271,294.879,159.371,290.876,160.514z"/>
						</g>
					</g>
				</g>
			</g>
			<g>
				<g>
					<g>
						<path style="fill:#F7607D;" d="M254.25,146.966c0,0-1.798-31.163,2.397-46.146c4.195-14.982,5.394-18.878,5.394-18.878        s-93.49-14.982-83.302,81.504L254.25,146.966z"/>
					</g>
				</g>
				<g>
					<g>
						<path style="fill:#F7607D;" d="M261.142,82.242l9.589,64.724l61.428,5.993c0,0-1.161-45.5-17.08-57.832        C293.803,78.646,261.142,82.242,261.142,82.242z"/>
					</g>
				</g>
				<g>
					<g>
						<polygon style="fill:#F7607D;" points="316.277,146.966 326.165,168.54 336.952,141.272       "/>
					</g>
				</g>
			</g>
		</g>
		<g>
			<g>
				<g>
					<polygon style="fill:#7182FF;" points="472.939,342.545 435.474,292.839 497.865,285.325      "/>
				</g>
			</g>
			<g>
				<g>
					
						<ellipse transform="matrix(0.1788 -0.9839 0.9839 0.1788 220.5476 395.5649)" style="fill:#BD6EEB;" cx="347.24" cy="65.662" rx="30.364" ry="30.364"/>
				</g>
			</g>
			<g>
				<g>
					<polygon style="fill:#F7607D;" points="14.033,287.8 60.378,246.249 73.163,307.776      "/>
				</g>
			</g>
		</g>
		<g>
			<g>
				<g>
					<g>
						<path style="fill:#BD6EEB;" d="M79.752,278.57c-22.761-5.215,6.804-82.793,18.177-110.525        c2.491-6.105,4.103-9.787,4.103-9.787l7.799,1.893c0,0-0.027,1.447-0.099,4.028C109.036,185.526,104.531,284.24,79.752,278.57        z"/>
					</g>
				</g>
				<g>
					<g>
						<path style="fill:#512651;" d="M109.732,164.178c-3.82,1.649-7.771,2.943-11.803,3.866c2.491-6.105,4.103-9.787,4.103-9.787        l7.799,1.893C109.832,160.15,109.805,161.597,109.732,164.178z"/>
					</g>
				</g>
			</g>
			<g>
				<g>
					<g>
						
							<ellipse transform="matrix(0.2933 -0.956 0.956 0.2933 -10.5943 185.8379)" style="fill:#7182FF;" cx="120.403" cy="100.085" rx="63.226" ry="63.225"/>
					</g>
				</g>
				<g>
					<g>
						
							<ellipse transform="matrix(0.7071 -0.7071 0.7071 0.7071 -35.5056 114.4517)" style="fill:#FFE9DC;" cx="120.403" cy="100.085" rx="57.233" ry="57.233"/>
					</g>
				</g>
				<g>
					<g>
						<g>
							<path style="fill:#FFFFFF;" d="M159.753,98.151c0.564,1.895,1.334,3.772,2.633,5.262c1.299,1.49,3.198,2.553,5.173,2.471         c2.477-0.104,4.615-2.001,5.633-4.262c1.018-2.261,1.101-4.828,0.954-7.303c-0.314-5.3-2.176-13.719-9.267-11.923         C157.985,84.143,158.143,92.741,159.753,98.151z"/>
						</g>
					</g>
					<g>
						<g>
							<path style="fill:#FFFFFF;" d="M158.45,113.605c-1.137,1.989-1.646,4.434-0.918,6.606c0.729,2.172,2.881,3.917,5.166,3.749         c2.357-0.174,4.188-2.206,5.13-4.374c0.946-2.178,1.21-4.837-0.062-6.843c-1.272-2.006-4.42-2.808-6.107-1.136         L158.45,113.605z"/>
						</g>
					</g>
				</g>
			</g>
		</g>
		<g>
			<g>
				<g>
					<path style="fill:#FFE9DC;" d="M382.787,406.456l-154.612,25.773L92.129,379.487l-6.314-185.244l-0.258-7.722       c0,0,98.279,26.359,125.248,72.506c0,0,77.295-54.526,153.415-54.526l0.822,8.826L382.787,406.456z"/>
				</g>
			</g>
			<g>
				<g>
					<g style="opacity:0.24;">
						<g>
							<path style="fill:#FFA9DD;" d="M365.042,213.326c-49.597-8.45-154.541,48.255-154.541,48.255         c-13.634-19.627-104.828-59.381-124.686-67.338l-0.258-7.722c0,0,98.279,26.359,125.248,72.506         c0,0,77.295-54.526,153.415-54.526L365.042,213.326z"/>
						</g>
					</g>
					<g>
						<g>
							<path style="fill:#FFA9DD;" d="M210.8,259.527c-0.023,0-0.046-0.002-0.066-0.008c-0.078-0.018-0.144-0.068-0.186-0.135         c-25.808-43.541-124.087-70.911-125.077-71.183c-0.156-0.042-0.248-0.204-0.204-0.361c0.041-0.155,0.204-0.247,0.36-0.205         c0.248,0.068,25.111,6.938,52.852,19.117c25.528,11.207,58.763,29.321,72.418,52.072         c5.169-3.266,85.724-53.421,152.941-53.421c0.131,0,0.252,0,0.383,0c0.163,0,0.293,0.132,0.293,0.295         c0,0.161-0.131,0.292-0.293,0.292l0,0c-0.128,0-0.257,0-0.383,0c-68.954,0-152.045,52.955-152.88,53.49         C210.91,259.511,210.855,259.527,210.8,259.527z"/>
						</g>
					</g>
					<g>
						<g>
							<path style="fill:#FFA9DD;" d="M210.8,259.527c-0.078,0-0.156-0.032-0.213-0.092         C168.582,214.963,85.7,191.231,84.868,190.996c-0.156-0.043-0.245-0.205-0.202-0.361c0.044-0.155,0.197-0.25,0.362-0.203         c0.832,0.234,83.666,23.951,125.829,68.435c4.793-2.588,92.225-49.338,153.952-51.367c0.002,0,0.007,0,0.009,0         c0.158,0,0.289,0.125,0.293,0.284c0.005,0.161-0.122,0.297-0.284,0.303c-63.022,2.072-152.985,50.91-153.888,51.404         C210.897,259.515,210.848,259.527,210.8,259.527z"/>
						</g>
					</g>
					<g>
						<g>
							<path style="fill:#FFA9DD;" d="M211.1,261.724c-0.082,0-0.163-0.034-0.22-0.1c-30.521-34.63-121.446-66.893-124.974-67.102         c-0.064,0.021-0.135,0.02-0.199-0.006c-0.151-0.061-0.225-0.232-0.165-0.382c0.039-0.095,0.147-0.176,0.247-0.194         c0.014-0.002,0.03-0.004,0.048-0.004c1.616,0,25.398,8.269,51.825,20.356c24.598,11.25,57.28,28.483,73.509,46.774         c4.919-2.449,95.384-47.102,153.929-50.869c0.172-0.024,0.3,0.111,0.312,0.274c0.009,0.161-0.112,0.3-0.275,0.311         c-59.774,3.848-152.971,50.439-153.904,50.91C211.19,261.713,211.146,261.724,211.1,261.724z"/>
						</g>
					</g>
				</g>
				<g>
					<g>
						<g>
							<g>
								<path style="fill:#7182FF;" d="M294.608,334.758c-4.37,0.672-8.907-0.967-12.283-3.823          c-3.376-2.856-5.672-6.826-7.119-11.004c-2.053-5.93-2.434-12.682,0.255-18.352c1.693,0.58,3.232,0.698,4.924,1.278          c1.916,0.658,3.846,1.321,5.603,2.331c4.828,2.777,7.903,7.992,9.126,13.426          C296.336,324.049,295.465,329.255,294.608,334.758z"/>
							</g>
						</g>
						<g>
							<g>
								<path style="fill:#512651;" d="M294.51,336.344c-0.087,0-0.167-0.053-0.199-0.137c-4.188-11.086-9.13-22.68-16.875-32.349          c-0.621-0.774-1.245-1.51-2.042-2.01c-0.101-0.063-0.131-0.195-0.069-0.295c0.066-0.099,0.199-0.126,0.293-0.068          c0.855,0.535,1.506,1.302,2.152,2.105c7.782,9.717,12.74,21.345,16.94,32.465c0.041,0.11-0.014,0.234-0.124,0.275          C294.56,336.34,294.535,336.344,294.51,336.344z"/>
							</g>
						</g>
					</g>
					<g>
						<g>
							<path style="fill:#F7607D;" d="M342.388,364.236c-0.341,1.037-0.684,2.058-1.047,3.064         c-3.736,10.259-10.182,19.549-19,26.095c-1.738,1.289-3.56,2.451-5.492,3.419c-10.076,5.062-21.855,6.492-32.865,4.1         c-9.334-2.023-15.175-9.823-20.554-17.06c-1.78-2.402-3.469-4.901-4.979-7.49c-3.134-5.268-5.66-10.917-7.274-16.846         c-1.762-6.461-2.064-13.509,0.413-19.733c6.353-15.881,31.935-18.052,42.373-5.106c3.666-5.042,9.11-8.867,10.26-9.605         c4.265-2.74,9.099-4.602,14.136-5.182c9.852-1.15,19.261,3.391,23.753,12.435         C346.946,342.052,345.613,354.021,342.388,364.236z"/>
						</g>
					</g>
				</g>
				<g>
					<g>
						<path style="fill:#512651;" d="M273.199,290.243c1.114-0.105,2.035,0.66,2.138,1.772l0.255,2.712        c0.096,1.025-0.617,2.033-1.774,2.141l-15.165,1.373c-1.513,0.142-2.867-0.899-3.012-2.455l-0.25-2.668        c-0.204-2.18,1.123-3.828,1.123-3.828s9.212-12.3,9.566-12.825c0.312-0.523,0.426-1.206,0.365-1.873        c-0.193-2.047-1.74-2.755-3.652-2.577c-0.266,0.025-0.488,0.046-0.749,0.115c-1.277,0.254-2.565,0.869-3.869,1.799        c0,0-1.139,0.777-1.632,1.272l-0.963-1.21c-0.202-0.206-2.719-4.096,1.804-7.076c0.798-0.568,3.049-1.451,5.229-1.655        c5.824-0.546,10.191,2.501,10.753,8.504c0.195,2.09-0.211,3.966-1.093,5.575c-0.892,1.517-8.766,11.81-8.766,11.81        L273.199,290.243z"/>
					</g>
					<g>
						<path style="fill:#512651;" d="M291.746,279.044l8.539-0.798c0.534-0.051,0.972,0.312,1.022,0.846l0.241,2.581        c0.05,0.532-0.312,0.969-0.846,1.02l-8.538,0.798l0.807,8.626c0.048,0.534-0.312,0.972-0.846,1.022l-2.581,0.241        c-0.534,0.05-0.97-0.312-1.02-0.846l-0.807-8.628l-8.626,0.807c-0.534,0.05-0.974-0.314-1.022-0.846l-0.241-2.579        c-0.051-0.534,0.312-0.972,0.846-1.022l8.628-0.807l-0.798-8.538c-0.051-0.532,0.312-0.97,0.846-1.02l2.579-0.241        c0.534-0.051,0.969,0.312,1.02,0.846L291.746,279.044z"/>
					</g>
					<g>
						<path style="fill:#512651;" d="M324.008,285.494c1.112-0.105,2.036,0.66,2.139,1.772l0.254,2.711        c0.094,1.025-0.619,2.033-1.774,2.141l-15.168,1.373c-1.513,0.142-2.865-0.898-3.012-2.455l-0.247-2.668        c-0.204-2.18,1.121-3.828,1.121-3.828s9.212-12.3,9.568-12.825c0.309-0.523,0.426-1.206,0.362-1.873        c-0.19-2.047-1.738-2.755-3.652-2.576c-0.266,0.025-0.488,0.046-0.749,0.115c-1.277,0.254-2.565,0.869-3.869,1.797        c0,0-1.139,0.779-1.63,1.275l-0.967-1.21c-0.197-0.206-2.714-4.098,1.806-7.076c0.8-0.569,3.051-1.451,5.229-1.655        c5.827-0.546,10.191,2.501,10.753,8.504c0.195,2.09-0.211,3.965-1.093,5.575c-0.889,1.517-8.763,11.809-8.763,11.809        L324.008,285.494z"/>
					</g>
				</g>
				<g>
					<g>
						<path style="fill:#FFA9DD;" d="M228.18,432.523c-0.149,0-0.277-0.112-0.291-0.264l-17.38-172.596        c-0.016-0.161,0.101-0.306,0.261-0.322c0.19-0.017,0.305,0.102,0.321,0.263l17.38,172.596        c0.016,0.161-0.101,0.306-0.261,0.322C228.198,432.523,228.189,432.523,228.18,432.523z"/>
					</g>
				</g>
			</g>
		</g>
		<g>
			<g>
				<path style="fill:#FF8C9D;" d="M441.914,381.153c-0.164,0.329-0.352,0.657-0.54,0.962c-0.822,1.479-1.667,2.911-2.535,4.342      c-0.352,0.634-0.728,1.244-1.127,1.854c-0.822,1.385-1.69,2.747-2.582,4.084c-1.174,1.854-2.394,3.662-3.638,5.445      c-1.244,1.808-2.512,3.568-3.826,5.328c-0.329,0.446-0.634,0.868-0.962,1.267c-0.939,1.244-1.878,2.465-2.84,3.685      c-0.704,0.916-1.432,1.831-2.183,2.723c-0.798,0.962-1.573,1.925-2.394,2.863c-1.009,1.221-2.042,2.394-3.098,3.568      c-1.22,1.385-2.465,2.746-3.709,4.084c-1.267,1.361-2.535,2.676-3.849,3.99c-1.127,1.127-2.253,2.253-3.403,3.38      c-0.282,0.258-0.54,0.493-0.775,0.728c-1.244,1.197-6.408,5.868-7.746,7.018c-0.047,0.07-0.117,0.117-0.188,0.164      c-1.01-2.981-2.206-6.431-3.498-10.093c-3.615-10.257-7.91-22.064-11.079-29.387c-1.291-2.957-2.371-5.188-3.145-6.291      c-3.098-4.413-26.5-9.155-42.273-13.379c-8.474-2.253-14.741-4.366-14.459-6.197c0.54-3.45,11.994-4.6,19.623-4.976      c3.873-0.211,6.76-0.211,6.76-0.211s-2.652-0.164-6.525-0.493c-9.999-0.868-28.049-2.958-28.636-6.69      c-0.68-4.483,24.74-6.901,31.781-7.464c1.127-0.094,1.784-0.141,1.784-0.141l0.798-3.591c0,0-0.868-0.047-2.371-0.188      c-8.239-0.634-35.185-3.192-35.185-8.591c0-4.882,21.923-5.563,32.462-5.61c3.31-0.047,5.493,0,5.493,0      s-2.371-0.329-5.892-0.916c-10.562-1.737-31.57-5.774-31.265-10.257c0.024-0.164,0.047-0.328,0.117-0.493      c1.901-5.492,29.458-5.141,44.222-6.314c5.469-0.423,12.112,0.07,19.365,1.854c12.933,3.192,27.791,10.445,41.358,23.73      c8.966,8.779,17.792,23.825,24.975,38.237C441.257,379.839,441.585,380.496,441.914,381.153z"/>
			</g>
		</g>
		<g>
			<g>
				<g>
					<path style="fill:#7182FF;" d="M244.113,476.638c-22.51-0.446-45.302-3.544-67.483-10.257c0,0-9.201-3.896-21.618-10.915       c-0.07-0.023-0.141-0.07-0.211-0.118c-11.501-7.135-22.205-15.398-32.016-24.622c-4.225-3.92-8.286-8.074-12.135-12.37       c-3.99-4.413-7.769-8.99-11.337-13.731c-5.798-7.652-11.032-15.703-15.703-24.13c-0.024-0.023-0.024-0.023-0.024-0.023       c-1.361-2.464-2.699-4.953-3.943-7.488c-3.122-6.197-5.915-12.581-8.403-19.107c-2.418-6.361-4.506-12.863-6.291-19.529       c-0.54-1.972-1.033-3.967-1.502-5.962c5.493-1.502,11.408-1.69,16.924-0.376c3.568,0.845,6.971,2.206,10.14,3.991       c9.248,5.14,16.618,13.849,21.172,23.519c2.159,4.6,3.756,9.436,4.906,14.388c1.549,6.549,2.347,13.309,2.653,20.092       c0.117,2.558,0.188,5.094,0.188,7.629c1.667-1.901,3.498-3.732,5.469-5.446c7.934-6.83,18.121-11.666,28.261-11.807       c12.699-0.164,25.585,6.432,31.782,17.487c3.356,5.962,4.671,12.745,5.164,19.6c0.188,2.465,0.234,4.953,0.258,7.394       c0.047,6.877-0.258,13.732-0.939,20.562c7.981-4.084,17.651-5.328,26.524-4.108c8.873,1.221,17.393,5.985,22.299,13.497       C242.399,461.217,243.667,468.94,244.113,476.638z"/>
				</g>
			</g>
			<g>
				<g>
					<path style="fill:#FFB289;" d="M443.135,378.97c-0.399,0.728-0.798,1.455-1.221,2.183       c-11.717,20.973-27.187,39.833-45.395,55.489c-4.085,3.521-8.309,6.877-12.675,10.046c-3.729,2.736-7.55,5.342-11.454,7.817       c-0.011,0.007-0.022,0.014-0.033,0.021c-2.091,1.334-4.356,2.37-6.725,3.105c-26.456,8.218-56.56,15.183-88,17.881       c3.474-7.605,9.037-14.248,16.008-18.849c10.422-6.901,23.777-9.177,35.889-6.079c0.423-11.783,4.155-21.994,11.22-31.406       c1.807-2.418,3.826-4.694,6.056-6.713c2.441-2.277,5.141-4.202,8.121-5.68c5.657-2.816,12.346-3.873,18.426-2.112       c1.948,0.563,3.803,1.408,5.493,2.441c6.877,4.202,11.619,11.877,14.083,19.74c0.005,0,0,0,0.005,0       c3.635-12.593,9.285-23.492,18.561-32.744c7.91-7.934,18.379-13.614,29.434-14.928       C441.679,379.087,442.407,379.017,443.135,378.97z"/>
				</g>
			</g>
		</g>
		<g>
			<g>
				<g>
					<path style="fill:#FFA9DD;" d="M351.807,108.696c0,0-12.4-15.197,10.407-27.018c25.117-13.018,30.005,6.072,30.005,6.072       l-17.457,13.743L351.807,108.696z"/>
				</g>
			</g>
			<g>
				<g>
					<polygon style="fill:#F7607D;" points="401.262,106.523 468.909,246.892 469.662,248.457 454.565,268.622 429.717,265.6        429.283,264.707 361.075,127.352 377.604,110.282      "/>
				</g>
			</g>
			<g>
				<g>
					<g>
						<path style="fill:#512651;" d="M432.272,253.944c-0.131,0-0.257-0.075-0.316-0.202l-62.937-132.736        c-0.085-0.175-0.009-0.384,0.165-0.468c0.181-0.082,0.385-0.008,0.468,0.167l62.938,132.736        c0.085,0.175,0.009,0.384-0.165,0.467C432.373,253.932,432.323,253.944,432.272,253.944z"/>
					</g>
				</g>
				<g>
					<g>
						<path style="fill:#512651;" d="M454.213,242.572c-0.131,0-0.254-0.074-0.316-0.197l-64.294-131.587        c-0.085-0.175-0.012-0.385,0.163-0.47c0.17-0.085,0.385-0.014,0.47,0.16l64.294,131.587c0.085,0.175,0.012,0.385-0.163,0.47        C454.319,242.561,454.266,242.572,454.213,242.572z"/>
					</g>
				</g>
			</g>
			<g>
				<g>
					<g>
						<polygon style="fill:#FFA9DD;" points="468.909,246.892 469.662,248.457 471.028,282.311 471.901,303.923 455.851,289.34         429.717,265.6 429.283,264.707 432.273,253.592 451.529,259.636 454.503,242.07       "/>
					</g>
				</g>
				<g>
					<g>
						<path style="fill:#512651;" d="M471.028,282.311l0.873,21.612l-16.051-14.583c1.955-4.365,5.959-7.767,9.857-8.216        c1.299-0.15,2.69-0.068,4.004,0.473C470.177,281.775,470.625,282.032,471.028,282.311z"/>
					</g>
				</g>
			</g>
			<g>
				<g>
					<g>
						<polygon style="fill:#7182FF;" points="392.22,87.75 395.262,94.062 394.921,94.731 395.596,94.762 397.494,98.701         397.013,99.447 397.828,99.401 401.262,106.523 361.075,127.352 357.551,120.277 357.878,119.756 357.217,119.577         355.274,115.661 355.585,115.146 354.918,114.973 351.807,108.696       "/>
					</g>
				</g>
				<g>
					<g>
						<polygon style="fill:#FFE9DC;" points="395.262,94.062 395.596,94.762 355.274,115.661 354.918,114.973       "/>
					</g>
				</g>
				<g>
					<g>
						<polygon style="fill:#FFE9DC;" points="397.494,98.701 397.828,99.401 357.551,120.277 357.217,119.577       "/>
					</g>
				</g>
			</g>
		</g>
	</g>
	<g>
		<g>
			<g>
				<polygon style="fill:#FFE9DC;" points="397.98,233.112 400.977,210.939 408.368,231.714 429.943,229.185 413.176,241.246       417.882,260.66 403.468,246.835 392.585,264.779 394.644,243.599 376.406,238.892     "/>
			</g>
		</g>
		<g>
			<g>
				<polygon style="fill:#FFE9DC;" points="150.272,408.106 153.269,385.932 160.66,406.708 182.235,404.179 165.468,416.24       170.174,435.654 155.76,421.829 144.877,439.772 146.936,418.593 128.698,413.886     "/>
			</g>
		</g>
	</g>
</g>















</svg>
