<?xml version="1.0" encoding="UTF-8"?>
<!-- Generator: Adobe Illustrator 25.2.1, SVG Export Plug-In . SVG Version: 6.00 Build 0)  -->
<svg xmlns="http://www.w3.org/2000/svg" xmlns:xlink="http://www.w3.org/1999/xlink" version="1.1" id="Capa_1" x="0px" y="0px" viewBox="0 0 512 512" style="enable-background:new 0 0 512 512;" xml:space="preserve" width="512" height="512">
<g>
	<g>
		<path style="fill:#FFFFFF;" d="M261.07,477.984c-2.316,0-4.616-0.051-6.91-0.135c-0.572-0.02-2.462-0.119-2.462-0.119    c-1.467-0.074-2.895-0.156-4.319-0.259c-1.009-0.072-2.033-0.158-3.059-0.248c-1.206-0.109-2.392-0.228-3.578-0.355    c-1.163-0.125-2.271-0.246-3.371-0.386l-0.657-0.074c-0.334-0.043-0.693-0.099-1.052-0.158l-0.242-0.037    c-2.06-0.283-4.074-0.585-6.077-0.925c-0.97-0.164-1.957-0.347-2.942-0.529c-1.703-0.318-3.373-0.654-5.034-1.013l-0.308-0.066    c-0.923-0.199-1.846-0.4-2.761-0.615c-1.742-0.404-3.49-0.849-5.229-1.311l-0.712-0.183c-0.609-0.156-1.214-0.312-1.82-0.48    c-2.792-0.781-5.291-1.533-7.642-2.3c-1.348-0.421-2.821-0.931-4.271-1.446c-3.925-1.385-7.822-2.915-11.571-4.544    c-20.065-8.561-38.422-20.567-54.484-35.647c-3.752-3.49-7.512-7.324-11.132-11.359c-0.389-0.429-0.778-0.862-1.166-1.301    c-12.979-3.426-15.729-4.866-17.848-6.349c-6.214-4.351-14.395-16.398-19.192-24.007c-9.818-5.076-16.866-16.455-19.89-24.017    L39.84,347.465c-0.978-0.527-1.881-1.18-2.688-1.943l-33.21-31.422c-2.548-2.41-3.977-5.775-3.941-9.283    c0.035-3.508,1.531-6.842,4.127-9.201l4.375-3.976c1.778-1.615,3.894-2.63,6.098-3.051c0.247-0.199,0.503-0.392,0.767-0.574    c2.413-1.641,5.092-2.466,7.868-2.466c0.216,0,0.433,0.006,0.648,0.016c1.669-2.41,4.113-4.31,7.113-5.27    c1.445-0.445,2.814-0.652,4.193-0.652c6.028,0,11.303,3.857,13.128,9.599l6.972,21.927l17.936-16.597    c-0.034-1.461-0.05-2.95-0.05-4.483c0-33.054,8.682-65.475,25.128-93.93c0,0,7.551-49.114,7.577-49.256    c0.365-1.932,1.206-3.906,2.401-5.469c7.188-9.4,15.778-11.372,21.721-11.372c7.35,0,13.609,2.999,17.738,5.683    c0.376-0.388,0.76-0.769,1.152-1.141c-5.65-13.251-5.649-29.292,0.598-43.277c7.083-15.854,21.548-28.764,39.687-35.418    c6.017-2.208,12.088-3.616,18.123-4.206c0.258-1.64,0.619-3.26,1.081-4.85c0.575-1.979,1.619-4.931,4.042-7.628    c2.975-3.311,7.17-5.21,11.509-5.21c1.43,0,2.847,0.206,4.21,0.614c1.553,0.464,3.354,1.273,5.09,2.679    c1.69-0.56,3.473-0.854,5.291-0.854c5.272,0,10.245,2.411,13.518,6.499c1.955-0.698,3.91-1.324,5.865-1.875    c6.522-1.838,12.457-2.733,18.144-2.733c2.595,0,5.155,0.194,7.609,0.575c12.225,1.898,23.404,8.731,30.673,18.746    c5.738,7.914,8.951,16.76,9.388,25.584c15.676,11.123,27,26.996,31.37,44.094c14.416,8.345,27.62,18.548,39.39,30.433    c24.159-9.735,46.929-18.854,46.929-18.854c1.504-0.603,3.096-0.905,4.686-0.905c1.758,0,3.512,0.367,5.149,1.1    c3.116,1.395,5.533,3.994,6.698,7.205l0.096,0.263c2.966,1.504,5.225,4.126,6.272,7.304l47.056,143.089    c2.16,6.571-1.379,13.657-7.933,15.875l-59.386,20.109c-1.208,5.197-2.624,10.301-4.23,15.245    c-3.057,9.394-6.821,18.48-11.187,27.011c-4.714,9.275-10.286,18.265-16.544,26.689c-0.244,0.341-0.582,0.786-0.923,1.231    c-8.19,10.884-17.617,20.901-27.958,29.7c-6.747,5.812-14.088,11.251-21.759,16.109c-13.14,8.337-27.347,15.017-42.219,19.846    c-1.984,0.642-3.97,1.241-5.964,1.818c-0.718,0.207-1.448,0.408-2.177,0.609c-1.473,0.408-2.962,0.796-4.458,1.171    c0,0-1.444,0.367-1.869,0.468c-1.779,0.425-3.59,0.833-5.418,1.208c-0.115,0.025-0.318,0.061-0.478,0.09    c-3.005,0.613-5.857,1.128-8.598,1.555l-1.323,0.185c-2.37,0.355-4.838,0.673-7.31,0.944c-0.884,0.096-1.775,0.181-2.667,0.265    c-2.117,0.201-4.255,0.365-6.401,0.494l-0.712,0.045c-0.642,0.041-1.282,0.082-1.926,0.111    C266.697,477.91,263.792,477.984,261.07,477.984z"/>
	</g>
	<g>
		<g>
			<path style="fill:#FFA9DD;" d="M437.988,290.09c0,18.928-3.004,37.163-8.55,54.221c-2.836,8.718-6.302,17.121-10.42,25.167     c-4.454,8.76-9.622,17.079-15.441,24.915c-0.273,0.378-0.546,0.735-0.819,1.092c-7.668,10.189-16.428,19.516-26.113,27.751     c-6.386,5.504-13.172,10.525-20.336,15.063c-12.184,7.731-25.398,13.97-39.369,18.508c-6.029,1.954-12.206,3.613-18.529,4.916     c-11.533,2.395-23.487,3.655-35.734,3.655c-7.71,0-15.294-0.504-22.73-1.471c-10.861-1.387-21.407-3.802-31.533-7.101     c-1.345-0.42-2.668-0.882-3.97-1.344c-3.634-1.282-7.227-2.689-10.756-4.223c-18.907-8.067-36.091-19.39-50.881-33.276     c-3.613-3.361-7.08-6.912-10.378-10.588c-1.218-1.345-2.395-2.689-3.571-4.076c-1.933-2.29-3.823-4.622-5.651-7.017     c-5.126-6.723-9.79-13.844-13.907-21.281c-0.021-0.021-0.021-0.021-0.021-0.021c-1.155-2.101-2.29-4.244-3.361-6.407     c-0.168-0.315-0.315-0.651-0.483-0.966c-1.134-2.29-2.206-4.601-3.256-6.954c-0.378-0.861-0.756-1.723-1.092-2.605     c-0.84-1.933-1.618-3.865-2.353-5.819c-2.08-5.441-3.865-11.008-5.378-16.701c-2.71-10.105-4.538-20.546-5.378-31.281     c-0.126-1.45-0.231-2.899-0.315-4.37c-0.189-3.235-0.273-6.491-0.273-9.79c0-55.083,25.398-104.22,65.124-136.362     c7.311-5.924,15.105-11.26,23.319-15.945c11.47-6.576,23.781-11.869,36.701-15.714c9.075-2.71,18.466-4.706,28.108-5.924     c7.227-0.903,14.579-1.365,22.037-1.365c13.487,0,26.596,1.513,39.201,4.412c15.42,3.508,30.062,9.054,43.633,16.344     C400.552,165.115,437.988,223.222,437.988,290.09z"/>
		</g>
		<g>
			<g>
				<g>
					<path style="fill:#BD6EEB;" d="M376.645,421.423c-6.386,5.504-71.924,39-78.232,40.308c-11.54,2.393-23.497,3.648-35.736,3.648       c-7.705,0-15.292-0.497-22.732-1.46c-10.856-1.406-36.267-14.897-39.797-16.431c3.298-8.13,1.312-15.406,6.081-27.254       c6.533-16.092,13.592-33.634,18.991-47.247c1.807-4.559,3.424-8.676,4.769-12.163c1.134-2.941,2.437-6.534,3.865-10.651       c1.134-3.298,2.353-6.933,3.634-10.819c12.059-36.575,28.928-94.493,31.071-101.846c0.126-0.504,0.21-0.777,0.21-0.777       l31.407-17.689c0,0,19.117,1.576,46.133,43.339C371.183,300.825,375.847,383,376.645,421.423z"/>
				</g>
				<g>
					<g>
						<g>
							<path style="fill:#FFE9DC;" d="M50.336,337.148c-0.372,0-0.736-0.178-0.96-0.503l-25.489-36.659         c-0.368-0.529-0.238-1.258,0.292-1.627c0.531-0.361,1.258-0.234,1.626,0.293l21.072,30.305L35.688,293.77         c-0.196-0.615,0.144-1.272,0.759-1.469c0.618-0.191,1.272,0.146,1.467,0.759l13.534,42.563         c0.175,0.552-0.078,1.147-0.597,1.403C50.686,337.109,50.51,337.148,50.336,337.148z"/>
						</g>
					</g>
					<g>
						<polygon style="fill:#7182FF;" points="47.424,336.366 14.214,304.945 18.589,300.968 50.805,333.98       "/>
					</g>
					<g>
						<polygon style="fill:#FFE9DC;" points="50.805,333.98 120.01,269.945 238.931,328.014 174.896,398.412       "/>
					</g>
					<g>
						<polygon style="fill:#7182FF;" points="47.424,336.366 179.271,407.361 241.914,341.736 121.998,277.303       "/>
					</g>
				</g>
				<g>
					<g>
						<path style="fill:#FF8C9D;" d="M260.408,372.758l-92.472,0.597c0,0-34.006-42.358-36.392-37.585        c-2.386,4.773,9.347,35.597,9.347,35.597s-66.222-23.665-65.029-18.296c1.193,5.369,9.148,19.091,17.5,20.881        c0,0,11.932,19.688,17.898,23.864c5.966,4.176,84.716,20.881,106.194,24.46c21.477,3.58,59.659,11.335,76.364-6.562        c16.705-17.898,22.671-36.989,22.671-36.989L260.408,372.758z"/>
					</g>
					<g>
						<path style="fill:#BD6EEB;" d="M300.38,264.775c0,0-32.216,7.159-40.568,38.778c-8.352,31.619-25.057,68.608-25.057,68.608        l98.438,19.688C333.193,391.849,367.795,271.934,300.38,264.775z"/>
					</g>
					<g>
						<path style="fill:#512651;" d="M324.442,389.545c-0.017,0-0.033-0.001-0.051-0.005l-86.308-15.909        c-0.146-0.026-0.245-0.163-0.229-0.31c0.03-0.25,3.085-25.38,11.548-50.816c7.827-23.529,22.019-52.141,45.178-54.829        c0.158-0.014,0.294,0.093,0.312,0.248c0.018,0.154-0.093,0.294-0.248,0.312c-22.862,2.653-36.93,31.068-44.707,54.439        c-7.981,23.989-11.143,47.707-11.491,50.451l86.047,15.861c0.152,0.028,0.254,0.175,0.225,0.328        C324.694,389.451,324.575,389.545,324.442,389.545z"/>
					</g>
				</g>
			</g>
			<g>
				<g>
					<path style="fill:#512651;" d="M235.084,69.959c-1.88-2.596-5.09-3.851-8.199-4.631c-10.453-2.621-21.641-1.297-31.758,2.414       c-13.947,5.117-26.46,15.16-32.518,28.725c-6.058,13.564-4.778,30.667,4.873,41.96c-8.205,3.156-14.907,11.304-16.19,20.001       c-1.283,8.697,2.437,17.957,9.38,23.348c4.117,3.197,9.151,5.032,14.256,6.087c6.541,1.352,13.435,1.477,19.823-0.475       c12.303-3.758,21.13-14.594,27.279-25.894C236.839,134.284,253.257,95.05,235.084,69.959z"/>
				</g>
				<g>
					<path style="fill:#FF8C9D;" d="M310.527,182.049c-2.383,31.031-50.121,50.518-77.554,52.505       c-22.596,1.636-40.611-19.651-50.916-56.968l0.017-5.766l-2.728-5.146c-1.075-4.86-2.033-9.954-2.851-15.258       c-8.365-53.299,52.879-68.791,52.879-68.791s35.798-5.982,54.888,8.739C303.353,106.084,312.91,151.018,310.527,182.049z"/>
				</g>
				<g>
					<path style="fill:#FF8C9D;" d="M262.795,216.252l6.364,23.466c0,0,20.682-3.182,31.023-20.682l-12.33-35.796L262.795,216.252z"/>
				</g>
				<g>
					<g>
						<path style="fill:#512651;" d="M216.552,84.366c-5.142,6.537-8.405,14.711-8.273,23.027        c0.132,8.315,3.885,16.685,10.556,21.651c6.671,4.967,16.247,6.07,23.515,2.027c-1.587,6.257-3.27,12.738-1.259,18.872        c1.262,3.851,3.881,7.167,7.047,9.697c4.491,3.588,10.204,5.692,15.952,5.59c5.747-0.102,11.475-2.472,15.415-6.657        c-0.539,9.987,1.107,18.498,4.147,28.027c1.921,6.022,4.649,11.986,9.258,16.312c4.609,4.326,11.413,6.731,17.428,4.788        c4.682-1.511,8.299-5.426,10.445-9.853c2.146-4.427,2.991-9.361,3.597-14.243c16.026-10.055,24.293-30.968,20.888-49.578        c-3.405-18.61-16.506-34.604-32.86-44.115c1.445-8.867-1.395-17.566-6.67-24.838c-5.275-7.272-13.526-12.316-22.404-13.694        c-6.799-1.056-13.776-0.033-20.398,1.834C245.516,58.122,227.742,70.141,216.552,84.366z"/>
					</g>
					<g>
						<path style="fill:#512651;" d="M225.901,74.077c-4.783-6.809-6.113-15.766-3.806-23.705c0.284-0.976,0.636-1.965,1.315-2.722        c0.679-0.757,1.757-1.234,2.731-0.943c1.164,0.348,1.777,1.597,2.198,2.737c1.61,4.367,2.394,9.036,2.3,13.69        c1.122-3.744,2.709-7.579,4.887-10.825c0.372-0.555,0.776-1.093,1.209-1.608c3.237-3.85,9.455-0.314,7.727,4.409        c-0.011,0.031-0.023,0.062-0.034,0.093c-2.345,6.361-5.48,12.493-9.856,17.671c-1.182,1.398-2.559,2.789-4.36,3.169        C228.54,76.395,226.884,75.476,225.901,74.077z"/>
					</g>
				</g>
				<g>
					<g>
						<path style="fill:#512651;" d="M220.459,176.949c0.817,2.64,3.62,4.118,6.26,3.301c2.64-0.817,4.118-3.62,3.301-6.26        c-0.817-2.64-3.62-4.118-6.261-3.301C221.119,171.506,219.642,174.309,220.459,176.949z"/>
					</g>
					<g>
						<path style="fill:#512651;" d="M186.249,188.312c0.817,2.64,3.62,4.118,6.26,3.301c2.64-0.817,4.118-3.62,3.301-6.261        c-0.818-2.64-3.62-4.118-6.261-3.301C186.91,182.869,185.432,185.672,186.249,188.312z"/>
					</g>
					<g>
						<g>
							<path style="fill:#512651;" d="M217.614,199.94c-0.11,0-0.214-0.065-0.26-0.172c-0.322-0.769-0.09-1.712,0.554-2.243         c0.644-0.531,1.615-0.58,2.307-0.118c0.129,0.086,0.165,0.261,0.079,0.39c-0.087,0.129-0.26,0.165-0.39,0.078         c-0.486-0.323-1.191-0.287-1.637,0.084c-0.45,0.37-0.619,1.054-0.394,1.591c0.06,0.144-0.007,0.308-0.151,0.369         C217.687,199.933,217.65,199.94,217.614,199.94z"/>
						</g>
					</g>
					<g>
						<path style="fill:#512651;" d="M210.717,202.789c-3.396,0-6.339-2.604-7.739-5.24c-1.69-3.18-1.987-6.939-2.248-10.255        l-0.446-5.682c-0.013-0.155,0.103-0.291,0.258-0.303c0.158-0.015,0.291,0.104,0.302,0.258l0.446,5.682        c0.257,3.262,0.549,6.958,2.185,10.035c1.443,2.718,4.622,5.405,8.137,4.876c0.166-0.022,0.297,0.084,0.321,0.237        c0.023,0.154-0.084,0.297-0.237,0.32C211.365,202.766,211.039,202.789,210.717,202.789z"/>
					</g>
					<g>
						<path style="fill:#512651;" d="M218.177,208.666c-0.955,0-1.909-0.151-2.817-0.458c-0.147-0.05-0.226-0.21-0.177-0.357        c0.05-0.147,0.211-0.223,0.357-0.176c2.289,0.773,4.889,0.49,6.957-0.76c2.067-1.251,3.526-3.422,3.903-5.808        c0.024-0.154,0.158-0.257,0.322-0.234c0.153,0.025,0.258,0.169,0.233,0.322c-0.401,2.548-1.959,4.866-4.166,6.202        C221.402,208.234,219.79,208.666,218.177,208.666z"/>
					</g>
					<g>
						<path style="fill:#512651;" d="M214.918,155.209c-1.202,2.211-0.501,5.445,1.791,6.484c0.569,0.258,1.192,0.374,1.813,0.451        c3.029,0.373,6.166-0.175,8.889-1.554c1.765-0.893,3.479-2.327,3.773-4.283c0.326-2.163-1.315-4.288-3.373-5.029        C224.298,150.014,216.815,151.718,214.918,155.209z"/>
					</g>
					<g>
						<path style="fill:#512651;" d="M187.385,173.777c-1.472,1.636-3.318,2.944-5.328,3.809c-0.981-3.505-1.893-7.127-2.71-10.912        c1.776-1.028,3.622-1.682,5.071-1.729c2.196-0.047,4.486,1.355,4.954,3.482C189.792,170.366,188.717,172.305,187.385,173.777z        "/>
					</g>
				</g>
				<g>
					<g>
						<path style="fill:#FF8C9D;" d="M290.816,150.711c6.694,3.626,10.072,12.109,8.424,19.542        c-1.648,7.432-7.802,13.479-15.061,15.773c-2.515,0.795-5.284,1.173-7.766,0.279c-4.627-1.667-7.692-7.483-8.849-11.982        c-1.148-4.465,0.687-7.469,2.637-11.36c2.232-4.455,3.37-10.099,8.125-12.591C282.144,148.37,287.078,148.686,290.816,150.711        z"/>
					</g>
					<g>
						<path style="fill:#512651;" d="M279.434,174.668c-0.006,0-0.011,0-0.017-0.001c-0.156-0.009-0.274-0.142-0.265-0.297        c0.376-6.216,3.236-12.181,7.848-16.366c0.115-0.106,0.294-0.096,0.397,0.019c0.104,0.115,0.096,0.293-0.019,0.397        c-4.504,4.088-7.298,9.913-7.664,15.983C279.706,174.553,279.583,174.668,279.434,174.668z"/>
					</g>
				</g>
			</g>
		</g>
		<g>
			<g>
				<g>
					<path style="fill:#512651;" d="M451.54,161.194l-80.191,35.638l-21.703,5.059l-8.661,1.453c0,0,0.566-6.011,3.659-10.649h0.019       c1.881-1.016,4.119-2.088,6.77-3.178c23.17-9.61,96.27-38.892,96.27-38.892L451.54,161.194z"/>
				</g>
			</g>
			<g>
				<g>
					<polygon style="fill:#FFE9DC;" points="343.667,194.481 443.221,153.667 449.623,168.232 349.429,211.127      "/>
				</g>
			</g>
			<g>
				<g>
					<path style="fill:#FFB289;" d="M349.647,201.892c-4.084,0.871-9.072,1.391-14.494,1.742c0,0-4.2-3.547,9.491-10.938       c-0.263,1.091-0.075,2.37,0.301,3.46c0.583,1.693,1.523,3.272,2.859,4.476C348.349,201.139,348.97,201.572,349.647,201.892z"/>
				</g>
			</g>
			<g>
				<g>
					<path style="fill:#F7607D;" d="M334.543,202.484c0,0,6.481,2.198,19.847-2.241c13.367-4.438,99.554-42.415,99.554-42.415       l47.056,143.089l-109.233,36.985c-6.987,2.366-14.554-1.471-16.775-8.505L334.543,202.484z"/>
				</g>
			</g>
			<g>
				<g>
					<path style="fill:#FFB289;" d="M388.642,339.085c-0.099,0-0.191-0.063-0.224-0.162l-44.175-136.366       c-0.04-0.124,0.029-0.256,0.152-0.297c0.126-0.035,0.256,0.029,0.296,0.151l44.175,136.366c0.04,0.124-0.028,0.256-0.151,0.297       C388.691,339.082,388.666,339.085,388.642,339.085z"/>
				</g>
			</g>
			<g>
				<path style="fill:#FFB289;" d="M342.075,196.906c-0.06,0-0.117-0.036-0.141-0.095c-0.032-0.078,0.005-0.168,0.083-0.2      l102.089-41.836c0.079-0.032,0.169,0.006,0.2,0.084c0.032,0.078-0.005,0.168-0.083,0.2l-102.09,41.836      C342.114,196.902,342.094,196.906,342.075,196.906z"/>
			</g>
			<g>
				<path style="fill:#FFB289;" d="M343.148,199.052c-0.061,0-0.117-0.036-0.142-0.096c-0.031-0.078,0.006-0.168,0.085-0.199      l101.91-41.301c0.08-0.033,0.166,0.005,0.2,0.084c0.031,0.078-0.006,0.168-0.085,0.199l-101.91,41.301      C343.186,199.048,343.167,199.052,343.148,199.052z"/>
			</g>
			<g>
				<path style="fill:#FFB289;" d="M344.935,201.197c-0.06,0-0.117-0.036-0.141-0.095c-0.032-0.078,0.005-0.167,0.082-0.2      l100.838-41.48c0.08-0.031,0.169,0.006,0.2,0.084c0.032,0.078-0.005,0.168-0.083,0.2l-100.838,41.48      C344.974,201.194,344.954,201.197,344.935,201.197z"/>
			</g>
		</g>
		<g>
			<polygon style="fill:#FFB289;" points="365.317,216.956 375.687,249.496 456.5,220.532 444.342,188.708    "/>
		</g>
		<g>
			<g>
				<path style="fill:#BD6EEB;" d="M115.76,262.941l-11.234-13.629l-0.02-0.059l15.37-100.008l0.029-0.152      c10.917-14.28,25.816-0.299,25.816-0.299l-0.129,0.881l-14.305,101.89L115.76,262.941z"/>
			</g>
			<g>
				<polygon style="fill:#FFB289;" points="114.107,277.912 110.025,265.732 104.526,249.311 109.347,254.067 118.095,247.969       124.897,254.824 131.287,251.565 121.495,266.596     "/>
			</g>
			<g>
				<path style="fill:#512651;" d="M114.107,277.912l-4.082-12.18c0.268-0.122,0.549-0.234,0.82-0.331      c2.964-1,7.476-0.578,10.65,1.195L114.107,277.912z"/>
			</g>
			<g>
				<path style="fill:#512651;" d="M124.897,254.949c-0.006,0-0.012,0-0.019-0.001c-0.068-0.009-0.116-0.074-0.105-0.144      l15.513-102.482c0.011-0.069,0.059-0.12,0.144-0.105c0.068,0.01,0.116,0.074,0.105,0.144l-15.513,102.482      C125.012,254.905,124.958,254.949,124.897,254.949z"/>
			</g>
			<g>
				<path style="fill:#512651;" d="M118.095,248.095c-0.006,0-0.012-0.001-0.019-0.001c-0.068-0.011-0.116-0.075-0.105-0.144      l14.121-94.849c0.01-0.069,0.056-0.115,0.144-0.106c0.068,0.011,0.116,0.075,0.105,0.144l-14.121,94.849      C118.21,248.05,118.156,248.095,118.095,248.095z"/>
			</g>
			<g>
				<path style="fill:#512651;" d="M109.293,253.78c-0.006,0-0.012,0-0.019-0.001c-0.068-0.01-0.116-0.074-0.105-0.144L124.42,151.5      c0.009-0.069,0.061-0.115,0.144-0.107c0.068,0.011,0.116,0.075,0.105,0.144l-15.252,102.137      C109.408,253.736,109.354,253.78,109.293,253.78z"/>
			</g>
			<g>
				<g>
					<path style="fill:#FFB289;" d="M119.876,149.244l0.029-0.152c10.917-14.28,25.816-0.299,25.816-0.299l-0.129,0.881       c-3.338,2.544-7.669,3.566-11.872,3.424c-4.303-0.154-8.464-1.462-12.421-3.18C120.827,149.709,120.341,149.49,119.876,149.244       z"/>
				</g>
				<g>
					<path style="fill:#512651;" d="M126.629,147.495l0.015-0.075c6.557-4.393,12.832-0.148,12.832-0.148l-0.064,0.438       c-1.659,1.264-3.812,1.772-5.901,1.702c-2.139-0.076-4.207-0.727-6.174-1.581C127.101,147.726,126.86,147.617,126.629,147.495z       "/>
				</g>
			</g>
		</g>
		<g>
			<g>
				<path style="fill:#FFB289;" d="M419.018,369.479c-4.454,8.76-9.622,17.079-15.441,24.915c-0.273,0.378-0.546,0.735-0.819,1.092      c-7.668,10.189-16.428,19.516-26.113,27.751c-6.386,5.504-13.172,10.525-20.336,15.063      c-12.184,7.731-25.398,13.97-39.369,18.508c-6.029,1.954-12.206,3.613-18.529,4.916c0.483-8.088,4.076-15.987,9.874-21.68      c5.903-5.798,14.075-9.264,22.352-9.496c-2.353-13.76-1.428-28.319,5.336-40.503c6.785-12.206,20.398-21.134,34.264-19.642      c9.474,1.008,17.941,6.576,24.6,13.361c5.966-7.416,14.895-11.869,24.117-14.264C418.976,369.5,418.997,369.479,419.018,369.479      z"/>
			</g>
			<g>
				<path style="fill:#F7607D;" d="M240.074,459.098c0.021,1.597-0.021,3.193-0.126,4.811c-10.861-1.387-21.407-3.802-31.533-7.101      c-1.345-0.42-2.668-0.882-3.97-1.344c-3.634-1.282-7.227-2.689-10.756-4.223c-18.907-8.067-36.091-19.39-50.881-33.276      c-3.613-3.361-7.08-6.912-10.378-10.588c-1.218-1.345-2.395-2.689-3.571-4.076c-1.933-2.29-3.823-4.622-5.651-7.017      c5.84-2.521,12.458-3.361,18.739-2.311c12.332,2.08,22.983,10.756,29.054,21.701c12.143-12.71,32.541-12.268,46.994-2.248      C232.427,423.427,239.822,441.535,240.074,459.098z"/>
			</g>
		</g>
		<g>
			<polygon style="fill:#FFE9DC;" points="175.073,249.011 177.755,229.165 184.37,247.759 203.68,245.496 188.673,256.29      192.885,273.666 179.985,261.292 170.244,277.352 172.087,258.396 155.764,254.184    "/>
		</g>
		<g>
			<polygon style="fill:#FFE9DC;" points="320.422,235.101 310.735,217.574 327.137,228.55 341.283,215.214 335.679,232.83      349.426,244.262 331.691,242.027 333.454,260.728 323.625,244.415 308.012,250.772    "/>
		</g>
		<g>
			<polygon style="fill:#FFE9DC;" points="304.807,422.326 315.176,405.193 313.833,424.883 332.444,430.503 314.379,434.422      311.317,452.037 304.417,435.547 289.083,446.394 298.328,429.743 285.036,419.375    "/>
		</g>
		<g>
			<g>
				<path style="fill:#FFE9DC;" d="M250.177,259.151c0,3.357-2.722,6.079-6.079,6.079c-3.357,0-6.079-2.722-6.079-6.079      c0-3.357,2.722-6.079,6.079-6.079C247.455,253.072,250.177,255.793,250.177,259.151z"/>
			</g>
			<g>
				<path style="fill:#F7607D;" d="M172.403,202.117c0,3.357-2.722,6.079-6.079,6.079c-3.357,0-6.079-2.722-6.079-6.079      c0-3.357,2.722-6.079,6.079-6.079C169.682,196.038,172.403,198.759,172.403,202.117z"/>
			</g>
			<g>
				<path style="fill:#BD6EEB;" d="M216.743,290.081c0,3.357-2.721,6.079-6.079,6.079c-3.357,0-6.079-2.722-6.079-6.079      c0-3.357,2.722-6.079,6.079-6.079C214.022,284.003,216.743,286.724,216.743,290.081z"/>
			</g>
			<g>
				<circle style="fill:#BD6EEB;" cx="359.954" cy="164.035" r="6.079"/>
			</g>
			<g>
				<path style="fill:#FFE9DC;" d="M408.227,357.843c0,3.357-2.721,6.079-6.079,6.079c-3.357,0-6.079-2.722-6.079-6.079      c0-3.357,2.722-6.079,6.079-6.079C405.505,351.764,408.227,354.485,408.227,357.843z"/>
			</g>
		</g>
	</g>
</g>















</svg>
