<?xml version="1.0" encoding="UTF-8"?>
<!-- Generator: Adobe Illustrator 25.2.1, SVG Export Plug-In . SVG Version: 6.00 Build 0)  -->
<svg xmlns="http://www.w3.org/2000/svg" xmlns:xlink="http://www.w3.org/1999/xlink" version="1.1" id="Capa_1" x="0px" y="0px" viewBox="0 0 512 512" style="enable-background:new 0 0 512 512;" xml:space="preserve" width="512" height="512">
<g>
	<g>
		<g>
			<path style="fill:#FFFFFF;" d="M107.219,462.355c-38.459-2.538-56.901-20.39-65.599-34.921     c-12.781-21.349-12.97-50.489-0.506-77.95c0.895-1.97,1.933-3.939,3.111-5.906l-18.607-1.228     C10.529,341.355-0.936,328.27,0.06,313.18l3.472-52.617c0.996-15.09,14.081-26.555,29.169-25.559l24.559,1.621     c0.745-6.967,1.848-13.915,3.301-20.77l-25.67-63.59c-1.468-3.641-1.298-7.738,0.469-11.243c1.769-3.507,4.959-6.08,8.762-7.065     l48.14-12.452l1.515-0.4l20.59-5.331c8.607-8.757,17.996-16.742,27.956-23.768c8.911-6.299,18.407-11.912,28.213-16.675     c13.843-6.768,28.548-11.948,43.679-15.385c4.51-1.028,9.119-1.903,13.801-2.624c0.731-2.723,2.305-5.229,4.626-7.096     c2.741-2.202,6.124-3.197,9.446-2.978c2.627,0.173,5.213,1.105,7.414,2.799l6.36,4.891c1.272-0.02,2.54-0.03,3.803-0.027     l5.99-4.944c2.755-2.275,6.198-3.313,9.582-3.089c2.498,0.165,4.965,1.017,7.103,2.566c2.571,1.865,4.333,4.495,5.136,7.395     c10.323,1.429,20.486,3.639,30.352,6.603c9.516,2.837,18.918,6.425,27.993,10.685l104.827-21.684     c1.236-0.255,2.467-0.335,3.668-0.256c4.091,0.27,7.829,2.383,10.182,5.664c1.62,0.353,3.177,1.001,4.589,1.929     c3.023,1.987,5.132,5.091,5.866,8.635l36.766,177.75c0.732,3.543,0.028,7.232-1.96,10.255c-1.602,2.437-3.933,4.281-6.636,5.288     c-0.89,0.404-1.831,0.715-2.806,0.927l-37.966,7.854c-0.022,0.372-0.045,0.747-0.069,1.116     c-1.315,19.932-5.491,39.392-12.422,57.914c11.951,10.203,21.684,20.099,28.43,28.944c22.128,29.011,19.417,51.146,11.642,65.755     c-0.238,1.622-0.758,3.229-1.586,4.752c-3.502,6.411-9.164,11.882-16.849,16.284c-0.493,0.392-0.99,0.78-1.491,1.161     c-2.928,2.229-6.805,3.773-12.868,5.115c-34.967,11.691-89.234,8.824-99.826,8.125l-0.492-0.03     c-0.527-0.035-1.039-0.091-1.542-0.166c-55.464,1.977-121.059,2.733-167.624,3.019c-5.361,2.187-10.544,2.356-13.625,2.184     c-3.112,0.471-6.286,0.604-9.46,0.394c-3.991-0.263-8.062-1.079-12.135-2.427c-19.512,0.045-32.058,0.011-33.47,0.007     C114.949,462.701,111,462.605,107.219,462.355z"/>
		</g>
	</g>
	<g>
		<g>
			<g>
				<path style="fill:#BD6EEB;" d="M450.409,270.822c-1.349,20.435-5.891,39.908-13.094,57.929      c-3.683,9.21-8.024,18.036-13.043,26.429c-5.432,9.14-11.605,17.753-18.445,25.799c-0.322,0.389-0.642,0.755-0.962,1.121      c-9.005,10.454-19.127,19.9-30.169,28.101c-7.287,5.487-14.971,10.424-23.028,14.813c-13.706,7.478-28.416,13.273-43.822,17.176      c-6.648,1.68-13.435,3.032-20.354,3.987c-12.622,1.764-25.617,2.273-38.84,1.4c-8.324-0.549-16.476-1.634-24.435-3.207      c-11.627-2.271-22.84-5.63-33.537-9.913c-1.422-0.549-2.818-1.142-4.191-1.734c-3.832-1.643-7.61-3.418-11.311-5.325      c-19.838-10.057-37.583-23.506-52.561-39.551c-3.662-3.886-7.151-7.966-10.45-12.17c-1.22-1.538-2.394-3.074-3.565-4.655      c-1.923-2.61-3.799-5.262-5.601-7.978c-5.055-7.623-9.583-15.643-13.498-23.966c-0.021-0.024-0.021-0.024-0.021-0.024      c-1.098-2.35-2.17-4.745-3.172-7.157c-0.159-0.352-0.294-0.726-0.453-1.077c-1.061-2.553-2.054-5.124-3.02-7.739      c-0.347-0.957-0.694-1.914-0.994-2.89c-0.769-2.147-1.471-4.288-2.125-6.45c-1.858-6.023-3.389-12.16-4.616-18.414      c-2.206-11.102-3.435-22.505-3.577-34.155c-0.033-1.574-0.043-3.146-0.029-4.74c0.026-3.506,0.168-7.028,0.403-10.588      c3.925-59.468,34.846-110.708,80.025-142.578c8.315-5.875,17.11-11.081,26.311-15.553c12.852-6.282,26.52-11.12,40.742-14.35      c9.991-2.28,20.271-3.765,30.768-4.393c7.866-0.461,15.837-0.436,23.889,0.096c14.561,0.961,28.605,3.528,42.007,7.556      c16.398,4.886,31.81,11.917,45.943,20.754C418.897,133.229,455.174,198.63,450.409,270.822z"/>
			</g>
		</g>
		<g>
			<g>
				<g>
					<g>
						
							<rect x="325.579" y="85.39" transform="matrix(0.9793 -0.2026 0.2026 0.9793 -27.2956 85.5805)" style="fill:#7182FF;" width="157.772" height="181.512"/>
					</g>
				</g>
				<g>
					<g>
						
							<rect x="322.34" y="79.506" transform="matrix(0.9793 -0.2026 0.2026 0.9793 -26.2721 84.3061)" style="fill:#FFB289;" width="152.826" height="182.007"/>
					</g>
				</g>
				<g>
					<g>
						<g>
							<path style="fill:#7182FF;" d="M330.361,110.287c0.83,4.012-1.75,7.938-5.762,8.768c-4.012,0.83-7.938-1.75-8.768-5.762         c-0.83-4.012,1.75-7.938,5.762-8.768C325.606,103.694,329.532,106.274,330.361,110.287z"/>
						</g>
					</g>
					<g>
						<g>
							<path style="fill:#7182FF;" d="M336.373,139.347c0.83,4.012-1.75,7.938-5.762,8.768c-4.012,0.83-7.938-1.75-8.768-5.762         c-0.83-4.012,1.75-7.938,5.762-8.768C331.617,132.754,335.542,135.334,336.373,139.347z"/>
						</g>
					</g>
					<g>
						<g>
							<path style="fill:#7182FF;" d="M342.383,168.406c0.83,4.012-1.75,7.938-5.762,8.768c-4.013,0.83-7.938-1.75-8.768-5.762         c-0.83-4.012,1.75-7.938,5.762-8.768C337.628,161.814,341.554,164.394,342.383,168.406z"/>
						</g>
					</g>
					<g>
						<g>
							<path style="fill:#7182FF;" d="M348.395,197.466c0.83,4.012-1.75,7.938-5.762,8.768c-4.012,0.83-7.938-1.75-8.768-5.762         c-0.83-4.012,1.75-7.938,5.762-8.768C343.639,190.874,347.564,193.454,348.395,197.466z"/>
						</g>
					</g>
					<g>
						<g>
							<path style="fill:#7182FF;" d="M354.405,226.526c0.83,4.012-1.75,7.938-5.762,8.768c-4.013,0.83-7.938-1.75-8.768-5.762         c-0.83-4.012,1.75-7.938,5.762-8.768C349.65,219.934,353.575,222.514,354.405,226.526z"/>
						</g>
					</g>
					<g>
						<g>
							<path style="fill:#7182FF;" d="M359.966,253.406c0.83,4.012-1.75,7.938-5.762,8.768c-4.012,0.83-7.938-1.75-8.768-5.762         c-0.83-4.012,1.75-7.938,5.762-8.768C355.21,246.814,359.136,249.394,359.966,253.406z"/>
						</g>
					</g>
				</g>
				<g>
					<g>
						<path style="fill:#512651;" d="M344.768,276.007c-0.08-0.005-0.15-0.063-0.166-0.144c-0.02-0.099,0.044-0.195,0.141-0.216        l148.512-30.719L457.634,72.724c-0.02-0.099,0.044-0.195,0.141-0.215c0.112-0.017,0.197,0.044,0.215,0.141l35.657,172.383        c0.02,0.099-0.044,0.195-0.141,0.215l-148.688,30.756C344.799,276.007,344.783,276.008,344.768,276.007z"/>
					</g>
				</g>
				<g>
					<g>
						<path style="fill:#512651;" d="M345.077,277.5c-0.08-0.005-0.149-0.063-0.166-0.145c-0.02-0.099,0.044-0.195,0.141-0.215        l149.721-30.97L458.856,72.533c-0.02-0.099,0.044-0.195,0.141-0.215c0.113-0.019,0.195,0.044,0.215,0.141l35.954,173.815        c0.02,0.099-0.044,0.195-0.141,0.215l-149.9,31.008C345.108,277.5,345.092,277.501,345.077,277.5z"/>
					</g>
				</g>
				<g>
					<g>
						<path style="fill:#512651;" d="M344.701,279.344c-0.08-0.005-0.149-0.063-0.166-0.145c-0.02-0.099,0.044-0.195,0.141-0.215        l152.385-31.52L460.782,72.073c-0.02-0.099,0.044-0.195,0.141-0.215c0.111-0.019,0.195,0.044,0.216,0.141l36.316,175.57        c0.008,0.047,0,0.096-0.027,0.136c-0.027,0.04-0.067,0.069-0.114,0.079L344.751,279.34        C344.732,279.344,344.717,279.345,344.701,279.344z"/>
					</g>
				</g>
				<g>
					<g>
						<path style="fill:#512651;" d="M345.586,281.182c-0.08-0.005-0.149-0.063-0.166-0.144c-0.02-0.099,0.044-0.195,0.141-0.216        l153.355-31.72l-36.692-177.39c-0.02-0.099,0.044-0.195,0.141-0.215c0.115-0.021,0.195,0.044,0.216,0.141l36.729,177.568        c0.008,0.047,0,0.096-0.027,0.136c-0.027,0.04-0.067,0.069-0.114,0.079l-153.533,31.758        C345.617,281.181,345.601,281.183,345.586,281.182z"/>
					</g>
				</g>
			</g>
			<g>
				<g>
					<path style="fill:#512651;" d="M313.571,109.715c-5.805,1.201-9.551,6.901-8.351,12.706c0.809,3.912,3.664,6.883,7.211,8.033       l-0.285-1.38c-2.837-1.164-5.062-3.671-5.73-6.9c-1.062-5.136,2.255-10.184,7.405-11.249       c5.136-1.062,10.184,2.255,11.246,7.391c0.044,0.213,0.085,0.413,0.098,0.618c0.207-0.073,0.415-0.145,0.617-0.246       c0.19-0.084,0.378-0.182,0.548-0.291c-0.009-0.116-0.03-0.216-0.053-0.33C325.077,112.261,319.376,108.514,313.571,109.715z"/>
				</g>
			</g>
			<g>
				<g>
					<path style="fill:#512651;" d="M319.582,138.775c-5.805,1.201-9.551,6.901-8.35,12.706c0.809,3.912,3.664,6.883,7.21,8.033       l-0.286-1.38c-2.837-1.164-5.062-3.671-5.73-6.9c-1.062-5.136,2.255-10.184,7.405-11.249       c5.136-1.062,10.184,2.255,11.247,7.391c0.044,0.214,0.085,0.413,0.098,0.618c0.208-0.072,0.415-0.145,0.617-0.246       c0.191-0.084,0.378-0.182,0.548-0.291c-0.009-0.116-0.03-0.216-0.053-0.33C331.088,141.321,325.387,137.574,319.582,138.775z"/>
				</g>
			</g>
			<g>
				<g>
					<path style="fill:#512651;" d="M325.593,167.835c-5.805,1.201-9.551,6.901-8.35,12.706c0.809,3.912,3.664,6.883,7.21,8.033       l-0.285-1.38c-2.837-1.164-5.062-3.671-5.73-6.9c-1.062-5.136,2.255-10.184,7.405-11.249       c5.136-1.062,10.184,2.255,11.246,7.391c0.044,0.213,0.085,0.412,0.098,0.618c0.208-0.072,0.415-0.145,0.617-0.246       c0.191-0.084,0.378-0.182,0.548-0.291c-0.009-0.116-0.03-0.216-0.053-0.33C337.099,170.38,331.398,166.634,325.593,167.835z"/>
				</g>
			</g>
			<g>
				<g>
					<path style="fill:#512651;" d="M331.604,196.895c-5.805,1.201-9.551,6.901-8.35,12.706c0.809,3.912,3.664,6.882,7.21,8.033       l-0.285-1.38c-2.837-1.164-5.062-3.671-5.73-6.9c-1.062-5.136,2.255-10.184,7.405-11.249       c5.136-1.062,10.184,2.255,11.247,7.391c0.044,0.214,0.085,0.412,0.098,0.618c0.208-0.072,0.415-0.145,0.617-0.246       c0.19-0.084,0.378-0.182,0.548-0.291c-0.009-0.116-0.03-0.216-0.053-0.33C343.11,199.44,337.409,195.694,331.604,196.895z"/>
				</g>
			</g>
			<g>
				<g>
					<path style="fill:#512651;" d="M337.615,225.954c-5.804,1.201-9.551,6.901-8.35,12.706c0.81,3.913,3.664,6.883,7.21,8.033       l-0.285-1.38c-2.837-1.164-5.062-3.671-5.73-6.901c-1.062-5.136,2.255-10.184,7.405-11.249       c5.136-1.062,10.184,2.255,11.246,7.391c0.044,0.213,0.085,0.413,0.098,0.618c0.208-0.072,0.415-0.145,0.617-0.246       c0.191-0.084,0.378-0.182,0.548-0.291c-0.009-0.117-0.03-0.216-0.053-0.33C349.121,228.5,343.42,224.754,337.615,225.954z"/>
				</g>
			</g>
			<g>
				<g>
					<path style="fill:#512651;" d="M343.15,252.714c-5.805,1.201-9.551,6.901-8.35,12.706c0.809,3.913,3.664,6.883,7.21,8.033       l-0.285-1.38c-2.837-1.164-5.062-3.671-5.73-6.9c-1.063-5.136,2.255-10.184,7.405-11.249       c5.136-1.062,10.184,2.255,11.247,7.391c0.044,0.214,0.085,0.413,0.098,0.618c0.208-0.072,0.415-0.145,0.616-0.246       c0.19-0.084,0.378-0.182,0.548-0.291c-0.009-0.117-0.03-0.216-0.054-0.33C354.656,255.259,348.955,251.513,343.15,252.714z"/>
				</g>
			</g>
			<g>
				<g>
					<polygon style="fill:#FFE9DC;" points="347.256,111.043 355.212,154.994 451.836,136.168 441.28,90.495      "/>
				</g>
			</g>
		</g>
		<g>
			<g>
				<g>
					<path style="fill:#FFB289;" d="M222.598,102.422l-1.608,0.412l-16.049,4.147l-1.608,0.413l-16.035,4.157l-1.617,0.426       l-16.049,4.147l-1.607,0.413l-16.058,4.161l-1.607,0.412l-16.035,4.157l-1.608,0.412l-16.049,4.148l-1.617,0.426l-16.049,4.147       l-1.594,0.422l-16.049,4.147l-1.608,0.413l-16.058,4.161l-1.608,0.413l-12.811,3.317l59.486,147.357       c-0.786,0.138,139.559-198.876,139.559-198.876L222.598,102.422z M118.111,236.556l-30.873-76.489l103.317-26.746       C190.554,133.32,117.704,236.615,118.111,236.556z"/>
				</g>
			</g>
			<g>
				<g>
					<g>
						<g>
							<path style="fill:#512651;" d="M63.695,143.546l2.199,11.053c0.05,0.218-0.016,0.455-0.139,0.632         c-0.114,0.163-0.293,0.302-0.501,0.338c-0.462,0.081-0.893-0.201-0.984-0.65l-2.183-10.96L63.695,143.546z"/>
						</g>
					</g>
				</g>
				<g>
					<g>
						<g>
							<path style="fill:#512651;" d="M81.36,138.972l2.177,10.997c0.041,0.231-0.002,0.465-0.126,0.642         c-0.114,0.163-0.306,0.292-0.524,0.342c-0.449,0.09-0.883-0.215-0.974-0.663l-2.162-10.904L81.36,138.972z"/>
						</g>
					</g>
				</g>
				<g>
					<g>
						<g>
							<path style="fill:#512651;" d="M99.003,134.402l2.179,10.937c0.054,0.241-0.002,0.465-0.126,0.641         c-0.124,0.177-0.306,0.292-0.524,0.342c-0.449,0.09-0.893-0.201-0.974-0.663l-2.149-10.835L99.003,134.402z"/>
						</g>
					</g>
				</g>
				<g>
					<g>
						<g>
							<path style="fill:#512651;" d="M116.669,129.829l2.158,10.881c0.054,0.241-0.002,0.465-0.136,0.655         c-0.114,0.163-0.297,0.278-0.514,0.328c-0.449,0.09-0.893-0.201-0.983-0.65l-2.141-10.788L116.669,129.829z"/>
						</g>
					</g>
				</g>
				<g>
					<g>
						<g>
							<path style="fill:#512651;" d="M134.325,125.269l2.149,10.835c0.05,0.217-0.015,0.455-0.139,0.632         c-0.114,0.163-0.293,0.301-0.514,0.328c-0.449,0.091-0.879-0.191-0.97-0.64l-2.133-10.743L134.325,125.269z"/>
						</g>
					</g>
				</g>
				<g>
					<g>
						<g>
							<path style="fill:#512651;" d="M151.967,120.699l2.151,10.775c0.041,0.231-0.015,0.455-0.139,0.632         c-0.114,0.163-0.293,0.302-0.524,0.342c-0.439,0.077-0.87-0.205-0.96-0.654l-2.134-10.683L151.967,120.699z"/>
						</g>
					</g>
				</g>
				<g>
					<g>
						<g>
							<path style="fill:#512651;" d="M169.633,116.125l2.129,10.719c0.04,0.231-0.015,0.456-0.139,0.632         c-0.124,0.177-0.293,0.301-0.51,0.351c-0.463,0.081-0.893-0.201-0.974-0.663l-2.113-10.627L169.633,116.125z"/>
						</g>
					</g>
				</g>
				<g>
					<g>
						<g>
							<path style="fill:#512651;" d="M187.299,111.551l2.107,10.664c0.041,0.231-0.002,0.465-0.126,0.641         c-0.124,0.177-0.306,0.292-0.524,0.342c-0.449,0.091-0.893-0.201-0.983-0.65l-2.091-10.571L187.299,111.551z"/>
						</g>
					</g>
				</g>
				<g>
					<g>
						<g>
							<path style="fill:#512651;" d="M204.942,106.982l2.099,10.617c0.064,0.227-0.002,0.465-0.126,0.642         c-0.114,0.163-0.306,0.292-0.514,0.328c-0.449,0.091-0.893-0.201-0.983-0.65l-2.083-10.525L204.942,106.982z"/>
						</g>
					</g>
				</g>
				<g>
					<g>
						<g>
							<path style="fill:#512651;" d="M222.598,102.422l2.101,10.557c0.04,0.231-0.015,0.455-0.139,0.632         c-0.114,0.163-0.306,0.292-0.514,0.328c-0.449,0.09-0.893-0.201-0.984-0.65l-2.071-10.456L222.598,102.422z"/>
						</g>
					</g>
				</g>
			</g>
		</g>
		<g>
			<g>
				<g>
					<g>
						<g>
							<path style="fill:#512651;" d="M179.248,128.642c-24.579,13.065-42.884,37.38-48.644,64.613         c-3.726,17.618-2.509,36.38-9.288,53.063c-7.18,17.671-22.469,30.841-31.182,47.809c-7.283,14.184-9.637,30.94-6,46.464         c3.637,15.524,13.352,29.64,26.852,38.124c7.257,4.561,15.443,7.478,23.766,9.524c34.111,8.385,70.823,2.239,102.482-12.978         c9.92-4.768,19.673-10.618,26.375-19.349c5.551-7.232,8.678-16.015,11.121-24.797c11.876-42.682,9.411-88.135,1.946-131.805         c-2.052-12.005-4.475-23.943-7.092-35.836c-2.409-10.947-3.559-24.455-8.135-34.693         c-6.196-13.864-37.09-11.967-49.467-10.411C200.575,119.804,189.407,123.242,179.248,128.642z"/>
						</g>
					</g>
					<g>
						<g>
							<path style="fill:#512651;" d="M252.126,146.424c1.555-6.147,3.109-12.295,4.664-18.443c0.494-1.954,1.067-4.039,2.605-5.34         c1.199-1.015,2.806-1.389,4.36-1.627c12.036-1.842,24.082,2.549,35.311,7.259c11.239,4.714,22.524,9.965,31.441,18.272         c12.393,11.544,19.105,27.996,22.939,44.493c2.49,10.712,4.549,22.732,13.286,29.413c4.607,3.523,10.415,4.967,15.919,6.797         c11.636,3.869,23.115,10.33,29.225,20.961c3.949,6.871,5.333,14.967,5.333,22.892c-0.003,19.002-7.922,37.88-21.477,51.197         c-5.33,5.236-12.175,9.307-19.099,12.116c-28.207,11.443-58.467,17.804-88.895,18.687         c-6.301,0.183-12.816,0.092-18.593-2.432c-6.895-3.012-11.961-9.197-15.418-15.879c-5.45-10.536-7.456-22.505-8.465-34.324         c-1.707-19.981-0.776-40.082,0.155-60.114C246.881,208.87,244.4,176.978,252.126,146.424z"/>
						</g>
					</g>
				</g>
				<g>
					<g>
						<path style="fill:#FFA9DD;" d="M180.139,278.564c0,0-105.133,33.192-124.869,76.672c-19.736,43.48-5.109,95.044,65.341,93.878        c0,0,201.296-0.964,295.717-4.039c24.754-0.806,41.018-8.487,45.738-10.067c18.139-6.073,32.809-34.475,7.115-68.159        c-25.694-33.683-97.528-82.044-150.656-96.601L180.139,278.564z"/>
					</g>
				</g>
				<g>
					<g>
						<path style="fill:#FF8C9D;" d="M207.05,170.418c0,0-50.591,26.323-42.958,69.283c7.634,42.96,16.693,81.944,63.866,80.986        c47.172-0.958,93.443-23.495,94.61-67.619c1.167-44.124-20.073-75.327-42.636-85.4        C253.944,156.065,207.05,170.418,207.05,170.418z"/>
					</g>
				</g>
				<g>
					<g>
						<g>
							<g>
								<g>
									<path style="fill:#512651;" d="M270.204,258.73c0.908,4.009,4.894,6.524,8.904,5.616c4.01-0.908,6.524-4.894,5.616-8.904           c-0.908-4.009-4.894-6.524-8.904-5.616C271.811,250.734,269.296,254.721,270.204,258.73z"/>
								</g>
							</g>
							<g>
								<g>
									<path style="fill:#512651;" d="M197.991,275.413c0.908,4.009,4.894,6.524,8.904,5.616c4.01-0.908,6.524-4.894,5.616-8.904           c-0.908-4.009-4.894-6.524-8.904-5.616C199.598,267.417,197.083,271.404,197.991,275.413z"/>
								</g>
							</g>
							<g>
								<g>
									<g>
										<path style="fill:#512651;" d="M236.092,285.525c-2.408-0.159-4.787-1.353-6.153-3.276            c-1.488-2.096-1.19-4.354-0.901-6.539c0.221-1.665,0.43-3.24-0.125-4.715c-0.123-0.329,0.044-0.694,0.37-0.817            c0.326-0.116,0.693,0.041,0.816,0.37c0.666,1.775,0.427,3.581,0.196,5.329c-0.27,2.031-0.523,3.95,0.675,5.639            c1.631,2.29,5.132,3.373,7.817,2.396c0.324-0.126,0.693,0.048,0.811,0.378c0.121,0.328-0.05,0.693-0.378,0.811            C238.23,285.464,237.158,285.596,236.092,285.525z"/>
									</g>
								</g>
								<g>
									<g>
										<path style="fill:#512651;" d="M245.225,283.152c-0.25-0.016-0.477-0.183-0.561-0.435            c-0.378-1.149,0.064-2.485,1.055-3.181c0.989-0.689,2.395-0.66,3.349,0.09c0.275,0.216,0.324,0.616,0.108,0.89            c-0.22,0.275-0.619,0.317-0.89,0.108c-0.503-0.396-1.309-0.42-1.839-0.05c-0.534,0.376-0.784,1.125-0.578,1.746            c0.109,0.332-0.072,0.689-0.404,0.801C245.385,283.147,245.305,283.157,245.225,283.152z"/>
									</g>
								</g>
							</g>
						</g>
						<g>
							<g>
								<path style="fill:#512651;" d="M199.066,244.018c-3.858,0.511-7.49,2.557-9.928,5.591c-0.654,0.814-1.243,1.751-1.296,2.793          c-0.053,1.042,0.605,2.182,1.637,2.342c0.576,0.089,1.15-0.127,1.689-0.348c2.769-1.136,5.441-2.509,7.978-4.097          c1.142-0.715,2.327-1.562,2.767-2.835c0.441-1.274-0.32-3.013-1.667-3.042"/>
							</g>
						</g>
						<g>
							<g>
								<path style="fill:#512651;" d="M274.18,226.927c-3.882-0.267-7.849,1.014-10.842,3.502          c-0.803,0.668-1.567,1.468-1.827,2.479c-0.26,1.011,0.158,2.258,1.137,2.62c0.547,0.202,1.153,0.105,1.725-0.005          c2.94-0.562,5.832-1.375,8.634-2.427c1.262-0.473,2.591-1.067,3.276-2.227c0.686-1.16,0.287-3.016-1.028-3.313"/>
							</g>
						</g>
					</g>
					<g>
						<g>
							<path style="fill:#512651;" d="M241.749,292.403c-0.653-0.043-1.301-0.142-1.934-0.294c-0.339-0.083-0.548-0.423-0.466-0.765         c0.083-0.339,0.408-0.547,0.765-0.466c2.718,0.651,5.749,0.161,8.305-1.367c2.68-1.603,4.81-3.956,5.847-6.455         c0.135-0.322,0.499-0.483,0.828-0.341c0.322,0.132,0.476,0.503,0.341,0.828c-1.135,2.744-3.456,5.316-6.367,7.056         C246.823,291.944,244.239,292.567,241.749,292.403z"/>
						</g>
					</g>
				</g>
				<g>
					<g>
						<path style="fill:#FF8C9D;" d="M335.36,203.087c5.22,3.099,8.063,9.222,8.658,15.263c0.77,7.822-1.997,16.107-7.926,21.266        c-2.879,2.505-6.595,4.269-10.404,4.042c-4.339-0.258-8.225-3.089-10.666-6.687c-4.408-6.497-7.883-19.488-3.516-26.655        C316.193,202.626,327.364,198.34,335.36,203.087z"/>
					</g>
				</g>
				<g>
					<g>
						<path style="fill:#512651;" d="M322.682,224.417c0.013-0.006,0.026-0.01,0.038-0.016c-0.46-13.498-2.226-26.714-7.24-39.254        c-5.014-12.54-13.599-23.988-25.407-30.542c-9.266-5.143-22.685-5.029-33.719-1.536c0.266-4.361-1.38-8.96-4.534-11.882        c-4.387-4.064-10.563-5.794-16.542-5.76c-5.98,0.034-11.833,1.679-17.482,3.638c-17.835,6.184-34.805,15.895-47.157,30.17        c-12.352,14.274-19.679,33.459-17.297,52.185c0.612,4.807,2.32,10.144,6.721,12.171c4.18,1.925,9.085,0.076,13.108-2.157        c18.512-10.278,31.568-28.618,34.914-49.526c1.735,4.448,5.55,8.501,10.315,8.795c3.061,0.188,5.993-1.173,8.664-2.681        c8.361-4.718,15.646-11.272,21.36-18.985c1.411,6.53,4.602,12.685,9.277,17.464c7.581,7.751,18.855,11.718,29.619,10.422        c-1.107,9.142,4.18,17.23,11.548,22.755c3.414,2.56,7.208,4.705,11.35,5.73c1.927,0.477,3.936,0.683,5.921,0.593        c2.07,2.559,4.141,5.117,6.211,7.676C322.91,230.624,322.927,227.517,322.682,224.417z"/>
					</g>
				</g>
				<g>
					<g>
						<g>
							<g>
								<path style="fill:#F7607D;" d="M317.883,321.347c0,0,4.729-10.64,14.094-4.665c10.314,6.58,2.501,15.253,2.501,15.253          L317.883,321.347z"/>
							</g>
						</g>
						<g>
							<g>
								<polygon style="fill:#FFB289;" points="320.719,333.932 327.537,342.322 275.647,420.01 275.068,420.876 261.158,424.293           260.282,409.194 260.612,408.698 311.035,331.794         "/>
							</g>
						</g>
						<g>
							<g>
								<g>
									<path style="fill:#512651;" d="M266.171,406.391c-0.031-0.002-0.061-0.013-0.089-0.03c-0.081-0.057-0.102-0.167-0.048-0.25           l49.251-73.011c0.054-0.081,0.167-0.1,0.25-0.048c0.081,0.056,0.103,0.167,0.048,0.25l-49.251,73.011           C266.295,406.366,266.233,406.395,266.171,406.391z"/>
								</g>
							</g>
							<g>
								<g>
									<path style="fill:#512651;" d="M275.181,412.14c-0.031-0.002-0.059-0.013-0.087-0.03c-0.083-0.054-0.104-0.165-0.05-0.248           l48.491-73.215c0.054-0.085,0.163-0.105,0.248-0.05c0.083,0.054,0.105,0.165,0.05,0.248l-48.49,73.215           C275.305,412.115,275.243,412.145,275.181,412.14z"/>
								</g>
							</g>
						</g>
						<g>
							<g>
								<g>
									<polygon style="fill:#F7607D;" points="275.647,420.01 275.068,420.876 259.933,433.048 250.272,440.819 254.081,428.785            260.282,409.194 260.612,408.698 266.184,406.211 266.814,416.734 275.312,412.036          "/>
								</g>
							</g>
							<g>
								<g>
									<path style="fill:#512651;" d="M259.933,433.048l-9.661,7.771l3.809-12.033c2.325-0.633,4.571-0.038,5.459,1.52           c0.296,0.519,0.502,1.158,0.487,1.92C260.027,432.491,259.99,432.775,259.933,433.048z"/>
								</g>
							</g>
						</g>
						<g>
							<g>
								<g>
									<polygon style="fill:#7182FF;" points="334.478,331.934 332.145,335.428 331.885,335.814 330.429,337.994 330.17,338.38            327.537,342.322 311.035,331.794 313.631,327.828 313.89,327.442 315.328,325.25 315.577,324.859 317.883,321.347                     "/>
								</g>
							</g>
							<g>
								<g>
									<polygon style="fill:#FFE9DC;" points="332.145,335.428 331.885,335.814 315.328,325.25 315.577,324.859          "/>
								</g>
							</g>
							<g>
								<g>
									<polygon style="fill:#FFE9DC;" points="330.429,337.994 330.17,338.38 313.631,327.828 313.89,327.442          "/>
								</g>
							</g>
						</g>
					</g>
					<g>
						<g>
							<path style="fill:#512651;" d="M323.449,383.653c-0.257-0.017-0.488-0.19-0.566-0.453c-0.1-0.333,0.092-0.688,0.428-0.788         l89.386-26.67c0.325-0.103,0.688,0.09,0.788,0.428c0.1,0.334-0.092,0.688-0.428,0.788l-89.386,26.67         C323.599,383.65,323.522,383.658,323.449,383.653z"/>
						</g>
					</g>
					<g>
						<g>
							<path style="fill:#FF8C9D;" d="M339.217,385.607c0,0-16.972-18.956-28.605-18.948c-11.632,0.008-21.029-4.49-28.822,1.975         c-7.794,6.465-29.469,35.277-23.573,39.932c5.897,4.654,34.445-22.542,34.445-22.542s-25.485,27.786-17.192,37.251         c0,0,3.22,4.09,9.138,2.541c0,0,5.179,9.647,15.395,7.607c0,0,12.926,9.771,25.042,2.428l36.675,2.421         C361.719,438.273,379.433,410.75,339.217,385.607z"/>
						</g>
					</g>
					<g>
						<g>
							<path style="fill:#512651;" d="M359.944,446.161c-1.11-0.073-1.359-0.045-1.562-0.368c-0.107-0.17-0.129-0.382-0.054-0.569         l2.801-7.183c0.126-0.326,0.486-0.484,0.821-0.36c0.325,0.126,0.488,0.495,0.359,0.82l-2.485,6.378         c9.889,0.622,101.6,5.579,117.164-22.919c0.167-0.307,0.548-0.422,0.86-0.253c0.307,0.167,0.42,0.553,0.252,0.86         C462.073,451.918,371.492,446.924,359.944,446.161z"/>
						</g>
					</g>
				</g>
				<g>
					<g>
						<g>
							<path style="fill:#512651;" d="M170.112,374.695c-0.031-0.002-0.062-0.006-0.092-0.015L88.605,356.9         c-0.342-0.074-0.56-0.411-0.484-0.753c0.073-0.342,0.419-0.582,0.753-0.484l81.415,17.779         c0.342,0.074,0.56,0.411,0.484,0.753C170.705,374.507,170.42,374.715,170.112,374.695z"/>
						</g>
					</g>
					<g>
						<g>
							<g>
								<path style="fill:#FF8C9D;" d="M170.153,374.062c0,0-67.496,12.218-29.887,65.105c0,0,15.683,14.993,34.931,11.223          c0,0,7.954,2.851,16.8-7.809c0,0,15.03,1.379,13.5-16.557l-5.905-16.287c0,0,11.084,25.934,17.851,23.279          c6.766-2.655-1.623-40.043-7.443-45.856C204.18,381.348,181.09,372.845,170.153,374.062z"/>
							</g>
						</g>
						<g>
							<g>
								<g>
									<path style="fill:#512651;" d="M190.399,443.306c-0.281-0.019-0.523-0.224-0.58-0.512           c-0.066-0.343,0.156-0.677,0.501-0.743c9.81-1.924,14.826-6.367,14.906-13.204c0.071-5.997-2.576-11.653-5.136-17.125           c-0.581-1.239-1.154-2.465-1.688-3.68c-2.124-4.827-4.356-9.673-6.635-14.403c-0.15-0.317-0.019-0.695,0.296-0.848           c0.317-0.151,0.693-0.019,0.848,0.296c2.283,4.747,4.522,9.606,6.65,14.444c0.53,1.205,1.102,2.422,1.677,3.655           c2.62,5.598,5.33,11.39,5.256,17.676c-0.087,7.522-5.446,12.378-15.93,14.434           C190.508,443.304,190.452,443.309,190.399,443.306z"/>
								</g>
							</g>
							<g>
								<g>
									<path style="fill:#512651;" d="M176.345,451.149c-0.771-0.051-1.237-0.131-1.259-0.134           c-0.167-0.031-0.317-0.128-0.412-0.267l-20.145-29.634c-0.196-0.291-0.122-0.684,0.167-0.881           c0.289-0.195,0.686-0.124,0.881,0.167l19.989,29.404c1.561,0.21,9.912,0.921,13.837-5.927           c3.605-6.295-9.811-26.995-15.283-34.441c-0.208-0.283-0.149-0.68,0.134-0.886c0.283-0.211,0.677-0.151,0.885,0.134           c0.825,1.12,20.115,27.528,15.366,35.821C186.718,451.111,179.301,451.344,176.345,451.149z"/>
								</g>
							</g>
							<g>
								<g>
									<path style="fill:#512651;" d="M167.201,451.563c-16.242-1.072-28.825-14.431-28.971-14.59           c-0.239-0.256-0.224-0.658,0.035-0.894c0.256-0.239,0.655-0.224,0.894,0.032c0.164,0.18,16.645,17.654,35.91,13.659           c0.343-0.068,0.678,0.149,0.748,0.492c0.071,0.343-0.149,0.677-0.492,0.748           C172.547,451.588,169.826,451.736,167.201,451.563z"/>
								</g>
							</g>
						</g>
					</g>
				</g>
			</g>
			<g>
				<g>
					<path style="fill:#512651;" d="M295.782,434.735c-6.215-0.41-10.508-6.651-11.506-8.243c-3.743,0.391-6.086-0.406-7.404-1.165       c-1.177-0.672-2.037-1.798-2.361-3.09c-4.31-17.133,16.831-35.901,17.733-36.691c0.264-0.232,0.663-0.206,0.895,0.059       c0.23,0.264,0.203,0.663-0.059,0.895c-0.215,0.188-21.46,19.047-17.338,35.427c0.239,0.959,0.882,1.798,1.759,2.301       c1.198,0.689,3.393,1.405,7.028,0.96c0.254-0.041,0.506,0.091,0.631,0.317c0.062,0.107,6.077,10.656,14.614,7.327       c8.891-3.459,20.803-18.129,20.922-18.277c0.223-0.274,0.619-0.315,0.892-0.097c0.272,0.22,0.315,0.619,0.094,0.891       c-0.494,0.615-12.247,15.082-21.448,18.666C298.663,434.625,297.175,434.825,295.782,434.735z"/>
				</g>
			</g>
			<g>
				<g>
					<path style="fill:#512651;" d="M284.638,426.325c-0.162-0.011-0.319-0.083-0.435-0.216c-0.23-0.262-0.205-0.663,0.059-0.895       c9.214-8.094,18.448-16.138,27.436-23.907c0.269-0.229,0.667-0.196,0.895,0.063c0.229,0.267,0.201,0.667-0.064,0.895       c-8.988,7.767-18.217,15.809-27.431,23.903C284.966,426.284,284.8,426.336,284.638,426.325z"/>
				</g>
			</g>
			<g>
				<g>
					<path style="fill:#512651;" d="M312.195,439.418c-4.452-0.294-8.719-2.075-12.06-5.045c-0.263-0.231-0.285-0.633-0.052-0.893       c0.231-0.265,0.631-0.288,0.893-0.052c3.131,2.781,7.13,4.45,11.303,4.726c0.144,0.009,0.286,0.017,0.427,0.024       c6.185,0.263,12.828-2.508,19.748-8.238c0.271-0.227,0.671-0.187,0.891,0.083c0.225,0.268,0.187,0.669-0.083,0.891       c-7.168,5.938-14.102,8.806-20.608,8.528C312.5,439.436,312.347,439.428,312.195,439.418z"/>
				</g>
			</g>
		</g>
		<g>
			<g>
				<g>
					<g>
						<path style="fill:#FFE9DC;" d="M28.253,328.857l114.016,7.525c7.597,0.501,14.162-5.251,14.664-12.848l3.473-52.618        c0.502-7.597-5.251-14.163-12.848-14.664l-114.016-7.525c-7.597-0.501-14.163,5.251-14.664,12.848l-3.472,52.618        C14.903,321.791,20.656,328.356,28.253,328.857z"/>
					</g>
				</g>
				<g>
					<g>
						<polygon style="fill:#FFE9DC;" points="121.055,328.711 136.263,351.664 103.158,330.665       "/>
					</g>
				</g>
			</g>
			<g>
				<g>
					<path style="fill:#512651;" d="M64.352,303.693c0.03,0.175,0.064,0.349,0.047,0.608c-0.066,0.994-0.894,1.718-1.844,1.656       l-2.762-0.182c-0.906-0.06-1.643-0.716-1.84-1.681l-1.214-5.239l-7.726-0.51l-1.849,5.037       c-0.364,0.928-1.181,1.481-2.087,1.422l-2.676-0.177c-0.95-0.063-1.674-0.889-1.608-1.884c0.017-0.259,0.07-0.427,0.126-0.597       l10.007-26.214c0.319-0.889,1.178-1.439,2.084-1.38l2.979,0.197c0.906,0.06,1.643,0.716,1.843,1.639L64.352,303.693z        M53.769,285.396l-2.487,6.814l4.013,0.265L53.769,285.396z"/>
				</g>
				<g>
					<path style="fill:#512651;" d="M90.763,307.819l-7.899-0.521c-1.424-0.094-2.379-1.369-2.288-2.751l1.666-25.245       c0.046-0.691,0.345-1.321,0.853-1.766c0.466-0.488,1.13-0.704,1.776-0.661l6.733,0.444c4.875,0.322,8.361,4.669,8.045,9.46       c-0.122,1.854-0.832,3.411-2.136,4.755c2.358,1.717,3.219,4.417,3.031,7.265C100.207,303.935,96.028,308.166,90.763,307.819z        M90.847,283.552l-2.633-0.174l-0.353,5.351l2.633,0.174c1.38,0.091,2.842-1.025,2.936-2.449       C93.529,284.944,92.358,283.652,90.847,283.552z M87.462,294.772l-0.427,6.474l3.927,0.259       c1.987,0.131,3.201-1.219,3.327-3.119c0.119-1.812-1.086-3.235-2.9-3.355L87.462,294.772z"/>
				</g>
				<g>
					<path style="fill:#512651;" d="M135.588,304.84c0.364,0.413,0.506,0.901,0.472,1.417c-0.029,0.432-0.185,0.813-0.467,1.139       l-0.045,0.042c-2.238,2.366-5.349,3.549-8.673,3.329c-6.171-0.407-10.338-6.23-9.945-12.186l0.564-8.545       c0.396-6,5.329-11.136,11.457-10.731c3.411,0.225,6.299,1.759,8.119,4.395c0.281,0.363,0.381,0.804,0.35,1.28       c-0.028,0.43-0.188,0.897-0.562,1.306l-1.853,1.784c-0.413,0.362-0.812,0.509-1.244,0.481       c-0.345-0.023-0.814-0.141-1.253-0.732c-0.954-1.278-2.253-1.969-3.936-2.08c-2.374-0.157-4.599,2.037-4.776,4.712       l-0.564,8.545c-0.179,2.718,1.738,5.184,4.112,5.341c1.683,0.111,3.061-0.403,4.175-1.544c0.513-0.529,0.993-0.584,1.294-0.564       c0.346,0.023,0.772,0.138,1.215,0.643L135.588,304.84z"/>
				</g>
			</g>
		</g>
		<g>
			<g>
				<g>
					<polygon style="fill:#FFE9DC;" points="252.134,80.583 242.925,60.97 259.85,73.989 276.074,60.599 268.768,79.218        282.795,92.539 263.807,88.863 264.378,109.178 254.928,90.866 237.619,96.617      "/>
				</g>
			</g>
			<g>
				<g>
					<polygon style="fill:#FFE9DC;" points="413.81,267.1 426.654,249.65 423.286,270.737 442.793,278.608 422.944,281.069        417.927,299.752 412.1,281.31 394.518,291.502 406.104,274.462 392.793,261.992      "/>
				</g>
			</g>
			<g>
				<g>
					<polygon style="fill:#FFE9DC;" points="95.778,181.061 94.321,159.443 105.362,177.72 125.341,171.137 111.772,185.831        120.002,203.337 103.646,193.016 96.8,212.15 94.646,191.657 76.43,190.729      "/>
				</g>
			</g>
		</g>
	</g>
</g>















</svg>
