<?xml version="1.0" encoding="UTF-8"?>
<!-- Generator: Adobe Illustrator 25.2.1, SVG Export Plug-In . SVG Version: 6.00 Build 0)  -->
<svg xmlns="http://www.w3.org/2000/svg" xmlns:xlink="http://www.w3.org/1999/xlink" version="1.1" id="Capa_1" x="0px" y="0px" viewBox="0 0 512 512" style="enable-background:new 0 0 512 512;" xml:space="preserve" width="512" height="512">
<g>
	<g>
		<path style="fill:#FFFFFF;" d="M511.621,264.045c-2.745-21.13-17.654-38.661-37.471-45.169    c-5.989-22.746-17.187-44.488-32.943-64.231l6.219,2.871c1.702,0.785,3.522,1.172,5.337,1.172c2.498,0,4.981-0.735,7.12-2.176    c3.691-2.488,5.814-6.725,5.6-11.171l-2.889-59.971c-0.218-4.531-2.831-8.604-6.859-10.692c-1.843-0.957-3.853-1.43-5.862-1.43    c-2.377,0-4.751,0.666-6.827,1.985l-52.687,33.464c-20.792-13.641-43.868-24.04-67.41-30.141c-0.939-0.245-1.88-0.481-2.819-0.711    c-3.132-0.767-6.307-1.471-9.437-2.094c-2.365-0.472-4.823-0.905-7.601-1.34l-44.912-25.505c-1.949-1.107-4.11-1.649-6.264-1.649    c-2.811,0-5.611,0.922-7.912,2.724c-13.143,10.286-26.288,20.573-39.452,30.859c-12.671,3.56-25.157,8.156-37.187,13.662    l-10.992-8.226l-7.149-19.068c-1.633-4.359-5.516-7.48-10.123-8.138c-0.603-0.086-1.204-0.127-1.803-0.127    c-3.977,0-7.771,1.866-10.196,5.106l-12.196,16.304l-19.069,7.145c-4.359,1.634-7.48,5.515-8.138,10.124    c-0.659,4.609,1.25,9.209,4.977,11.998l16.304,12.2l2.829,7.544c-2.234,1.859-4.392,3.727-6.461,5.59    c-3.882,3.498-7.717,7.219-11.462,11.124L65.961,131.44c-1.88-0.986-3.903-1.456-5.903-1.456c-4.168,0-8.227,2.048-10.656,5.751    c-0.796,1.214-1.544,2.49-2.282,3.9c-10.467,19.977-7.63,43.606,6.139,60.331c-7.949,6.722-15.713,13.566-23.575,20.783    c-6.979,6.408-9.97,17.414-9.143,33.646c0.841,16.487,3.886,26.799,9.023,30.63c1.268,0.95,2.84,2.09,4.747,3.442    c0.18,4.633,0.568,9.198,1.163,13.653L5.908,320.897c-3.935,2.5-6.19,6.949-5.879,11.599c0.311,4.651,3.138,8.76,7.37,10.714    l26.688,12.317l-4.554,4.108c-3.404,1.657-6.042,4.75-7.07,8.645c-1.797,7.04,2.456,14.27,9.52,16.126l55.553,14.428    l13.027,45.596c1.072,3.748,3.801,6.801,7.408,8.282c1.196,0.491,29.717,12.033,65.691,12.033    c21.538,0,41.341-4.126,58.855-12.264c20.618-9.579,41.22-23.14,61.276-40.324c1.04-0.332,2.121-0.674,3.238-1.024    c0.075,1.049,0.28,2.095,0.62,3.119c1.467,4.417,5.229,7.682,9.81,8.513l20.035,3.634l14.909,13.87    c2.392,2.227,5.505,3.412,8.676,3.412c1.345,0,2.701-0.213,4.015-0.651c4.419-1.469,7.681-5.23,8.513-9.81l3.636-20.036    l2.752-2.959l1.955,10.721c0.802,4.41,3.988,8.117,8.185,9.689c0,0,0.933,0.348,2.529,0.794c3.59,1.042,11.054,2.789,20.719,2.789    c0.935,0,1.886-0.015,2.858-0.051c12.99-0.461,25.217-4.02,36.331-10.571c7.035-4.136,13.612-9.501,19.548-15.947    c0.029-0.031,0.056-0.061,0.085-0.092c0.284-0.307,0.572-0.645,0.804-0.945c2.332-3.02,3.188-6.926,2.33-10.644l-10.16-44.065    c7.447-5.741,13.748-13.649,18.791-23.596c2.516-4.962,1.519-10.982-2.46-14.869c-0.696-0.68-1.405-1.361-2.176-2.096    c3.124-7.99,5.503-16.183,7.097-24.46c0.137-0.72,0.272-1.448,0.4-2.18l24.075-3.127c6.494-0.844,11.288-6.473,11.089-13.017    C511.951,267.109,511.828,265.629,511.621,264.045z"/>
	</g>
	<g>
		<g>
			<path style="fill:#FF8C9D;" d="M49.519,249.646c-3.943,17.73-4.91,35.934-2.055,53.884c7.101,44.646,36.579,82.54,76.807,102.655     c28.247,14.123,60.177,18.152,91.3,13.916c32.294-4.396,62.343-17.795,93.635-26.106c26.809-7.12,55.348-7.718,81.28-18.143     c37.719-15.164,64.766-51.959,72.353-91.374c17.819-92.567-59.896-171.757-144.17-193.598c-0.883-0.229-1.767-0.452-2.652-0.669     c-2.95-0.722-5.915-1.381-8.893-1.974c-67.751-13.485-143.241,10.154-194.333,56.176     C82.933,171.308,58.503,209.248,49.519,249.646z"/>
		</g>
		<g>
			<g>
				<path style="fill:#BD6EEB;" d="M426.4,159.691v41.537L198.426,382.231c0,0-139.361-90.184-162.305-107.397      c-2.165-1.613-8.492-35.907,1.091-44.705c16.528-15.173,31.361-27.565,48.298-40.83c13.096-10.252,26.212-20.503,39.329-30.776      c28.123-21.989,56.245-43.999,84.368-66.009c13.881-10.846,27.741-21.692,41.6-32.538L426.4,159.691z"/>
			</g>
			<g>
				<polygon style="fill:#FFE9DC;" points="228.054,118.135 335.351,184.971 366.782,159.32 258.039,95.014     "/>
			</g>
			<g>
				<g>
					<polygon style="fill:#FFE9DC;" points="426.4,163.681 426.4,195.518 424.745,197.343 423.492,198.701 197.344,377.52        42.361,274.304 42.234,271.247 42.212,270.59 41.936,263.798 41.915,263.161 41.639,256.008 41.618,255.393 41.385,249.344        41.342,248.707 41.109,242.339 41.066,241.682 40.918,237.713 198.249,339.053      "/>
				</g>
				<g>
					<polygon style="fill:#FFB289;" points="426.4,169.539 426.4,170.239 198.43,345.014 198.277,344.876 41.109,242.339        41.066,241.682 198.426,344.324      "/>
				</g>
				<g>
					<polygon style="fill:#FFB289;" points="426.4,176.692 426.4,177.371 198.447,351.838 198.277,351.731 41.385,249.344        41.342,248.707 198.426,351.201      "/>
				</g>
				<g>
					<polygon style="fill:#FFB289;" points="426.4,183.208 426.4,183.887 198.447,358.354 198.277,358.247 41.639,256.008        41.618,255.393 198.426,357.696      "/>
				</g>
				<g>
					<polygon style="fill:#FFB289;" points="426.4,190.785 426.4,191.464 198.447,365.931 198.277,365.825 41.936,263.798        41.915,263.161 198.426,365.273      "/>
				</g>
				<g>
					<polygon style="fill:#FFB289;" points="426.4,195.369 426.4,195.518 424.745,197.343 197.726,373.529 197.556,373.423        42.234,271.247 42.212,270.59 197.704,372.871      "/>
				</g>
			</g>
			<g>
				<line style="fill:#BD6EEB;" x1="198.249" y1="338.511" x2="197.344" y2="377.52"/>
				<polygon style="fill:#FFB289;" points="197.515,377.523 197.172,377.516 198.078,338.507 198.421,338.515     "/>
			</g>
		</g>
		<g>
			<g>
				<g>
					<g>
						<path style="fill:#FFB289;" d="M405.527,197.941l0.074,0.296l46.246,200.592c-0.056,0.073-0.12,0.121-0.175,0.193        c-5.418,5.881-11.036,10.304-16.637,13.596c-10.817,6.375-21.522,8.509-30.328,8.822c-9.255,0.331-16.43-1.329-19.577-2.241        c-1.124-0.314-1.734-0.535-1.734-0.535l-36.489-200.156l0.418-1.292l12.362-37.465l6.749-20.491l16.238,16.061        L405.527,197.941z"/>
					</g>
					<g>
						<path style="fill:#F7607D;" d="M405.6,198.237l46.246,200.592c-0.056,0.073-0.12,0.121-0.175,0.193        c-1.739,0.002-3.541,0.212-5.128,0.349c-1.899,0.163-3.813,0.357-5.703,0.624c-0.417,0.034-0.849,0.101-1.257,0.159        c-6.167,0.835-12.251,2.071-18.253,3.707c-0.416,0.115-0.833,0.229-1.225,0.335c-7.21,2.019-14.257,4.599-21.069,7.714        c-0.392,0.186-0.783,0.373-1.175,0.559c-4.341,2.035-8.608,4.287-12.731,6.73c-1.124-0.314-1.734-0.535-1.734-0.535        l-36.489-200.156l0.418-1.292c3.786,0.508,7.641,0.591,11.463,0.338c0.417-0.034,0.833-0.069,1.25-0.103        c4.934-0.444,9.818-1.432,14.563-2.909c0.416-0.115,0.824-0.253,1.232-0.392c1.568-0.505,3.12-1.059,4.656-1.66        c3.559-1.422,7.044-3.06,10.409-4.898l0.024-0.008c0.383-0.21,0.767-0.421,1.151-0.631        C396.753,204.344,401.242,201.403,405.6,198.237z"/>
					</g>
					<g>
						<g>
							<path style="fill:#512651;" d="M360.037,217.449l38.998,194.46c-0.392,0.186-0.783,0.373-1.175,0.559l-39.073-194.917         C359.204,217.518,359.62,217.484,360.037,217.449z"/>
						</g>
						<g>
							<path style="fill:#512651;" d="M375.832,214.149l45.497,189.712c-0.416,0.115-0.833,0.229-1.225,0.335L374.6,214.541         C375.016,214.426,375.424,214.288,375.832,214.149z"/>
						</g>
						<g>
							<path style="fill:#512651;" d="M392.071,206.951l48.769,193.044c-0.417,0.034-0.849,0.101-1.257,0.159l-48.686-192.564         l0.024-0.008C391.304,207.372,391.688,207.161,392.071,206.951z"/>
						</g>
					</g>
				</g>
				<g>
					<path style="fill:#512651;" d="M382.673,175.32c-2.727,6.948-16.864,8.668-22.987,4.43l6.749-20.491L382.673,175.32z"/>
				</g>
			</g>
			<g>
				<path style="fill:#512651;" d="M435.034,412.618c-10.817,6.375-21.522,8.509-30.328,8.822      c1.167-7.837,16.79-10.463,22.928-10.833C430.253,410.44,433.349,410.808,435.034,412.618z"/>
			</g>
		</g>
		<g>
			<g>
				<polygon style="fill:#512651;" points="34.232,371.567 188.675,232.297 373.465,290.281 218.48,419.255     "/>
			</g>
			<g>
				<path style="fill:#512651;" d="M94.384,380.238l17.341,60.694c0,0,60.694,24.928,114.342,0      c53.649-24.928,91.582-71.532,91.582-71.532l-25.47-66.654L94.384,380.238z"/>
			</g>
			<g>
				<path style="fill:#FFA9DD;" d="M215.771,419.056c-0.029,0-0.058-0.004-0.086-0.011L34.145,371.899      c-0.183-0.048-0.293-0.234-0.245-0.417c0.047-0.184,0.232-0.296,0.418-0.246l181.371,47.101l157.561-128.321      c0.146-0.12,0.363-0.098,0.482,0.049c0.119,0.148,0.097,0.363-0.05,0.483L215.987,418.979      C215.925,419.029,215.849,419.056,215.771,419.056z"/>
			</g>
			<g>
				<g>
					<path style="fill:#FFA9DD;" d="M405.734,347.042c-7.029,0-14.668-1.443-22.846-4.322c-6.956-2.452-13.717-5.673-20.256-8.791       c-3.986-1.9-8.107-3.865-12.226-5.631c-24.763-10.625-53.085-16.165-91.833-17.963c-19.411-0.899-39.743-0.567-56.932,7.925       c-0.255,0.124-0.562,0.021-0.688-0.233c-0.126-0.255-0.021-0.563,0.233-0.689c17.397-8.593,37.887-8.942,57.435-8.028       c38.876,1.804,67.309,7.369,92.191,18.044c4.137,1.775,8.268,3.744,12.262,5.648c6.514,3.105,13.25,6.315,20.155,8.748       c13.028,4.59,24.649,5.479,34.535,2.648c11.979-3.429,21.272-13.293,22.601-23.989c0.036-0.284,0.289-0.478,0.574-0.448       c0.282,0.035,0.482,0.293,0.446,0.573c-1.4,11.269-10.779,21.256-23.339,24.851       C414.191,346.49,410.078,347.042,405.734,347.042z"/>
				</g>
				<g>
					<path style="fill:#FFA9DD;" d="M461.527,322.547c-4.606,9.084-11.164,17.468-20.036,22.477       c-8.872,4.988-20.163,5.985-29.141,1.189c-0.021-0.043-0.042-0.106-0.064-0.149c-3.502-8.49-1.273-18.529,3.587-26.361       c4.882-7.875,12.098-13.966,19.208-19.93c1.295,1.146,2.611,2.271,3.948,3.417c-7.089,6.813-12.989,14.857-17.362,23.644       c5.858-8.087,12.438-15.091,20.036-21.395c4.712,3.884,9.551,7.768,14.115,11.801c-4.86,6.664-10.103,13.202-17.171,17.362       c7.726-2.42,13.945-8.044,19.484-13.945c0.212-0.234,0.446-0.488,0.679-0.722C459.723,320.807,460.636,321.677,461.527,322.547       z"/>
				</g>
			</g>
		</g>
		<g>
			<g>
				<polygon style="fill:#FFB289;" points="144.674,94.236 163.964,108.67 141.404,117.125 126.97,136.416 118.515,113.855       99.225,99.422 121.785,90.966 136.219,71.676     "/>
			</g>
			<g>
				<polygon style="fill:#FFB289;" points="347,385.3 370.706,389.601 354.295,407.24 349.994,430.946 332.355,414.535       308.649,410.234 325.06,392.595 329.361,368.889     "/>
			</g>
			<g>
				<polygon style="fill:#7182FF;" points="395.322,119.942 448.79,85.982 451.681,145.953     "/>
			</g>
			<g>
				<polygon style="fill:#7182FF;" points="11.652,331.647 65.121,297.687 68.011,357.658     "/>
			</g>
			<g>
				<path style="fill:#FFA9DD;" d="M450.558,229.223c23.153-3.008,44.342,13.31,47.35,36.462c0.142,1.095,0.24,2.174,0.274,3.261      l-83.539,10.852c-0.245-1.06-0.426-2.128-0.568-3.222C411.067,253.423,427.405,232.23,450.558,229.223z"/>
			</g>
			<g>
				<path style="fill:#FFA9DD;" d="M75.13,202.591c-20.679-10.837-28.652-36.366-17.814-57.046c0.512-0.977,1.053-1.917,1.649-2.826      l74.615,39.103c-0.408,1.008-0.873,1.987-1.386,2.964C121.357,205.467,95.81,213.429,75.13,202.591z"/>
			</g>
		</g>
	</g>
</g>















</svg>
