<?xml version="1.0" encoding="UTF-8"?>
<!-- Generator: Adobe Illustrator 25.2.1, SVG Export Plug-In . SVG Version: 6.00 Build 0)  -->
<svg xmlns="http://www.w3.org/2000/svg" xmlns:xlink="http://www.w3.org/1999/xlink" version="1.1" id="Capa_1" x="0px" y="0px" viewBox="0 0 512 512" style="enable-background:new 0 0 512 512;" xml:space="preserve" width="512" height="512">
<g>
	<g>
		<path style="fill:#FFFFFF;" d="M100.795,461.579c-14.046,0-27.366-4.692-38.123-12.88c-1.712,1.654-3.828,2.902-6.198,3.586    c-1.357,0.392-2.745,0.583-4.121,0.583c-3.903,0-7.717-1.54-10.546-4.392l-12.653-12.749l-17.528-3.908    c-5.301-1.183-9.536-5.163-11.042-10.382c-1.507-5.216-0.046-10.841,3.809-14.667l12.75-12.65l3.906-17.531    c1.183-5.301,5.161-9.536,10.38-11.042c0.201-0.058,0.399-0.111,0.6-0.16c-9.685-14.88-7.233-32.781-6.909-34.851    c0.256-1.625,0.781-3.197,1.553-4.653l14.336-27.043c0.73-7.612,1.923-15.44,3.567-23.416c-2.048-1.945-3.56-4.488-4.237-7.424    c-0.38-1.64-0.682-3.333-0.921-5.178c-3.451-26.56,10.167-52.453,33.501-64.879c16.866-31.7,39.047-59.562,64.481-80.972    l23.32-44.001c2.59-4.886,7.659-7.9,13.124-7.9c0.399,0,0.798,0.016,1.202,0.048c0.597,0.049,1.187,0.132,1.768,0.25    c8.092-8.448,16.967-12.204,24.123-13.808c0.193-0.044,0.387-0.082,0.58-0.117c1.502-0.318,3.067-0.562,4.767-0.748    c1.715-0.184,3.427-0.275,5.124-0.275c6.675,0,11.383,1.368,12.667,1.787c0.334,0.109,0.663,0.23,0.987,0.362    c10.566,4.298,17.209,10.213,21.371,16.181c5.016-0.549,10.063-0.898,15.112-1.048c0.718-0.726,1.439-1.432,2.157-2.117    c2.774-2.639,6.448-4.097,10.247-4.097c0.404,0,0.81,0.017,1.216,0.049l223.193,18.336c5.599,0.461,10.457,4.037,12.561,9.244    c2.104,5.208,1.091,11.157-2.619,15.375c-0.191,0.22-20.157,23.387-39.814,66.974c0.641,0.921,1.272,1.848,1.889,2.778    c1.166,0.258,2.31,0.659,3.408,1.204c4.861,2.421,8.017,7.301,8.225,12.728l0.293,7.512c1.845,4.074,3.465,8.135,4.832,12.114    c0.922,2.689,1.763,5.44,2.552,8.348l3.284,4.71c3.105,4.456,3.531,10.251,1.113,15.115c-0.102,0.203-0.208,0.404-0.317,0.601    c1.877,14.507,1.865,29.954-0.046,46.059c-2.583,21.759-8.834,42.819-18.109,61.54c1.357,2.138,2.167,4.624,2.293,7.238    l3.371,69.97c0.249,5.19-2.227,10.131-6.534,13.035c-2.496,1.683-5.393,2.539-8.307,2.539c-2.118,0-4.242-0.452-6.227-1.369    l-7.528-3.473v14.605c0,8.205-6.653,14.858-14.858,14.858H100.795z"/>
	</g>
	<g>
		<g>
			<path style="fill:#FFA9DD;" d="M67.537,248.686c-13.115,38.697-18.995,82.317-2.532,119.712     c16.801,38.161,55.199,64.02,95.925,72.953c40.727,8.933,83.486,2.728,123.306-9.635c15.607-4.846,30.935-10.628,46.763-14.696     c24.801-6.375,50.96-8.594,74.125-19.509c43.211-20.362,68.208-68.229,73.838-115.665c2.714-22.871,1.583-46.474-5.887-68.26     c-9.352-27.276-28.288-50.562-50.767-68.622c-22.479-18.06-48.461-31.252-74.917-42.722     c-15.998-6.936-32.396-13.335-49.591-16.223C187.649,67.515,100.643,151,67.537,248.686z"/>
		</g>
		<g>
			<g>
				<g>
					<path style="fill:#FFE9DC;" d="M179.108,357.406c0,0,30.349-218.767,94.841-280.097l223.192,18.336       c0,0-46.156,52.479-69.55,151.746c-20.268,86-17.072,115.706-17.072,115.706L179.108,357.406z"/>
				</g>
				<g>
					<g>
						<g>
							<g>
								<path style="fill:#BD6EEB;" d="M401.633,139.761c4.134-9.125,9.791-17.409,15.447-25.639          c-1.123-0.304-2.246-0.608-3.37-0.913c0.497,9.307,0.994,18.614,1.491,27.921c0.124,2.315,3.741,2.33,3.616,0          c-0.497-9.307-0.994-18.614-1.49-27.921c-0.098-1.84-2.35-2.397-3.37-0.913c-5.656,8.229-11.313,16.513-15.447,25.639          C397.557,140.039,400.673,141.88,401.633,139.761L401.633,139.761z"/>
							</g>
						</g>
						<g>
							<g>
								<path style="fill:#BD6EEB;" d="M407.333,131.486c0.281-0.088,0.717-0.28,1.019-0.242c-0.236,0.03-0.249,0.033-0.039,0.01          c0.074-0.007,0.147-0.012,0.221-0.016c0.173-0.01,0.345-0.015,0.518-0.014c0.341,0.002,0.706,0.006,1.042,0.069          c-0.061-0.008-0.122-0.016-0.183-0.024c0.1,0.015,0.199,0.032,0.298,0.049c0.175,0.031,0.348,0.067,0.521,0.106          c1.38,0.309,2.702,0.828,4.008,1.359c0.879,0.357,2.025-0.387,2.224-1.263c0.239-1.049-0.322-1.842-1.263-2.224          c-2.935-1.193-6.167-2.285-9.33-1.297c-0.902,0.282-1.571,1.273-1.263,2.224          C405.402,131.129,406.366,131.787,407.333,131.486L407.333,131.486z"/>
							</g>
						</g>
						<g>
							<g>
								<g>
									<path style="fill:#BD6EEB;" d="M426.956,119.849c0.14,4.023,0.28,8.045,0.421,12.068c0.033,0.944,0.808,1.853,1.808,1.808           c0.952-0.043,1.844-0.796,1.808-1.808c-0.14-4.023-0.28-8.045-0.421-12.068c-0.033-0.944-0.808-1.853-1.808-1.808           C427.813,118.083,426.921,118.836,426.956,119.849L426.956,119.849z"/>
								</g>
							</g>
							<g>
								<g>
									<path style="fill:#BD6EEB;" d="M423.409,127.413c3.49-0.264,6.981-0.528,10.471-0.793c0.941-0.071,1.854-0.781,1.808-1.808           c-0.041-0.919-0.798-1.885-1.808-1.808c-3.49,0.264-6.981,0.528-10.471,0.793c-0.941,0.071-1.854,0.781-1.808,1.808           C421.642,126.523,422.399,127.489,423.409,127.413L423.409,127.413z"/>
								</g>
							</g>
						</g>
					</g>
					<g>
						<g>
							<path style="fill:#FFB289;" d="M407.448,105.037c-9.647,4.292-16.705,13.458-19.385,23.582         c-2.505,9.461,0.469,19.903,9.55,24.597c10.246,5.297,23.441,2.345,32.492-4.087c9.175-6.52,14.811-17.574,12.42-28.906         c-2.43-11.515-14.209-19.434-25.768-16.746c-2.266,0.527-1.307,4.015,0.961,3.487c8.723-2.029,17.899,3.494,20.694,11.91         c3.155,9.501-1.016,19.64-8.455,25.841c-7.439,6.202-18.745,9.621-28.146,6.387c-8.41-2.893-12.289-11.256-10.667-19.745         c1.912-10.002,8.82-19.056,18.13-23.198C411.396,107.215,409.558,104.098,407.448,105.037L407.448,105.037z"/>
						</g>
					</g>
				</g>
				<g>
					<path style="fill:#BD6EEB;" d="M430.752,170c-0.076,0-0.155-0.012-0.232-0.035c-78.19-23.707-181.613-16.48-182.647-16.407       c-0.437,0.033-0.823-0.298-0.856-0.739c-0.032-0.44,0.299-0.823,0.74-0.855c1.039-0.077,104.749-7.323,183.228,16.471       c0.423,0.128,0.661,0.575,0.533,0.997C431.412,169.778,431.095,170,430.752,170z"/>
				</g>
				<g>
					<path style="fill:#BD6EEB;" d="M425.694,191.498c-0.076,0-0.155-0.012-0.232-0.035       c-78.19-23.707-181.612-16.478-182.647-16.407c-0.435,0.02-0.823-0.298-0.856-0.739c-0.032-0.44,0.299-0.823,0.74-0.855       c1.037-0.077,104.748-7.323,183.227,16.471c0.423,0.128,0.661,0.575,0.533,0.997       C426.354,191.275,426.037,191.498,425.694,191.498z"/>
				</g>
				<g>
					<path style="fill:#BD6EEB;" d="M416.421,215.102c-0.076,0-0.155-0.012-0.232-0.035       c-78.197-23.71-181.613-16.481-182.648-16.407c-0.438,0.025-0.823-0.298-0.856-0.739c-0.032-0.44,0.299-0.823,0.74-0.855       c1.037-0.076,104.747-7.323,183.228,16.471c0.422,0.128,0.661,0.575,0.533,0.997       C417.081,214.879,416.764,215.102,416.421,215.102z"/>
				</g>
				<g>
					<path style="fill:#BD6EEB;" d="M411.363,239.55c-0.076,0-0.155-0.012-0.232-0.035c-78.198-23.708-181.613-16.48-182.648-16.407       c-0.437,0.023-0.823-0.298-0.856-0.739c-0.032-0.44,0.299-0.823,0.74-0.855c1.037-0.076,104.748-7.323,183.228,16.471       c0.422,0.128,0.661,0.575,0.533,0.997C412.023,239.328,411.706,239.55,411.363,239.55z"/>
				</g>
				<g>
					<path style="fill:#BD6EEB;" d="M405.461,264.841c-0.076,0-0.155-0.012-0.232-0.035c-78.19-23.707-181.612-16.48-182.647-16.407       c-0.431,0.016-0.823-0.299-0.856-0.739c-0.032-0.44,0.299-0.823,0.74-0.855c1.038-0.077,104.748-7.323,183.227,16.471       c0.422,0.128,0.661,0.575,0.533,0.997C406.121,264.619,405.804,264.841,405.461,264.841z"/>
				</g>
				<g>
					<path style="fill:#BD6EEB;" d="M399.138,294.768c-0.076,0-0.155-0.012-0.232-0.035       c-78.191-23.707-181.612-16.481-182.647-16.407c-0.437,0.045-0.823-0.299-0.856-0.739c-0.032-0.44,0.299-0.823,0.74-0.855       c1.038-0.076,104.748-7.323,183.228,16.471c0.423,0.128,0.661,0.575,0.533,0.997       C399.799,294.546,399.481,294.768,399.138,294.768z"/>
				</g>
			</g>
			<g>
				<g>
					<g>
						<path style="fill:#7182FF;" d="M412.513,276.554v5.557l-20.098,34.218l20.098,30.618v4.254H151.305        c-20.62,0-37.312-16.713-37.312-37.334c0-10.31,4.167-19.622,10.918-26.373c6.751-6.772,16.084-10.94,26.394-10.94H412.513z"/>
					</g>
					<g>
						<g>
							<path style="fill:#FFE9DC;" d="M412.513,282.111v64.835h-88.039c-2.236,0-4.428-0.217-6.534-0.651         c-0.738-0.152-1.454-0.325-2.17-0.542c-3.777-1.042-7.272-2.757-10.354-5.014c-0.239-0.174-0.478-0.347-0.716-0.543         c-1.91-1.454-3.646-3.125-5.166-4.992c-0.174-0.173-0.304-0.347-0.456-0.542c-1.237-1.541-2.322-3.212-3.256-4.992         c-0.108-0.173-0.195-0.347-0.282-0.543c-0.825-1.584-1.498-3.278-2.04-5.014c-0.043-0.174-0.108-0.347-0.152-0.543         c-0.478-1.606-0.825-3.278-1.02-4.992c-0.022-0.174-0.044-0.369-0.065-0.542c-0.13-1.151-0.195-2.323-0.195-3.516         c0-0.499,0.022-0.999,0.044-1.476c0-0.195,0-0.369,0.022-0.543c0.109-1.715,0.347-3.386,0.695-5.014         c0.043-0.195,0.087-0.369,0.13-0.542c0.412-1.715,0.955-3.386,1.628-4.993c0.087-0.173,0.152-0.369,0.239-0.542         c0.781-1.758,1.693-3.43,2.757-4.993c0.13-0.195,0.261-0.369,0.391-0.543c1.064-1.519,2.257-2.952,3.581-4.276         c0.239-0.239,0.499-0.499,0.76-0.716c0.195-0.195,0.391-0.369,0.586-0.543c2.236-1.997,4.754-3.69,7.489-5.014         c0.391-0.195,0.781-0.369,1.194-0.543c3.951-1.715,8.313-2.67,12.893-2.67H412.513z"/>
						</g>
						<g>
							<g>
								<path style="fill:#FFB289;" d="M412.513,284.781v0.543H310.387c0.391-0.195,0.781-0.369,1.194-0.543H412.513z"/>
							</g>
							<g>
								<path style="fill:#FFB289;" d="M412.513,290.337v0.543h-110.2c0.195-0.195,0.391-0.369,0.586-0.543H412.513z"/>
							</g>
							<g>
								<path style="fill:#FFB289;" d="M412.513,290.337v0.543h-110.2c0.195-0.195,0.391-0.369,0.586-0.543H412.513z"/>
							</g>
							<g>
								<path style="fill:#FFB289;" d="M412.513,295.872v0.543H297.58c0.13-0.195,0.261-0.369,0.391-0.543H412.513z"/>
							</g>
							<g>
								<path style="fill:#FFB289;" d="M412.513,295.872v0.543H297.58c0.13-0.195,0.261-0.369,0.391-0.543H412.513z"/>
							</g>
							<g>
								<path style="fill:#FFB289;" d="M412.513,301.407v0.542H294.585c0.087-0.173,0.152-0.369,0.239-0.542H412.513z"/>
							</g>
							<g>
								<path style="fill:#FFB289;" d="M412.513,301.407v0.542H294.585c0.087-0.173,0.152-0.369,0.239-0.542H412.513z"/>
							</g>
							<g>
								<path style="fill:#FFB289;" d="M412.513,306.943v0.542H292.827c0.043-0.195,0.087-0.369,0.13-0.542H412.513z"/>
							</g>
							<g>
								<path style="fill:#FFB289;" d="M412.513,306.943v0.542H292.827c0.043-0.195,0.087-0.369,0.13-0.542H412.513z"/>
							</g>
							<g>
								<path style="fill:#FFB289;" d="M412.513,312.499v0.543H292.111c0-0.195,0-0.369,0.022-0.543H412.513z"/>
							</g>
							<g>
								<path style="fill:#FFB289;" d="M412.513,318.034v0.542H292.328c-0.022-0.174-0.044-0.369-0.065-0.542H412.513z"/>
							</g>
							<g>
								<path style="fill:#FFB289;" d="M412.513,318.034v0.542H292.328c-0.022-0.174-0.044-0.369-0.065-0.542H412.513z"/>
							</g>
							<g>
								<path style="fill:#FFB289;" d="M412.513,323.569v0.543H293.5c-0.043-0.174-0.108-0.347-0.152-0.543H412.513z"/>
							</g>
							<g>
								<path style="fill:#FFB289;" d="M412.513,329.126v0.543H295.822c-0.108-0.173-0.195-0.347-0.282-0.543H412.513z"/>
							</g>
							<g>
								<path style="fill:#FFB289;" d="M412.513,334.661v0.542H299.534c-0.174-0.173-0.304-0.347-0.456-0.542H412.513z"/>
							</g>
							<g>
								<path style="fill:#FFB289;" d="M412.513,340.196v0.543H305.416c-0.239-0.174-0.478-0.347-0.716-0.543H412.513z"/>
							</g>
							<g>
								<path style="fill:#FFB289;" d="M412.513,345.752v0.542H317.94c-0.738-0.152-1.454-0.325-2.17-0.542H412.513z"/>
							</g>
						</g>
					</g>
					<g>
						<path style="fill:#FFB289;" d="M158.685,286.647c-8.422,11.07-11.699,26.98-8.769,42.544        c1.541,8.205,4.732,15.758,9.117,22.009h-5.687c-3.842-6.229-6.642-13.414-8.096-21.141        c-3.234-17.104,0.304-33.97,9.659-46.299c1.997-2.626,4.255-5.036,6.729-7.206h7.858        C165.37,279.267,161.702,282.697,158.685,286.647z"/>
					</g>
					<g>
						<path style="fill:#FFB289;" d="M269.168,286.647c-8.444,11.07-11.721,26.98-8.791,42.544        c1.541,8.205,4.732,15.758,9.116,22.009h-5.687c-3.842-6.229-6.642-13.414-8.096-21.141        c-3.212-17.104,0.304-33.97,9.659-46.299c1.997-2.626,4.276-5.036,6.75-7.206h7.858        C275.831,279.267,272.163,282.697,269.168,286.647z"/>
					</g>
				</g>
				<g>
					<g>
						<path style="fill:#BD6EEB;" d="M437.817,351.37v7.169l-14.716,40.986l14.716,42.667v5.489H100.795        c-26.606,0-48.142-21.564-48.142-48.17c0-13.303,5.377-25.318,14.087-34.027c8.71-8.738,20.752-14.115,34.055-14.115H437.817z        "/>
					</g>
					<g>
						<g>
							<path style="fill:#FFE9DC;" d="M437.817,358.54v83.653H324.225c-2.884,0-5.713-0.28-8.43-0.84         c-0.952-0.196-1.876-0.42-2.801-0.7c-4.873-1.344-9.382-3.557-13.359-6.469c-0.308-0.224-0.616-0.448-0.924-0.7         c-2.464-1.876-4.705-4.033-6.665-6.441c-0.224-0.224-0.392-0.448-0.588-0.7c-1.596-1.988-2.997-4.145-4.201-6.441         c-0.14-0.224-0.252-0.448-0.364-0.7c-1.064-2.044-1.932-4.229-2.632-6.469c-0.056-0.224-0.14-0.448-0.196-0.7         c-0.616-2.072-1.064-4.229-1.316-6.441c-0.028-0.224-0.056-0.476-0.084-0.7c-0.168-1.484-0.252-2.997-0.252-4.537         c0-0.644,0.028-1.288,0.056-1.904c0-0.252,0-0.476,0.028-0.7c0.14-2.213,0.448-4.369,0.896-6.469         c0.056-0.252,0.112-0.476,0.168-0.7c0.532-2.213,1.232-4.369,2.1-6.441c0.112-0.224,0.196-0.476,0.308-0.7         c1.008-2.268,2.184-4.425,3.557-6.441c0.168-0.252,0.336-0.476,0.504-0.7c1.372-1.961,2.913-3.809,4.621-5.517         c0.308-0.308,0.644-0.644,0.98-0.924c0.252-0.252,0.504-0.476,0.756-0.7c2.885-2.577,6.133-4.761,9.662-6.469         c0.504-0.252,1.008-0.476,1.541-0.7c5.097-2.212,10.726-3.445,16.635-3.445H437.817z"/>
						</g>
						<g>
							<g>
								<path style="fill:#FFB289;" d="M437.817,361.984v0.7H306.049c0.504-0.252,1.008-0.476,1.541-0.7H437.817z"/>
							</g>
							<g>
								<path style="fill:#FFB289;" d="M437.817,369.154v0.7H295.631c0.252-0.252,0.504-0.476,0.756-0.7H437.817z"/>
							</g>
							<g>
								<path style="fill:#FFB289;" d="M437.817,369.154v0.7H295.631c0.252-0.252,0.504-0.476,0.756-0.7H437.817z"/>
							</g>
							<g>
								<path style="fill:#FFB289;" d="M437.817,376.295v0.7H289.526c0.168-0.252,0.336-0.476,0.504-0.7H437.817z"/>
							</g>
							<g>
								<path style="fill:#FFB289;" d="M437.817,376.295v0.7H289.526c0.168-0.252,0.336-0.476,0.504-0.7H437.817z"/>
							</g>
							<g>
								<path style="fill:#FFB289;" d="M437.817,383.437v0.7H285.661c0.112-0.224,0.196-0.476,0.308-0.7H437.817z"/>
							</g>
							<g>
								<path style="fill:#FFB289;" d="M437.817,383.437v0.7H285.661c0.112-0.224,0.196-0.476,0.308-0.7H437.817z"/>
							</g>
							<g>
								<path style="fill:#FFB289;" d="M437.817,390.578v0.7H283.392c0.056-0.252,0.112-0.476,0.168-0.7H437.817z"/>
							</g>
							<g>
								<path style="fill:#FFB289;" d="M437.817,390.578v0.7H283.392c0.056-0.252,0.112-0.476,0.168-0.7H437.817z"/>
							</g>
							<g>
								<path style="fill:#FFB289;" d="M437.817,397.748v0.7H282.469c0-0.252,0-0.476,0.028-0.7H437.817z"/>
							</g>
							<g>
								<path style="fill:#FFB289;" d="M437.817,404.889v0.7H282.748c-0.028-0.224-0.056-0.476-0.084-0.7H437.817z"/>
							</g>
							<g>
								<path style="fill:#FFB289;" d="M437.817,404.889v0.7H282.748c-0.028-0.224-0.056-0.476-0.084-0.7H437.817z"/>
							</g>
							<g>
								<path style="fill:#FFB289;" d="M437.817,412.031v0.7H284.261c-0.056-0.224-0.14-0.448-0.196-0.7H437.817z"/>
							</g>
							<g>
								<path style="fill:#FFB289;" d="M437.817,419.2v0.7H287.257c-0.14-0.224-0.252-0.448-0.364-0.7H437.817z"/>
							</g>
							<g>
								<path style="fill:#FFB289;" d="M437.817,426.342v0.7h-145.77c-0.224-0.224-0.392-0.448-0.588-0.7H437.817z"/>
							</g>
							<g>
								<path style="fill:#FFB289;" d="M437.817,433.483v0.7H299.636c-0.308-0.224-0.616-0.448-0.924-0.7H437.817z"/>
							</g>
							<g>
								<path style="fill:#FFB289;" d="M437.817,440.652v0.7H315.795c-0.952-0.196-1.876-0.42-2.801-0.7H437.817z"/>
							</g>
						</g>
					</g>
					<g>
						<path style="fill:#FFB289;" d="M110.317,364.393c-10.866,14.283-15.095,34.811-11.314,54.891        c1.988,10.586,6.105,20.332,11.762,28.398h-7.338c-4.957-8.038-8.57-17.308-10.446-27.278        c-4.173-22.069,0.392-43.829,12.463-59.736c2.576-3.389,5.489-6.497,8.682-9.298h10.138        C118.943,354.871,114.21,359.296,110.317,364.393z"/>
					</g>
					<g>
						<path style="fill:#FFB289;" d="M252.866,364.393c-10.894,14.283-15.123,34.811-11.342,54.891        c1.988,10.586,6.105,20.332,11.762,28.398h-7.338c-4.957-8.038-8.57-17.308-10.446-27.278        c-4.145-22.069,0.392-43.829,12.463-59.736c2.577-3.389,5.517-6.497,8.71-9.298h10.138        C261.464,354.871,256.731,359.296,252.866,364.393z"/>
					</g>
				</g>
				<g>
					<g>
						<path style="fill:#FF8C9D;" d="M373.54,212.827v4.777l-12.732,28.105l12.732,27.625v3.657H149.012        c-17.725,0-32.073-14.366-32.073-32.091c0-8.863,3.583-16.867,9.385-22.669c5.803-5.821,13.826-9.403,22.688-9.403H373.54z"/>
					</g>
					<g>
						<g>
							<path style="fill:#FFE9DC;" d="M373.54,217.603v55.731h-75.676c-1.922,0-3.806-0.186-5.616-0.56         c-0.634-0.13-1.25-0.28-1.866-0.466c-3.246-0.896-6.25-2.37-8.9-4.31c-0.205-0.149-0.411-0.299-0.616-0.467         c-1.642-1.25-3.135-2.687-4.441-4.291c-0.149-0.149-0.261-0.298-0.392-0.466c-1.064-1.325-1.996-2.762-2.799-4.291         c-0.093-0.149-0.168-0.299-0.243-0.466c-0.709-1.362-1.287-2.817-1.754-4.31c-0.037-0.149-0.093-0.299-0.13-0.467         c-0.411-1.381-0.709-2.817-0.877-4.291c-0.019-0.149-0.037-0.317-0.056-0.466c-0.112-0.989-0.168-1.996-0.168-3.023         c0-0.429,0.019-0.858,0.037-1.269c0-0.168,0-0.317,0.019-0.466c0.093-1.474,0.298-2.911,0.597-4.31         c0.037-0.168,0.075-0.317,0.112-0.467c0.354-1.474,0.821-2.911,1.399-4.291c0.075-0.149,0.131-0.317,0.205-0.467         c0.672-1.511,1.455-2.948,2.37-4.291c0.112-0.168,0.224-0.317,0.336-0.467c0.914-1.306,1.94-2.537,3.078-3.675         c0.205-0.205,0.429-0.429,0.653-0.616c0.168-0.168,0.336-0.317,0.504-0.466c1.922-1.717,4.086-3.172,6.437-4.31         c0.336-0.168,0.672-0.317,1.026-0.467c3.396-1.474,7.146-2.295,11.083-2.295H373.54z"/>
						</g>
						<g>
							<g>
								<path style="fill:#FFB289;" d="M373.54,219.898v0.467h-87.785c0.336-0.168,0.672-0.317,1.026-0.467H373.54z"/>
							</g>
							<g>
								<path style="fill:#FFB289;" d="M373.54,224.674v0.466h-94.725c0.168-0.168,0.336-0.317,0.504-0.466H373.54z"/>
							</g>
							<g>
								<path style="fill:#FFB289;" d="M373.54,224.674v0.466h-94.725c0.168-0.168,0.336-0.317,0.504-0.466H373.54z"/>
							</g>
							<g>
								<path style="fill:#FFB289;" d="M373.54,229.432v0.467h-98.793c0.112-0.168,0.224-0.317,0.336-0.467H373.54z"/>
							</g>
							<g>
								<path style="fill:#FFB289;" d="M373.54,229.432v0.467h-98.793c0.112-0.168,0.224-0.317,0.336-0.467H373.54z"/>
							</g>
							<g>
								<path style="fill:#FFB289;" d="M373.54,234.19v0.467H272.172c0.075-0.149,0.131-0.317,0.205-0.467H373.54z"/>
							</g>
							<g>
								<path style="fill:#FFB289;" d="M373.54,234.19v0.467H272.172c0.075-0.149,0.131-0.317,0.205-0.467H373.54z"/>
							</g>
							<g>
								<path style="fill:#FFB289;" d="M373.54,238.947v0.467H270.661c0.037-0.168,0.075-0.317,0.112-0.467H373.54z"/>
							</g>
							<g>
								<path style="fill:#FFB289;" d="M373.54,238.947v0.467H270.661c0.037-0.168,0.075-0.317,0.112-0.467H373.54z"/>
							</g>
							<g>
								<path style="fill:#FFB289;" d="M373.54,243.724v0.466H270.045c0-0.168,0-0.317,0.019-0.466H373.54z"/>
							</g>
							<g>
								<path style="fill:#FFB289;" d="M373.54,248.482v0.466H270.232c-0.019-0.149-0.037-0.317-0.056-0.466H373.54z"/>
							</g>
							<g>
								<path style="fill:#FFB289;" d="M373.54,248.482v0.466H270.232c-0.019-0.149-0.037-0.317-0.056-0.466H373.54z"/>
							</g>
							<g>
								<path style="fill:#FFB289;" d="M373.54,253.239v0.467H271.239c-0.037-0.149-0.093-0.299-0.13-0.467H373.54z"/>
							</g>
							<g>
								<path style="fill:#FFB289;" d="M373.54,258.016v0.466H273.235c-0.093-0.149-0.168-0.299-0.243-0.466H373.54z"/>
							</g>
							<g>
								<path style="fill:#FFB289;" d="M373.54,262.773v0.466h-97.114c-0.149-0.149-0.261-0.298-0.392-0.466H373.54z"/>
							</g>
							<g>
								<path style="fill:#FFB289;" d="M373.54,267.531v0.467h-92.057c-0.205-0.149-0.411-0.299-0.616-0.467H373.54z"/>
							</g>
							<g>
								<path style="fill:#FFB289;" d="M373.54,272.308v0.466h-81.292c-0.634-0.13-1.25-0.28-1.866-0.466H373.54z"/>
							</g>
						</g>
					</g>
					<g>
						<path style="fill:#FFB289;" d="M155.355,221.503c-7.239,9.515-10.056,23.192-7.538,36.569        c1.325,7.053,4.067,13.545,7.836,18.919h-4.888c-3.302-5.355-5.709-11.531-6.959-18.173        c-2.78-14.702,0.261-29.199,8.303-39.797c1.716-2.257,3.657-4.328,5.784-6.194h6.754        C161.102,215.159,157.949,218.107,155.355,221.503z"/>
					</g>
					<g>
						<path style="fill:#FFB289;" d="M250.324,221.503c-7.258,9.515-10.075,23.192-7.556,36.569        c1.325,7.053,4.067,13.545,7.836,18.919h-4.888c-3.302-5.355-5.709-11.531-6.959-18.173        c-2.761-14.702,0.261-29.199,8.303-39.797c1.717-2.257,3.676-4.328,5.803-6.194h6.754        C256.052,215.159,252.898,218.107,250.324,221.503z"/>
					</g>
				</g>
			</g>
			<g>
				<g>
					<g>
						<path style="fill:#FFE9DC;" d="M237.267,101.642c-0.322,1.288-0.693,2.501-1.09,3.64c-1.015,3.046-2.229,5.621-3.17,7.454        v0.025c-0.941,1.832-1.635,2.897-1.635,2.897L82.789,368.574c-49.949,9.485-42.99-34.769-42.99-34.769L173.846,80.89        l1.065,3.145l0.991,2.996c0,0.025,0,0.074,0.025,0.124l0.693,2.105l1.015,3.021c7.33-16.889,17.855-23.03,26.497-24.937        c8.544-1.907,15.23,0.273,15.23,0.273C239.198,75.69,240.04,90.573,237.267,101.642z"/>
					</g>
					<g style="opacity:0.47;">
						<path style="fill:#FFB289;" d="M237.267,101.642c-0.322,1.288-0.693,2.501-1.09,3.64c-1.015,2.897-2.154,5.374-3.071,7.132        v0.025c-4.606,3.442-10.178,5.671-15.923,6.315c-4.804,0.52-9.707-0.049-14.338-1.51c-0.198-0.05-0.421-0.124-0.619-0.198        c-0.198-0.074-0.396-0.124-0.595-0.223c-5.151-1.808-9.93-4.755-13.868-8.544c-5.225-5.027-9.138-11.837-11.144-19.019        c-0.223-0.817-0.421-1.61-0.595-2.427l1.709,5.126c7.305-16.864,17.83-23.006,26.448-24.937c0.05,0,0.099-0.025,0.149-0.025        c1.238-0.272,2.427-0.446,3.566-0.57c6.711-0.718,11.565,0.867,11.565,0.867C239.495,75.442,240.164,90.548,237.267,101.642z"/>
					</g>
				</g>
				<g>
					<path style="fill:#FFB289;" d="M215.648,98.522l-12.803,18.722l-0.099,0.148c-0.124,0.173-0.322,0.272-0.52,0.272       c-0.124,0-0.248-0.025-0.347-0.099c-0.223-0.173-0.322-0.47-0.248-0.743c0.025-0.025,0.05-0.074,0.074-0.124l12.11-17.657       c-0.743,0.074-1.486-0.124-2.179-0.248l-0.297-0.049c-5.696-0.916-10.698-4.755-13.125-10.005       c-2.377-5.225-2.006-11.54,0.991-16.468c1.114-1.857,2.6-3.467,4.284-4.755c0.025,0,0.025,0,0.025,0       c0.223-0.174,0.446-0.347,0.669-0.495c0.05,0,0.099-0.025,0.149-0.025c1.238-0.272,2.427-0.446,3.566-0.57       c-0.322,0.124-0.644,0.272-0.966,0.421c-2.724,1.387-5.077,3.492-6.662,6.067c-2.798,4.581-3.145,10.45-0.916,15.304       c2.229,4.879,6.91,8.445,12.184,9.311l0.297,0.05c1.09,0.198,2.204,0.371,3.071,0.025c0.272-0.099,0.545-0.025,0.718,0.173       C215.796,98.002,215.821,98.299,215.648,98.522z"/>
				</g>
			</g>
			<g>
				<polygon style="fill:#BD6EEB;" points="468.022,212.009 480.775,230.318 458.479,231.178 440.17,243.932 439.31,221.636       426.556,203.327 448.853,202.467 467.161,189.713     "/>
			</g>
			<g>
				<polygon style="fill:#FFB289;" points="51.269,396.62 73.047,401.475 57.209,417.192 52.354,438.97 36.637,423.133       14.859,418.278 30.696,402.561 35.552,380.783     "/>
			</g>
			<g>
				<polygon style="fill:#7182FF;" points="400.674,392.712 463.058,353.09 466.43,423.061     "/>
			</g>
			<g>
				<path style="fill:#BD6EEB;" d="M96.716,206.609c27.014-3.509,51.737,15.529,55.246,42.543c0.166,1.277,0.279,2.536,0.319,3.804      l-97.47,12.661c-0.285-1.237-0.497-2.483-0.663-3.76C50.639,234.844,69.703,210.118,96.716,206.609z"/>
			</g>
		</g>
	</g>
</g>















</svg>
