<?xml version="1.0" encoding="UTF-8"?>
<!-- Generator: Adobe Illustrator 25.2.1, SVG Export Plug-In . SVG Version: 6.00 Build 0)  -->
<svg xmlns="http://www.w3.org/2000/svg" xmlns:xlink="http://www.w3.org/1999/xlink" version="1.1" id="Capa_1" x="0px" y="0px" viewBox="0 0 512 512" style="enable-background:new 0 0 512 512;" xml:space="preserve" width="512" height="512">
<g>
	<g>
		<path style="fill:#FFFFFF;" d="M149.965,512C85.052,512,30.74,463.276,23.631,398.666c-5.308-48.253,16.714-94.497,57.498-120.839    c0.454-0.353,0.915-0.705,1.375-1.054l-0.77-2.411c-2.624-0.293-5.137-1.414-7.14-3.275l-15.735-14.639l-21.145-3.837    c-4.503-0.817-8.202-4.025-9.645-8.367c-1.445-4.344-0.403-9.129,2.714-12.479l14.637-15.733l3.837-21.147    c0.556-3.075,2.229-5.773,4.618-7.637l-8.312-25.999l-0.34-1.088l-10.718-33.506c-1.043-3.262-0.705-6.81,0.937-9.818    c1.643-3.006,4.446-5.208,7.756-6.093l68.144-18.209V52.512c0-6.914,5.606-12.52,12.52-12.52h71.035    c6.914,0,12.52,5.606,12.52,12.52v14.333l38.562-10.311c-1.942-2.075-3.154-4.789-3.35-7.721    c-0.305-4.571,1.911-8.946,5.779-11.401l55.832-35.461C306.279,0.655,308.612,0,310.949,0c1.975,0,3.951,0.465,5.763,1.405    c3.959,2.053,6.527,6.057,6.743,10.512l1.137,23.597l25.484-6.814c1.084-0.29,2.172-0.428,3.242-0.428    c5.518,0,10.57,3.676,12.078,9.255l9.508,35.189l26.303-37.033c2.347-3.311,6.156-5.28,10.215-5.28    c0.263,0,0.569,0.012,0.868,0.031c9.172,0.187,17.983,1.622,26.193,4.267c13.107,4.228,24.599,11.45,34.16,21.467    c8.043,8.428,12.534,16.587,14.494,20.701c0.728,1.514,1.098,2.433,1.098,2.433c1.659,4.118,1.041,8.878-1.671,12.393    l-0.982,1.274l-1.854,2.343l-47.575,60.769c0.768,1.534,1.227,3.236,1.312,5.007l3.018,62.623    c0.21,4.373-1.877,8.536-5.506,10.983c-2.103,1.418-4.544,2.14-7,2.14c-1.785,0-3.574-0.381-5.247-1.151l-4.349-2.009    l6.678,24.748h45.447c6.914,0,12.52,5.606,12.52,12.52v71.035c0,6.914-5.606,12.52-12.52,12.52H451.01l14.543,53.826    c0.868,3.209,0.424,6.633-1.235,9.512c-1.659,2.881-4.396,4.984-7.605,5.846l-216.915,58.218    c-14.213,11.405-30.979,19.432-48.708,23.299c-8.828,2.997-17.93,5.023-27.069,6.028C159.359,511.739,154.63,512,149.965,512z"/>
	</g>
	<g>
		<g>
			<g>
				<g>
					<polygon style="fill:#FFE9DC;" points="453.468,411.588 225.754,472.706 224.752,472.977 163.635,489.378 152.534,454.635        152.2,453.655 140.828,418.015 140.495,417.034 128.329,378.953 128.016,377.952 116.686,342.563 116.373,341.582        104.479,304.398 104.166,303.397 92.565,267.131 92.252,266.109 80.65,229.843 80.316,228.842 68.568,192.096 68.255,191.115        57.488,157.437 57.176,156.436 46.429,122.841 113.494,104.917 113.514,104.917 114.516,104.646 353.31,40.795 360.905,68.881        361.176,69.903 370.378,104.02 370.649,105.021 380.707,142.247 380.978,143.248 390.911,180.035 391.182,181.037        401.114,217.803 401.406,218.826 411.568,256.469 411.839,257.491 421.521,293.339 421.793,294.362 432.226,332.943        432.497,333.966 442.242,370.044 442.513,371.045      "/>
				</g>
				<g>
					<g>
						<polygon style="fill:#7182FF;" points="225.754,472.706 224.752,472.977 213.86,436.962 213.568,435.96 202.739,400.174         202.446,399.173 190.887,360.925 190.574,359.923 179.827,324.367 179.535,323.366 168.247,286.015 167.934,285.014         156.916,248.56 156.624,247.559 145.607,211.105 145.294,210.104 134.151,173.191 133.838,172.211 123.614,138.386         123.322,137.385 113.514,104.917 114.516,104.646 124.323,137.093 124.636,138.094 134.84,171.918 134.861,171.918         135.153,172.899 146.295,209.812 146.316,209.812 146.608,210.813 157.626,247.266 157.939,248.289 168.956,284.721         169.248,285.723 180.537,323.074 180.829,324.075 191.596,359.631 191.888,360.633 203.448,398.881 203.761,399.882         214.57,435.668 214.862,436.67       "/>
					</g>
					<g>
						<polygon style="fill:#FFB289;" points="361.176,69.903 124.636,138.094 123.614,138.386 57.488,157.437 57.176,156.436         123.322,137.385 124.323,137.093 360.905,68.881       "/>
					</g>
					<g>
						<polygon style="fill:#FFB289;" points="370.649,105.021 135.153,172.899 134.151,173.191 68.568,192.096 68.255,191.115         133.838,172.211 134.84,171.918 134.861,171.918 370.378,104.02       "/>
					</g>
					<g>
						<polygon style="fill:#FFB289;" points="380.978,143.248 146.608,210.813 145.607,211.105 80.65,229.843 80.316,228.842         145.294,210.104 146.295,209.812 146.316,209.812 380.707,142.247       "/>
					</g>
					<g>
						<polygon style="fill:#FFB289;" points="391.182,181.037 157.939,248.289 156.916,248.56 92.565,267.131 92.252,266.109         156.624,247.559 157.626,247.266 390.911,180.035       "/>
					</g>
					<g>
						<polygon style="fill:#FFB289;" points="401.406,218.826 169.248,285.723 168.247,286.015 104.479,304.398 104.166,303.397         167.934,285.014 168.956,284.721 401.114,217.803       "/>
					</g>
					<g>
						<polygon style="fill:#FFB289;" points="411.839,257.491 180.829,324.075 179.827,324.367 116.686,342.563 116.373,341.582         179.535,323.366 180.537,323.074 411.568,256.469       "/>
					</g>
					<g>
						<polygon style="fill:#FFB289;" points="421.793,294.362 191.888,360.633 190.887,360.925 128.329,378.953 128.016,377.952         190.574,359.923 191.596,359.631 421.521,293.339       "/>
					</g>
					<g>
						<polygon style="fill:#FFB289;" points="432.497,333.966 203.761,399.882 202.739,400.174 140.828,418.015 140.495,417.034         202.446,399.173 203.448,398.881 432.226,332.943       "/>
					</g>
					<g>
						<polygon style="fill:#FFB289;" points="442.513,371.045 214.862,436.67 213.86,436.962 152.534,454.635 152.2,453.655         213.568,435.96 214.57,435.668 442.242,370.044       "/>
					</g>
				</g>
				<g>
					<g>
						
							<ellipse transform="matrix(0.1602 -0.9871 0.9871 0.1602 -77.1292 235.2864)" style="fill:#BD6EEB;" cx="99.708" cy="162.97" rx="14.917" ry="14.917"/>
					</g>
					<g>
						
							<ellipse transform="matrix(0.7071 -0.7071 0.7071 0.7071 -166.1287 182.0141)" style="fill:#BD6EEB;" cx="136.646" cy="291.542" rx="14.917" ry="14.917"/>
					</g>
					<g>
						
							<ellipse transform="matrix(0.7071 -0.7071 0.7071 0.7071 -238.3091 240.7471)" style="fill:#BD6EEB;" cx="171.453" cy="408.038" rx="14.917" ry="14.917"/>
					</g>
				</g>
			</g>
			<g>
				<g>
					<g>
						<g>
							<g>
								<path style="fill:#FFB289;" d="M476.65,84.051l-0.981,1.273l-1.753,2.212l-7.261,9.265L340.978,257.366l-1.335,0.605          l-39.187,16.923l-21.43,9.265l1.335-24.685l1.857-34.742l0.188-0.271L401.74,56.57l6.886-9.703l0.334-0.459l2.462-3.485          c0.104,0,0.188,0.021,0.292,0.021c8.639,0.146,16.255,1.523,22.932,3.673c12.937,4.173,22.348,11.289,28.941,18.195          c6.907,7.241,10.725,14.252,12.249,17.444C476.379,83.383,476.65,84.051,476.65,84.051z"/>
							</g>
							<g>
								<path style="fill:#FFA9DD;" d="M476.65,84.051l-0.981,1.273l-1.753,2.212l-7.261,9.265L340.978,257.366l-1.335,0.605          c-2.316-3.422-5.029-6.615-7.971-9.515c-0.334-0.313-0.647-0.626-0.981-0.939c-3.902-3.672-8.221-6.907-12.812-9.682          c-0.396-0.271-0.793-0.501-1.21-0.73c-1.523-0.897-3.088-1.753-4.695-2.567c-3.693-1.857-7.533-3.506-11.435-4.904h-0.021          c-0.438-0.167-0.897-0.334-1.336-0.48c-5.467-1.92-11.08-3.443-16.776-4.695L401.74,56.57l6.886-9.703l0.334-0.459          l2.462-3.485c0.104,0,0.188,0.021,0.292,0.021c1.231,1.398,2.713,2.713,3.965,3.881c1.482,1.419,3.026,2.838,4.591,4.173          c0.334,0.313,0.689,0.605,1.043,0.897c5.091,4.382,10.475,8.43,16.109,12.102c0.396,0.25,0.772,0.501,1.148,0.751          c6.823,4.382,13.96,8.221,21.388,11.497c0.417,0.188,0.855,0.376,1.294,0.543c4.758,2.045,9.64,3.881,14.586,5.467          C476.379,83.383,476.65,84.051,476.65,84.051z"/>
							</g>
							<g>
								<g>
									<path style="fill:#512651;" d="M330.691,247.515L459.948,76.247c0.432,0.183,0.864,0.366,1.297,0.549L331.672,248.452           C331.345,248.14,331.018,247.827,330.691,247.515z"/>
								</g>
								<g>
									<path style="fill:#512651;" d="M316.672,237.111L437.42,63.999c0.392,0.254,0.783,0.509,1.151,0.75L317.874,237.827           C317.482,237.572,317.077,237.342,316.672,237.111z"/>
								</g>
								<g>
									<path style="fill:#512651;" d="M299.182,229.149L420.274,50.996c0.327,0.312,0.691,0.614,1.032,0.903L300.543,229.64           l-0.024-0.014C300.074,229.467,299.628,229.308,299.182,229.149z"/>
								</g>
							</g>
						</g>
						<g>
							<path style="fill:#512651;" d="M280.351,259.479c7.579-2.786,19.128,7.411,20.099,15.409l-21.422,9.265L280.351,259.479z"/>
						</g>
					</g>
				</g>
				<g>
					<path style="fill:#F7607D;" d="M476.65,84.051l-2.734,3.485c-6.093-0.563-12.123-1.836-17.966-3.735       c-0.459-0.146-0.897-0.292-1.356-0.459c-7.595-2.587-14.836-6.26-21.451-10.83c-0.376-0.25-0.751-0.501-1.127-0.772       c-5.509-3.923-10.579-8.451-15.003-13.521c-0.334-0.355-0.647-0.709-0.918-1.064c-2.775-3.234-5.279-6.656-7.47-10.287       l2.796-3.944c0.104,0,0.188,0.021,0.292,0.021c8.639,0.146,16.255,1.523,22.932,3.673       c12.937,4.173,22.348,11.289,28.941,18.195c6.907,7.241,10.725,14.252,12.249,17.444       C476.379,83.383,476.65,84.051,476.65,84.051z"/>
				</g>
				<g>
					<path style="fill:#7182FF;" d="M475.669,85.323l-1.753,2.212l-7.261,9.265c-1.753-0.23-3.485-0.543-5.196-0.918       c-4.09-0.876-8.117-2.024-12.04-3.422c-0.459-0.167-0.876-0.334-1.315-0.501h-0.021c-7.387-2.754-14.439-6.385-20.971-10.788       c-0.376-0.25-0.751-0.501-1.127-0.772c-5.488-3.798-10.6-8.138-15.232-12.958c-0.334-0.334-0.647-0.689-0.96-1.022       c-2.9-3.109-5.613-6.406-8.054-9.849l6.886-9.703l0.334-0.459c2.149,3.61,4.778,6.865,7.762,9.828       c0.334,0.334,0.668,0.647,1.002,0.939c4.778,4.591,10.35,8.43,16.171,11.894c0.376,0.229,0.772,0.459,1.169,0.689       c1.774,1.043,3.568,2.024,5.363,3.005c5.258,2.838,10.704,5.55,16.317,7.741c0.438,0.167,0.876,0.334,1.315,0.501       C463.755,83.153,469.639,84.718,475.669,85.323z"/>
				</g>
			</g>
			<g>
				<circle style="fill:#FFE9DC;" cx="165.77" cy="389.569" r="105.841"/>
			</g>
			<g>
				<g>
					
						<ellipse transform="matrix(0.7071 -0.7071 0.7071 0.7071 -228.0939 218.8328)" style="fill:#7182FF;" cx="150.108" cy="384.75" rx="114.72" ry="114.72"/>
				</g>
				<g>
					
						<ellipse transform="matrix(0.7071 -0.7071 0.7071 0.7071 -220.9865 223.3027)" style="fill:#FFA9DD;" cx="159.057" cy="378.406" rx="114.72" ry="114.72"/>
				</g>
				<g>
					<g>
						<path style="fill:#512651;" d="M167.175,483.927c1.145-0.084,2.309-0.191,3.471-0.319        c58.096-6.392,100.017-58.677,93.625-116.773c-6.394-58.117-58.679-100.038-116.775-93.646        c-1.161,0.128-2.32,0.276-3.457,0.443C87.72,281.677,110.455,488.32,167.175,483.927z"/>
					</g>
					<g>
						<path style="fill:#FFE9DC;" d="M53.852,389.986c6.264,56.935,56.603,98.335,113.323,93.942        c56.298-8.041,96.432-59.395,90.168-116.33c-6.266-56.955-56.605-98.355-113.305-93.964        C87.72,281.677,47.586,333.031,53.852,389.986z"/>
					</g>
				</g>
				<g>
					<g>
						<g>
							<path style="fill:#512651;" d="M165.905,380.681c-0.577,4.079-4.351,6.917-8.43,6.34c-4.079-0.577-6.917-4.351-6.34-8.43         c0.577-4.079,4.352-6.917,8.43-6.34C163.644,372.828,166.482,376.603,165.905,380.681z"/>
						</g>
						<g>
							<path style="fill:#512651;" d="M158.521,380.311c-0.147,0-0.292-0.049-0.411-0.139c-0.147-0.113-0.242-0.284-0.261-0.47         l-3.897-40.907c-0.036-0.371,0.237-0.7,0.607-0.736c0.369-0.026,0.699,0.236,0.736,0.607l3.828,40.186l59.924-10.131         c0.359-0.062,0.715,0.186,0.777,0.553c0.062,0.366-0.186,0.715-0.553,0.777l-60.637,10.252         C158.596,380.308,158.557,380.311,158.521,380.311z"/>
						</g>
					</g>
					<g>
						<g>
							<path style="fill:#512651;" d="M148.366,294.098c-0.338,0-0.63-0.255-0.669-0.6l-1.398-12.71         c-0.041-0.37,0.226-0.703,0.596-0.744c0.359-0.041,0.703,0.225,0.744,0.596l1.398,12.71c0.041,0.37-0.226,0.703-0.596,0.744         C148.416,294.097,148.391,294.098,148.366,294.098z"/>
						</g>
						<g>
							<path style="fill:#512651;" d="M168.467,476.796c-0.338,0-0.631-0.255-0.669-0.6l-1.399-12.71         c-0.041-0.37,0.226-0.703,0.596-0.744c0.365-0.038,0.703,0.226,0.744,0.596l1.399,12.71c0.041,0.37-0.226,0.703-0.596,0.744         C168.517,476.795,168.492,476.796,168.467,476.796z"/>
						</g>
					</g>
					<g>
						<g>
							<path style="fill:#512651;" d="M242.331,366.764c-0.329,0-0.617-0.241-0.666-0.577c-0.053-0.369,0.201-0.711,0.57-0.765         l12.653-1.844c0.362-0.045,0.711,0.2,0.765,0.57c0.053,0.369-0.201,0.711-0.57,0.765l-12.653,1.844         C242.397,366.761,242.364,366.764,242.331,366.764z"/>
						</g>
						<g>
							<path style="fill:#512651;" d="M60.451,393.266c-0.329,0-0.617-0.241-0.666-0.577c-0.053-0.368,0.201-0.711,0.57-0.765         l12.652-1.844c0.358-0.045,0.711,0.2,0.765,0.57c0.053,0.368-0.201,0.711-0.57,0.765L60.55,393.26         C60.517,393.264,60.484,393.266,60.451,393.266z"/>
						</g>
					</g>
				</g>
			</g>
			<g>
				<g>
					<rect x="399.472" y="270.942" style="fill:#BD6EEB;" width="71.034" height="71.034"/>
				</g>
				<g>
					<path style="fill:#FFE9DC;" d="M427.397,326.631c-0.029,0-0.059-0.001-0.088-0.003c-0.424-0.028-0.811-0.254-1.042-0.611       l-13.852-21.31c-0.405-0.624-0.228-1.458,0.396-1.865c0.624-0.405,1.458-0.228,1.865,0.396l12.869,19.799l33.458-39.121       c0.484-0.565,1.337-0.629,1.901-0.147c0.565,0.483,0.632,1.335,0.147,1.901l-34.63,40.49       C428.165,326.46,427.79,326.631,427.397,326.631z"/>
				</g>
			</g>
			<g>
				<g>
					<g>
						<rect x="123.86" y="52.513" style="fill:#BD6EEB;" width="71.034" height="71.034"/>
					</g>
				</g>
				<g>
					<path style="fill:#FFE9DC;" d="M183.529,111.398c-0.332,0-0.662-0.121-0.923-0.366L135.724,66.99       c-0.542-0.509-0.57-1.362-0.059-1.905c0.508-0.544,1.361-0.569,1.904-0.059l46.883,44.042c0.542,0.509,0.57,1.362,0.059,1.904       C184.246,111.256,183.888,111.398,183.529,111.398z"/>
				</g>
				<g>
					<path style="fill:#FFE9DC;" d="M138.067,112.818c-0.332,0-0.662-0.121-0.923-0.366c-0.542-0.509-0.57-1.362-0.059-1.905       l44.042-46.883c0.508-0.544,1.362-0.569,1.905-0.059s0.57,1.362,0.059,1.905l-44.042,46.882       C138.784,112.676,138.426,112.818,138.067,112.818z"/>
				</g>
			</g>
		</g>
		<g>
			<polygon style="fill:#FFB289;" points="79.995,214.257 104.748,218.748 87.612,237.167 83.121,261.921 64.702,244.785      39.948,240.294 57.084,221.875 61.576,197.121    "/>
		</g>
		<g>
			<polygon style="fill:#FFB289;" points="335.717,383.673 360.471,388.164 343.335,406.584 338.844,431.337 320.425,414.201      295.671,409.71 312.807,391.291 317.298,366.537    "/>
		</g>
		<g>
			<polygon style="fill:#7182FF;" points="255.118,47.981 310.95,12.52 313.968,75.142    "/>
		</g>
		<g>
			<polygon style="fill:#BD6EEB;" points="369.128,197.153 424.96,161.692 427.978,224.314    "/>
		</g>
	</g>
</g>















</svg>
