<?xml version="1.0" encoding="UTF-8"?>
<!-- Generator: Adobe Illustrator 25.2.1, SVG Export Plug-In . SVG Version: 6.00 Build 0)  -->
<svg xmlns="http://www.w3.org/2000/svg" xmlns:xlink="http://www.w3.org/1999/xlink" version="1.1" id="Capa_1" x="0px" y="0px" viewBox="0 0 512 512" style="enable-background:new 0 0 512 512;" xml:space="preserve" width="512" height="512">
<g>
	<g>
		<path style="fill:#FFFFFF;" d="M182.218,512c-13.061,0-25.177-2.009-36.013-5.972c-31.189-11.4-51.231-38.378-62.552-59.004    c-11.636-21.219-17.105-40.579-16.722-59.186c0.063-3.344,0.356-6.687,0.868-9.911c1.504-10.423,5.172-20.412,10.558-28.946    c-6.514-9.281-12.049-19.273-16.515-29.818c-3.39-8.005-6.256-16.466-8.545-25.238l-15.913-7.343    c-4.461-2.061-7.443-6.394-7.771-11.299c-0.328-4.905,2.05-9.598,6.199-12.232l11.288-7.17    c-1.001-13.334-0.914-27.204,0.26-41.349c1.51-18.176,4.689-35.637,9.456-51.966L46.038,118.85    c-1.252-5.076,0.553-10.416,4.628-13.69c2.433-1.954,5.41-2.96,8.414-2.96c2.026,0,4.061,0.457,5.95,1.39l14.587,7.211    c10.814-17.308,24.097-31.816,39.589-43.238c2.346-8.667,8.934-18.838,25.112-27.223c3.021-1.565,5.978-2.896,8.866-3.994    c1.672-3.62,4.892-6.35,8.825-7.371l73.165-18.962c1.113-0.288,2.245-0.429,3.368-0.429c3.456,0,6.831,1.335,9.369,3.808    c0.89,0.866,1.644,1.838,2.249,2.885c5.342-4.643,10.971-8.314,16.823-10.979c6.556-2.975,13.428-4.713,20.441-5.171    C288.719,0.041,290.012,0,291.289,0c4.584,0,9.244,0.541,13.854,1.609c0.216,0.05,0.433,0.106,0.645,0.166    c10.569,2.547,18.351,7.163,22.089,9.722c1.392,0.938,2.199,1.572,2.199,1.572c3.069,2.415,5.017,6.114,5.192,10.016l1.768,39.561    c2.772,1.187,5.498,2.407,8.171,3.661c13.59-20.941,36.861-33.864,62.55-33.864c41.167,0,74.66,33.493,74.66,74.66    c0,26.688-14.346,51.105-36.798,64.349c3.985,11.31,7.039,23.477,9.115,36.328c0.146,0.627,0.245,1.257,0.299,1.891    c1.878,12.228,2.947,25.411,3.18,39.198c0.38,22.511-1.469,43.6-5.497,62.756c2.236,7.174,3.366,14.624,3.366,22.2    c0,32.612-21.142,61.298-51.894,71.117c-2.496,2.588-5.082,5.113-7.74,7.559l0.291,3.473c0.356,4.276-1.349,8.464-4.593,11.273    c-4.802,4.158-9.977,8.151-15.483,11.95c0.444,3.856-0.804,7.771-3.51,10.678L355.175,469.2l-4.713,25.973    c-0.876,4.831-4.317,8.798-8.977,10.346c-1.386,0.461-2.816,0.686-4.234,0.686c-3.344,0-6.625-1.25-9.15-3.598l-19.326-17.979    l-25.971-4.713c-1.228-0.223-2.402-0.612-3.493-1.146c-2.304,0.496-4.614,0.968-6.932,1.419    c-6.343,6.619-12.68,11.732-19.278,15.56c-2.575,1.484-5.226,2.826-7.915,4.004c-8.11,3.572-16.456,5.701-23.549,7.312    C207,510.387,194.108,512,182.218,512z"/>
	</g>
	<g>
		<g style="opacity:0.23;">
			<path style="fill:#BD6EEB;" d="M90.167,122.145c-16.52,28.309-24.995,60.833-27.708,93.498     c-2.764,33.278,0.439,67.535,13.463,98.283c13.024,30.749,36.502,57.743,67.066,71.193c9.527,4.193,19.624,7.056,28.933,11.714     c13.472,6.741,24.829,16.995,37.51,25.128c37.759,24.219,87.235,28.126,129.169,12.194c41.934-15.933,75.806-50.75,92.715-92.3     c11.891-29.22,15.72-61.217,15.186-92.759c-0.57-33.65-6.246-67.946-22.631-97.342c-16.277-29.204-42.468-52.141-71.942-67.922     c-29.474-15.781-62.185-24.754-95.175-30.178C189.06,42.523,126.07,60.622,90.167,122.145z"/>
		</g>
		<g>
			<g>
				<polygon style="fill:#BD6EEB;" points="222.671,99.15 167.09,41.976 240.256,23.015     "/>
			</g>
			<g>
				<g>
					<path style="fill:#FFB289;" d="M385.071,417.093c-57.38,49.682-149.021,54.814-149.021,54.814L86.802,239.721l-4.88-7.597       C226.641,113.088,359.362,119.1,359.362,119.1l25.382,294.093L385.071,417.093z"/>
				</g>
				<g>
					<path style="fill:#512651;" d="M87.052,232.988c0,0,37.894-41.319,131.879-78.785c88.685-35.353,137.017-30.829,137.017-30.829       s-10.044,8.119-27.152,19.944l-27.273,13.087l-32.737,23.981c-4.524,2.475-9.17,4.943-13.924,7.387l-29.243,10.014       l-26.671,14.802c-6.289,2.327-12.659,4.516-19.087,6.537l-35.734,4.938l-30.728,8.5       C104.57,233.235,95.77,233.403,87.052,232.988z"/>
				</g>
			</g>
			<g>
				<g>
					<path style="fill:#FFE9DC;" d="M330.256,181.778c0.558,9.87,3.062,19.625,7.328,28.543c1.769,3.699,4.314,7.615,8.335,8.415       c3.794,0.755,7.666-1.72,9.642-5.046c1.976-3.326,2.426-7.323,2.587-11.188c0.483-11.623-1.445-25.853-9.324-35.028       C337.471,154.256,329.608,170.314,330.256,181.778z"/>
				</g>
				<g>
					<path style="fill:#FFE9DC;" d="M362.586,247.867c0,4.434-3.594,8.028-8.028,8.028c-4.434,0-8.029-3.594-8.029-8.028       s3.594-8.028,8.029-8.028C358.991,239.839,362.586,243.433,362.586,247.867z"/>
				</g>
			</g>
			<g style="opacity:0.18;">
				<path style="fill:#512651;" d="M385.071,417.093c-57.38,49.682-149.021,54.814-149.021,54.814L86.802,239.721      c20.879,14.666,41.683,29.181,63.392,42.739c32.275,20.15,64.75,39.997,97.402,59.518      c44.249,26.489,89.176,52.525,137.148,71.215L385.071,417.093z"/>
			</g>
			<g>
				<g>
					<g>
						<g>
							<g>
								<g>
									<path style="fill:#FF8C9D;" d="M280.952,173.738c-3.924,2.264-7.974,4.503-12.1,6.767l-3.396-42.588L256.853,30           c0.075-0.076,0.126-0.126,0.201-0.201c5.761-5.761,11.572-9.71,17.207-12.276c10.917-4.956,21.231-4.754,29.558-2.818           c8.754,2.013,15.32,5.911,18.187,7.874c1.006,0.679,1.56,1.107,1.56,1.107l4.503,100.723l0.855,19.093           c-3.824,2.641-7.974,5.459-12.452,8.402c-0.377,0.251-0.755,0.503-1.157,0.755c-5.157,3.371-10.691,6.892-16.603,10.515           c-0.377,0.252-0.78,0.478-1.157,0.704c-4.931,3.044-10.087,6.113-15.471,9.207           C281.707,173.311,281.329,173.512,280.952,173.738z"/>
								</g>
								<g>
									<path style="fill:#F7607D;" d="M328.924,143.501c-3.824,2.641-7.974,5.459-12.452,8.402           c-0.377,0.251-0.755,0.503-1.157,0.755c-5.157,3.371-10.691,6.892-16.603,10.515c-0.377,0.252-0.78,0.478-1.157,0.704           c-4.931,3.044-10.087,6.113-15.471,9.207c-0.378,0.227-0.755,0.428-1.132,0.654c-3.924,2.264-7.974,4.503-12.1,6.767           l-3.396-42.588L256.853,30c0.075-0.076,0.126-0.126,0.201-0.201c1.635,0.453,3.346,0.679,4.855,0.931           c1.811,0.277,3.648,0.553,5.459,0.729c0.377,0.05,0.805,0.101,1.182,0.126c5.911,0.604,11.773,0.679,17.609,0.252           c0.402-0.025,0.805-0.05,1.207-0.075c7.019-0.579,13.936-1.887,20.703-3.924c0.402-0.126,0.78-0.252,1.182-0.378           c4.302-1.358,8.578-2.993,12.754-4.88c1.006,0.679,1.56,1.107,1.56,1.107l4.503,100.723L328.924,143.501z"/>
								</g>
								<g>
									<g>
										<path style="fill:#512651;" d="M316.472,151.903c-0.377,0.251-0.755,0.503-1.157,0.755l-1.509-26.212l-5.736-98.609            c0.402-0.126,0.78-0.252,1.182-0.378l5.736,98.786L316.472,151.903z"/>
									</g>
									<g>
										<path style="fill:#512651;" d="M298.712,163.173c-0.377,0.252-0.78,0.478-1.157,0.704l-2.893-33.658l-8.503-98.383            c0.402-0.025,0.805-0.05,1.207-0.075l8.477,98.207L298.712,163.173z"/>
									</g>
									<g>
										<path style="fill:#512651;" d="M278.361,134.244l3.723,38.84c-0.378,0.227-0.755,0.428-1.132,0.654l-3.748-39.167            l-9.836-103.112c0.377,0.05,0.805,0.101,1.182,0.126L278.361,134.244z"/>
									</g>
								</g>
							</g>
						</g>
						<g>
							<path style="fill:#512651;" d="M274.27,17.53c10.913-4.962,21.234-4.765,29.559-2.838c-1.998,9.282-17.004,8.397-22.824,7.24         C278.52,21.449,275.648,20.187,274.27,17.53z"/>
						</g>
					</g>
					<g>
						<g>
							<g>
								<g>
									<path style="fill:#FF8C9D;" d="M152.91,185.687l26.941,33.407c-4.478,1.384-8.981,2.692-13.483,3.899           c-0.428,0.126-0.855,0.251-1.283,0.327c-5.736,1.56-11.521,2.918-17.307,4.1c-0.453,0.101-0.881,0.201-1.333,0.277           c-5.937,1.208-11.924,2.239-17.886,3.019c-0.453,0.075-0.905,0.151-1.358,0.176c-4.654,0.629-9.333,1.107-13.986,1.409           l-10.037-13.333l-25.156-33.507l-0.402-1.535l-10.867-44.148l-5.962-24.149l24.577,12.15l34.639,17.131l0.226,0.302           L152.91,185.687z"/>
								</g>
								<g>
									<path style="fill:#BD6EEB;" d="M152.91,185.687l26.941,33.407c-4.478,1.384-8.981,2.692-13.483,3.899           c-0.428,0.126-0.855,0.251-1.283,0.327c-5.736,1.56-11.521,2.918-17.307,4.1c-0.453,0.101-0.881,0.201-1.333,0.277           c-5.937,1.208-11.924,2.239-17.886,3.019c-0.453,0.075-0.905,0.151-1.358,0.176c-4.654,0.629-9.148,1.369-13.802,1.671           l-10.222-13.595l-25.156-33.507l-0.402-1.535c3.824-0.629,7.421-1.761,10.817-3.245c0.377-0.151,0.729-0.327,1.107-0.503           c4.276-2.012,8.226-4.629,11.722-7.697c0.327-0.251,0.629-0.529,0.906-0.805c1.157-1.031,2.264-2.113,3.32-3.245           c2.44-2.667,4.704-5.509,6.717-8.553h0.025c0.226-0.352,0.453-0.704,0.679-1.057c2.792-4.277,5.182-8.855,7.32-13.609           L152.91,185.687z"/>
								</g>
								<g>
									<g>
										<path style="fill:#512651;" d="M128.56,230.715c-0.453,0.075-0.905,0.151-1.358,0.176l-14.741-19.093l-24.023-31.117            c0.377-0.151,0.729-0.327,1.107-0.503l23.873,30.916L128.56,230.715z"/>
									</g>
									<g>
										<path style="fill:#512651;" d="M147.779,227.42c-0.453,0.101-0.881,0.201-1.333,0.277l-20.678-25.281l-24.501-29.935            c0.327-0.251,0.629-0.529,0.906-0.805l24.602,30.061L147.779,227.42z"/>
									</g>
									<g>
										<path style="fill:#512651;" d="M166.369,222.993c-0.428,0.126-0.855,0.251-1.283,0.327l-25.055-30.061l-27.822-33.381            h0.025c0.226-0.352,0.453-0.704,0.679-1.057l28.174,33.809L166.369,222.993z"/>
									</g>
								</g>
							</g>
							<g>
								<path style="fill:#512651;" d="M85.38,127.785c1.615,8.325-10.439,14.621-18.627,11.992l-5.961-24.146L85.38,127.785z"/>
							</g>
						</g>
					</g>
					<g>
						<g>
							<g>
								<path style="fill:#FFA9DD;" d="M137.853,89.538c0,0-17.107-20.966,14.358-37.274c34.651-17.96,41.395,8.377,41.395,8.377          L137.853,89.538z"/>
							</g>
						</g>
						<g>
							<g>
								<path style="fill:#7182FF;" d="M240.175,195.146c-9.484,4.528-19.294,8.855-29.382,12.88          c-0.302,0.126-0.604,0.251-0.906,0.352c-3.622,1.459-7.27,2.868-10.942,4.201l-20.124-40.526l-28.174-56.776l23.407-19.102          l32.036-9.626l29.533,61.304l19.294,40.022c-4.528,2.314-9.157,4.603-13.861,6.842          C240.754,194.869,240.477,195.02,240.175,195.146z"/>
							</g>
						</g>
						<g>
							<g>
								<g>
									<path style="fill:#512651;" d="M190.996,166.242l19.798,41.783c-0.302,0.126-0.604,0.251-0.906,0.352l-19.772-41.708           l-27.344-57.682l-1.183-2.465c-0.1-0.252,0-0.528,0.226-0.654c0.251-0.101,0.528,0,0.654,0.252l1.157,2.44L190.996,166.242           z"/>
								</g>
							</g>
							<g>
								<g>
									<path style="fill:#512651;" d="M220.906,153.463l20.15,41.255c-0.302,0.151-0.579,0.302-0.881,0.428l-20.2-41.331           l-29.029-59.417l-0.956-1.962c-0.101-0.251,0-0.553,0.226-0.654c0.226-0.126,0.528-0.025,0.654,0.226l0.956,1.937           L220.906,153.463z"/>
								</g>
							</g>
						</g>
						<g>
							<g>
								<g>
									<polygon style="fill:#FFB289;" points="193.605,60.642 197.803,69.351 198.264,70.316 200.882,75.75 201.343,76.716            206.08,86.542 150.639,115.277 145.778,105.516 145.316,104.55 142.636,99.149 142.144,98.199 137.853,89.538          "/>
								</g>
							</g>
							<g>
								<g>
									<polygon style="fill:#FFE9DC;" points="197.803,69.351 198.264,70.316 142.636,99.149 142.144,98.199          "/>
								</g>
							</g>
							<g>
								<g>
									<polygon style="fill:#FFE9DC;" points="200.882,75.75 201.343,76.716 145.778,105.516 145.316,104.55          "/>
								</g>
							</g>
						</g>
					</g>
				</g>
			</g>
			<g>
				<g>
					<g>
						<path style="fill:#F7607D;" d="M300.322,388.088c0.805,27.344-11.672,53.732-28.979,74.938        c-6.666,8.15-14.163,15.823-23.269,21.106c-2.138,1.233-4.327,2.339-6.566,3.32c-6.742,2.968-13.936,4.88-21.131,6.515        c-22.388,5.082-46.311,7.32-67.844-0.553c-24.501-8.955-42.84-29.985-55.393-52.852c-8.855-16.15-15.445-34.06-15.068-52.449        c0.05-2.692,0.277-5.383,0.704-8.075c2.264-15.672,10.238-30.665,23.546-39.042c9.886-6.213,21.709-8.125,33.231-7.22        c9.257,0.704,19.772,6.389,28.979,4.226c0.302-0.05,0.604-0.151,0.905-0.226c8.427-2.465,15.798-8.377,24.2-11.723        c1.082-0.453,2.189-0.83,3.321-1.182c11.144-3.346,22.841-4.729,34.463-4.654c8.754,0.076,17.609,0.956,25.885,3.824        C283.166,332.973,299.517,360.744,300.322,388.088z"/>
					</g>
					<g>
						<path style="fill:#7182FF;" d="M168.273,339.587c4.194-31.241,27.555-59.099,57.587-68.673        c0.022,15.611-6.538,30.041-16.664,41.922C199.07,324.716,182.445,333.041,168.273,339.587z"/>
					</g>
					<g>
						<g>
							<path style="fill:#FFE9DC;" d="M245.929,346.334c-0.028,6.077,2.884,11.798,6.423,16.738         c2.004,2.798,4.271,5.472,7.127,7.393s6.373,3.036,9.77,2.487c5.968-0.964,10.204-7.029,10.502-13.067         c0.297-6.038-2.618-11.844-6.498-16.48c-3.754-4.486-10.769-10.632-17.091-10.62         C249.747,332.798,245.956,340.584,245.929,346.334z"/>
						</g>
						<g>
							<path style="fill:#FFE9DC;" d="M272.988,393.493c0.551,1.465,1.31,2.882,2.439,3.965c1.866,1.791,4.642,2.493,7.191,2.054         c2.549-0.438,4.852-1.939,6.498-3.933c5.602-6.784,1.694-17.288-7.265-18.232         C273.027,376.418,270.459,386.772,272.988,393.493z"/>
						</g>
					</g>
				</g>
				<g style="opacity:0.33;">
					<path style="fill:#512651;" d="M241.508,487.453c-6.742,2.968-13.936,4.88-21.131,6.515       c-22.388,5.082-46.311,7.32-67.844-0.553c-24.501-8.955-42.84-29.985-55.393-52.852c-8.855-16.15-15.445-34.06-15.068-52.449       c0.05-2.692,0.277-5.383,0.704-8.075c3.798,11.546,9.71,22.388,16.527,32.476c17.055,25.181,40.324,46.361,67.668,59.694       C190.015,483.453,215.95,489.013,241.508,487.453z"/>
				</g>
			</g>
			<g>
				<g>
					
						<ellipse transform="matrix(0.8817 -0.4719 0.4719 0.8817 -2.0867 205.8852)" style="fill:#BD6EEB;" cx="409.471" cy="107.103" rx="61.23" ry="61.23"/>
				</g>
				<g>
					<path style="fill:#FFE9DC;" d="M382.495,136.131c-0.537,0-1.048-0.266-1.352-0.723l-16.699-25.048       c-0.498-0.747-0.296-1.756,0.45-2.254c0.749-0.499,1.757-0.295,2.253,0.45l14.632,21.948l9.411-39.408       c0.175-0.731,0.829-1.247,1.581-1.247h64.869c0.898,0,1.625,0.727,1.625,1.625c0,0.898-0.727,1.625-1.625,1.625h-63.587       l-9.978,41.785c-0.15,0.629-0.659,1.108-1.296,1.222C382.685,136.123,382.589,136.131,382.495,136.131z"/>
				</g>
			</g>
			<g>
				<g>
					<g>
						<circle style="fill:#7182FF;" cx="383.138" cy="333.824" r="61.23"/>
					</g>
				</g>
				<g>
					<g>
						<path style="fill:#FFE9DC;" d="M367.476,346.073c0.049,0.191,0.049,0.379,0.049,0.666c0,1.094-0.81,1.951-1.905,1.951h-2.996        c-1.048,0-1.905-0.666-2.191-1.714l-1.664-5.661h-8.515l-1.714,5.661c-0.286,1.048-1.14,1.714-2.142,1.714h-2.949        c-1.094,0-1.902-0.857-1.902-1.951c0-0.286,0-0.475,0.046-0.666l9.135-29.497c0.286-0.999,1.143-1.667,2.188-1.667h3.236        c1.048,0,1.905,0.669,2.188,1.667L367.476,346.073z M354.488,326.756l-2.237,7.661h4.472L354.488,326.756z"/>
					</g>
					<g>
						<path style="fill:#FFE9DC;" d="M384.845,348.69h-8.706c-1.569,0-2.712-1.331-2.712-2.854v-27.833c0-0.761,0.287-1.476,0.811-2        c0.475-0.57,1.187-0.854,1.902-0.854h7.421c5.378,0,9.517,4.518,9.517,9.8c0,2.043-0.666,3.806-2,5.375        c2.712,1.714,3.855,4.617,3.855,7.754C394.932,343.741,390.648,348.69,384.845,348.69z M383.181,322.047h-2.903v5.899h2.903        c1.523,0,3.045-1.331,3.045-2.9C386.226,323.378,384.845,322.047,383.181,322.047z M380.278,334.606v7.138h4.33        c2.188,0,3.424-1.569,3.424-3.664c0-1.997-1.427-3.473-3.424-3.473H380.278z"/>
					</g>
					<g>
						<path style="fill:#FFE9DC;" d="M422.342,342.172c0.379,0.428,0.617,0.952,0.617,1.523c0,0.475-0.142,0.903-0.428,1.285        l-0.047,0.046c-2.333,2.761-5.615,4.284-9.276,4.284c-6.805,0-11.801-6.09-11.801-12.657v-9.418        c0-6.614,5.042-12.608,11.801-12.608c3.711,0,6.993,1.473,9.227,4.234c0.336,0.379,0.477,0.857,0.477,1.378        c0,0.478-0.191,1.001-0.524,1.476l-1.905,2.093c-0.425,0.428-0.854,0.62-1.331,0.62c-0.379,0-0.903-0.096-1.427-0.715        c-1.19-1.331-2.663-1.997-4.518-1.997c-2.57,0-4.854,2.57-4.854,5.52v9.418c0,2.999,2.284,5.566,4.854,5.566        c1.855,0,3.329-0.666,4.518-1.997c0.524-0.619,1.048-0.712,1.38-0.712c0.333,0,0.857,0.093,1.378,0.617L422.342,342.172z"/>
					</g>
				</g>
			</g>
			<g>
				<polygon style="fill:#FF8C9D;" points="44.728,274.386 112.036,231.636 115.675,307.13     "/>
			</g>
			<g>
				<polygon style="fill:#FFE9DC;" points="413.551,205.381 443.393,210.795 422.735,233 417.32,262.842 395.115,242.184       365.273,236.77 385.931,214.564 391.346,184.722     "/>
			</g>
			<g>
				<polygon style="fill:#FFA9DD;" points="335.194,435.313 365.036,440.727 344.378,462.932 338.963,492.775 316.758,472.116       286.916,466.702 307.575,444.496 312.989,414.654     "/>
			</g>
		</g>
	</g>
</g>















</svg>
