<?xml version="1.0" encoding="UTF-8"?>
<!-- Generator: Adobe Illustrator 25.2.1, SVG Export Plug-In . SVG Version: 6.00 Build 0)  -->
<svg xmlns="http://www.w3.org/2000/svg" xmlns:xlink="http://www.w3.org/1999/xlink" version="1.1" id="Capa_1" x="0px" y="0px" viewBox="0 0 512 512" style="enable-background:new 0 0 512 512;" xml:space="preserve" width="512" height="512">
<g>
	<g>
		<path style="fill:#FFFFFF;" d="M237.932,486.891c-4.595,0-9.035-1.094-13.051-3.191c-0.992-0.146-1.932-0.313-2.854-0.507    c-3.066-0.641-5.842-2.26-7.911-4.612c-0.481-0.547-9.98-11.433-19.109-27.477l-60.764,16.31l-0.83,3.726    c-1.152,5.165-5.031,9.291-10.117,10.757c-1.324,0.384-2.675,0.57-4.016,0.57c-3.803,0-7.52-1.503-10.277-4.279l-11.467-11.557    l-15.891-3.543c-5.166-1.151-9.292-5.03-10.76-10.115c-1.468-5.086-0.045-10.566,3.712-14.294l11.557-11.468l1.038-4.661    l-6.541-20.502c0,0-0.296-0.87-0.324-0.958l-10.594-33.178l-9.191-28.707c-11.895-22.325-19.603-46.439-22.922-71.716    l-7.961-24.882l-0.227-0.681L0.688,152.012c-1.207-3.773-0.814-7.876,1.085-11.353c1.899-3.476,5.14-6.022,8.967-7.045    l64.479-17.232c6.831-9.548,14.447-18.51,22.77-26.81c-0.325-0.692-0.598-1.413-0.815-2.161    c-1.468-5.085-0.045-10.566,3.712-14.294l11.557-11.468l3.542-15.89c1.152-5.166,5.031-9.292,10.117-10.76    c1.322-0.382,2.675-0.568,4.016-0.568c3.803,0,7.52,1.501,10.277,4.279l11.467,11.557l0.297,0.066    c29.478-14.904,62.421-22.759,95.632-22.759c16.081,0,32.125,1.839,47.836,5.478c5.166-4.958,12.155-7.943,19.628-7.943    c14.592,0,26.643,11.083,28.177,25.273c29.936,15.154,55.936,37.261,75.787,64.504c5.382,3.415,9.36,8.629,11.272,14.63    l26.466,8.349l3.252-10.306c1.155-3.662,3.716-6.715,7.124-8.487c2.083-1.084,4.378-1.636,6.683-1.636    c1.466,0,2.934,0.222,4.355,0.671l23.504,7.416c7.626,2.406,11.856,10.537,9.45,18.163l-76.185,241.492    c-1.949,6.176-7.654,10.126-13.802,10.126c-1.445,0-2.911-0.217-4.36-0.674l-18.53-5.846c-1.612,1.624-3.257,3.226-4.93,4.806    l6.273,11.857c2.474,4.678,2.199,10.333-0.716,14.75c-2.694,4.078-7.244,6.499-12.08,6.499c-0.401,0-0.801-0.017-1.204-0.05    l-16.225-1.354l-14.392,7.614c-2.123,1.123-4.449,1.68-6.771,1.68c-2.788,0-5.569-0.805-7.979-2.396    c-0.516-0.342-1.006-0.713-1.471-1.111c-6.24,2.969-12.638,5.638-19.164,7.991c-4.755,4.798-33.022,32.326-64.577,41.916    C250.288,484.779,244.198,486.891,237.932,486.891z M447.42,168.093l0.096-0.31l-0.236-0.075    C447.328,167.836,447.372,167.964,447.42,168.093z"/>
	</g>
	<g>
		<g>
			
				<ellipse transform="matrix(0.7071 -0.7071 0.7071 0.7071 -96.8619 245.3966)" style="fill:#F7607D;" cx="247.789" cy="239.621" rx="197.568" ry="197.568"/>
		</g>
		<g>
			<g>
				<g>
					
						<rect x="234.794" y="66.483" transform="matrix(0.9537 0.3009 -0.3009 0.9537 69.5463 -65.4026)" style="fill:#BD6EEB;" width="24.645" height="253.224"/>
				</g>
				<g style="opacity:0.42;">
					
						<rect x="249.438" y="68.738" transform="matrix(0.9537 0.3008 -0.3008 0.9537 70.5504 -67.4449)" style="fill:#512651;" width="9.652" height="253.225"/>
				</g>
			</g>
			<g>
				<path style="fill:#512651;" d="M470.158,159.199c-0.071,0-0.145-0.012-0.216-0.034l-185.672-58.578      c-0.379-0.119-0.59-0.524-0.47-0.904c0.12-0.379,0.523-0.587,0.903-0.47l185.672,58.578c0.379,0.119,0.59,0.525,0.47,0.904      C470.748,159.003,470.464,159.199,470.158,159.199z"/>
			</g>
			<g>
				<path style="fill:#512651;" d="M457.182,200.328c-0.071,0-0.145-0.012-0.216-0.034l-185.672-58.577      c-0.379-0.119-0.59-0.525-0.47-0.904c0.12-0.378,0.523-0.586,0.903-0.47l185.672,58.577c0.379,0.119,0.59,0.525,0.47,0.904      C457.771,200.132,457.488,200.328,457.182,200.328z"/>
			</g>
			<g>
				<path style="fill:#512651;" d="M457.182,200.328c-0.071,0-0.145-0.012-0.216-0.034l-185.672-58.577      c-0.379-0.119-0.59-0.525-0.47-0.904c0.12-0.378,0.523-0.586,0.903-0.47l185.672,58.577c0.379,0.119,0.59,0.525,0.47,0.904      C457.771,200.132,457.488,200.328,457.182,200.328z"/>
			</g>
			<g>
				<path style="fill:#512651;" d="M444.205,241.458c-0.071,0-0.144-0.012-0.216-0.034l-185.672-58.577      c-0.379-0.119-0.59-0.524-0.47-0.904c0.12-0.379,0.523-0.587,0.903-0.47l185.672,58.577c0.379,0.119,0.59,0.525,0.47,0.904      C444.795,241.262,444.512,241.458,444.205,241.458z"/>
			</g>
			<g>
				<path style="fill:#512651;" d="M444.205,241.458c-0.071,0-0.144-0.012-0.216-0.034l-185.672-58.577      c-0.379-0.119-0.59-0.524-0.47-0.904c0.12-0.379,0.523-0.587,0.903-0.47l185.672,58.577c0.379,0.119,0.59,0.525,0.47,0.904      C444.795,241.262,444.512,241.458,444.205,241.458z"/>
			</g>
			<g>
				<path style="fill:#512651;" d="M431.23,282.589c-0.071,0-0.145-0.012-0.217-0.034l-185.672-58.577      c-0.379-0.119-0.59-0.525-0.47-0.904c0.119-0.379,0.524-0.585,0.903-0.469l185.672,58.576c0.379,0.119,0.59,0.525,0.47,0.904      C431.82,282.392,431.536,282.589,431.23,282.589z"/>
			</g>
			<g>
				<path style="fill:#512651;" d="M431.23,282.589c-0.071,0-0.145-0.012-0.217-0.034l-185.672-58.577      c-0.379-0.119-0.59-0.525-0.47-0.904c0.119-0.379,0.524-0.585,0.903-0.469l185.672,58.576c0.379,0.119,0.59,0.525,0.47,0.904      C431.82,282.392,431.536,282.589,431.23,282.589z"/>
			</g>
			<g>
				<path style="fill:#512651;" d="M418.254,323.719c-0.071,0-0.145-0.012-0.217-0.034l-185.672-58.578      c-0.379-0.119-0.59-0.525-0.47-0.904c0.12-0.378,0.524-0.586,0.903-0.469l185.672,58.578c0.379,0.119,0.59,0.525,0.47,0.904      C418.844,323.523,418.56,323.719,418.254,323.719z"/>
			</g>
			<g>
				<g>
					<g>
						<path style="fill:#7182FF;" d="M315.683,109.532c-0.886,2.808-2.658,5.057-4.908,6.574c-3.042,2.102-7.007,2.8-10.804,1.602        c-5.546-1.75-9.011-6.967-8.734-12.498c0.036-1.077,0.225-2.156,0.559-3.214c2.084-6.605,9.107-10.259,15.712-8.176        C314.112,95.904,317.767,102.927,315.683,109.532z"/>
					</g>
					<g>
						<path style="fill:#FFE9DC;" d="M306.746,101.847c-0.1,1.891,0.86,3.757,2.324,4.959c0.657,0.539,1.485,0.974,2.325,0.846        c0.811-0.124,1.465-0.755,1.864-1.471c1.045-1.879,0.594-4.271-0.422-6.166C310.817,96.247,306.957,97.879,306.746,101.847z"/>
					</g>
					<g style="opacity:0.22;">
						<path style="fill:#512651;" d="M310.775,116.106c-3.042,2.102-7.007,2.8-10.804,1.602c-5.546-1.75-9.011-6.967-8.734-12.498        c0.54,1.335,1.378,2.611,2.357,3.679c2.035,2.211,4.723,3.717,7.445,4.955C304.075,115.207,307.495,116.236,310.775,116.106z"/>
					</g>
				</g>
				<g>
					<g>
						<path style="fill:#BD6EEB;" d="M303.635,149.555c-0.886,2.808-2.658,5.057-4.908,6.574c-3.042,2.102-7.007,2.8-10.804,1.602        c-5.546-1.75-9.011-6.967-8.734-12.497c0.036-1.077,0.225-2.156,0.559-3.214c2.084-6.605,9.107-10.26,15.712-8.176        C302.064,135.926,305.719,142.95,303.635,149.555z"/>
					</g>
					<g>
						<path style="fill:#FFE9DC;" d="M294.698,141.869c-0.1,1.891,0.86,3.757,2.324,4.958c0.657,0.539,1.485,0.974,2.325,0.846        c0.81-0.124,1.465-0.754,1.864-1.471c1.044-1.879,0.594-4.271-0.423-6.166C298.769,136.269,294.909,137.901,294.698,141.869z"/>
					</g>
					<g style="opacity:0.22;">
						<path style="fill:#512651;" d="M298.727,156.129c-3.042,2.102-7.007,2.8-10.804,1.602c-5.546-1.75-9.011-6.967-8.734-12.497        c0.541,1.334,1.378,2.611,2.357,3.679c2.036,2.211,4.723,3.717,7.445,4.955C292.027,155.229,295.447,156.258,298.727,156.129z        "/>
					</g>
				</g>
				<g>
					<g>
						<path style="fill:#FFB289;" d="M290.323,191.75c-0.886,2.808-2.658,5.057-4.908,6.574c-3.042,2.102-7.007,2.8-10.804,1.601        c-5.546-1.75-9.011-6.967-8.734-12.497c0.036-1.077,0.225-2.156,0.559-3.214c2.084-6.605,9.107-10.26,15.712-8.176        C288.752,178.122,292.407,185.145,290.323,191.75z"/>
					</g>
					<g>
						<path style="fill:#FFE9DC;" d="M281.386,184.064c-0.1,1.891,0.86,3.757,2.324,4.958c0.657,0.539,1.485,0.974,2.325,0.846        c0.811-0.124,1.466-0.755,1.864-1.471c1.045-1.879,0.594-4.271-0.422-6.166C285.457,178.464,281.597,180.096,281.386,184.064z        "/>
					</g>
					<g style="opacity:0.22;">
						<path style="fill:#512651;" d="M285.415,198.324c-3.042,2.102-7.007,2.8-10.804,1.601c-5.546-1.75-9.011-6.967-8.734-12.497        c0.541,1.335,1.378,2.611,2.357,3.679c2.036,2.211,4.723,3.717,7.445,4.955C278.715,197.424,282.136,198.453,285.415,198.324z        "/>
					</g>
				</g>
				<g>
					<g>
						<path style="fill:#FF8C9D;" d="M277.533,232.292c-0.886,2.807-2.658,5.057-4.908,6.574c-3.042,2.102-7.007,2.799-10.804,1.602        c-5.546-1.75-9.012-6.967-8.734-12.497c0.036-1.077,0.225-2.156,0.559-3.214c2.084-6.605,9.107-10.26,15.712-8.176        C275.962,218.664,279.616,225.687,277.533,232.292z"/>
					</g>
					<g>
						<path style="fill:#FFE9DC;" d="M268.596,224.606c-0.101,1.891,0.86,3.757,2.324,4.959c0.657,0.539,1.485,0.974,2.325,0.846        c0.81-0.124,1.465-0.754,1.864-1.471c1.045-1.879,0.593-4.272-0.423-6.166C272.667,219.007,268.807,220.639,268.596,224.606z"/>
					</g>
					<g style="opacity:0.22;">
						<path style="fill:#512651;" d="M272.625,238.866c-3.042,2.102-7.007,2.799-10.804,1.602c-5.546-1.75-9.012-6.967-8.734-12.497        c0.541,1.335,1.378,2.611,2.357,3.679c2.035,2.211,4.723,3.717,7.445,4.955C265.925,237.967,269.345,238.996,272.625,238.866z        "/>
					</g>
				</g>
				<g>
					<g>
						<path style="fill:#FFA9DD;" d="M264.239,274.429c-0.886,2.808-2.658,5.057-4.908,6.574c-3.042,2.102-7.007,2.8-10.804,1.602        c-5.546-1.75-9.012-6.967-8.734-12.497c0.036-1.077,0.225-2.156,0.559-3.215c2.084-6.605,9.107-10.259,15.712-8.176        C262.668,260.801,266.323,267.824,264.239,274.429z"/>
					</g>
					<g>
						<path style="fill:#FFE9DC;" d="M255.302,266.743c-0.101,1.891,0.86,3.757,2.324,4.958c0.657,0.539,1.485,0.974,2.326,0.846        c0.81-0.124,1.465-0.755,1.864-1.471c1.045-1.879,0.593-4.271-0.423-6.166C259.373,261.144,255.513,262.775,255.302,266.743z"/>
					</g>
					<g style="opacity:0.22;">
						<path style="fill:#512651;" d="M259.331,281.003c-3.042,2.102-7.007,2.8-10.804,1.602c-5.546-1.75-9.012-6.967-8.734-12.497        c0.54,1.335,1.378,2.611,2.357,3.679c2.035,2.211,4.723,3.717,7.445,4.955C252.631,280.104,256.052,281.132,259.331,281.003z"/>
					</g>
				</g>
				<g>
					<g>
						<path style="fill:#7182FF;" d="M340.948,117.503c-0.886,2.808-2.658,5.057-4.908,6.574c-3.042,2.102-7.007,2.799-10.804,1.602        c-5.546-1.75-9.011-6.967-8.734-12.497c0.036-1.077,0.225-2.156,0.559-3.214c2.084-6.605,9.107-10.259,15.712-8.176        C339.378,103.875,343.032,110.898,340.948,117.503z"/>
					</g>
					<g>
						<path style="fill:#FFE9DC;" d="M332.011,109.818c-0.1,1.891,0.86,3.757,2.324,4.959c0.657,0.539,1.485,0.974,2.325,0.846        c0.811-0.124,1.465-0.755,1.864-1.471c1.045-1.879,0.594-4.271-0.423-6.166C336.082,104.218,332.222,105.85,332.011,109.818z"/>
					</g>
					<g style="opacity:0.22;">
						<path style="fill:#512651;" d="M336.04,124.077c-3.042,2.102-7.007,2.799-10.804,1.602c-5.546-1.75-9.011-6.967-8.734-12.497        c0.541,1.335,1.378,2.611,2.357,3.679c2.035,2.211,4.723,3.717,7.445,4.955C329.34,123.178,332.761,124.207,336.04,124.077z"/>
					</g>
				</g>
				<g>
					<g>
						<path style="fill:#BD6EEB;" d="M328.901,157.526c-0.886,2.808-2.658,5.057-4.908,6.574c-3.042,2.102-7.007,2.8-10.804,1.602        c-5.546-1.75-9.011-6.967-8.734-12.497c0.036-1.077,0.225-2.156,0.559-3.214c2.084-6.605,9.107-10.259,15.712-8.176        C327.33,143.897,330.985,150.921,328.901,157.526z"/>
					</g>
					<g>
						<path style="fill:#FFE9DC;" d="M319.964,149.84c-0.101,1.891,0.86,3.757,2.324,4.958c0.657,0.54,1.485,0.974,2.325,0.846        c0.81-0.124,1.465-0.755,1.864-1.471c1.045-1.879,0.594-4.271-0.423-6.166C324.034,144.24,320.174,145.872,319.964,149.84z"/>
					</g>
					<g style="opacity:0.22;">
						<path style="fill:#512651;" d="M323.993,164.099c-3.042,2.102-7.007,2.8-10.804,1.602c-5.546-1.75-9.011-6.967-8.734-12.497        c0.541,1.335,1.378,2.611,2.357,3.679c2.035,2.211,4.723,3.717,7.445,4.955C317.292,163.2,320.713,164.229,323.993,164.099z"/>
					</g>
				</g>
				<g>
					<g>
						<path style="fill:#FFB289;" d="M315.589,199.721c-0.886,2.808-2.658,5.057-4.908,6.574c-3.042,2.102-7.007,2.8-10.804,1.602        c-5.546-1.75-9.011-6.967-8.734-12.497c0.036-1.077,0.225-2.156,0.559-3.215c2.084-6.605,9.107-10.259,15.712-8.176        C314.018,186.092,317.673,193.116,315.589,199.721z"/>
					</g>
					<g>
						<path style="fill:#FFE9DC;" d="M306.652,192.035c-0.101,1.891,0.86,3.757,2.324,4.958c0.657,0.539,1.485,0.974,2.325,0.846        c0.811-0.124,1.466-0.754,1.864-1.471c1.045-1.879,0.593-4.271-0.423-6.166C310.722,186.435,306.863,188.067,306.652,192.035z        "/>
					</g>
					<g style="opacity:0.22;">
						<path style="fill:#512651;" d="M310.681,206.295c-3.042,2.102-7.007,2.8-10.804,1.602c-5.546-1.75-9.011-6.967-8.734-12.497        c0.541,1.334,1.378,2.611,2.357,3.679c2.036,2.211,4.723,3.717,7.445,4.955C303.981,205.395,307.401,206.424,310.681,206.295z        "/>
					</g>
				</g>
				<g>
					<g>
						<path style="fill:#FF8C9D;" d="M302.798,240.263c-0.886,2.808-2.658,5.057-4.908,6.574c-3.042,2.102-7.007,2.799-10.804,1.602        c-5.546-1.75-9.012-6.967-8.734-12.498c0.036-1.077,0.225-2.156,0.559-3.214c2.084-6.605,9.107-10.26,15.712-8.176        C301.227,226.635,304.882,233.658,302.798,240.263z"/>
					</g>
					<g>
						<path style="fill:#FFE9DC;" d="M293.861,232.577c-0.101,1.891,0.86,3.757,2.324,4.958c0.657,0.54,1.485,0.974,2.325,0.846        c0.811-0.124,1.465-0.755,1.864-1.471c1.044-1.879,0.593-4.271-0.423-6.166C297.932,226.978,294.072,228.609,293.861,232.577z        "/>
					</g>
					<g style="opacity:0.22;">
						<path style="fill:#512651;" d="M297.89,246.837c-3.042,2.102-7.007,2.799-10.804,1.602c-5.546-1.75-9.012-6.967-8.734-12.498        c0.541,1.335,1.378,2.611,2.357,3.679c2.035,2.211,4.723,3.717,7.445,4.955C291.19,245.938,294.611,246.966,297.89,246.837z"/>
					</g>
				</g>
				<g>
					<g>
						<path style="fill:#FFA9DD;" d="M289.505,282.4c-0.886,2.807-2.658,5.057-4.908,6.574c-3.042,2.102-7.007,2.8-10.804,1.602        c-5.546-1.75-9.012-6.967-8.734-12.497c0.036-1.077,0.225-2.156,0.559-3.214c2.084-6.605,9.107-10.26,15.712-8.176        C287.934,268.772,291.589,275.795,289.505,282.4z"/>
					</g>
					<g>
						<path style="fill:#FFE9DC;" d="M280.568,274.714c-0.1,1.891,0.86,3.757,2.324,4.958c0.657,0.539,1.485,0.974,2.325,0.846        c0.81-0.124,1.465-0.754,1.864-1.471c1.045-1.879,0.594-4.272-0.422-6.166C284.638,269.115,280.778,270.746,280.568,274.714z"/>
					</g>
					<g style="opacity:0.22;">
						<path style="fill:#512651;" d="M284.597,288.974c-3.042,2.102-7.007,2.8-10.804,1.602c-5.546-1.75-9.012-6.967-8.734-12.497        c0.54,1.335,1.378,2.611,2.357,3.679c2.035,2.211,4.723,3.717,7.445,4.955C277.896,288.075,281.317,289.103,284.597,288.974z"/>
					</g>
				</g>
				<g>
					<g>
						<path style="fill:#7182FF;" d="M366.214,125.474c-0.886,2.808-2.658,5.057-4.908,6.574c-3.042,2.102-7.007,2.8-10.804,1.602        c-5.546-1.75-9.011-6.967-8.734-12.497c0.036-1.077,0.225-2.156,0.559-3.214c2.084-6.605,9.107-10.26,15.712-8.176        C364.643,111.846,368.298,118.869,366.214,125.474z"/>
					</g>
					<g>
						<path style="fill:#FFE9DC;" d="M357.277,117.788c-0.1,1.891,0.86,3.757,2.324,4.959c0.657,0.539,1.485,0.974,2.325,0.846        c0.811-0.124,1.465-0.755,1.864-1.471c1.045-1.879,0.594-4.272-0.422-6.166C361.348,112.189,357.488,113.821,357.277,117.788z        "/>
					</g>
					<g style="opacity:0.22;">
						<path style="fill:#512651;" d="M361.306,132.048c-3.042,2.102-7.007,2.8-10.804,1.602c-5.546-1.75-9.011-6.967-8.734-12.497        c0.54,1.335,1.378,2.611,2.357,3.679c2.035,2.211,4.723,3.717,7.445,4.955C354.606,131.149,358.026,132.178,361.306,132.048z"/>
					</g>
				</g>
				<g>
					<g>
						<path style="fill:#BD6EEB;" d="M354.166,165.497c-0.886,2.807-2.658,5.057-4.908,6.574c-3.042,2.102-7.007,2.8-10.804,1.602        c-5.546-1.75-9.011-6.967-8.734-12.497c0.036-1.077,0.225-2.156,0.559-3.215c2.084-6.605,9.107-10.259,15.712-8.176        C352.595,151.868,356.25,158.891,354.166,165.497z"/>
					</g>
					<g>
						<path style="fill:#FFE9DC;" d="M345.229,157.811c-0.1,1.891,0.86,3.757,2.324,4.958c0.657,0.539,1.485,0.974,2.325,0.846        c0.81-0.124,1.465-0.754,1.864-1.471c1.045-1.879,0.594-4.271-0.423-6.166C349.3,152.211,345.44,153.843,345.229,157.811z"/>
					</g>
					<g style="opacity:0.22;">
						<path style="fill:#512651;" d="M349.258,172.07c-3.042,2.102-7.007,2.8-10.804,1.602c-5.546-1.75-9.011-6.967-8.734-12.497        c0.541,1.334,1.378,2.611,2.357,3.679c2.036,2.211,4.723,3.717,7.445,4.955C342.558,171.171,345.979,172.2,349.258,172.07z"/>
					</g>
				</g>
				<g>
					<g>
						<path style="fill:#FFB289;" d="M340.854,207.692c-0.886,2.808-2.658,5.057-4.908,6.574c-3.042,2.102-7.007,2.8-10.804,1.602        c-5.546-1.75-9.011-6.967-8.734-12.497c0.036-1.077,0.225-2.156,0.559-3.214c2.084-6.605,9.107-10.259,15.712-8.176        C339.283,194.063,342.938,201.087,340.854,207.692z"/>
					</g>
					<g>
						<path style="fill:#FFE9DC;" d="M331.917,200.006c-0.1,1.891,0.86,3.757,2.324,4.958c0.657,0.54,1.485,0.974,2.325,0.846        c0.811-0.124,1.466-0.755,1.864-1.471c1.045-1.879,0.594-4.271-0.422-6.166C335.988,194.406,332.128,196.038,331.917,200.006z        "/>
					</g>
					<g style="opacity:0.22;">
						<path style="fill:#512651;" d="M335.947,214.265c-3.042,2.102-7.007,2.8-10.804,1.602c-5.546-1.75-9.011-6.967-8.734-12.497        c0.54,1.335,1.378,2.611,2.357,3.679c2.035,2.211,4.723,3.717,7.445,4.955C329.246,213.366,332.667,214.395,335.947,214.265z"/>
					</g>
				</g>
				<g>
					<g>
						<path style="fill:#FF8C9D;" d="M328.064,248.234c-0.886,2.807-2.658,5.057-4.908,6.574c-3.042,2.102-7.007,2.8-10.804,1.601        c-5.546-1.75-9.012-6.967-8.734-12.497c0.036-1.077,0.225-2.156,0.559-3.214c2.084-6.605,9.107-10.26,15.712-8.176        C326.493,234.606,330.148,241.629,328.064,248.234z"/>
					</g>
					<g>
						<path style="fill:#FFE9DC;" d="M319.127,240.548c-0.101,1.891,0.86,3.757,2.324,4.959c0.657,0.539,1.485,0.974,2.325,0.846        c0.81-0.124,1.465-0.754,1.864-1.471c1.045-1.879,0.593-4.271-0.423-6.166C323.198,234.949,319.337,236.58,319.127,240.548z"/>
					</g>
					<g style="opacity:0.22;">
						<path style="fill:#512651;" d="M323.156,254.808c-3.042,2.102-7.007,2.8-10.804,1.601c-5.546-1.75-9.012-6.967-8.734-12.497        c0.54,1.335,1.378,2.611,2.357,3.679c2.035,2.211,4.723,3.717,7.445,4.955C316.456,253.909,319.876,254.937,323.156,254.808z"/>
					</g>
				</g>
				<g>
					<g>
						<path style="fill:#FFA9DD;" d="M314.77,290.371c-0.886,2.808-2.658,5.057-4.908,6.574c-3.042,2.102-7.007,2.799-10.804,1.602        c-5.546-1.75-9.012-6.967-8.734-12.498c0.036-1.077,0.225-2.156,0.559-3.214c2.084-6.605,9.107-10.259,15.712-8.176        C313.199,276.743,316.854,283.766,314.77,290.371z"/>
					</g>
					<g>
						<path style="fill:#FFE9DC;" d="M305.833,282.685c-0.101,1.891,0.86,3.757,2.324,4.958c0.657,0.539,1.485,0.974,2.326,0.846        c0.81-0.124,1.465-0.755,1.864-1.471c1.045-1.879,0.593-4.271-0.423-6.166C309.904,277.086,306.044,278.717,305.833,282.685z"/>
					</g>
					<g style="opacity:0.22;">
						<path style="fill:#512651;" d="M309.862,296.945c-3.042,2.102-7.007,2.799-10.804,1.602c-5.546-1.75-9.012-6.967-8.734-12.498        c0.54,1.335,1.378,2.611,2.357,3.679c2.035,2.211,4.723,3.717,7.445,4.955C303.162,296.046,306.583,297.074,309.862,296.945z"/>
					</g>
				</g>
				<g>
					<g>
						<path style="fill:#7182FF;" d="M391.48,133.445c-0.886,2.808-2.658,5.057-4.908,6.574c-3.042,2.102-7.007,2.8-10.804,1.602        c-5.546-1.75-9.011-6.967-8.734-12.498c0.036-1.077,0.225-2.156,0.559-3.214c2.084-6.605,9.107-10.259,15.712-8.176        C389.909,119.817,393.563,126.84,391.48,133.445z"/>
					</g>
					<g>
						<path style="fill:#FFE9DC;" d="M382.542,125.759c-0.1,1.891,0.86,3.757,2.324,4.959c0.657,0.539,1.485,0.974,2.325,0.846        c0.811-0.124,1.465-0.755,1.864-1.471c1.045-1.879,0.594-4.271-0.423-6.166C386.613,120.16,382.753,121.791,382.542,125.759z"/>
					</g>
					<g style="opacity:0.22;">
						<path style="fill:#512651;" d="M386.572,140.019c-3.042,2.102-7.007,2.8-10.804,1.602c-5.546-1.75-9.011-6.967-8.734-12.498        c0.541,1.335,1.378,2.611,2.357,3.679c2.035,2.211,4.723,3.717,7.445,4.955C379.871,139.12,383.292,140.148,386.572,140.019z"/>
					</g>
				</g>
				<g>
					<g>
						<path style="fill:#BD6EEB;" d="M379.432,173.467c-0.886,2.807-2.658,5.057-4.908,6.574c-3.042,2.102-7.007,2.8-10.804,1.602        c-5.546-1.75-9.011-6.967-8.734-12.498c0.036-1.077,0.225-2.156,0.559-3.214c2.084-6.605,9.107-10.259,15.712-8.176        C377.861,159.839,381.516,166.862,379.432,173.467z"/>
					</g>
					<g>
						<path style="fill:#FFE9DC;" d="M370.495,165.782c-0.101,1.891,0.86,3.757,2.324,4.959c0.657,0.539,1.485,0.974,2.325,0.846        c0.81-0.124,1.465-0.754,1.864-1.471c1.045-1.879,0.594-4.272-0.423-6.166C374.565,160.182,370.706,161.814,370.495,165.782z"/>
					</g>
					<g style="opacity:0.22;">
						<path style="fill:#512651;" d="M374.524,180.041c-3.042,2.102-7.007,2.8-10.804,1.602c-5.546-1.75-9.011-6.967-8.734-12.498        c0.541,1.335,1.378,2.611,2.357,3.679c2.035,2.211,4.723,3.717,7.445,4.955C367.824,179.142,371.244,180.171,374.524,180.041z        "/>
					</g>
				</g>
				<g>
					<g>
						<path style="fill:#FFB289;" d="M366.12,215.663c-0.886,2.807-2.658,5.057-4.908,6.574c-3.042,2.102-7.007,2.8-10.804,1.602        c-5.546-1.75-9.011-6.967-8.734-12.497c0.036-1.077,0.225-2.156,0.559-3.215c2.084-6.605,9.107-10.259,15.712-8.176        C364.549,202.034,368.204,209.057,366.12,215.663z"/>
					</g>
					<g>
						<path style="fill:#FFE9DC;" d="M357.183,207.977c-0.101,1.891,0.86,3.757,2.324,4.958c0.657,0.539,1.485,0.974,2.325,0.846        c0.811-0.124,1.466-0.754,1.864-1.471c1.045-1.879,0.593-4.271-0.423-6.166C361.253,202.377,357.394,204.009,357.183,207.977z        "/>
					</g>
					<g style="opacity:0.22;">
						<path style="fill:#512651;" d="M361.212,222.236c-3.042,2.102-7.007,2.8-10.804,1.602c-5.546-1.75-9.011-6.967-8.734-12.497        c0.541,1.334,1.378,2.611,2.357,3.679c2.035,2.211,4.723,3.717,7.445,4.955C354.512,221.337,357.932,222.366,361.212,222.236z        "/>
					</g>
				</g>
				<g>
					<g>
						<path style="fill:#FF8C9D;" d="M353.329,256.205c-0.886,2.807-2.658,5.057-4.908,6.574c-3.042,2.102-7.007,2.8-10.804,1.602        c-5.546-1.75-9.012-6.968-8.734-12.498c0.036-1.077,0.225-2.156,0.559-3.214c2.084-6.605,9.107-10.259,15.712-8.176        C351.758,242.577,355.413,249.6,353.329,256.205z"/>
					</g>
					<g>
						<path style="fill:#FFE9DC;" d="M344.392,248.519c-0.101,1.891,0.86,3.757,2.324,4.959c0.657,0.539,1.485,0.974,2.325,0.846        c0.811-0.124,1.465-0.755,1.864-1.471c1.044-1.879,0.593-4.271-0.423-6.166C348.463,242.92,344.603,244.551,344.392,248.519z"/>
					</g>
					<g style="opacity:0.22;">
						<path style="fill:#512651;" d="M348.421,262.779c-3.042,2.102-7.007,2.8-10.804,1.602c-5.546-1.75-9.012-6.968-8.734-12.498        c0.541,1.335,1.378,2.611,2.357,3.679c2.035,2.211,4.723,3.717,7.445,4.955C341.721,261.88,345.142,262.908,348.421,262.779z"/>
					</g>
				</g>
				<g>
					<g>
						<path style="fill:#FFA9DD;" d="M340.036,298.342c-0.886,2.807-2.658,5.057-4.908,6.574c-3.042,2.102-7.007,2.8-10.804,1.602        c-5.546-1.75-9.011-6.967-8.734-12.497c0.036-1.077,0.225-2.156,0.559-3.214c2.084-6.605,9.107-10.26,15.712-8.176        C338.465,284.714,342.12,291.737,340.036,298.342z"/>
					</g>
					<g>
						<path style="fill:#FFE9DC;" d="M331.099,290.656c-0.1,1.891,0.86,3.757,2.324,4.958c0.657,0.539,1.485,0.974,2.325,0.846        c0.81-0.124,1.465-0.754,1.864-1.471c1.045-1.879,0.594-4.271-0.422-6.166C335.17,285.056,331.309,286.688,331.099,290.656z"/>
					</g>
					<g style="opacity:0.22;">
						<path style="fill:#512651;" d="M335.128,304.916c-3.042,2.102-7.007,2.8-10.804,1.602c-5.546-1.75-9.011-6.967-8.734-12.497        c0.54,1.334,1.378,2.611,2.357,3.679c2.035,2.211,4.723,3.717,7.445,4.955C328.428,304.016,331.848,305.045,335.128,304.916z"/>
					</g>
				</g>
				<g>
					<g>
						<path style="fill:#7182FF;" d="M416.745,141.416c-0.886,2.807-2.658,5.057-4.908,6.574c-3.042,2.102-7.007,2.8-10.804,1.602        c-5.546-1.75-9.011-6.967-8.734-12.497c0.036-1.077,0.225-2.156,0.559-3.215c2.084-6.605,9.107-10.259,15.712-8.176        C415.174,127.788,418.829,134.811,416.745,141.416z"/>
					</g>
					<g>
						<path style="fill:#FFE9DC;" d="M407.808,133.73c-0.1,1.891,0.86,3.757,2.324,4.959c0.657,0.539,1.485,0.974,2.325,0.846        c0.811-0.124,1.465-0.754,1.864-1.471c1.045-1.879,0.594-4.271-0.422-6.166C411.879,128.131,408.019,129.762,407.808,133.73z"/>
					</g>
					<g style="opacity:0.22;">
						<path style="fill:#512651;" d="M411.837,147.99c-3.042,2.102-7.007,2.8-10.804,1.602c-5.546-1.75-9.011-6.967-8.734-12.497        c0.54,1.335,1.378,2.611,2.357,3.679c2.035,2.211,4.723,3.717,7.445,4.955C405.137,147.091,408.558,148.119,411.837,147.99z"/>
					</g>
				</g>
				<g>
					<g>
						<path style="fill:#BD6EEB;" d="M404.697,181.438c-0.886,2.808-2.658,5.057-4.908,6.574c-3.042,2.102-7.007,2.8-10.804,1.602        c-5.546-1.75-9.011-6.967-8.734-12.497c0.036-1.077,0.225-2.156,0.559-3.214c2.084-6.605,9.107-10.259,15.712-8.176        C403.126,167.81,406.781,174.833,404.697,181.438z"/>
					</g>
					<g>
						<path style="fill:#FFE9DC;" d="M395.76,173.752c-0.1,1.891,0.86,3.757,2.324,4.958c0.657,0.539,1.485,0.974,2.325,0.846        c0.81-0.124,1.465-0.755,1.864-1.471c1.045-1.879,0.594-4.271-0.422-6.166C399.831,168.153,395.971,169.785,395.76,173.752z"/>
					</g>
					<g style="opacity:0.22;">
						<path style="fill:#512651;" d="M399.789,188.012c-3.042,2.102-7.007,2.8-10.804,1.602c-5.546-1.75-9.011-6.967-8.734-12.497        c0.541,1.335,1.378,2.611,2.357,3.679c2.035,2.211,4.723,3.717,7.445,4.955C393.089,187.113,396.51,188.142,399.789,188.012z"/>
					</g>
				</g>
				<g>
					<g>
						<path style="fill:#FFB289;" d="M391.386,223.633c-0.886,2.807-2.658,5.057-4.908,6.574c-3.042,2.102-7.007,2.8-10.804,1.602        c-5.546-1.75-9.011-6.967-8.734-12.498c0.036-1.077,0.225-2.156,0.559-3.214c2.084-6.605,9.107-10.259,15.712-8.176        C389.815,210.005,393.469,217.028,391.386,223.633z"/>
					</g>
					<g>
						<path style="fill:#FFE9DC;" d="M382.448,215.948c-0.1,1.891,0.86,3.757,2.324,4.959c0.657,0.539,1.485,0.974,2.325,0.846        c0.811-0.124,1.466-0.754,1.864-1.471c1.045-1.879,0.594-4.272-0.422-6.166C386.519,210.348,382.659,211.98,382.448,215.948z"/>
					</g>
					<g style="opacity:0.22;">
						<path style="fill:#512651;" d="M386.478,230.207c-3.042,2.102-7.007,2.8-10.804,1.602c-5.546-1.75-9.011-6.967-8.734-12.498        c0.54,1.335,1.378,2.611,2.357,3.679c2.035,2.211,4.723,3.717,7.445,4.955C379.777,229.308,383.198,230.337,386.478,230.207z"/>
					</g>
				</g>
				<g>
					<g>
						<path style="fill:#FF8C9D;" d="M378.595,264.176c-0.886,2.808-2.658,5.057-4.908,6.574c-3.042,2.102-7.007,2.8-10.804,1.602        c-5.546-1.75-9.012-6.967-8.734-12.497c0.036-1.077,0.225-2.156,0.559-3.215c2.084-6.605,9.107-10.259,15.712-8.176        C377.024,250.548,380.679,257.571,378.595,264.176z"/>
					</g>
					<g>
						<path style="fill:#FFE9DC;" d="M369.658,256.49c-0.101,1.891,0.86,3.757,2.324,4.958c0.657,0.539,1.485,0.974,2.326,0.846        c0.81-0.124,1.465-0.755,1.864-1.471c1.045-1.879,0.593-4.271-0.423-6.166C373.729,250.89,369.869,252.522,369.658,256.49z"/>
					</g>
					<g style="opacity:0.22;">
						<path style="fill:#512651;" d="M373.687,270.75c-3.042,2.102-7.007,2.8-10.804,1.602c-5.546-1.75-9.012-6.967-8.734-12.497        c0.54,1.334,1.378,2.611,2.357,3.679c2.035,2.211,4.723,3.717,7.445,4.955C366.987,269.85,370.407,270.879,373.687,270.75z"/>
					</g>
				</g>
				<g>
					<g>
						<path style="fill:#FFA9DD;" d="M365.301,306.313c-0.886,2.807-2.658,5.057-4.908,6.574c-3.042,2.102-7.007,2.8-10.804,1.602        c-5.546-1.75-9.011-6.967-8.734-12.497c0.036-1.077,0.225-2.156,0.559-3.214c2.084-6.605,9.107-10.259,15.712-8.176        C363.73,292.684,367.385,299.708,365.301,306.313z"/>
					</g>
					<g>
						<path style="fill:#FFE9DC;" d="M356.364,298.627c-0.101,1.891,0.86,3.757,2.324,4.958c0.657,0.539,1.485,0.974,2.326,0.846        c0.81-0.124,1.465-0.754,1.864-1.471c1.045-1.879,0.594-4.271-0.423-6.166C360.435,293.027,356.575,294.659,356.364,298.627z"/>
					</g>
					<g style="opacity:0.22;">
						<path style="fill:#512651;" d="M360.393,312.887c-3.042,2.102-7.007,2.8-10.804,1.602c-5.546-1.75-9.011-6.967-8.734-12.497        c0.54,1.334,1.378,2.611,2.357,3.679c2.035,2.211,4.723,3.717,7.445,4.955C353.693,311.987,357.114,313.016,360.393,312.887z"/>
					</g>
				</g>
			</g>
			<g>
				<g>
					
						<rect x="435.351" y="129.756" transform="matrix(0.9537 0.3009 -0.3009 0.9537 97.8765 -122.813)" style="fill:#BD6EEB;" width="24.645" height="253.225"/>
				</g>
				<g style="opacity:0.42;">
					
						<rect x="449.996" y="132.011" transform="matrix(0.9537 0.3009 -0.3009 0.9537 98.8849 -124.858)" style="fill:#512651;" width="9.652" height="253.225"/>
				</g>
			</g>
		</g>
		<g>
			<g>
				<polygon style="fill:#FFE9DC;" points="359.101,392.072 166.305,443.818 165.457,444.048 113.712,457.934 104.313,428.519       104.03,427.688 94.402,397.514 94.119,396.684 83.82,364.442 83.555,363.594 73.962,333.631 73.697,332.801 63.627,301.319       63.362,300.471 53.539,269.766 53.274,268.901 43.451,238.196 43.169,237.348 33.222,206.237 32.957,205.407 23.841,176.893       23.576,176.045 14.478,147.602 71.259,132.426 71.276,132.426 72.124,132.196 274.301,78.136 280.732,101.916 280.961,102.782       288.752,131.666 288.982,132.514 297.497,164.032 297.727,164.88 306.136,196.026 306.366,196.874 314.775,228.003       315.023,228.868 323.626,260.739 323.856,261.604 332.053,291.956 332.283,292.821 341.116,325.487 341.346,326.352       349.596,356.898 349.826,357.746     "/>
			</g>
			<g>
				<g>
					<polygon style="fill:#7182FF;" points="166.305,443.818 165.457,444.048 156.235,413.555 155.988,412.707 146.819,382.409        146.571,381.561 136.784,349.178 136.519,348.33 127.421,318.226 127.173,317.378 117.616,285.755 117.351,284.907        108.023,254.043 107.776,253.195 98.448,222.331 98.183,221.483 88.748,190.231 88.483,189.401 79.827,160.763 79.58,159.915        71.276,132.426 72.124,132.196 80.428,159.668 80.693,160.516 89.331,189.154 89.349,189.154 89.596,189.984 99.031,221.236        99.048,221.236 99.296,222.084 108.624,252.948 108.889,253.813 118.217,284.659 118.464,285.507 128.021,317.131        128.269,317.979 137.385,348.082 137.632,348.93 147.419,381.313 147.684,382.161 156.836,412.46 157.083,413.308      "/>
				</g>
				<g>
					<polygon style="fill:#FFA9DD;" points="280.961,102.782 80.693,160.516 79.827,160.763 23.841,176.893 23.576,176.045        79.58,159.915 80.428,159.668 280.732,101.916      "/>
				</g>
				<g>
					<polygon style="fill:#FFA9DD;" points="288.982,132.514 89.596,189.984 88.748,190.231 33.222,206.237 32.957,205.407        88.483,189.401 89.331,189.154 89.349,189.154 288.752,131.666      "/>
				</g>
				<g>
					<polygon style="fill:#FFA9DD;" points="297.727,164.88 99.296,222.084 98.448,222.331 43.451,238.196 43.169,237.348        98.183,221.483 99.031,221.236 99.048,221.236 297.497,164.032      "/>
				</g>
				<g>
					<polygon style="fill:#FFA9DD;" points="306.366,196.874 108.889,253.813 108.023,254.043 53.539,269.766 53.274,268.901        107.776,253.195 108.624,252.948 306.136,196.026      "/>
				</g>
				<g>
					<polygon style="fill:#FFA9DD;" points="315.023,228.868 118.464,285.507 117.616,285.755 63.627,301.319 63.362,300.471        117.351,284.907 118.217,284.659 314.775,228.003      "/>
				</g>
				<g>
					<polygon style="fill:#FFA9DD;" points="323.856,261.604 128.269,317.979 127.421,318.226 73.962,333.631 73.697,332.801        127.173,317.378 128.021,317.131 323.626,260.739      "/>
				</g>
				<g>
					<polygon style="fill:#FFA9DD;" points="332.283,292.821 137.632,348.93 136.784,349.178 83.82,364.442 83.555,363.594        136.519,348.33 137.385,348.082 332.053,291.956      "/>
				</g>
				<g>
					<polygon style="fill:#FFA9DD;" points="341.346,326.352 147.684,382.161 146.819,382.409 94.402,397.514 94.119,396.684        146.571,381.561 147.419,381.313 341.116,325.487      "/>
				</g>
				<g>
					<polygon style="fill:#FFA9DD;" points="349.826,357.746 157.083,413.308 156.235,413.555 104.313,428.519 104.03,427.688        155.988,412.707 156.836,412.46 349.596,356.898      "/>
				</g>
			</g>
			<g>
				<g>
					<path style="fill:#512651;" d="M72.217,181.578c0,6.975-5.654,12.63-12.63,12.63c-6.975,0-12.63-5.655-12.63-12.63       c0-6.975,5.655-12.63,12.63-12.63C66.563,168.948,72.217,174.603,72.217,181.578z"/>
				</g>
				<g>
					
						<ellipse transform="matrix(0.7071 -0.7071 0.7071 0.7071 -178.7554 149.3147)" style="fill:#512651;" cx="90.861" cy="290.434" rx="12.63" ry="12.63"/>
				</g>
				<g>
					<path style="fill:#512651;" d="M132.96,389.066c0,6.975-5.655,12.63-12.63,12.63c-6.975,0-12.63-5.655-12.63-12.63       c0-6.975,5.655-12.63,12.63-12.63C127.306,376.437,132.96,382.091,132.96,389.066z"/>
				</g>
			</g>
		</g>
		<g>
			<g>
				<g>
					<path style="fill:#FF8C9D;" d="M232.688,226.886l-22.177,109.99c0,0-6.395,3.789-15.926,4.923       c-0.483,0.048-0.917,0.096-1.4,0.145h-0.096c-2.341,0.217-4.826,0.241-7.457,0c-0.024,0-0.024,0-0.024,0       c-0.531-0.024-1.038-0.072-1.593-0.145c-2.582-0.314-4.488-1.665-5.864-3.668c-0.217-0.29-0.41-0.603-0.579-0.917       c-0.072-0.072-0.121-0.169-0.145-0.265c-3.185-5.816-3.065-15.685-2.317-23.287c0.024-0.434,0.073-0.869,0.121-1.303       c0.362-3.499,0.845-6.395,1.134-8.012c0.097-0.555,0.193-0.965,0.217-1.182c0.024-0.121,0.048-0.193,0.048-0.193       c-0.507,0.048-0.989,0.048-1.448,0.024c-4.126-0.169-6.298-2.703-7.095-6.636c-0.048-0.241-0.096-0.483-0.121-0.724       c-0.048-0.193-0.072-0.386-0.096-0.603c-0.724-5.671,0.941-13.706,3.523-21.622c0.627-1.93,1.81-3.933,3.402-5.985       c0.241-0.314,0.507-0.651,0.796-0.965c11.414-13.707,39.841-28.475,39.841-28.475s-34.484,6.757-40.034,8.011       c-5.55,1.231-9.87-12.645-9.242-23.118c0.048-0.652,0.242-1.327,0.555-2.003c0.217-0.435,0.483-0.869,0.796-1.303       c3.62-5.068,14.02-10.135,22.997-13.803c0.386-0.169,0.772-0.314,1.134-0.458c7.456-2.992,13.634-4.923,13.634-4.923       L232.688,226.886z"/>
				</g>
				<g>
					<path style="fill:#512651;" d="M189.638,217.668c-2.944,3.499-7.191,5.502-11.269,7.215c-1.617,0.7-3.427,1.376-5.212,1.376       c-0.724,0-1.448-0.097-2.148-0.362c-2.148-0.82-3.403-2.751-4.295-5.019c0.217-0.435,0.483-0.869,0.796-1.303       c0.772,2.268,1.858,4.416,3.933,5.188c2.027,0.772,4.392-0.097,6.467-0.99c3.933-1.665,8.036-3.571,10.811-6.901       c2.437-2.896,3.789-7.553,1.786-11.1c0.386-0.169,0.772-0.314,1.134-0.458C193.788,209.319,192.316,214.459,189.638,217.668z"/>
				</g>
				<g>
					<g>
						<path style="fill:#512651;" d="M184.667,328.093c-0.121,2.51-0.483,5.405-2.148,7.577c-0.869,1.134-2.172,2.003-3.596,2.341        c-0.241,0.072-0.507,0.121-0.772,0.121c-0.193,0.048-0.362,0.048-0.555,0.048c-0.024,0-0.024,0-0.048,0        c-0.072-0.121-0.121-0.193-0.121-0.193c-0.193-0.265-0.097-0.603,0.145-0.772c-0.072-0.072-0.121-0.169-0.145-0.265        c1.544,0.072,3.185-0.772,4.126-2.003c1.472-1.931,1.81-4.585,1.907-6.926c0.096-2.075,0.096-4.175-0.048-6.25        c-0.145-2.196-0.434-4.464-1.617-6.298c-1.062-1.617-3.185-2.944-5.188-2.341c-0.217,0.072-0.41,0.145-0.628,0.217        c-0.265,0.096-0.555,0.217-0.869,0.314c0.024-0.434,0.073-0.869,0.121-1.303c0.097-0.049,0.217-0.073,0.314-0.121        c0.242-0.096,0.483-0.193,0.7-0.265c2.582-0.772,5.26,0.845,6.564,2.848c1.327,2.051,1.665,4.512,1.81,6.877        C184.763,323.822,184.787,325.969,184.667,328.093z"/>
					</g>
					<g>
						<path style="fill:#512651;" d="M194.874,342.186c0.073,0.314-0.12,0.652-0.458,0.724c-1.882,0.434-3.595,0.627-5.14,0.627        c-7.48,0-11.028-4.368-11.728-5.357c-0.072-0.121-0.121-0.193-0.121-0.193c-0.193-0.265-0.097-0.603,0.145-0.772        c0.024-0.024,0.024-0.048,0.048-0.048c0.29-0.169,0.652-0.096,0.821,0.193c0.024,0.048,0.193,0.29,0.483,0.652        c0.869,1.038,2.968,3.089,6.684,3.933c0,0,0,0,0.024,0c1.979,0.458,4.464,0.579,7.457,0h0.096        c0.314-0.072,0.627-0.145,0.965-0.217c0.169-0.024,0.314,0,0.434,0.073C194.729,341.872,194.826,342.017,194.874,342.186z"/>
					</g>
				</g>
				<g>
					<g>
						<path style="fill:#512651;" d="M179.068,286.37c-0.917,3.016-2.075,6.105-4.464,8.205c-1.351,1.182-3.258,1.931-5.116,1.931        c-0.362,0-0.724-0.024-1.062-0.097c-0.12,0-0.241-0.024-0.338-0.048c-0.314-0.073-0.603-0.169-0.893-0.29        c0.048-0.241,0.266-0.434,0.531-0.483c0.072,0,0.169,0,0.241,0.048c-0.048-0.193-0.072-0.386-0.096-0.603        c1.93,0.651,4.368,0,5.936-1.375c2.172-1.883,3.258-4.778,4.102-7.65c1.038-3.523,1.979-7.65,0.965-11.439        c-0.724-2.678-2.341-5.019-4.078-7.143c0.241-0.314,0.507-0.651,0.796-0.965c1.858,2.293,3.668,4.826,4.44,7.795        C181.119,278.334,180.154,282.678,179.068,286.37z"/>
					</g>
					<g>
						<path style="fill:#512651;" d="M203.103,278.189c-0.048,0.097-4.344,10.908-7.239,17.568        c-3.161,7.288-11.221,8.687-16.989,8.687c-0.844,0-1.641-0.024-2.365-0.072c-0.048,0-0.097,0-0.145-0.024        c-8.35-0.603-9.17-8.012-9.194-8.084c0-0.073,0-0.145,0.024-0.193c0.048-0.241,0.266-0.434,0.531-0.483        c0.072,0,0.169,0,0.241,0.048c0.217,0.072,0.386,0.266,0.41,0.507c0,0.024,0.024,0.121,0.048,0.265        c0.193,1.158,1.303,5.574,6.757,6.588c0.434,0.072,0.893,0.145,1.399,0.169h0.024c5.333,0.338,14.816-0.217,18.147-7.891        c2.896-6.636,7.191-17.423,7.239-17.543c0.121-0.314,0.459-0.458,0.772-0.338        C203.079,277.514,203.224,277.876,203.103,278.189z"/>
					</g>
				</g>
			</g>
			<g>
				<g>
					<g>
						<g>
							<polygon style="fill:#FF8C9D;" points="220.164,98.42 220.206,98.66 205.183,118.292 183.347,107.775 183.627,106.812          191.875,78.955 196.378,63.717 206.259,78.127        "/>
						</g>
						<g>
							<path style="fill:#7182FF;" d="M220.206,98.66l25.875,162.03c-0.036,0.05-0.076,0.081-0.112,0.131         c-1.083-0.198-2.209-0.24-3.199-0.315c-1.185-0.091-2.381-0.158-3.562-0.166c-0.26-0.021-0.53-0.018-0.786-0.02         c-3.854-0.054-7.662,0.215-11.425,0.805c-0.261,0.042-0.522,0.083-0.768,0.121c-4.521,0.752-8.948,1.96-13.237,3.614         c-0.247,0.101-0.493,0.202-0.74,0.302c-2.734,1.093-5.425,2.364-8.029,3.8c-0.696-0.374-1.073-0.617-1.073-0.617         l-19.803-160.572l0.279-0.962c2.351,0.831,4.751,1.337,7.136,1.577c0.26,0.021,0.52,0.042,0.78,0.063         c3.08,0.219,6.137,0.006,9.114-0.604c0.261-0.042,0.517-0.103,0.773-0.165c0.984-0.215,1.959-0.47,2.924-0.764         c2.238-0.704,4.433-1.584,6.555-2.635l0.015-0.004c0.242-0.12,0.484-0.241,0.726-0.361         C214.605,102.419,217.444,100.634,220.206,98.66z"/>
						</g>
						<g>
							<g>
								<path style="fill:#FFE9DC;" d="M191.542,108.452l21.45,156.409c-0.247,0.101-0.493,0.202-0.74,0.302l-21.49-156.774          C191.022,108.411,191.282,108.431,191.542,108.452z"/>
							</g>
							<g>
								<path style="fill:#FFE9DC;" d="M201.43,107.683l25.567,153.443c-0.261,0.042-0.522,0.083-0.768,0.121l-25.573-153.4          C200.917,107.806,201.173,107.744,201.43,107.683z"/>
							</g>
							<g>
								<path style="fill:#FFE9DC;" d="M211.65,103.919l27.557,156.421c-0.26-0.021-0.53-0.018-0.786-0.02l-27.513-156.036          l0.015-0.004C211.166,104.16,211.408,104.039,211.65,103.919z"/>
							</g>
						</g>
					</g>
					<g>
						<path style="fill:#7182FF;" d="M206.259,78.127c-1.8,5.117-10.632,4.841-14.384,0.828l4.503-15.238L206.259,78.127z"/>
					</g>
				</g>
			</g>
			<g>
				<g>
					<path style="fill:#FF8C9D;" d="M224.993,469.022c0,0-49.906-56.683-26.493-100.427c0,0-5.545-14.171-3.08-27.725l7.393-48.057       c0,0-13.133-106.181,11.09-112.441c27.417-7.085,27.109,22.488,27.109,22.488s60.379,64.076,58.531,84.408       c-1.848,20.332-11.706,97.347-4.929,109.053c6.777,11.706,15.403,32.038,15.403,32.038S263.192,477.032,224.993,469.022z"/>
				</g>
				<g>
					<path style="fill:#512651;" d="M209.589,390.21c-0.114,0-0.226-0.054-0.296-0.154c-4.893-7.032-11.062-21.175-11.125-21.317       c-10.822-26.155,4.214-78.259,4.892-80.575c-0.267-1.925-5.182-38.001-3.689-68.38c1.025-20.867,3.911-31.57,9.962-36.947       c3.568-3.169,8.39-4.492,14.76-4.059c18.003,1.243,17.593,25.387,17.586,25.631c0.018,0.426,1.859,45.087,2.772,57.262       c0.912,12.167,5.8,43.096,5.85,43.408c0.031,0.196-0.103,0.381-0.299,0.412c-0.188,0.023-0.381-0.102-0.412-0.299       c-0.049-0.311-4.942-31.269-5.857-43.465c-0.914-12.188-2.755-56.862-2.773-57.312c0.006-0.26,0.398-23.722-16.917-24.916       c-6.158-0.429-10.816,0.844-14.232,3.878c-5.89,5.233-8.706,15.792-9.721,36.445c-1.522,30.995,3.641,67.951,3.694,68.32       c0.007,0.052,0.003,0.105-0.011,0.154c-0.16,0.535-15.856,53.787-4.942,80.163c0.059,0.135,6.201,14.213,11.053,21.187       c0.114,0.164,0.073,0.387-0.09,0.501C209.733,390.189,209.661,390.21,209.589,390.21z"/>
				</g>
				<g>
					<path style="fill:#512651;" d="M217.948,216.003c-3.218,0-6.259-0.555-9.015-1.673c-1.088-0.439-2.613-1.188-3.299-2.586       c-0.506-1.029-0.466-2.238-0.435-3.21c0.156-4.859,0.333-10.367,2.384-15.198c2.375-5.592,8.044-9.967,13.786-10.638       c4.475-0.519,8.455,1.247,11.203,4.981c3.186,4.329,4.038,9.95,4.486,15.38c0.236,2.861,0.2,5.775-1.646,7.718       c-0.85,0.893-1.993,1.445-2.997,1.893C227.443,214.885,222.517,216.003,217.948,216.003z M222.885,183.329       c-0.47,0-0.948,0.029-1.431,0.085c-5.497,0.642-10.928,4.838-13.207,10.205l0,0c-1.999,4.705-2.174,10.142-2.328,14.939       c-0.03,0.938-0.065,2.001,0.362,2.87c0.572,1.163,1.863,1.805,2.923,2.235c8.747,3.547,18.115,0.488,22.919-1.651       c0.985-0.439,2.01-0.934,2.768-1.732c1.651-1.737,1.672-4.469,1.45-7.161c-0.438-5.325-1.269-10.828-4.348-15.013       C229.702,184.993,226.507,183.329,222.885,183.329z M207.915,193.478h0.009H207.915z"/>
				</g>
			</g>
		</g>
		<g>
			<g>
				<polygon style="fill:#FFB289;" points="144.571,63.475 164.601,67.94 150.035,82.395 145.57,102.425 131.115,87.859       111.085,83.394 125.651,68.938 130.116,48.909     "/>
			</g>
			<g>
				<polygon style="fill:#FFB289;" points="118.284,429.038 138.313,433.503 123.747,447.959 119.282,467.988 104.827,453.422       84.797,448.957 99.363,434.502 103.828,414.472     "/>
			</g>
			<g>
				<polygon style="fill:#FFB289;" points="377.396,394.08 386.993,412.219 366.543,410.513 348.404,420.11 350.109,399.659       340.513,381.52 360.963,383.227 379.102,373.63     "/>
			</g>
			<g>
				<g>
					<circle style="fill:#FFE9DC;" cx="315.254" cy="53.451" r="13.863"/>
				</g>
				<g>
					<path style="fill:#FFE9DC;" d="M413.216,336.557c0,7.656-6.206,13.863-13.863,13.863c-7.656,0-13.863-6.207-13.863-13.863       c0-7.656,6.206-13.863,13.863-13.863C407.01,322.694,413.216,328.901,413.216,336.557z"/>
				</g>
				<g>
					
						<ellipse transform="matrix(0.4565 -0.8897 0.8897 0.4565 -282.9088 463.0185)" style="fill:#FFE9DC;" cx="237.52" cy="463.066" rx="17.251" ry="17.251"/>
				</g>
			</g>
		</g>
	</g>
	<g>
		<path style="fill:#FFFFFF;" d="M243.168,99.711c-13.278,0-24.081-10.803-24.081-24.08s10.803-24.079,24.081-24.079    c13.278,0,24.081,10.801,24.081,24.079S256.446,99.711,243.168,99.711z M243.168,52.271c-12.881,0-23.36,10.48-23.36,23.36    c0,12.881,10.479,23.361,23.36,23.361c12.881,0,23.36-10.48,23.36-23.361C266.528,62.75,256.049,52.271,243.168,52.271z"/>
	</g>
	<g>
		<path style="fill:#FFFFFF;" d="M340.822,367.414c-13.277,0-24.08-10.803-24.08-24.08c0-13.278,10.803-24.08,24.08-24.08    c13.278,0,24.081,10.803,24.081,24.08C364.904,356.611,354.101,367.414,340.822,367.414z M340.822,319.973    c-12.881,0-23.36,10.48-23.36,23.361c0,12.881,10.479,23.361,23.36,23.361c12.881,0,23.36-10.48,23.36-23.361    C364.183,330.452,353.704,319.973,340.822,319.973z"/>
	</g>
	<g>
		<path style="fill:#FFFFFF;" d="M107.006,254.871c-13.278,0-24.08-10.803-24.08-24.08s10.803-24.081,24.08-24.081    c13.278,0,24.081,10.803,24.081,24.081S120.284,254.871,107.006,254.871z M107.006,207.429c-12.881,0-23.36,10.48-23.36,23.361    c0,12.881,10.479,23.361,23.36,23.361c12.881,0,23.36-10.48,23.36-23.361C130.366,217.909,119.887,207.429,107.006,207.429z"/>
	</g>
</g>















</svg>
