<?xml version="1.0" encoding="UTF-8"?>
<!-- Generator: Adobe Illustrator 25.2.1, SVG Export Plug-In . SVG Version: 6.00 Build 0)  -->
<svg xmlns="http://www.w3.org/2000/svg" xmlns:xlink="http://www.w3.org/1999/xlink" version="1.1" id="Capa_1" x="0px" y="0px" viewBox="0 0 512 512" style="enable-background:new 0 0 512 512;" xml:space="preserve" width="512" height="512">
<g>
	<g>
		<path style="fill:#FFFFFF;" d="M272.605,500.414c-7.936,0-15.308-3.29-20.581-8.772c-4.313,0.259-8.643,0.387-12.952,0.387    c-50.497,0-99.061-17.762-137.554-50.167c-3.406,0.422-6.831,0.634-10.242,0.634c-46.022,0-83.463-37.441-83.463-83.462    c0-8.809,1.342-17.375,4.002-25.593C4.389,326.225,0,316.213,0,305.421c0-16.806,10.653-31.17,25.562-36.691    c0.392-8.625,1.306-17.265,2.736-25.826c-0.097-0.394-0.18-0.795-0.247-1.199c-0.636-3.901,0.342-7.829,2.603-10.937    c3.501-15.405,8.715-30.366,15.551-44.639c-15.256-19.001-23.55-42.461-23.55-67.111c0-59.238,48.193-107.431,107.432-107.431    c37.882,0,72.2,19.461,91.655,51.377c0,0,178.254-4.388,178.373-4.388c4.278,0,8.346,1.878,11.123,5.146    c2.852,3.36,4.035,7.831,3.216,12.162c-0.057,0.296-5.361,28.409-10.971,65.924c0.725,0.872,1.442,1.75,2.154,2.634    c0.641-0.044,1.285-0.066,1.931-0.066c15.753,0,28.567,12.814,28.567,28.566c0,5.088-1.323,9.947-3.751,14.184    c12.836,27.218,19.833,57.146,20.377,87.349h28.239c1.373,0,2.758,0.139,4.14,0.414h4.969c12.071,0,21.89,9.82,21.89,21.89    v173.568c0,12.07-9.819,21.889-21.89,21.889H316.54c-1.373,0-2.755-0.138-4.133-0.411h-4.974c-4.263,0-8.247-1.226-11.615-3.344    C290.629,495.703,282.156,500.414,272.605,500.414z"/>
	</g>
	<g>
		<g>
			
				<ellipse transform="matrix(0.7071 -0.7071 0.7071 0.7071 -125.677 253.1972)" style="fill:#BD6EEB;" cx="242.798" cy="278.304" rx="199.133" ry="199.133"/>
		</g>
		<g>
			<g>
				<path style="fill:#FFFFFF;" d="M438.621,430.026l-49.691,6.64c0,0-104.002,14.593-187.258,1.63      c-42.126-6.567-78.95-20.212-94.249-46.358c-45.531-77.831-5.789-311.326-5.789-311.326l302.205-7.443      c0,0-29.795,157.317-24.006,232.668c4.232,54.993,23.447,70.292,33.516,74.548c3.746,1.557,6.227,1.63,6.227,1.63h33.954      C458.493,413.463,438.621,430.026,438.621,430.026z"/>
			</g>
			<g style="opacity:0.09;">
				<path style="fill:#FFB289;" d="M438.621,430.026l-49.691,6.64c0,0-104.002,14.593-187.258,1.63      c-42.126-6.567-78.95-20.212-94.249-46.358c-45.531-77.831-5.789-311.326-5.789-311.326l302.205-7.443      c0,0-29.795,157.317-24.006,232.668c4.232,54.993,23.447,70.292,33.516,74.548c3.746,1.557,6.227,1.63,6.227,1.63h33.954      C458.493,413.463,438.621,430.026,438.621,430.026z"/>
			</g>
			<g style="opacity:0.46;">
				<path style="fill:#FFA9DD;" d="M188.148,418.859c-0.74,0-1.372-0.562-1.443-1.314c-0.076-0.799,0.51-1.508,1.308-1.584      c1.7-0.161,170.472-16.236,206.594-24.807c0.779-0.181,1.562,0.298,1.748,1.078c0.185,0.78-0.298,1.562-1.078,1.748      c-36.316,8.617-205.288,24.711-206.99,24.874C188.24,418.858,188.194,418.859,188.148,418.859z"/>
			</g>
			<g>
				<path style="fill:#FFFFFF;" d="M438.621,430.026l-49.691,6.64c0,0-104.002,14.593-187.258,1.63      c1.63-0.146,3.259-0.438,4.865-0.876c9.072-2.457,16.247-9.729,20.747-18.023c4.499-8.27,6.689-17.585,8.805-26.755      l177.261-12.259c3.746,1.557,6.227,1.63,6.227,1.63h33.954C458.493,413.463,438.621,430.026,438.621,430.026z"/>
			</g>
			<g style="opacity:0.32;">
				<path style="fill:#FFB289;" d="M438.621,430.026l-49.691,6.64c0,0-104.002,14.593-187.258,1.63      c1.63-0.146,3.259-0.438,4.865-0.876c9.072-2.457,16.247-9.729,20.747-18.023c4.499-8.27,6.689-17.585,8.805-26.755      l177.261-12.259c3.746,1.557,6.227,1.63,6.227,1.63h33.954C458.493,413.463,438.621,430.026,438.621,430.026z"/>
			</g>
			<g style="opacity:0.46;">
				<path style="fill:#FFA9DD;" d="M356.44,209.583H126.671c-0.802,0-1.452-0.649-1.452-1.451s0.65-1.451,1.452-1.451H356.44      c0.801,0,1.452,0.649,1.452,1.451S357.241,209.583,356.44,209.583z"/>
			</g>
			<g style="opacity:0.46;">
				<path style="fill:#FFA9DD;" d="M356.44,238.149H126.671c-0.802,0-1.452-0.649-1.452-1.451s0.65-1.451,1.452-1.451H356.44      c0.801,0,1.452,0.649,1.452,1.451S357.241,238.149,356.44,238.149z"/>
			</g>
			<g style="opacity:0.46;">
				<path style="fill:#FFA9DD;" d="M356.44,266.714H126.671c-0.802,0-1.452-0.649-1.452-1.451c0-0.802,0.65-1.451,1.452-1.451      H356.44c0.801,0,1.452,0.649,1.452,1.451C357.892,266.065,357.241,266.714,356.44,266.714z"/>
			</g>
			<g style="opacity:0.46;">
				<path style="fill:#FFA9DD;" d="M356.44,295.28H126.671c-0.802,0-1.452-0.649-1.452-1.451c0-0.802,0.65-1.451,1.452-1.451H356.44      c0.801,0,1.452,0.649,1.452,1.451C357.892,294.631,357.241,295.28,356.44,295.28z"/>
			</g>
			<g style="opacity:0.46;">
				<path style="fill:#FFA9DD;" d="M356.44,323.847H126.671c-0.802,0-1.452-0.649-1.452-1.451c0-0.802,0.65-1.451,1.452-1.451      H356.44c0.801,0,1.452,0.649,1.452,1.451C357.892,323.197,357.241,323.847,356.44,323.847z"/>
			</g>
			<g style="opacity:0.46;">
				<path style="fill:#FFA9DD;" d="M130.747,362.005c-0.765,0-1.405-0.598-1.448-1.371c-0.045-0.801,0.568-1.486,1.369-1.53      l229.418-12.697c0.807-0.036,1.485,0.569,1.529,1.37c0.045,0.801-0.569,1.486-1.369,1.53l-229.418,12.697      C130.801,362.005,130.774,362.005,130.747,362.005z"/>
			</g>
			<g style="opacity:0.46;">
				<path style="fill:#FFA9DD;" d="M149.647,394.64c-0.744,0-1.377-0.566-1.445-1.322c-0.072-0.798,0.518-1.504,1.316-1.576      c1.385-0.124,139.327-12.532,214.807-22.349c0.784-0.108,1.524,0.456,1.627,1.251c0.103,0.795-0.458,1.523-1.252,1.626      c-75.538,9.826-213.537,22.238-214.922,22.362C149.734,394.638,149.69,394.64,149.647,394.64z"/>
			</g>
			<g>
				<g>
					<g>
						<g>
							<path style="fill:#BD6EEB;" d="M306.276,174.063c4.221-17.069,9.232-33.933,15.016-50.538         c-1.327,0.173-2.654,0.347-3.98,0.52c9.102,16.112,13.906,34.078,18.626,51.842c0.719,2.706,4.921,1.558,4.2-1.158         c-4.816-18.126-9.777-36.443-19.065-52.882c-0.972-1.721-3.387-1.184-3.98,0.52c-5.785,16.604-10.795,33.469-15.016,50.538         C301.403,175.626,305.602,176.787,306.276,174.063L306.276,174.063z"/>
						</g>
					</g>
					<g>
						<g>
							<path style="fill:#BD6EEB;" d="M312.935,156.848c5.871-1.723,11.945-2.298,18.039-1.75c1.173,0.105,2.178-1.076,2.178-2.178         c0-1.266-1.001-2.072-2.178-2.178c-6.445-0.58-12.988,0.084-19.197,1.906C309.093,153.436,310.236,157.641,312.935,156.848         L312.935,156.848z"/>
						</g>
					</g>
					<g>
						<g>
							<path style="fill:#BD6EEB;" d="M348.026,125.408c1.424,8.32,2.848,16.639,4.272,24.959c0.199,1.16,1.626,1.81,2.679,1.521         c1.227-0.337,1.72-1.515,1.521-2.679c-1.424-8.32-2.848-16.639-4.272-24.959c-0.199-1.16-1.625-1.81-2.679-1.521         C348.32,123.067,347.827,124.245,348.026,125.408L348.026,125.408z"/>
						</g>
					</g>
					<g>
						<g>
							<path style="fill:#BD6EEB;" d="M342.085,141.247c5.565-2.351,11.458-3.953,17.424-4.878c1.163-0.18,1.807-1.638,1.521-2.679         c-0.341-1.242-1.512-1.702-2.679-1.521c-6.373,0.988-12.528,2.809-18.464,5.317c-1.084,0.458-1.32,2.058-0.781,2.979         C339.762,141.588,340.997,141.707,342.085,141.247L342.085,141.247z"/>
						</g>
					</g>
				</g>
				<g>
					<g>
						<path style="fill:#FFB289;" d="M311.821,106.015c-17.419,5.036-31.049,20.582-33.306,38.633        c-2.269,18.146,7.673,37.512,24.196,45.614c8.493,4.165,18.112,5.397,27.421,3.888c9.717-1.575,18.419-6.488,25.081-13.689        c12.93-13.977,21.056-35.841,13.362-54.311c-6.886-16.531-25.492-25.267-42.824-23.389c-2.17,0.235-4.318,0.604-6.435,1.137        c-3.155,0.795-1.818,5.675,1.345,4.878c14.561-3.667,32.148,1.242,40.594,14.24c9.751,15.005,4.563,34.844-5.195,48.445        c-5.273,7.35-12.177,13.422-20.871,16.261c-7.962,2.6-16.641,2.702-24.651,0.24c-15.865-4.878-26.731-20.469-27.266-36.868        c-0.596-18.284,12.48-35.168,29.892-40.202C316.288,109.991,314.96,105.108,311.821,106.015L311.821,106.015z"/>
					</g>
				</g>
			</g>
		</g>
		<g>
			<g>
				<g>
					<g>
						
							<ellipse transform="matrix(0.2253 -0.9743 0.9743 0.2253 -12.2904 222.5805)" style="fill:#FFE9DC;" cx="133.813" cy="119.018" rx="92.839" ry="92.839"/>
					</g>
					<g>
						<path style="fill:#FFE9DC;" d="M157.917,193.224v32.762c0,12.088-9.778,21.89-21.89,21.89h-2.992        c-12.088,0-21.89-9.802-21.89-21.89v-32.762H157.917z"/>
					</g>
				</g>
				<g>
					<path style="fill:#FFB289;" d="M151.321,223.637c-0.016,0-0.032,0-0.048-0.003c-0.199-0.026-0.338-0.208-0.312-0.408       c3.086-23.331,14.839-44.453,26.205-64.879c3.232-5.808,6.575-11.815,9.655-17.765c2.268-4.379,4.345-8.699,4.85-13.398       c0.44-4.087-0.536-9.564-4.588-12.685c-5.669-4.365-13.733-1.651-16.937-0.285c-4.477,1.91-8.591,4.604-12.142,7.905       c0.025,7.32-1.091,13.589-3.373,19.199l-0.04,0.098c-1.009,2.449-3.404,2.934-5.204,2.354c-1.792-0.582-3.44-2.375-2.821-4.94       c0.559-2.32,1.533-4.707,2.894-7.097c2.099-3.683,4.747-7.03,7.817-9.927c-0.032-4.168-0.436-8.684-1.205-13.617       c-0.664-4.258-1.573-8.733-3.708-12.615c-2.329-4.236-5.899-7.144-9.794-7.981c-3.564-0.761-7.628,0.175-11.149,2.58       c-2.917,1.99-5.557,4.988-8.072,9.166c-3.456,5.741-6.052,12.408-7.717,19.818c-0.567,2.524-1.122,5.252-1.555,8.101       c3.489,7.479,5.594,15.611,6.052,23.785c0.108,1.905-0.329,3.074-1.333,3.573c-0.527,0.26-1.1,0.28-1.659,0.054       c-1.194-0.487-2.065-1.946-2.449-3.048c-2.764-7.949-2.513-16.543-1.361-24.256c-2.89-6.141-6.724-11.829-11.352-16.719       c-3.571-3.771-10.546-9.465-17.148-5.212c-1.355,0.874-2.505,2.147-3.326,3.686c-2.518,4.714-1.959,9.95-0.98,14.905       c3.567,18.052,12.766,34.501,21.662,50.409c5.022,8.98,10.215,18.267,14.376,27.786c2.66,6.085,4.934,12.613,3.58,19.119       c-0.041,0.197-0.235,0.324-0.429,0.281c-0.196-0.041-0.323-0.233-0.282-0.43c1.313-6.305-0.922-12.704-3.534-18.681       c-4.145-9.486-9.33-18.757-14.344-27.721c-8.923-15.957-18.151-32.457-21.741-50.623c-1.005-5.088-1.573-10.473,1.052-15.388       c0.879-1.646,2.115-3.013,3.574-3.953c7.039-4.537,14.342,1.387,18.067,5.322c4.441,4.692,8.159,10.109,11.023,15.956       c0.407-2.489,0.898-4.875,1.399-7.105c1.682-7.484,4.307-14.225,7.804-20.033c2.57-4.267,5.28-7.34,8.285-9.391       c3.686-2.513,7.958-3.491,11.71-2.689c4.102,0.879,7.848,3.92,10.278,8.339c2.188,3.981,3.114,8.529,3.788,12.852       c0.735,4.711,1.139,9.046,1.207,13.068c3.5-3.156,7.513-5.741,11.866-7.597c3.322-1.418,11.694-4.219,17.665,0.376       c3.59,2.765,5.455,7.876,4.868,13.338c-0.519,4.824-2.627,9.212-4.928,13.654c-3.086,5.96-6.431,11.971-9.666,17.785       c-11.332,20.366-23.051,41.426-26.119,64.622C151.656,223.504,151.5,223.637,151.321,223.637z M113.885,128.587       c-0.997,7.327-1.097,15.363,1.487,22.796c0.349,1.001,1.135,2.247,2.038,2.615c0.37,0.148,0.715,0.139,1.061-0.033       c0.717-0.356,1.021-1.298,0.932-2.881C118.972,143.372,117.057,135.698,113.885,128.587z M157.277,122.81       c-2.807,2.736-5.237,5.861-7.186,9.28c-1.329,2.332-2.277,4.656-2.82,6.91c-0.513,2.127,0.806,3.581,2.34,4.079       c1.542,0.493,3.471,0.091,4.309-1.941l0.039-0.096C156.133,135.699,157.231,129.738,157.277,122.81z"/>
				</g>
				<g>
					<path style="fill:#FFFFFF;" d="M157.721,226.323h-46.989c-0.1,0-0.181-0.081-0.181-0.182c0-0.101,0.081-0.182,0.181-0.182       h46.989c0.1,0,0.181,0.081,0.181,0.182C157.903,226.242,157.821,226.323,157.721,226.323z"/>
				</g>
				<g>
					<g>
						<path style="fill:#7182FF;" d="M157.917,218.471v7.516c0,12.088-9.778,21.89-21.89,21.89h-2.992        c-12.088,0-21.89-9.802-21.89-21.89v-7.516H157.917z"/>
					</g>
					<g>
						<path style="fill:#FFFFFF;" d="M157.721,222.389h-46.989c-0.1,0-0.181-0.081-0.181-0.182c0-0.101,0.081-0.182,0.181-0.182        h46.989c0.1,0,0.181,0.081,0.181,0.182C157.903,222.308,157.821,222.389,157.721,222.389z"/>
					</g>
					<g>
						<path style="fill:#FFFFFF;" d="M157.721,226.323h-46.989c-0.1,0-0.181-0.081-0.181-0.182c0-0.101,0.081-0.182,0.181-0.182        h46.989c0.1,0,0.181,0.081,0.181,0.182C157.903,226.242,157.821,226.323,157.721,226.323z"/>
					</g>
					<g>
						<path style="fill:#FFFFFF;" d="M157.721,230.255h-46.989c-0.1,0-0.181-0.081-0.181-0.182s0.081-0.182,0.181-0.182h46.989        c0.1,0,0.181,0.081,0.181,0.182S157.821,230.255,157.721,230.255z"/>
					</g>
				</g>
				<g style="opacity:0.32;">
					
						<ellipse transform="matrix(0.7071 -0.7071 0.7071 0.7071 -53.7481 133.1173)" style="fill:#FFB289;" cx="133.813" cy="131.438" rx="67.378" ry="67.378"/>
				</g>
			</g>
			<g>
				<g>
					<path style="fill:#FFFFFF;" d="M174.696,57.6c-0.821,2.942-0.608,6.085,0.02,9.074c1.191,5.664,3.87,11.009,7.696,15.353       c3.399,3.858,8.055,7.046,13.197,7.046c1.354,0,2.731-0.231,3.925-0.869c3.471-1.854,4.376-6.42,4.227-10.352       c-0.351-9.251-4.507-18.301-11.295-24.596c-1.684-1.562-3.565-2.983-5.742-3.712C181.198,47.694,176.13,52.468,174.696,57.6z"/>
				</g>
				<g>
					<path style="fill:#FFFFFF;" d="M207.274,110.95c11.094-1.372,8.083-17.823-2.32-17.448       C193.977,93.898,196.39,112.296,207.274,110.95z"/>
				</g>
			</g>
		</g>
		<g>
			<g>
				<path style="fill:#7182FF;" d="M493.836,477.644H320.267c-4.03,0-7.297-3.267-7.297-7.297V296.779      c0-4.03,3.267-7.297,7.297-7.297h173.569c4.03,0,7.297,3.267,7.297,7.297v173.568      C501.132,474.377,497.865,477.644,493.836,477.644z"/>
			</g>
			<g>
				<path style="fill:#FFA9DD;" d="M484.707,478.265H311.179c-4.041,0-7.317-3.276-7.317-7.317V296.385      c0-4.041,3.276-7.317,7.317-7.317h173.529c4.041,0,7.317,3.276,7.317,7.317v174.564      C492.024,474.989,488.748,478.265,484.707,478.265z"/>
			</g>
			<g>
				<g>
					<g>
						<path style="fill:#FFE9DC;" d="M355.456,374.353c-0.802,0-1.452-0.649-1.452-1.451v-54.233c0-0.802,0.651-1.451,1.452-1.451        c0.801,0,1.452,0.649,1.452,1.451v54.233C356.908,373.704,356.258,374.353,355.456,374.353z"/>
					</g>
					<g>
						<path style="fill:#FFE9DC;" d="M382.573,347.237H328.34c-0.802,0-1.452-0.649-1.452-1.451c0-0.802,0.65-1.451,1.452-1.451        h54.233c0.802,0,1.452,0.649,1.452,1.451C384.025,346.588,383.375,347.237,382.573,347.237z"/>
					</g>
				</g>
				<g>
					<g>
						<path style="fill:#FFE9DC;" d="M464.338,366.902c-0.371,0-0.743-0.142-1.027-0.424l-41.4-41.4        c-0.566-0.568-0.566-1.486,0-2.054c0.568-0.565,1.486-0.565,2.054,0l41.4,41.4c0.566,0.568,0.566,1.486,0,2.054        C465.081,366.76,464.71,366.902,464.338,366.902z"/>
					</g>
					<g>
						<path style="fill:#FFE9DC;" d="M422.938,366.902c-0.371,0-0.743-0.142-1.027-0.424c-0.566-0.568-0.566-1.486,0-2.054        l41.4-41.4c0.568-0.565,1.486-0.565,2.054,0c0.566,0.568,0.566,1.486,0,2.054l-41.4,41.4        C423.681,366.76,423.31,366.902,422.938,366.902z"/>
					</g>
				</g>
				<g>
					<path style="fill:#FFE9DC;" d="M376.467,420.929h-44.298c-0.802,0-1.452-0.649-1.452-1.451c0-0.802,0.651-1.451,1.452-1.451       h44.298c0.801,0,1.452,0.649,1.452,1.451C377.919,420.28,377.269,420.929,376.467,420.929z"/>
				</g>
				<g>
					<g>
						<path style="fill:#FFE9DC;" d="M448.503,398.053c0,3.201-2.595,5.796-5.796,5.796c-3.201,0-5.796-2.595-5.796-5.796        c0-3.201,2.595-5.796,5.796-5.796C445.908,392.257,448.503,394.852,448.503,398.053z"/>
					</g>
					<g>
						<path style="fill:#FFE9DC;" d="M448.503,440.902c0,3.201-2.595,5.796-5.796,5.796c-3.201,0-5.796-2.595-5.796-5.796        c0-3.201,2.595-5.796,5.796-5.796C445.908,435.106,448.503,437.701,448.503,440.902z"/>
					</g>
					<g>
						<path style="fill:#FFE9DC;" d="M468.582,420.411h-52.474c-0.802,0-1.452-0.649-1.452-1.451c0-0.802,0.651-1.451,1.452-1.451        h52.474c0.802,0,1.452,0.649,1.452,1.451C470.034,419.762,469.383,420.411,468.582,420.411z"/>
					</g>
				</g>
			</g>
		</g>
		<g>
			<g>
				<g>
					
						<ellipse transform="matrix(0.1619 -0.9868 0.9868 0.1619 -274.6776 394.6465)" style="fill:#F7607D;" cx="95" cy="359.034" rx="68.868" ry="68.869"/>
				</g>
			</g>
			<g>
				<g>
					<path style="fill:#FFE9DC;" d="M77.384,372.811c0.056,0.215,0.056,0.427,0.056,0.749c0,1.23-0.912,2.194-2.142,2.194h-3.369       c-1.178,0-2.142-0.749-2.464-1.927l-1.872-6.368h-9.578l-1.927,6.368c-0.322,1.179-1.282,1.927-2.409,1.927H50.36       c-1.23,0-2.139-0.964-2.139-2.194c0-0.322,0-0.534,0.052-0.749l10.274-33.177c0.322-1.123,1.286-1.875,2.461-1.875h3.64       c1.179,0,2.142,0.752,2.461,1.875L77.384,372.811z M62.777,351.084l-2.516,8.617h5.03L62.777,351.084z"/>
				</g>
				<g>
					<path style="fill:#FFE9DC;" d="M96.92,375.754h-9.793c-1.765,0-3.05-1.497-3.05-3.21v-31.305c0-0.856,0.322-1.66,0.912-2.25       c0.534-0.641,1.335-0.961,2.139-0.961h8.347c6.049,0,10.704,5.082,10.704,11.023c0,2.298-0.749,4.281-2.249,6.046       c3.051,1.927,4.337,5.193,4.337,8.722C108.266,370.187,103.447,375.754,96.92,375.754z M95.048,345.787h-3.265v6.635h3.265       c1.713,0,3.425-1.498,3.425-3.262C98.473,347.284,96.92,345.787,95.048,345.787z M91.783,359.913v8.028h4.87       c2.461,0,3.851-1.764,3.851-4.122c0-2.246-1.605-3.907-3.851-3.907H91.783z"/>
				</g>
				<g>
					<path style="fill:#FFE9DC;" d="M139.096,368.422c0.426,0.482,0.693,1.071,0.693,1.713c0,0.534-0.159,1.016-0.482,1.445       l-0.052,0.052c-2.624,3.106-6.316,4.818-10.434,4.818c-7.654,0-13.273-6.849-13.273-14.236v-10.593       c0-7.439,5.671-14.181,13.273-14.181c4.174,0,7.865,1.657,10.379,4.763c0.378,0.426,0.537,0.964,0.537,1.549       c0,0.537-0.215,1.126-0.589,1.66l-2.142,2.354c-0.478,0.482-0.96,0.697-1.497,0.697c-0.426,0-1.016-0.108-1.605-0.804       c-1.338-1.498-2.995-2.246-5.082-2.246c-2.891,0-5.459,2.891-5.459,6.208v10.593c0,3.373,2.568,6.26,5.459,6.26       c2.087,0,3.744-0.749,5.082-2.246c0.589-0.696,1.178-0.801,1.553-0.801c0.375,0,0.964,0.104,1.55,0.694L139.096,368.422z"/>
				</g>
			</g>
		</g>
		<g>
			<polygon style="fill:#FFB289;" points="412.953,254.307 405.899,274.328 392.847,257.586 372.825,250.532 389.567,237.48      396.622,217.458 409.673,234.2 429.695,241.255    "/>
		</g>
		<g>
			<polygon style="fill:#FFB289;" points="197.674,448.885 190.62,468.907 177.568,452.165 157.546,445.111 174.288,432.059      181.343,412.037 194.395,428.779 214.416,435.833    "/>
		</g>
		<g>
			<polygon style="fill:#FFB289;" points="86.309,243.129 79.255,263.15 66.203,246.408 46.181,239.354 62.923,226.302      69.977,206.28 83.029,223.022 103.051,230.077    "/>
		</g>
		<g>
			
				<ellipse transform="matrix(0.7071 -0.7071 0.7071 0.7071 -1.8228 341.4828)" style="fill:#FFE9DC;" cx="411.295" cy="172.942" rx="13.972" ry="13.972"/>
		</g>
		<g>
			
				<ellipse transform="matrix(0.3056 -0.9522 0.9522 0.3056 -257.3876 590.7746)" style="fill:#FFE9DC;" cx="276.331" cy="471.848" rx="13.972" ry="13.972"/>
		</g>
		<g>
			<path style="fill:#7182FF;" d="M307.795,322.239c-13.383,0-24.271-10.888-24.271-24.27c0-13.384,10.888-24.271,24.271-24.271     c13.383,0,24.271,10.888,24.271,24.271C332.066,311.352,321.178,322.239,307.795,322.239z M307.795,274.423     c-12.983,0-23.545,10.564-23.545,23.546c0,12.983,10.562,23.545,23.545,23.545c12.983,0,23.545-10.562,23.545-23.545     C331.34,284.987,320.778,274.423,307.795,274.423z"/>
		</g>
		<g>
			<path style="fill:#FFB289;" d="M42.837,329.692c-13.383,0-24.271-10.888-24.271-24.271c0-13.384,10.888-24.271,24.271-24.271     c13.384,0,24.272,10.887,24.272,24.271C67.109,318.805,56.22,329.692,42.837,329.692z M42.837,281.875     c-12.983,0-23.545,10.564-23.545,23.546s10.562,23.546,23.545,23.546c12.983,0,23.546-10.564,23.546-23.546     S55.82,281.875,42.837,281.875z"/>
		</g>
	</g>
</g>















</svg>
