<?xml version="1.0" encoding="UTF-8"?>
<!-- Generator: Adobe Illustrator 25.2.1, SVG Export Plug-In . SVG Version: 6.00 Build 0)  -->
<svg xmlns="http://www.w3.org/2000/svg" xmlns:xlink="http://www.w3.org/1999/xlink" version="1.1" id="Capa_1" x="0px" y="0px" viewBox="0 0 512 512" style="enable-background:new 0 0 512 512;" xml:space="preserve" width="512" height="512">
<g>
	<g>
		<path style="fill:#FFFFFF;" d="M268.769,451.45c-4.017,0-7.862-1.84-10.38-5.071l-3.323-4.261    c-17.265,4.951-35.076,7.455-53.078,7.455c-39.44,0-77.217-11.802-109.523-34.168c-2.935-0.083-5.407-0.219-7.271-0.345    c-3.078,0.21-7.616,0.431-13.015,0.431c-32.701,0-53.756-7.455-62.577-22.156c-9.96-16.601-1.606-43.495,9.847-74.454    c-1.942-5.72-3.621-11.558-5.019-17.453c-1.885-1.776-3.445-3.871-4.59-6.2c-2.592-5.279-3.358-10.778-2.352-16.046    c-0.216-0.223-0.428-0.448-0.635-0.679c-5.152-5.726-7.418-13.479-6.734-23.047c0.307-4.308,2.128-11.607,10.077-17.73    c3.033-30.84,13.386-60.257,30.267-86.116c-0.582-1.165-0.995-2.429-1.212-3.755c-0.774-4.747,1.103-9.542,4.899-12.5l12.06-9.4    l5.081-14.422c1.599-4.538,5.546-7.841,10.295-8.616c0.708-0.116,1.418-0.172,2.122-0.172c3.098,0,6.094,1.095,8.457,3.078    c34.011-27.04,76.05-41.783,119.825-41.783c9.763,0,19.561,0.75,29.26,2.232c2.005-2.924,5.144-4.964,8.738-5.551    c0.709-0.116,1.418-0.171,2.123-0.171c4.017,0,7.86,1.84,10.377,5.069l5.176,6.639c66.371,20.003,117.081,74.638,132.309,141.889    h90.634c7.269,0,13.162,5.893,13.162,13.162l0.002,65.57h5.067c7.269,0,13.162,5.893,13.162,13.162v91.789    c-0.002,7.269-5.895,13.158-13.162,13.158H317.625c-10.069,7.562-20.855,14.124-32.173,19.572l-4.265,12.102    c-1.6,4.537-5.547,7.841-10.296,8.616C270.183,451.394,269.474,451.45,268.769,451.45z"/>
	</g>
	<g>
		<g>
			
				<ellipse transform="matrix(0.7071 -0.7071 0.7071 0.7071 -123.9527 218.7532)" style="fill:#FFA9DD;" cx="202.082" cy="259.001" rx="179.605" ry="179.605"/>
		</g>
		<g>
			<g>
				<g>
					<path style="fill:#FF8C9D;" d="M308.262,218.966c-0.89-9.51-10.161-15.973-19.351-13.372       c-9.967,2.821-24.293,4.603-43.142,1.504c-40.887-6.721-80.654-22.404-100.258-18.483       c-19.603,3.921-67.772,14.002-84.015,19.603s-33.606,10.642-31.366,23.524c2.24,12.882,7.281,12.322,7.281,12.322       s-23.524,3.921-23.524,14.563c0,10.642,4.481,17.363,12.882,16.803c0,0-8.401,3.361-3.921,16.243       c4.481,12.882,106.419,2.24,106.419,2.24s-71.693,14.003-68.892,29.125c2.8,15.123,17.923,15.123,54.329,9.522       c36.406-5.601,120.981,3.361,150.667-4.481c16.807-4.44,31.101-9.238,40.339-12.566c6.597-2.377,10.753-8.902,10.1-15.884       L308.262,218.966z"/>
				</g>
				<g>
					<g>
						<path style="fill:#512651;" d="M42.699,245.232c-2.561,0-4.445-0.274-5.456-0.887c-9.321-5.649-7.456-18.682-7.436-18.814        c0.027-0.177,0.198-0.303,0.372-0.274c0.179,0.027,0.303,0.194,0.275,0.372c-0.019,0.127-1.817,12.735,7.127,18.155        c9.018,5.455,93.824-18.001,94.681-18.238c0.173-0.051,0.354,0.053,0.402,0.228c0.049,0.174-0.053,0.354-0.228,0.402        C129.315,227.044,63.576,245.229,42.699,245.232z"/>
					</g>
					<g>
						<path style="fill:#512651;" d="M27.332,275.767c-0.217,0-0.408-0.004-0.573-0.009c-4.284-0.148-7.604-1.499-9.867-4.015        c-2.624-2.917-3.744-7.337-3.329-13.138c0.849-11.895,22.873-14.748,23.81-14.864c0.19-0.017,0.341,0.107,0.365,0.285        c0.022,0.179-0.106,0.342-0.285,0.365c-0.224,0.027-22.426,2.902-23.237,14.262c-0.401,5.615,0.664,9.874,3.164,12.654        c2.14,2.378,5.303,3.657,9.403,3.798c0.163,0.006,0.352,0.009,0.568,0.009c10.334,0,79.335-6.382,80.046-6.448        c0.187-0.024,0.34,0.117,0.356,0.296c0.016,0.179-0.116,0.339-0.296,0.356C106.744,269.382,37.72,275.765,27.332,275.767z"/>
					</g>
					<g>
						<path style="fill:#512651;" d="M77.826,299.104c-18.86,0-40.647-1.966-48.734-2.767c-3.099-0.307-5.838-2.154-7.148-4.819        c-4.823-9.824,4.548-16.295,4.643-16.36c0.147-0.101,0.351-0.062,0.454,0.088c0.101,0.15,0.061,0.354-0.088,0.454        c-0.368,0.249-8.991,6.222-4.421,15.528c1.21,2.464,3.749,4.171,6.625,4.455c11.405,1.131,50.103,4.582,69.256,1.546        c0.188-0.029,0.346,0.095,0.375,0.273c0.027,0.178-0.093,0.346-0.273,0.375C92.898,298.769,85.611,299.104,77.826,299.104z"/>
					</g>
				</g>
				<g>
					<g>
						<path style="fill:#FFE9DC;" d="M131.136,304.742c-4.481-20.91-23.361-101.938-23.361-101.938s3.361,0.374,8.961-1.867        c4.623-1.849,0.597-14.129-0.95-18.361c-0.315-0.863-1.138-1.43-2.057-1.43H88.942h-7.305H56.849        c-0.919,0-1.741,0.567-2.057,1.43c-1.547,4.231-5.573,16.511-0.95,18.361c5.601,2.241,8.962,1.867,8.962,1.867        s-17.55,80.468-24.551,104.832c-4.925,17.14-27.351,64.318-17.27,81.121c10.082,16.803,48.915,16.43,64.225,15.309h0.163        c15.31,1.12,54.143,1.494,64.225-15.309C159.678,371.954,134.873,322.18,131.136,304.742z"/>
					</g>
					<g>
						<path style="fill:#BD6EEB;" d="M109.106,184.834c0,0.85-11.347,1.54-25.344,1.54c-13.997,0-25.344-0.69-25.344-1.54        c0-0.851,11.347-1.54,25.344-1.54C97.759,183.294,109.106,183.984,109.106,184.834z"/>
					</g>
					<g>
						<path style="fill:#FFA9DD;" d="M90.062,203.505c-0.001,0-0.002,0-0.005,0l-27.258-0.374c-0.181-0.003-0.325-0.151-0.323-0.333        c0.003-0.179,0.148-0.322,0.328-0.322c0.001,0,0.002,0,0.005,0l27.258,0.374c0.181,0.003,0.325,0.151,0.323,0.332        C90.387,203.362,90.241,203.505,90.062,203.505z"/>
					</g>
					<g>
						<g>
							<g>
								<path style="fill:#FFA9DD;" d="M138.239,369.724c0,2.523-0.724,5.441-2.347,8.424c-4.651,8.555-16.329,16.951-39.561,19.166          c-23.933,2.282-47.53,0.775-60.188-8.746c-3.949-2.94-6.844-6.603-8.446-11.013c-5.638-15.685,22.683-96.677,31.919-122.212          c0.132-0.373,0.263-0.724,0.438-1.075c1.909-4.322,5.748-7.525,10.398-8.621c11.912-2.874,33.169-7.656,35.582-6.055          c0.219,0.153,0.483,0.526,0.768,1.097c4.058,7.898,13.996,53.637,15.378,59.582          C123.672,306.611,138.239,360.006,138.239,369.724z"/>
							</g>
							<g>
								<path style="fill:#BD6EEB;" d="M106.803,240.689c-0.154,0.22-0.307,0.439-0.483,0.658          c-2.764,3.422-7.086,5.111-11.078,6.932c-6.45,2.94-12.636,6.669-19.568,8.139c-3.488,0.746-12.131,1.075-15.62-2.15          c1.909-4.322,5.748-7.525,10.398-8.621c11.912-2.874,33.169-7.656,35.582-6.055          C106.254,239.746,106.518,240.119,106.803,240.689z"/>
							</g>
						</g>
						<g>
							<g>
								<g>
									<path style="fill:#FFFFFF;" d="M105.336,253.352c-1.18,1.599-1.534,3.66-1.614,5.645           c-0.222,5.49,1.377,10.883,3.212,16.062c1.199,3.384,2.639,6.912,5.514,9.062c1.112,0.832,2.634,1.421,3.868,0.784           c1.111-0.574,1.562-1.916,1.783-3.147c0.86-4.795-0.218-9.718-1.59-14.393           C115.444,263.745,111.335,245.224,105.336,253.352z"/>
								</g>
								<g>
									<path style="fill:#FFFFFF;" d="M113.867,293.518c-0.247,2.898,0.153,5.85,1.162,8.579c0.397,1.073,0.908,2.141,1.753,2.911           c0.845,0.77,2.089,1.19,3.165,0.8c1.615-0.585,2.157-2.589,2.232-4.305c0.152-3.453-0.549-7.954-2.846-10.693           C116.607,287.56,114.161,290.067,113.867,293.518z"/>
								</g>
							</g>
							<g>
								<path style="fill:#FFFFFF;" d="M31.96,376.894c1.298,3.481,4.171,6.534,7.813,7.268c1.166,0.235,2.684,0.032,3.072-1.093          c0.176-0.509,0.055-1.071-0.111-1.583c-0.461-1.424-1.256-2.717-1.781-4.118c-1.655-4.414-0.562-9.646-2.87-13.757          c-0.606-1.08-1.564-2.107-2.798-2.213c-1.174-0.1-2.279,0.692-2.898,1.694C30.083,366.832,30.503,372.986,31.96,376.894z"/>
							</g>
						</g>
						<g>
							<path style="fill:#512651;" d="M135.891,378.148c-4.651,8.555-16.628,17.725-39.86,19.941         c-23.933,2.282-47.231,0-59.889-9.521c2.479,0.856,4.848,1.974,5.967,2.369c6.866,2.347,13.974,3.992,21.169,4.892         c7.832,0.987,15.773,1.119,23.626,0.329C104.39,394.382,121.413,388.086,135.891,378.148z"/>
						</g>
					</g>
				</g>
				<g>
					<path style="fill:#FF8C9D;" d="M171.463,205.418c0,0-92.23,15.309-96.337,31.366c-3.614,14.127,3.734,22.404,11.949,23.897       c8.215,1.493,79.161-1.867,79.161-1.867s-2.614,23.897,26.138,36.966l30.245-42.194L171.463,205.418z"/>
				</g>
				<g>
					<g>
						<path style="fill:#512651;" d="M190.6,287.799c-0.049,0-0.097-0.011-0.143-0.032c-17.954-8.713-29.099-27.815-30.286-29.918        c-3.242,0.257-42.719,3.346-60.866,3.346c-19.103,0-24.1-2.178-25.531-18.502c-1.213-13.818,19.235-19.424,31.45-22.772        c2.242-0.615,4.18-1.145,5.741-1.652c10.248-3.324,54.178-15.84,54.62-15.966c0.176-0.049,0.356,0.051,0.405,0.225        c0.05,0.174-0.051,0.355-0.225,0.405c-0.442,0.126-44.361,12.638-54.598,15.959c-1.575,0.512-3.519,1.043-5.77,1.661        c-12.019,3.295-32.136,8.809-30.971,22.083c1.416,16.145,6.288,17.905,24.879,17.905c18.812,0,60.604-3.326,61.024-3.359        c0.13-0.024,0.253,0.056,0.314,0.171c0.112,0.207,11.375,20.738,30.1,29.825c0.162,0.08,0.23,0.275,0.152,0.438        C190.838,287.731,190.721,287.799,190.6,287.799z"/>
					</g>
					<g>
						<path style="fill:#512651;" d="M90.093,256.38c-0.571,0-1.144-0.017-1.717-0.054c-3.525-0.22-6.145-1.233-7.789-3.009        c-1.418-1.533-2.059-3.576-2.459-5.185c-1.114-4.48-0.901-8.28,0.635-11.292c1.579-3.093,4.423-5.025,6.531-6.101l0,0        c8.09-4.131,14.559-3.037,17.758,2.996c1.752,3.301,1.96,7.176,1.946,10.181c-0.014,2.848-0.317,6.419-2.562,8.774        c-1.57,1.647-3.816,2.381-5.37,2.789C94.784,256.079,92.446,256.38,90.093,256.38z M94.193,228.902        c-3.14,0-6.333,1.261-8.601,2.421l0,0c-2.023,1.032-4.748,2.879-6.247,5.816c-1.462,2.868-1.659,6.513-0.583,10.838        c0.381,1.533,0.987,3.474,2.305,4.896c1.526,1.65,3.999,2.592,7.349,2.803c2.861,0.179,5.715-0.101,8.482-0.827        c2.347-0.618,3.956-1.446,5.064-2.607c2.084-2.189,2.367-5.599,2.381-8.326c0.014-2.93-0.186-6.7-1.869-9.872        C100.415,230.162,97.33,228.902,94.193,228.902z M85.443,231.031h0.009H85.443z"/>
					</g>
				</g>
			</g>
			<g>
				<g>
					<g>
						
							<ellipse transform="matrix(0.9871 -0.1602 0.1602 0.9871 -20.119 30.8751)" style="fill:#FFE9DC;" cx="181.446" cy="140.227" rx="52.375" ry="52.375"/>
					</g>
					<g>
						<polygon style="fill:#FFE9DC;" points="159.347,183.763 125.535,193.376 147.082,168.514       "/>
					</g>
				</g>
				<g>
					<g>
						<path style="fill:#7182FF;" d="M178.052,152.063l-0.607,0.153c-0.684,0-1.215-0.305-1.595-0.989        c-1.141-2.354-1.748-4.635-1.748-6.84c0-5.548,3.647-8.891,7.447-12.387c1.824-1.746,3.116-3.114,3.8-4.104        c0.684-0.989,1.064-2.052,1.064-3.041c0-2.965-2.508-4.409-5.244-4.409c-3.04,0-6.079,1.597-8.435,3.423        c-0.38,0.226-0.684,0.378-1.064,0.378c-0.456,0-0.837-0.229-1.14-0.684l-2.66-3.951c-0.229-0.229-0.304-0.608-0.304-0.989        c0-0.531,0.228-0.986,0.608-1.368c4.104-3.42,8.511-5.093,13.224-5.093c7.751,0,13.679,4.638,13.679,12.54        c0,5.017-2.356,8.211-5.775,11.631l-1.444,1.444c-1.748,1.594-2.963,2.889-3.724,3.875c-0.76,0.989-1.14,2.052-1.14,3.118        c0,0.986,0.227,2.128,0.76,3.42c0.077,0.302,0.151,0.531,0.151,0.684c0,0.226-0.074,0.531-0.227,0.76        c-0.228,0.226-0.457,0.455-0.684,0.531L178.052,152.063z M173.113,163.767c0-3.496,2.811-6.308,6.307-6.308        c3.573,0,6.308,2.739,6.308,6.308c0,3.573-2.736,6.308-6.308,6.308C175.924,170.075,173.113,167.263,173.113,163.767z"/>
					</g>
				</g>
			</g>
			<g>
				<g>
					<g>
						<g>
							<path style="fill:#BD6EEB;" d="M498.93,308.234v6.824l-5.906,41.586l5.906,38.146v5.228H332.931l-10.991-1.96l-10.42,1.96         h-76.078l-11.177-2.572l-10.19,2.572h-8.073c-23.122,0-41.856-20.555-41.856-45.914c0-12.68,4.673-24.131,12.241-32.423         c7.59-8.336,18.054-13.447,29.615-13.447H498.93z"/>
						</g>
						<g>
							<g>
								<path style="fill:#FFE9DC;" d="M498.934,315.059v79.732h-98.733c-2.507,0-4.966-0.267-7.327-0.801          c-0.827-0.186-1.631-0.4-2.434-0.667c-4.235-1.281-8.155-3.39-11.611-6.166c-0.268-0.214-0.535-0.427-0.803-0.667          c-2.142-1.788-4.09-3.844-5.794-6.139c-0.195-0.213-0.341-0.427-0.511-0.667c-1.388-1.895-2.605-3.95-3.651-6.139          c-0.122-0.214-0.219-0.427-0.316-0.667c-0.925-1.949-1.68-4.031-2.288-6.166c-0.048-0.214-0.122-0.427-0.17-0.667          c-0.535-1.975-0.925-4.031-1.144-6.139c-0.024-0.214-0.049-0.454-0.073-0.667c-0.146-1.415-0.219-2.856-0.219-4.324          c0-0.614,0.024-1.228,0.049-1.815c0-0.24,0-0.454,0.024-0.667c0.122-2.109,0.389-4.164,0.779-6.166          c0.049-0.24,0.098-0.454,0.146-0.667c0.462-2.109,1.071-4.164,1.826-6.139c0.098-0.213,0.17-0.454,0.268-0.667          c0.876-2.162,1.899-4.217,3.091-6.14c0.146-0.24,0.292-0.453,0.438-0.667c1.193-1.869,2.532-3.63,4.016-5.258          c0.268-0.294,0.56-0.614,0.852-0.881c0.219-0.24,0.438-0.454,0.657-0.667c2.507-2.456,5.331-4.538,8.398-6.166          c0.438-0.24,0.876-0.454,1.339-0.667c4.43-2.109,9.323-3.283,14.459-3.283H498.934z"/>
							</g>
							<g>
								<g>
									<path style="fill:#FFB289;" d="M498.934,318.342v0.667H384.403c0.438-0.24,0.876-0.454,1.339-0.667H498.934z"/>
								</g>
								<g>
									<path style="fill:#FFB289;" d="M498.934,325.176v0.667H375.348c0.219-0.24,0.438-0.454,0.657-0.667H498.934z"/>
								</g>
								<g>
									<path style="fill:#FFB289;" d="M498.934,325.176v0.667H375.348c0.219-0.24,0.438-0.454,0.657-0.667H498.934z"/>
								</g>
								<g>
									<path style="fill:#FFB289;" d="M498.934,331.982v0.667H370.041c0.146-0.24,0.292-0.453,0.438-0.667H498.934z"/>
								</g>
								<g>
									<path style="fill:#FFB289;" d="M498.934,331.982v0.667H370.041c0.146-0.24,0.292-0.453,0.438-0.667H498.934z"/>
								</g>
								<g>
									<path style="fill:#FFB289;" d="M498.934,338.789v0.667H366.682c0.098-0.213,0.17-0.454,0.268-0.667H498.934z"/>
								</g>
								<g>
									<path style="fill:#FFB289;" d="M498.934,338.789v0.667H366.682c0.098-0.213,0.17-0.454,0.268-0.667H498.934z"/>
								</g>
								<g>
									<path style="fill:#FFB289;" d="M498.934,345.596v0.667H364.71c0.049-0.24,0.098-0.454,0.146-0.667H498.934z"/>
								</g>
								<g>
									<path style="fill:#FFB289;" d="M498.934,345.596v0.667H364.71c0.049-0.24,0.098-0.454,0.146-0.667H498.934z"/>
								</g>
								<g>
									<path style="fill:#FFB289;" d="M498.934,352.429v0.667H363.907c0-0.24,0-0.454,0.024-0.667H498.934z"/>
								</g>
								<g>
									<path style="fill:#FFB289;" d="M498.934,359.236v0.667H364.15c-0.024-0.214-0.049-0.454-0.073-0.667H498.934z"/>
								</g>
								<g>
									<path style="fill:#FFB289;" d="M498.934,359.236v0.667H364.15c-0.024-0.214-0.049-0.454-0.073-0.667H498.934z"/>
								</g>
								<g>
									<path style="fill:#FFB289;" d="M498.934,366.043v0.667h-133.47c-0.048-0.214-0.122-0.427-0.17-0.667H498.934z"/>
								</g>
								<g>
									<path style="fill:#FFB289;" d="M498.934,372.876v0.667H368.069c-0.122-0.214-0.219-0.427-0.316-0.667H498.934z"/>
								</g>
								<g>
									<path style="fill:#FFB289;" d="M498.934,379.682v0.667H372.232c-0.195-0.213-0.341-0.427-0.511-0.667H498.934z"/>
								</g>
								<g>
									<path style="fill:#FFB289;" d="M498.934,386.489v0.667H378.829c-0.268-0.214-0.535-0.427-0.803-0.667H498.934z"/>
								</g>
								<g>
									<path style="fill:#FFB289;" d="M498.934,393.323v0.667h-106.06c-0.827-0.186-1.631-0.4-2.434-0.667H498.934z"/>
								</g>
							</g>
						</g>
					</g>
					<g>
						<path style="fill:#FFA9DD;" d="M235.442,400.019h-21.367c-11.21-15.312-16.848-34.639-15.488-53.592        c0.965-13.557,5.528-26.785,12.921-38.193h26.939c-5.155,7.612-8.863,16.343-10.991,25.14        C222.061,355.575,225.044,379.684,235.442,400.019z"/>
					</g>
					<g>
						<path style="fill:#FFA9DD;" d="M332.931,400.019h-21.411c-11.188-15.312-16.848-34.639-15.465-53.592        c0.965-13.557,5.528-26.785,12.921-38.193h26.917c-5.155,7.612-8.863,16.343-10.991,25.14        C319.528,355.597,322.489,379.684,332.931,400.019z"/>
					</g>
				</g>
				<g>
					<g>
						<g>
							<path style="fill:#7182FF;" d="M480.7,229.502v5.87l-5.83,37.944l5.83,30.538v4.486H214.185         c-21.038,0-38.083-17.644-38.083-39.43c0-10.893,4.234-20.729,11.122-27.853c6.91-7.165,16.431-11.555,26.961-11.555H480.7z"/>
						</g>
						<g>
							<g>
								<path style="fill:#FFE9DC;" d="M480.703,235.373v68.482H390.87c-2.281,0-4.518-0.229-6.667-0.688          c-0.753-0.16-1.484-0.344-2.215-0.573c-3.854-1.1-7.42-2.912-10.565-5.296c-0.244-0.184-0.487-0.367-0.731-0.573          c-1.949-1.536-3.721-3.301-5.271-5.273c-0.177-0.183-0.31-0.367-0.465-0.573c-1.262-1.628-2.37-3.393-3.322-5.273          c-0.111-0.184-0.199-0.367-0.288-0.573c-0.842-1.674-1.528-3.462-2.082-5.296c-0.044-0.183-0.111-0.366-0.155-0.573          c-0.487-1.696-0.841-3.462-1.041-5.273c-0.022-0.183-0.044-0.39-0.066-0.573c-0.133-1.215-0.199-2.453-0.199-3.714          c0-0.527,0.022-1.055,0.044-1.559c0-0.206,0-0.39,0.022-0.573c0.111-1.811,0.354-3.577,0.709-5.296          c0.044-0.206,0.089-0.39,0.133-0.573c0.421-1.811,0.974-3.577,1.661-5.273c0.089-0.183,0.155-0.39,0.244-0.573          c0.797-1.857,1.727-3.622,2.812-5.273c0.133-0.206,0.266-0.39,0.399-0.573c1.085-1.605,2.303-3.118,3.654-4.516          c0.244-0.252,0.509-0.528,0.775-0.757c0.199-0.206,0.399-0.39,0.598-0.573c2.281-2.109,4.85-3.897,7.641-5.296          c0.399-0.206,0.797-0.39,1.218-0.573c4.031-1.811,8.483-2.82,13.156-2.82H480.703z"/>
							</g>
							<g>
								<g>
									<path style="fill:#FFB289;" d="M480.703,238.193v0.573H376.496c0.399-0.206,0.797-0.39,1.218-0.573H480.703z"/>
								</g>
								<g>
									<path style="fill:#FFB289;" d="M480.703,244.062v0.573H368.257c0.199-0.206,0.399-0.39,0.598-0.573H480.703z"/>
								</g>
								<g>
									<path style="fill:#FFB289;" d="M480.703,244.062v0.573H368.257c0.199-0.206,0.399-0.39,0.598-0.573H480.703z"/>
								</g>
								<g>
									<path style="fill:#FFB289;" d="M480.703,249.908v0.573H363.429c0.133-0.206,0.266-0.39,0.399-0.573H480.703z"/>
								</g>
								<g>
									<path style="fill:#FFB289;" d="M480.703,249.908v0.573H363.429c0.133-0.206,0.266-0.39,0.399-0.573H480.703z"/>
								</g>
								<g>
									<path style="fill:#FFB289;" d="M480.703,255.754v0.573h-120.33c0.089-0.183,0.155-0.39,0.244-0.573H480.703z"/>
								</g>
								<g>
									<path style="fill:#FFB289;" d="M480.703,255.754v0.573h-120.33c0.089-0.183,0.155-0.39,0.244-0.573H480.703z"/>
								</g>
								<g>
									<path style="fill:#FFB289;" d="M480.703,261.601v0.573H358.578c0.044-0.206,0.089-0.39,0.133-0.573H480.703z"/>
								</g>
								<g>
									<path style="fill:#FFB289;" d="M480.703,261.601v0.573H358.578c0.044-0.206,0.089-0.39,0.133-0.573H480.703z"/>
								</g>
								<g>
									<path style="fill:#FFB289;" d="M480.703,267.47v0.573H357.848c0-0.206,0-0.39,0.022-0.573H480.703z"/>
								</g>
								<g>
									<path style="fill:#FFB289;" d="M480.703,273.316v0.573H358.069c-0.022-0.183-0.044-0.39-0.066-0.573H480.703z"/>
								</g>
								<g>
									<path style="fill:#FFB289;" d="M480.703,273.316v0.573H358.069c-0.022-0.183-0.044-0.39-0.066-0.573H480.703z"/>
								</g>
								<g>
									<path style="fill:#FFB289;" d="M480.703,279.162v0.573H359.265c-0.044-0.183-0.111-0.366-0.155-0.573H480.703z"/>
								</g>
								<g>
									<path style="fill:#FFB289;" d="M480.703,285.032v0.573H361.635c-0.111-0.184-0.199-0.367-0.288-0.573H480.703z"/>
								</g>
								<g>
									<path style="fill:#FFB289;" d="M480.703,290.878v0.573h-115.28c-0.177-0.183-0.31-0.367-0.465-0.573H480.703z"/>
								</g>
								<g>
									<path style="fill:#FFB289;" d="M480.703,296.724v0.573H371.424c-0.244-0.184-0.487-0.367-0.731-0.573H480.703z"/>
								</g>
								<g>
									<path style="fill:#FFB289;" d="M480.703,302.593v0.573h-96.499c-0.753-0.16-1.484-0.344-2.215-0.573H480.703z"/>
								</g>
							</g>
						</g>
					</g>
					<g>
						<path style="fill:#FFB289;" d="M311.386,282.032H219.92c-8.579,0-15.598-7.019-15.598-15.598l0,0        c0-8.579,7.019-15.598,15.598-15.598h91.466c8.579,0,15.598,7.019,15.598,15.598l0,0        C326.984,275.013,319.965,282.032,311.386,282.032z"/>
					</g>
				</g>
			</g>
			<g>
				<g>
					<path style="fill:#512651;" d="M333.423,257.388c-5.091,0-11.274-2.032-18.165-6.048c-11.205-6.528-23.006-17.541-33.23-31.011       c-10.225-13.47-17.659-27.797-20.935-40.345c-3.322-12.727-1.966-22.156,3.819-26.546c5.785-4.39,15.23-3.163,26.595,3.46       c11.205,6.528,23.006,17.541,33.231,31.011l0,0c10.225,13.47,17.658,27.797,20.934,40.345       c3.322,12.727,1.966,22.156-3.819,26.546C339.576,256.53,336.73,257.388,333.423,257.388z M273.36,152.077       c-3.038,0-5.637,0.777-7.701,2.344c-5.361,4.069-6.558,13.036-3.369,25.25c3.235,12.395,10.595,26.568,20.722,39.911       c10.128,13.343,21.801,24.242,32.868,30.691c10.907,6.355,19.866,7.613,25.226,3.544c5.361-4.069,6.558-13.036,3.369-25.25       c-3.235-12.394-10.593-26.568-20.721-39.911l0,0c-10.129-13.343-21.802-24.242-32.87-30.691       C284.178,154.058,278.209,152.077,273.36,152.077z"/>
				</g>
				<g>
					<path style="fill:#512651;" d="M283.649,263.77c-1.685,0-3.28-0.307-4.771-0.93c-6.703-2.797-10.383-11.581-10.366-24.735       c0.019-12.968,3.615-28.705,10.128-44.311l0.57,0.238l-0.57-0.238c13.512-32.379,35.609-54.088,49.247-48.396       c13.643,5.694,13.75,36.669,0.239,69.046c-6.513,15.606-15.169,29.232-24.374,38.366       C296.491,260.013,289.535,263.769,283.649,263.77z M323.076,145.696c-13.057,0-31.43,20.141-43.295,48.573l0,0       c-6.451,15.459-10.014,31.028-10.032,43.837c-0.017,12.623,3.394,21.001,9.605,23.594c6.209,2.59,14.567-0.875,23.528-9.767       c9.092-9.022,17.653-22.505,24.104-37.965c13.248-31.749,13.44-61.999,0.426-67.43       C326.052,145.97,324.599,145.696,323.076,145.696z"/>
				</g>
				<g>
					<path style="fill:#512651;" d="M292.492,231.788c-11.557,0-22.306-1.431-31.17-4.209       c-12.582-3.942-19.899-10.155-20.605-17.494c-0.706-7.339,5.293-14.833,16.894-21.101c11.436-6.181,27.007-10.475,43.84-12.095       c34.913-3.364,64.51,6.065,65.948,21.011c0.706,7.339-5.293,14.833-16.894,21.101c-11.436,6.181-27.006,10.475-43.84,12.095       C301.858,231.559,297.11,231.788,292.492,231.788z M315.615,177.446c-4.539,0-9.237,0.222-14.045,0.684       c-16.673,1.604-32.074,5.847-43.368,11.951c-11.131,6.015-16.9,13.077-16.245,19.886c0.654,6.81,7.664,12.642,19.738,16.426       c12.251,3.837,28.178,5.069,44.851,3.465c16.673-1.604,32.074-5.847,43.368-11.951c11.131-6.015,16.9-13.077,16.245-19.886       C364.98,185.761,343.401,177.446,315.615,177.446z"/>
				</g>
				<g>
					<circle style="fill:#7182FF;" cx="302.153" cy="203.924" r="10.829"/>
				</g>
			</g>
		</g>
		<g>
			<polygon style="fill:#BD6EEB;" points="256.932,109.141 250.569,127.199 238.797,112.099 220.739,105.737 235.839,93.965      242.202,75.906 253.974,91.006 272.032,97.369    "/>
		</g>
		<g>
			<polygon style="fill:#F7607D;" points="275.228,422.423 268.866,440.481 257.094,425.381 239.035,419.018 254.135,407.246      260.498,389.188 272.27,404.288 290.328,410.651    "/>
		</g>
		<g>
			<polygon style="fill:#F7607D;" points="88.529,151.335 82.166,169.393 70.394,154.293 52.336,147.931 67.436,136.159      73.799,118.1 85.571,133.2 103.629,139.563    "/>
		</g>
		<g>
			<path style="fill:#FFE9DC;" d="M188.598,430.672c-12.071,0-21.891-9.82-21.891-21.891c0-12.07,9.82-21.89,21.891-21.89     s21.891,9.82,21.891,21.89C210.489,420.852,200.669,430.672,188.598,430.672z M188.598,387.545     c-11.71,0-21.237,9.526-21.237,21.235c0,11.71,9.526,21.237,21.237,21.237s21.237-9.526,21.237-21.237     C209.834,397.072,200.308,387.545,188.598,387.545z"/>
		</g>
		<g>
			<path style="fill:#FFE9DC;" d="M164.394,352.172c-8.869,0-16.084-7.215-16.084-16.084c0-8.869,7.215-16.084,16.084-16.084     s16.084,7.215,16.084,16.084C180.478,344.956,173.263,352.172,164.394,352.172z M164.394,320.483     c-8.604,0-15.604,7-15.604,15.604c0,8.604,7,15.604,15.604,15.604s15.604-7,15.604-15.604     C179.998,327.483,172.998,320.483,164.394,320.483z"/>
		</g>
		<g>
			<path style="fill:#FFE9DC;" d="M246.516,175.869c-6.689,0-12.131-5.442-12.131-12.131c0-6.689,5.442-12.131,12.131-12.131     c6.689,0,12.131,5.442,12.131,12.131C258.648,170.426,253.205,175.869,246.516,175.869z M246.516,151.97     c-6.488,0-11.767,5.279-11.767,11.768c0,6.488,5.279,11.768,11.767,11.768c6.488,0,11.768-5.279,11.768-11.768     C258.284,157.25,253.005,151.97,246.516,151.97z"/>
		</g>
		<g>
			<path style="fill:#FFE9DC;" d="M286.284,139.462c-6.689,0-12.131-5.442-12.131-12.131c0-6.689,5.442-12.13,12.131-12.13     c6.689,0,12.13,5.441,12.13,12.13C298.414,134.019,292.973,139.462,286.284,139.462z M286.284,115.564     c-6.488,0-11.768,5.278-11.768,11.766s5.279,11.768,11.768,11.768c6.488,0,11.766-5.279,11.766-11.768     S292.772,115.564,286.284,115.564z"/>
		</g>
		<g>
			<rect x="393.636" y="234.823" style="fill:#FFB289;" width="16.803" height="35.286"/>
		</g>
		<g>
			<rect x="401.477" y="314.917" style="fill:#FFB289;" width="16.803" height="41.727"/>
		</g>
	</g>
</g>















</svg>
