<?xml version="1.0" encoding="UTF-8"?>
<!-- Generator: Adobe Illustrator 25.2.1, SVG Export Plug-In . SVG Version: 6.00 Build 0)  -->
<svg xmlns="http://www.w3.org/2000/svg" xmlns:xlink="http://www.w3.org/1999/xlink" version="1.1" id="Capa_1" x="0px" y="0px" viewBox="0 0 512 512" style="enable-background:new 0 0 512 512;" xml:space="preserve" width="512" height="512">
<g>
	<g>
		<path style="fill:#FFFFFF;" d="M321.019,512c-2.685,0-5.373-0.5-7.92-1.504l-84.949-33.454    c-13.11-2.19-26.041-5.542-38.633-10.005c-10.072,10.236-24.027,16.392-38.869,16.392c-30.054,0-54.506-24.451-54.506-54.507    c0-1.274,0.046-2.547,0.135-3.814L28.92,398.58c-5.334-2.101-9.617-6.235-11.903-11.492c-2.285-5.259-2.389-11.21-0.288-16.545    l15.714-39.901l-0.579-0.15c-9.242-2.385-15.827-10.551-16.2-20.088c-0.371-9.539,5.556-18.193,14.583-21.291l8.529-2.929    c-1.921-12.041-2.891-24.226-2.891-36.42c0-56.671,20.355-110.274,57.597-152.401c-1.596-6.242-2.4-12.649-2.4-19.168    C91.083,35.077,126.16,0,169.277,0c21.082,0,40.939,8.434,55.479,23.103c13.73-2.514,27.662-3.785,41.575-3.785    c20.065,0,39.949,2.606,59.287,7.76c1.784-0.654,3.677-1.08,5.64-1.245c0.612-0.051,1.217-0.076,1.819-0.076    c7.34,0,14.096,3.73,18.047,9.727c17.276,6.828,33.54,15.663,48.624,26.406c8.793-7.641,20.285-11.754,33.705-11.754    c21.717,0,34.539,9.495,41.474,17.46c16.091,18.483,14.546,44.358,13.828,51.038l-2.241,63.121    c6.809,22.056,10.26,44.915,10.26,68.008c0,58.082-21.334,112.843-60.299,155.406c0.028,0.711,0.042,1.422,0.042,2.132    c0,30.056-24.451,54.507-54.504,54.507c-6.312,0-12.495-1.077-18.332-3.162c-2.79,1.309-5.595,2.556-8.403,3.737l-14.145,35.919    c-2.1,5.334-6.235,9.616-11.495,11.902C326.895,511.402,323.957,512,321.019,512z"/>
	</g>
	<g>
		<g style="opacity:0.33;">
			
				<ellipse transform="matrix(0.7071 -0.7071 0.7071 0.7071 -97.1664 264.9477)" style="fill:#FF8C9D;" cx="271.237" cy="249.764" rx="208.826" ry="208.826"/>
		</g>
		<g>
			<g>
				<path style="fill:#512651;" d="M110.478,258.805c-18.301,0-33.19-14.889-33.19-33.19s14.889-33.19,33.19-33.19      s33.19,14.889,33.19,33.19S128.779,258.805,110.478,258.805z M110.478,193.03c-17.968,0-32.586,14.618-32.586,32.585      c0,17.968,14.618,32.586,32.586,32.586c17.968,0,32.586-14.618,32.586-32.586C143.064,207.648,128.446,193.03,110.478,193.03z"/>
			</g>
			<g>
				
					<ellipse transform="matrix(0.9868 -0.1618 0.1618 0.9868 -29.3155 61.8999)" style="fill:#FFF3EA;" cx="365.301" cy="210.897" rx="32.888" ry="32.888"/>
			</g>
			<g>
				
					<ellipse transform="matrix(0.1376 -0.9905 0.9905 0.1376 72.7576 239.9583)" style="fill:#7182FF;" cx="174.183" cy="78.195" rx="56.576" ry="56.576"/>
			</g>
		</g>
		<g>
			<g>
				<g>
					<path style="fill:#512651;" d="M314.467,86.944l-153.636,68.279l-41.58,9.692l-22.82,5.341c0,0-12.995-8.8,13.236-22.96h0.036       c3.603-1.946,7.891-3.999,12.971-6.089c44.39-18.412,184.442-74.512,184.442-74.512L314.467,86.944z"/>
				</g>
			</g>
			<g>
				<g>
					<polygon style="fill:#FFF3EA;" points="107.794,150.717 298.529,72.522 310.794,100.427 118.834,182.609      "/>
				</g>
			</g>
			<g>
				<g>
					<path style="fill:#FFB289;" d="M119.252,164.915l-27.095,6.342c0,0-8.72-9.801,17.511-23.961       c-0.505,2.09-0.144,4.54,0.576,6.63c1.117,3.243,2.918,6.269,5.477,8.576C116.765,163.474,117.954,164.302,119.252,164.915z"/>
				</g>
			</g>
			<g>
				<g>
					<path style="fill:#BD6EEB;" d="M90.316,166.05c0,0,12.416,4.21,38.024-4.293c25.608-8.503,190.734-81.261,190.734-81.261       l90.154,274.142L199.95,425.495c-13.386,4.532-27.884-2.818-32.139-16.294L90.316,166.05z"/>
				</g>
			</g>
			<g>
				<g>
					<path style="fill:#FFB289;" d="M193.962,427.762c-0.19,0-0.366-0.121-0.429-0.311l-84.634-261.261       c-0.076-0.238,0.055-0.491,0.29-0.568c0.241-0.067,0.491,0.056,0.568,0.29l84.634,261.261c0.076,0.238-0.055,0.491-0.29,0.568       C194.055,427.755,194.007,427.762,193.962,427.762z"/>
				</g>
			</g>
			<g>
				<g>
					<g>
						<g>
							<path style="fill:#FFF3EA;" d="M178.958,193.877l32.588,32.255c1.349,1.298,2.162,2.344,2.442,3.135         c0.591,1.671-0.222,3.663-2.44,5.961c-1.302,1.348-2.488,2.213-3.556,2.593c-0.746,0.264-1.481,0.285-2.21,0.07         c-0.73-0.208-1.302-0.503-1.724-0.876c-0.422-0.377-1.027-0.943-1.819-1.714l-6.291-6.246l-19.314,6.83l-0.964,8.811         c-0.137,1.098-0.257,1.896-0.366,2.41c-0.107,0.507-0.373,1.084-0.799,1.728c-0.424,0.654-1.01,1.105-1.754,1.369         c-1.07,0.377-2.533,0.454-4.393,0.218c-3.156-0.345-5.028-1.358-5.619-3.029c-0.282-0.792-0.308-2.118-0.074-3.973         l5.042-45.64c0.134-1.253,0.609-2.386,1.425-3.41c0.813-1.017,1.805-1.735,2.966-2.146         C174.607,191.337,176.894,191.889,178.958,193.877z M179.227,212.611l-1.221,11.179l9.272-3.279L179.227,212.611z"/>
						</g>
					</g>
					<g>
						<g>
							<path style="fill:#FFF3EA;" d="M277.112,243.446c3.892,2.283,6.553,5.45,7.984,9.493c1.552,4.683,1.351,9.071-0.604,13.156         c-2.011,4.374-5.223,7.34-9.639,8.902l-18.339,6.485c-1.211,0.426-2.248,0.665-3.125,0.711         c-0.869,0.046-1.573-0.018-2.108-0.193c-0.531-0.18-1.017-0.552-1.458-1.133c-0.438-0.577-0.748-1.077-0.927-1.517         c-0.181-0.433-0.424-1.091-0.737-1.974l-13.686-38.702c-0.394-1.115-0.647-1.939-0.76-2.477         c-0.109-0.535-0.106-1.217,0.021-2.048c0.125-0.83,0.581-1.538,1.365-2.129c0.785-0.595,1.921-1.15,3.41-1.675l17.571-6.214         c4.279-1.513,8.383-1.292,12.317,0.661c4.092,1.96,6.886,5.049,8.381,9.279C277.862,237.137,277.975,240.269,277.112,243.446         z M272.484,256.536c-0.378-1.066-0.811-1.882-1.297-2.442c-0.486-0.563-1.077-0.859-1.77-0.908         c-0.697-0.039-1.288-0.014-1.777,0.081c-0.489,0.095-1.2,0.306-2.129,0.637c-1.812,0.64-3.255,0.785-4.321,0.426         c-1.066-0.355-1.97-1.576-2.709-3.67c-0.69-1.949-0.721-3.406-0.092-4.36c0.63-0.953,1.946-1.787,3.944-2.491         c0.602-0.214,1.059-0.401,1.369-0.563c0.31-0.162,0.623-0.415,0.945-0.767c0.32-0.348,0.475-0.795,0.468-1.34         c-0.011-0.545-0.164-1.239-0.459-2.076c-0.528-1.489-1.253-2.326-2.187-2.52c-0.931-0.193-2.164-0.018-3.698,0.524         l-9.761,3.452l9.344,26.425l11.436-4.043c0.465-0.165,0.85-0.338,1.151-0.521c0.299-0.186,0.697-0.51,1.187-0.971         c0.491-0.458,0.769-1.108,0.841-1.946C273.038,258.629,272.878,257.651,272.484,256.536z"/>
						</g>
					</g>
					<g>
						<g>
							<path style="fill:#FFF3EA;" d="M308.846,182.556l0.318-0.422c1.251-1.488,2.201-2.35,2.852-2.583         c1.443-0.51,3.463,0.246,6.056,2.259c1.597,1.263,2.576,2.407,2.938,3.427c0.327,0.929,0.294,1.83-0.102,2.702         c-0.398,0.876-1.091,1.907-2.087,3.093c-0.317,0.426-0.778,1.006-1.383,1.745c-0.602,0.739-1.956,1.893-4.064,3.48         c-2.108,1.58-4.349,2.787-6.721,3.624c-2.044,0.725-4.296,1.196-6.756,1.411c-2.46,0.215-5.13,0.063-8.009-0.461         c-2.88-0.524-5.621-1.439-8.227-2.737c-2.604-1.302-5.07-3.283-7.394-5.936c-2.324-2.656-4.136-5.823-5.436-9.497         c-1.265-3.575-1.817-7.055-1.652-10.437c0.166-3.378,0.848-6.365,2.048-8.962c1.202-2.593,2.776-4.982,4.725-7.16         c1.948-2.182,3.969-3.969,6.068-5.362c2.094-1.397,4.21-2.474,6.349-3.23c2.185-0.771,4.525-1.214,7.016-1.34         c2.495-0.123,4.444-0.042,5.855,0.243l2.016,0.387c1.021,0.218,1.809,0.415,2.375,0.609c0.565,0.193,1.152,0.524,1.759,0.989         c0.609,0.461,1.036,1.041,1.284,1.745c0.41,1.161,0.366,2.583-0.134,4.279c-0.924,3.153-2.108,4.982-3.547,5.492         c-0.837,0.296-2.203,0.204-4.099-0.278c-2.512-0.887-5.394-0.76-8.649,0.394c-1.443,0.507-2.836,1.302-4.18,2.378         c-1.344,1.077-2.544,2.379-3.599,3.902c-1.059,1.524-1.724,3.381-1.995,5.57c-0.275,2.185,0.004,4.444,0.825,6.77         c0.837,2.368,2.05,4.317,3.637,5.848c1.589,1.534,3.288,2.565,5.099,3.103c1.812,0.538,3.575,0.788,5.288,0.757         c1.717-0.028,3.271-0.292,4.666-0.785c1.441-0.51,2.734-1.175,3.881-2.006c1.147-0.82,1.933-1.516,2.361-2.087         L308.846,182.556z"/>
						</g>
					</g>
				</g>
				<g>
					<g>
						<g>
							
								<rect x="187.062" y="303.703" transform="matrix(0.9453 -0.3262 0.3262 0.9453 -89.4321 108.6587)" style="fill:#FFB289;" width="184.346" height="34.512"/>
						</g>
					</g>
					<g>
						<g>
							<path style="fill:#512651;" d="M208.365,349.731l4.926-1.7c0.239-0.083,0.422-0.137,0.542-0.158         c0.12-0.019,0.268-0.018,0.436,0.004c0.169,0.023,0.316,0.121,0.443,0.29c0.13,0.173,0.25,0.422,0.362,0.749         c0.109,0.313,0.166,0.577,0.173,0.792c0.007,0.215-0.053,0.389-0.176,0.514c-0.126,0.134-0.246,0.227-0.359,0.288         c-0.116,0.06-0.285,0.13-0.517,0.209l-6.517,2.25c-0.313,0.107-0.584,0.165-0.813,0.178c-0.225,0.01-0.405-0.01-0.542-0.056         c-0.141-0.048-0.264-0.142-0.373-0.285c-0.109-0.148-0.19-0.274-0.232-0.384c-0.049-0.118-0.113-0.29-0.19-0.519         l-3.473-10.063c-0.095-0.281-0.158-0.487-0.19-0.635c-0.028-0.148-0.028-0.326,0.007-0.538         c0.031-0.215,0.151-0.398,0.355-0.552c0.207-0.148,0.5-0.29,0.887-0.424c0.317-0.107,0.584-0.169,0.809-0.181         c0.229-0.011,0.408,0.011,0.549,0.057c0.134,0.047,0.26,0.142,0.373,0.288c0.105,0.144,0.187,0.275,0.232,0.384         c0.046,0.114,0.109,0.281,0.19,0.51L208.365,349.731z"/>
						</g>
						<g>
							<path style="fill:#512651;" d="M219.41,345.329l5.577-1.925c0.278-0.095,0.489-0.157,0.633-0.183         c0.144-0.03,0.324-0.028,0.538,0.003c0.214,0.032,0.397,0.155,0.549,0.357c0.151,0.204,0.296,0.501,0.426,0.888         c0.109,0.313,0.169,0.581,0.179,0.81c0.011,0.229-0.004,0.408-0.053,0.545c-0.049,0.135-0.144,0.262-0.288,0.371         c-0.144,0.109-0.275,0.188-0.384,0.236c-0.116,0.047-0.285,0.109-0.514,0.188l-7.171,2.474         c-0.313,0.109-0.584,0.167-0.809,0.179c-0.225,0.01-0.405-0.011-0.545-0.056c-0.137-0.047-0.26-0.142-0.373-0.285         c-0.109-0.148-0.19-0.274-0.232-0.384c-0.049-0.118-0.109-0.29-0.19-0.519l-3.473-10.063         c-0.211-0.616-0.243-1.073-0.092-1.381c0.151-0.301,0.549-0.559,1.189-0.781l7.132-2.463c0.282-0.095,0.489-0.16,0.637-0.19         c0.144-0.03,0.324-0.025,0.538,0.01c0.215,0.032,0.394,0.151,0.549,0.357c0.151,0.201,0.292,0.498,0.426,0.881         c0.109,0.317,0.169,0.588,0.18,0.813c0.007,0.225-0.007,0.408-0.056,0.545c-0.049,0.135-0.141,0.262-0.285,0.371         c-0.144,0.112-0.271,0.188-0.387,0.232c-0.113,0.047-0.282,0.109-0.514,0.188l-5.556,1.918l0.63,1.83l3.586-1.237         c0.278-0.095,0.489-0.157,0.633-0.187c0.144-0.03,0.327-0.03,0.542,0.005c0.211,0.033,0.398,0.155,0.549,0.359         c0.151,0.204,0.292,0.496,0.429,0.887c0.105,0.31,0.162,0.582,0.176,0.809c0.007,0.222-0.011,0.408-0.056,0.544         c-0.046,0.139-0.148,0.262-0.296,0.378c-0.152,0.111-0.282,0.19-0.394,0.238c-0.113,0.044-0.285,0.107-0.51,0.185         l-3.55,1.224L219.41,345.329z"/>
						</g>
						<g>
							<path style="fill:#512651;" d="M232.866,330.475l8.374,8.415c0.348,0.341,0.556,0.612,0.626,0.82         c0.151,0.436-0.063,0.947-0.644,1.541c-0.338,0.345-0.647,0.566-0.926,0.661c-0.193,0.067-0.383,0.071-0.574,0.014         c-0.183-0.055-0.338-0.134-0.443-0.229c-0.106-0.099-0.264-0.248-0.464-0.447l-1.619-1.631l-5.018,1.731l-0.268,2.282         c-0.035,0.282-0.07,0.489-0.095,0.621c-0.031,0.128-0.102,0.281-0.215,0.447c-0.109,0.167-0.264,0.283-0.457,0.35         c-0.275,0.097-0.655,0.113-1.137,0.046c-0.816-0.095-1.298-0.359-1.45-0.795c-0.071-0.208-0.074-0.549-0.011-1.031         l1.393-11.807c0.039-0.324,0.165-0.616,0.377-0.878c0.214-0.266,0.471-0.445,0.774-0.551         C231.743,329.811,232.334,329.958,232.866,330.475z M232.897,335.327l-0.338,2.892l2.407-0.83L232.897,335.327z"/>
						</g>
						<g>
							<path style="fill:#512651;" d="M253.291,334.71c0.334,0.375,0.535,0.656,0.598,0.85c0.162,0.457-0.081,0.975-0.725,1.546         c-0.327,0.303-0.623,0.503-0.887,0.593c-0.208,0.072-0.404,0.074-0.595,0.012c-0.19-0.063-0.338-0.146-0.447-0.243         c-0.109-0.097-0.261-0.257-0.458-0.468c-0.475-0.51-1.172-1.288-2.097-2.32l-0.549,0.232l-2.28,0.786l0.704,2.044         c0.099,0.278,0.162,0.493,0.19,0.637c0.028,0.148,0.028,0.326-0.003,0.542c-0.035,0.211-0.155,0.394-0.359,0.549         c-0.207,0.148-0.5,0.294-0.887,0.427c-0.313,0.107-0.584,0.165-0.813,0.174c-0.225,0.01-0.405-0.007-0.545-0.053         c-0.137-0.048-0.26-0.146-0.373-0.289c-0.109-0.144-0.186-0.271-0.232-0.384c-0.046-0.111-0.105-0.283-0.186-0.515         l-3.466-10.046c-0.095-0.282-0.162-0.487-0.19-0.635c-0.032-0.148-0.032-0.325,0.004-0.538         c0.035-0.215,0.155-0.398,0.359-0.552c0.208-0.148,0.5-0.29,0.887-0.424l3.913-1.349c0.507-0.176,1.062-0.257,1.668-0.245         c0.605,0.014,1.217,0.127,1.826,0.333c0.612,0.211,1.186,0.577,1.721,1.108c0.535,0.533,0.936,1.193,1.21,1.978         c0.468,1.362,0.405,2.639-0.197,3.832C251.567,332.845,252.306,333.65,253.291,334.71z M244.748,332.493l2.315-0.799         c0.352-0.121,0.654-0.371,0.915-0.76c0.257-0.389,0.296-0.85,0.105-1.395c-0.179-0.517-0.493-0.855-0.936-1.005         c-0.443-0.15-0.851-0.162-1.228-0.033l-2.28,0.786L244.748,332.493z"/>
						</g>
						<g>
							<path style="fill:#512651;" d="M261.374,319.604c0.303-0.104,0.566-0.164,0.799-0.176c0.232-0.011,0.415,0.005,0.549,0.058         c0.13,0.046,0.25,0.143,0.362,0.285c0.109,0.146,0.187,0.273,0.232,0.387c0.046,0.114,0.109,0.285,0.19,0.514l3.466,10.049         c0.102,0.289,0.165,0.507,0.19,0.64c0.028,0.139,0.028,0.322-0.007,0.533c-0.035,0.213-0.151,0.4-0.359,0.546         c-0.204,0.153-0.5,0.299-0.883,0.431c-0.471,0.164-0.809,0.237-1.017,0.225c-0.204-0.004-0.397-0.072-0.57-0.185         c-3.969-2.683-6.569-4.435-7.811-5.248l2.055,5.957c0.102,0.289,0.165,0.507,0.19,0.64c0.031,0.139,0.028,0.322-0.007,0.533         c-0.035,0.215-0.152,0.401-0.359,0.546c-0.204,0.155-0.496,0.299-0.883,0.433c-0.373,0.128-0.686,0.194-0.932,0.195         c-0.25,0.012-0.457-0.063-0.612-0.209c-0.158-0.148-0.271-0.292-0.341-0.431c-0.067-0.141-0.151-0.35-0.246-0.628         l-3.487-10.102c-0.095-0.278-0.155-0.486-0.176-0.626c-0.021-0.139-0.018-0.313,0.014-0.51         c0.031-0.201,0.151-0.375,0.355-0.528c0.204-0.153,0.5-0.296,0.887-0.429c0.338-0.116,0.623-0.179,0.858-0.185         c0.236-0.005,0.408,0.016,0.517,0.062c0.113,0.053,0.264,0.137,0.457,0.26l0.127,0.077c3.744,2.586,6.235,4.286,7.474,5.102         l-2.111-6.122c-0.098-0.278-0.155-0.486-0.176-0.626c-0.021-0.141-0.018-0.313,0.014-0.51         c0.031-0.201,0.151-0.377,0.355-0.528C260.691,319.878,260.987,319.738,261.374,319.604z"/>
						</g>
						<g>
							<path style="fill:#512651;" d="M265.54,319.931c-0.095-0.281-0.162-0.489-0.19-0.635c-0.032-0.148-0.032-0.326,0.004-0.538         c0.035-0.217,0.155-0.4,0.359-0.553c0.204-0.149,0.5-0.29,0.887-0.424c0.313-0.109,0.584-0.169,0.809-0.181         c0.225-0.01,0.408,0.009,0.545,0.056c0.137,0.048,0.264,0.143,0.373,0.288c0.109,0.142,0.19,0.273,0.236,0.384         c0.046,0.114,0.106,0.282,0.187,0.51l3.473,10.07c0.102,0.289,0.165,0.507,0.19,0.64c0.028,0.139,0.028,0.322-0.007,0.533         c-0.035,0.213-0.151,0.399-0.359,0.545c-0.204,0.153-0.5,0.299-0.883,0.433c-0.317,0.107-0.584,0.166-0.813,0.176         c-0.225,0.01-0.405-0.009-0.545-0.055c-0.137-0.047-0.261-0.142-0.373-0.285c-0.109-0.148-0.186-0.275-0.232-0.385         c-0.046-0.116-0.109-0.288-0.186-0.517L265.54,319.931z"/>
						</g>
						<g>
							<path style="fill:#512651;" d="M280.255,313.087c0.303-0.104,0.57-0.165,0.802-0.178c0.232-0.009,0.412,0.007,0.545,0.06         c0.133,0.044,0.253,0.141,0.366,0.283c0.109,0.148,0.186,0.275,0.232,0.389c0.049,0.114,0.113,0.285,0.19,0.514l3.469,10.049         c0.099,0.289,0.162,0.507,0.186,0.639c0.028,0.141,0.028,0.322-0.007,0.535c-0.035,0.213-0.151,0.399-0.359,0.545         c-0.204,0.153-0.5,0.297-0.883,0.431c-0.472,0.162-0.809,0.236-1.017,0.225c-0.204-0.005-0.398-0.072-0.57-0.185         c-3.969-2.685-6.569-4.435-7.811-5.248l2.059,5.957c0.099,0.289,0.162,0.507,0.19,0.639c0.028,0.141,0.025,0.322-0.01,0.535         c-0.032,0.213-0.151,0.399-0.355,0.545c-0.208,0.153-0.503,0.297-0.887,0.431c-0.377,0.128-0.686,0.194-0.936,0.197         c-0.246,0.01-0.451-0.065-0.612-0.211c-0.158-0.146-0.271-0.292-0.338-0.429c-0.07-0.142-0.148-0.35-0.246-0.628         l-3.487-10.102c-0.095-0.278-0.155-0.486-0.176-0.628c-0.021-0.139-0.018-0.313,0.018-0.51         c0.028-0.199,0.148-0.375,0.352-0.528c0.204-0.153,0.5-0.294,0.887-0.428c0.338-0.116,0.626-0.179,0.859-0.186         c0.232-0.005,0.408,0.018,0.517,0.062c0.109,0.053,0.264,0.139,0.454,0.26l0.127,0.079c3.744,2.586,6.235,4.286,7.474,5.102         l-2.111-6.122c-0.095-0.278-0.151-0.486-0.176-0.628c-0.021-0.139-0.014-0.313,0.021-0.51         c0.028-0.199,0.148-0.375,0.352-0.528C279.575,313.362,279.871,313.221,280.255,313.087z"/>
						</g>
						<g>
							<path style="fill:#512651;" d="M292.609,314.699l3.188-1.099c0.327-0.102,0.605-0.146,0.834-0.134         c0.225,0.009,0.408,0.083,0.542,0.218c0.134,0.135,0.232,0.262,0.292,0.384c0.063,0.12,0.141,0.315,0.232,0.579l1.376,3.987         c0.13,0.384,0.092,0.809-0.13,1.276c-0.215,0.468-0.493,0.878-0.827,1.239c-0.799,0.818-1.861,1.455-3.191,1.913         c-1.798,0.621-3.596,0.482-5.391-0.419c-1.798-0.901-3.033-2.324-3.709-4.281c-0.651-1.886-0.521-3.703,0.387-5.456         c0.908-1.752,2.283-2.943,4.117-3.577c1.256-0.433,2.555-0.491,3.892-0.171c0.285,0.081,0.5,0.141,0.64,0.185         c0.144,0.046,0.296,0.123,0.45,0.243c0.155,0.113,0.26,0.257,0.317,0.426c0.099,0.275,0.074,0.656-0.07,1.135         c-0.253,0.808-0.567,1.276-0.957,1.409c-0.225,0.079-0.595,0.049-1.101-0.088c-0.735-0.174-1.457-0.146-2.157,0.093         c-0.915,0.318-1.619,0.925-2.108,1.816c-0.489,0.89-0.552,1.865-0.19,2.913c0.359,1.038,1.024,1.8,2.002,2.276         c0.975,0.484,1.921,0.563,2.84,0.246c0.661-0.229,1.224-0.545,1.678-0.947l-0.679-1.974l-1.432,0.495         c-0.229,0.079-0.398,0.128-0.507,0.146c-0.109,0.014-0.239,0.009-0.394-0.028c-0.151-0.032-0.285-0.134-0.401-0.304         c-0.112-0.173-0.225-0.42-0.338-0.748c-0.106-0.31-0.165-0.574-0.18-0.785c-0.01-0.213,0.042-0.382,0.162-0.501         c0.12-0.125,0.225-0.216,0.324-0.266C292.218,314.847,292.38,314.778,292.609,314.699z"/>
						</g>
						<g>
							<path style="fill:#512651;" d="M314.153,308.26c1.003,0.598,1.686,1.423,2.048,2.472c0.394,1.214,0.334,2.352-0.18,3.404         c-0.531,1.133-1.368,1.893-2.516,2.291l-4.761,1.643c-0.317,0.107-0.584,0.165-0.813,0.174         c-0.225,0.01-0.405-0.005-0.545-0.053c-0.137-0.047-0.261-0.146-0.373-0.296c-0.113-0.15-0.194-0.285-0.239-0.396         c-0.046-0.113-0.106-0.281-0.187-0.51l-3.469-10.053c-0.098-0.288-0.162-0.503-0.19-0.642         c-0.028-0.135-0.025-0.315,0.007-0.529c0.035-0.215,0.155-0.398,0.359-0.549c0.204-0.151,0.5-0.296,0.887-0.429l4.564-1.575         c1.108-0.383,2.175-0.316,3.188,0.199c1.056,0.514,1.773,1.321,2.153,2.419C314.361,306.625,314.382,307.436,314.153,308.26z          M312.925,311.638c-0.091-0.275-0.204-0.489-0.327-0.635c-0.127-0.146-0.278-0.223-0.458-0.238         c-0.179-0.011-0.334-0.005-0.461,0.018c-0.127,0.021-0.31,0.077-0.552,0.16c-0.468,0.162-0.844,0.197-1.119,0.104         c-0.275-0.095-0.507-0.417-0.693-0.959c-0.176-0.503-0.183-0.881-0.014-1.128c0.162-0.246,0.503-0.459,1.024-0.639         c0.155-0.055,0.275-0.102,0.356-0.142c0.081-0.039,0.162-0.107,0.246-0.195c0.084-0.091,0.126-0.208,0.123-0.35         c-0.004-0.137-0.039-0.32-0.112-0.535c-0.134-0.387-0.32-0.605-0.563-0.662c-0.243-0.049-0.559-0.007-0.961,0.13         l-2.533,0.876l2.368,6.865l2.97-1.026c0.123-0.04,0.218-0.086,0.299-0.134c0.077-0.051,0.183-0.13,0.31-0.248         c0.127-0.12,0.201-0.287,0.218-0.507C313.07,312.18,313.027,311.926,312.925,311.638z"/>
						</g>
						<g>
							<path style="fill:#512651;" d="M321.046,298.809c1.784-0.616,3.557-0.507,5.32,0.331c1.759,0.837,2.984,2.245,3.667,4.222         c0.637,1.851,0.559,3.663-0.232,5.44c-0.788,1.781-2.083,2.98-3.885,3.6c-1.868,0.647-3.673,0.529-5.419-0.352         c-1.745-0.887-2.934-2.245-3.568-4.082c-0.345-1.003-0.489-2.002-0.429-3.003c0.063-1.001,0.292-1.898,0.69-2.702         c0.401-0.801,0.936-1.501,1.601-2.113C319.463,299.544,320.209,299.097,321.046,298.809z M324.706,309.238         c0.866-0.299,1.534-0.896,1.995-1.784c0.464-0.889,0.503-1.891,0.123-3.003c-0.376-1.087-1.027-1.84-1.949-2.264         c-0.925-0.426-1.809-0.491-2.653-0.201c-0.869,0.301-1.531,0.904-1.988,1.808c-0.457,0.911-0.5,1.909-0.123,2.993         c0.366,1.062,1.013,1.809,1.939,2.241C322.975,309.456,323.858,309.53,324.706,309.238z"/>
						</g>
						<g>
							<path style="fill:#512651;" d="M335.673,293.759c1.784-0.616,3.561-0.507,5.324,0.331c1.759,0.837,2.984,2.245,3.666,4.222         c0.637,1.851,0.56,3.663-0.232,5.44c-0.792,1.78-2.083,2.98-3.885,3.601c-1.872,0.646-3.677,0.528-5.419-0.353         c-1.745-0.887-2.934-2.245-3.568-4.082c-0.345-1.003-0.489-2.002-0.429-3.003c0.063-1.001,0.289-1.898,0.69-2.702         c0.401-0.799,0.936-1.501,1.601-2.113C334.09,294.495,334.839,294.048,335.673,293.759z M339.333,304.189         c0.869-0.299,1.534-0.895,1.999-1.784c0.464-0.888,0.503-1.891,0.123-3.003c-0.376-1.087-1.027-1.838-1.949-2.264         c-0.925-0.426-1.808-0.491-2.653-0.201c-0.869,0.301-1.531,0.904-1.988,1.81c-0.457,0.909-0.5,1.907-0.123,2.991         c0.366,1.063,1.01,1.809,1.935,2.241C337.605,304.409,338.488,304.481,339.333,304.189z"/>
						</g>
						<g>
							<path style="fill:#512651;" d="M352.098,295.668c2.46,1.137,4.226,2.018,5.31,2.644c0.549,0.31,0.873,0.596,0.964,0.864         c0.123,0.348,0.007,0.834-0.345,1.455c-0.327,0.545-0.647,0.873-0.96,0.982c-0.303,0.104-0.756-0.023-1.369-0.38l-5.552-3.17         l1.221,3.533c0.099,0.289,0.165,0.507,0.19,0.639c0.028,0.141,0.028,0.322-0.007,0.535c-0.035,0.213-0.155,0.4-0.359,0.545         c-0.204,0.153-0.5,0.297-0.887,0.431c-0.313,0.109-0.584,0.166-0.809,0.178c-0.225,0.01-0.405-0.009-0.545-0.056         c-0.137-0.047-0.261-0.142-0.373-0.285c-0.109-0.146-0.19-0.273-0.232-0.384c-0.049-0.118-0.109-0.29-0.19-0.519         l-3.473-10.063c-0.095-0.282-0.158-0.488-0.186-0.635c-0.032-0.146-0.032-0.325,0.004-0.536         c0.032-0.216,0.155-0.399,0.355-0.552c0.208-0.15,0.503-0.292,0.89-0.426c0.313-0.107,0.581-0.169,0.809-0.18         c0.225-0.01,0.405,0.009,0.545,0.055c0.137,0.048,0.26,0.142,0.373,0.289c0.109,0.144,0.186,0.275,0.232,0.385         c0.046,0.113,0.109,0.282,0.19,0.51l1.193,3.459c1.003-2.41,1.809-4.384,2.414-5.918c0.25-0.64,0.531-1.017,0.848-1.126         c0.317-0.109,0.767-0.049,1.358,0.183c0.661,0.273,1.056,0.582,1.175,0.931c0.092,0.267,0.014,0.691-0.232,1.275         c-0.197,0.515-0.514,1.217-0.939,2.108c-0.433,0.894-0.806,1.654-1.126,2.292L352.098,295.668z"/>
						</g>
					</g>
				</g>
			</g>
		</g>
		<g>
			<g>
				<path style="fill:#F7607D;" d="M407.702,116.985c0,0-5.681-45.229,30.657-45.229c40.018,0,33.73,45.229,33.73,45.229      l-33.395,4.555L407.702,116.985z"/>
			</g>
			<g>
				<polygon style="fill:#FFB289;" points="471.225,141.197 464.811,322.253 464.739,324.271 431.447,382.713 403.414,320.595       403.451,319.443 407.198,141.197 439.914,119.984     "/>
			</g>
			<g>
				<g>
					<path style="fill:#512651;" d="M414.44,309.803c-0.003,0-0.007,0-0.01,0c-0.129-0.006-0.228-0.115-0.223-0.243l7.361-170.659       c0.005-0.125,0.108-0.223,0.233-0.223c0.003,0,0.007,0,0.01,0c0.129,0.006,0.228,0.114,0.223,0.243l-7.361,170.659       C414.668,309.705,414.564,309.803,414.44,309.803z"/>
				</g>
				<g>
					<path style="fill:#512651;" d="M449.398,309.803c-0.002,0-0.005,0-0.007,0c-0.129-0.004-0.23-0.111-0.227-0.24l4.907-170.199       c0.003-0.127,0.107-0.227,0.233-0.227c0.002,0,0.005,0,0.006,0c0.129,0.004,0.23,0.111,0.227,0.24l-4.907,170.199       C449.627,309.703,449.523,309.803,449.398,309.803z"/>
				</g>
			</g>
			<g>
				<g>
					<polygon style="fill:#FF8C9D;" points="464.811,322.253 464.739,324.271 444.418,359.941 431.447,382.713 420.781,359.076        403.414,320.595 403.451,319.443 414.44,309.57 434.689,326.108 449.858,309.57      "/>
				</g>
				<g>
					<path style="fill:#512651;" d="M444.418,359.941l-12.971,22.772l-10.665-23.636c5.297-3.459,12.539-4.828,17.727-3.206       c1.73,0.54,3.423,1.369,4.72,2.63C443.697,358.932,444.094,359.437,444.418,359.941z"/>
				</g>
			</g>
			<g>
				<g>
					<polygon style="fill:#7182FF;" points="472.09,116.985 471.801,125.128 470.961,125.578 471.765,126.028 471.585,131.109        470.598,131.559 471.549,132.01 471.225,141.197 407.198,141.197 407.378,132.01 407.95,131.56 407.414,131.109        407.522,126.028 408.076,125.578 407.522,125.128 407.702,116.985      "/>
				</g>
				<g>
					<polygon style="fill:#FFF3EA;" points="471.801,125.128 471.765,126.028 407.522,126.028 407.522,125.128      "/>
				</g>
				<g>
					<polygon style="fill:#FFF3EA;" points="471.585,131.109 471.549,132.01 407.378,132.01 407.414,131.109      "/>
				</g>
			</g>
		</g>
		<g>
			<g>
				
					<rect x="40.257" y="370.619" transform="matrix(0.9304 0.3664 -0.3664 0.9304 162.0382 -42.4994)" style="fill:#FFA9DD;" width="305.42" height="69.915"/>
			</g>
			<g>
				<g>
					<path style="fill:#512651;" d="M341.637,446.728c-0.028,0-0.057-0.005-0.086-0.016L57.376,334.796       c-0.12-0.047-0.179-0.183-0.132-0.303c0.048-0.12,0.182-0.175,0.303-0.132l284.176,111.916c0.12,0.047,0.179,0.183,0.132,0.303       C341.818,446.672,341.73,446.728,341.637,446.728z"/>
				</g>
				<g>
					<path style="fill:#512651;" d="M339.727,451.578c-0.028,0-0.057-0.005-0.085-0.016L55.465,339.646       c-0.12-0.047-0.179-0.183-0.132-0.303c0.048-0.12,0.182-0.178,0.303-0.132l284.176,111.916c0.12,0.047,0.179,0.183,0.132,0.303       C339.908,451.522,339.82,451.578,339.727,451.578z"/>
				</g>
				<g>
					<path style="fill:#512651;" d="M70.659,332.265c-0.028,0-0.057-0.005-0.086-0.016c-0.12-0.047-0.179-0.183-0.132-0.303       l4.045-10.272c0.048-0.119,0.182-0.176,0.303-0.132c0.12,0.047,0.179,0.183,0.132,0.303l-4.045,10.271       C70.839,332.209,70.751,332.265,70.659,332.265z"/>
				</g>
				<g>
					<path style="fill:#512651;" d="M83.213,337.209c-0.028,0-0.057-0.005-0.086-0.016c-0.12-0.047-0.179-0.183-0.132-0.303       l4.045-10.271c0.048-0.119,0.183-0.176,0.303-0.132c0.12,0.047,0.179,0.183,0.132,0.303l-4.045,10.271       C83.393,337.153,83.305,337.209,83.213,337.209z"/>
				</g>
				<g>
					<path style="fill:#512651;" d="M83.213,337.209c-0.028,0-0.057-0.005-0.086-0.016c-0.12-0.047-0.179-0.183-0.132-0.303       l4.045-10.271c0.048-0.119,0.183-0.176,0.303-0.132c0.12,0.047,0.179,0.183,0.132,0.303l-4.045,10.271       C83.393,337.153,83.305,337.209,83.213,337.209z"/>
				</g>
				<g>
					<path style="fill:#512651;" d="M95.767,342.153c-0.028,0-0.057-0.005-0.086-0.016c-0.12-0.047-0.179-0.183-0.132-0.303       l4.045-10.271c0.048-0.119,0.182-0.177,0.303-0.132c0.12,0.047,0.179,0.183,0.131,0.303l-4.045,10.271       C95.947,342.097,95.859,342.153,95.767,342.153z"/>
				</g>
				<g>
					<path style="fill:#512651;" d="M95.767,342.153c-0.028,0-0.057-0.005-0.086-0.016c-0.12-0.047-0.179-0.183-0.132-0.303       l4.045-10.271c0.048-0.119,0.182-0.177,0.303-0.132c0.12,0.047,0.179,0.183,0.131,0.303l-4.045,10.271       C95.947,342.097,95.859,342.153,95.767,342.153z"/>
				</g>
				<g>
					<path style="fill:#512651;" d="M108.321,347.097c-0.028,0-0.057-0.005-0.085-0.016c-0.12-0.047-0.179-0.183-0.132-0.303       l4.045-10.271c0.048-0.119,0.181-0.178,0.303-0.132c0.12,0.047,0.179,0.183,0.132,0.303l-4.045,10.271       C108.501,347.041,108.413,347.097,108.321,347.097z"/>
				</g>
				<g>
					<path style="fill:#512651;" d="M108.321,347.097c-0.028,0-0.057-0.005-0.085-0.016c-0.12-0.047-0.179-0.183-0.132-0.303       l4.045-10.271c0.048-0.119,0.181-0.178,0.303-0.132c0.12,0.047,0.179,0.183,0.132,0.303l-4.045,10.271       C108.501,347.041,108.413,347.097,108.321,347.097z"/>
				</g>
				<g>
					<path style="fill:#512651;" d="M120.874,352.041c-0.028,0-0.057-0.005-0.086-0.016c-0.12-0.047-0.179-0.183-0.132-0.303       l4.045-10.272c0.048-0.118,0.183-0.175,0.303-0.132c0.12,0.047,0.179,0.183,0.132,0.303l-4.046,10.272       C121.055,351.985,120.967,352.041,120.874,352.041z"/>
				</g>
				<g>
					<path style="fill:#512651;" d="M120.874,352.041c-0.028,0-0.057-0.005-0.086-0.016c-0.12-0.047-0.179-0.183-0.132-0.303       l4.045-10.272c0.048-0.118,0.183-0.175,0.303-0.132c0.12,0.047,0.179,0.183,0.132,0.303l-4.046,10.272       C121.055,351.985,120.967,352.041,120.874,352.041z"/>
				</g>
				<g>
					<path style="fill:#512651;" d="M133.428,356.985c-0.028,0-0.057-0.005-0.086-0.016c-0.12-0.047-0.179-0.183-0.132-0.303       l4.046-10.271c0.048-0.119,0.182-0.176,0.303-0.132c0.12,0.047,0.179,0.183,0.132,0.303l-4.045,10.272       C133.609,356.929,133.521,356.985,133.428,356.985z"/>
				</g>
				<g>
					<path style="fill:#512651;" d="M133.428,356.985c-0.028,0-0.057-0.005-0.086-0.016c-0.12-0.047-0.179-0.183-0.132-0.303       l4.046-10.271c0.048-0.119,0.182-0.176,0.303-0.132c0.12,0.047,0.179,0.183,0.132,0.303l-4.045,10.272       C133.609,356.929,133.521,356.985,133.428,356.985z"/>
				</g>
				<g>
					<path style="fill:#512651;" d="M145.982,361.929c-0.028,0-0.057-0.005-0.085-0.016c-0.12-0.047-0.179-0.183-0.132-0.303       l4.046-10.271c0.048-0.119,0.183-0.176,0.303-0.132c0.12,0.047,0.179,0.183,0.132,0.303l-4.046,10.271       C146.163,361.873,146.075,361.929,145.982,361.929z"/>
				</g>
				<g>
					<path style="fill:#512651;" d="M145.982,361.929c-0.028,0-0.057-0.005-0.085-0.016c-0.12-0.047-0.179-0.183-0.132-0.303       l4.046-10.271c0.048-0.119,0.183-0.176,0.303-0.132c0.12,0.047,0.179,0.183,0.132,0.303l-4.046,10.271       C146.163,361.873,146.075,361.929,145.982,361.929z"/>
				</g>
				<g>
					<path style="fill:#512651;" d="M158.536,366.873c-0.028,0-0.057-0.005-0.086-0.016c-0.12-0.047-0.179-0.183-0.132-0.303       l4.045-10.271c0.048-0.119,0.183-0.177,0.303-0.132c0.12,0.047,0.179,0.183,0.132,0.303l-4.045,10.271       C158.717,366.817,158.629,366.873,158.536,366.873z"/>
				</g>
				<g>
					<path style="fill:#512651;" d="M158.536,366.873c-0.028,0-0.057-0.005-0.086-0.016c-0.12-0.047-0.179-0.183-0.132-0.303       l4.045-10.271c0.048-0.119,0.183-0.177,0.303-0.132c0.12,0.047,0.179,0.183,0.132,0.303l-4.045,10.271       C158.717,366.817,158.629,366.873,158.536,366.873z"/>
				</g>
				<g>
					<path style="fill:#512651;" d="M171.09,371.817c-0.028,0-0.057-0.005-0.086-0.016c-0.12-0.047-0.179-0.183-0.132-0.303       l4.045-10.271c0.048-0.119,0.182-0.178,0.303-0.132c0.12,0.047,0.179,0.183,0.132,0.303l-4.045,10.271       C171.271,371.761,171.183,371.817,171.09,371.817z"/>
				</g>
				<g>
					<path style="fill:#512651;" d="M171.09,371.817c-0.028,0-0.057-0.005-0.086-0.016c-0.12-0.047-0.179-0.183-0.132-0.303       l4.045-10.271c0.048-0.119,0.182-0.178,0.303-0.132c0.12,0.047,0.179,0.183,0.132,0.303l-4.045,10.271       C171.271,371.761,171.183,371.817,171.09,371.817z"/>
				</g>
				<g>
					<path style="fill:#512651;" d="M183.644,376.761c-0.028,0-0.057-0.005-0.086-0.016c-0.12-0.047-0.179-0.183-0.132-0.303       l4.045-10.271c0.048-0.119,0.184-0.175,0.303-0.132c0.12,0.047,0.179,0.183,0.132,0.303l-4.045,10.271       C183.825,376.705,183.737,376.761,183.644,376.761z"/>
				</g>
				<g>
					<path style="fill:#512651;" d="M183.644,376.761c-0.028,0-0.057-0.005-0.086-0.016c-0.12-0.047-0.179-0.183-0.132-0.303       l4.045-10.271c0.048-0.119,0.184-0.175,0.303-0.132c0.12,0.047,0.179,0.183,0.132,0.303l-4.045,10.271       C183.825,376.705,183.737,376.761,183.644,376.761z"/>
				</g>
				<g>
					<path style="fill:#512651;" d="M196.198,381.705c-0.028,0-0.057-0.005-0.086-0.016c-0.12-0.047-0.179-0.183-0.132-0.303       l4.046-10.271c0.048-0.119,0.182-0.176,0.303-0.132c0.12,0.047,0.179,0.183,0.132,0.303l-4.045,10.271       C196.378,381.649,196.291,381.705,196.198,381.705z"/>
				</g>
				<g>
					<path style="fill:#512651;" d="M196.198,381.705c-0.028,0-0.057-0.005-0.086-0.016c-0.12-0.047-0.179-0.183-0.132-0.303       l4.046-10.271c0.048-0.119,0.182-0.176,0.303-0.132c0.12,0.047,0.179,0.183,0.132,0.303l-4.045,10.271       C196.378,381.649,196.291,381.705,196.198,381.705z"/>
				</g>
				<g>
					<path style="fill:#512651;" d="M208.752,386.65c-0.028,0-0.057-0.005-0.085-0.016c-0.12-0.047-0.179-0.183-0.132-0.303       l4.046-10.271c0.048-0.119,0.181-0.176,0.303-0.132c0.12,0.047,0.179,0.183,0.132,0.303l-4.046,10.271       C208.932,386.594,208.845,386.65,208.752,386.65z"/>
				</g>
				<g>
					<path style="fill:#512651;" d="M208.752,386.65c-0.028,0-0.057-0.005-0.085-0.016c-0.12-0.047-0.179-0.183-0.132-0.303       l4.046-10.271c0.048-0.119,0.181-0.176,0.303-0.132c0.12,0.047,0.179,0.183,0.132,0.303l-4.046,10.271       C208.932,386.594,208.845,386.65,208.752,386.65z"/>
				</g>
				<g>
					<path style="fill:#512651;" d="M221.306,391.594c-0.028,0-0.057-0.005-0.086-0.016c-0.12-0.047-0.179-0.183-0.132-0.303       l4.045-10.271c0.048-0.119,0.183-0.177,0.303-0.132c0.12,0.047,0.179,0.183,0.132,0.303l-4.045,10.271       C221.487,391.538,221.399,391.594,221.306,391.594z"/>
				</g>
				<g>
					<path style="fill:#512651;" d="M221.306,391.594c-0.028,0-0.057-0.005-0.086-0.016c-0.12-0.047-0.179-0.183-0.132-0.303       l4.045-10.271c0.048-0.119,0.183-0.177,0.303-0.132c0.12,0.047,0.179,0.183,0.132,0.303l-4.045,10.271       C221.487,391.538,221.399,391.594,221.306,391.594z"/>
				</g>
				<g>
					<path style="fill:#512651;" d="M233.86,396.538c-0.028,0-0.057-0.005-0.086-0.016c-0.12-0.047-0.179-0.183-0.132-0.303       l4.045-10.271c0.048-0.119,0.182-0.177,0.303-0.132c0.12,0.047,0.179,0.183,0.132,0.303l-4.045,10.271       C234.041,396.482,233.953,396.538,233.86,396.538z"/>
				</g>
				<g>
					<path style="fill:#512651;" d="M233.86,396.538c-0.028,0-0.057-0.005-0.086-0.016c-0.12-0.047-0.179-0.183-0.132-0.303       l4.045-10.271c0.048-0.119,0.182-0.177,0.303-0.132c0.12,0.047,0.179,0.183,0.132,0.303l-4.045,10.271       C234.041,396.482,233.953,396.538,233.86,396.538z"/>
				</g>
				<g>
					<path style="fill:#512651;" d="M246.414,401.482c-0.028,0-0.057-0.005-0.086-0.016c-0.12-0.047-0.179-0.183-0.131-0.303       l4.045-10.271c0.048-0.119,0.184-0.178,0.303-0.132c0.12,0.047,0.179,0.183,0.132,0.303l-4.046,10.272       C246.595,401.426,246.507,401.482,246.414,401.482z"/>
				</g>
				<g>
					<path style="fill:#512651;" d="M246.414,401.482c-0.028,0-0.057-0.005-0.086-0.016c-0.12-0.047-0.179-0.183-0.131-0.303       l4.045-10.271c0.048-0.119,0.184-0.178,0.303-0.132c0.12,0.047,0.179,0.183,0.132,0.303l-4.046,10.272       C246.595,401.426,246.507,401.482,246.414,401.482z"/>
				</g>
				<g>
					<path style="fill:#512651;" d="M258.968,406.426c-0.028,0-0.057-0.005-0.086-0.016c-0.12-0.047-0.179-0.183-0.132-0.303       l4.045-10.271c0.048-0.12,0.183-0.175,0.303-0.132c0.12,0.047,0.179,0.183,0.132,0.303l-4.045,10.272       C259.149,406.37,259.061,406.426,258.968,406.426z"/>
				</g>
				<g>
					<path style="fill:#512651;" d="M258.968,406.426c-0.028,0-0.057-0.005-0.086-0.016c-0.12-0.047-0.179-0.183-0.132-0.303       l4.045-10.271c0.048-0.12,0.183-0.175,0.303-0.132c0.12,0.047,0.179,0.183,0.132,0.303l-4.045,10.272       C259.149,406.37,259.061,406.426,258.968,406.426z"/>
				</g>
				<g>
					<path style="fill:#512651;" d="M271.522,411.37c-0.028,0-0.057-0.005-0.086-0.016c-0.12-0.047-0.179-0.183-0.132-0.303       l4.045-10.271c0.048-0.119,0.182-0.176,0.303-0.132c0.12,0.047,0.179,0.183,0.132,0.303l-4.045,10.272       C271.703,411.314,271.615,411.37,271.522,411.37z"/>
				</g>
				<g>
					<path style="fill:#512651;" d="M271.522,411.37c-0.028,0-0.057-0.005-0.086-0.016c-0.12-0.047-0.179-0.183-0.132-0.303       l4.045-10.271c0.048-0.119,0.182-0.176,0.303-0.132c0.12,0.047,0.179,0.183,0.132,0.303l-4.045,10.272       C271.703,411.314,271.615,411.37,271.522,411.37z"/>
				</g>
				<g>
					<path style="fill:#512651;" d="M284.076,416.314c-0.028,0-0.057-0.005-0.086-0.016c-0.12-0.047-0.179-0.183-0.132-0.303       l4.045-10.271c0.048-0.119,0.183-0.176,0.303-0.132c0.12,0.047,0.179,0.183,0.132,0.303l-4.045,10.271       C284.256,416.258,284.168,416.314,284.076,416.314z"/>
				</g>
				<g>
					<path style="fill:#512651;" d="M284.076,416.314c-0.028,0-0.057-0.005-0.086-0.016c-0.12-0.047-0.179-0.183-0.132-0.303       l4.045-10.271c0.048-0.119,0.183-0.176,0.303-0.132c0.12,0.047,0.179,0.183,0.132,0.303l-4.045,10.271       C284.256,416.258,284.168,416.314,284.076,416.314z"/>
				</g>
				<g>
					<path style="fill:#512651;" d="M296.63,421.258c-0.028,0-0.057-0.005-0.085-0.016c-0.12-0.047-0.179-0.183-0.132-0.303       l4.046-10.272c0.048-0.119,0.182-0.176,0.303-0.132c0.12,0.047,0.179,0.183,0.132,0.303l-4.046,10.272       C296.81,421.202,296.722,421.258,296.63,421.258z"/>
				</g>
				<g>
					<path style="fill:#512651;" d="M296.63,421.258c-0.028,0-0.057-0.005-0.085-0.016c-0.12-0.047-0.179-0.183-0.132-0.303       l4.046-10.272c0.048-0.119,0.182-0.176,0.303-0.132c0.12,0.047,0.179,0.183,0.132,0.303l-4.046,10.272       C296.81,421.202,296.722,421.258,296.63,421.258z"/>
				</g>
				<g>
					<path style="fill:#512651;" d="M309.184,426.202c-0.028,0-0.057-0.005-0.086-0.016c-0.12-0.047-0.179-0.183-0.132-0.303       l4.045-10.271c0.048-0.119,0.182-0.178,0.303-0.132c0.12,0.047,0.179,0.183,0.132,0.303l-4.045,10.271       C309.364,426.146,309.276,426.202,309.184,426.202z"/>
				</g>
				<g>
					<path style="fill:#512651;" d="M309.184,426.202c-0.028,0-0.057-0.005-0.086-0.016c-0.12-0.047-0.179-0.183-0.132-0.303       l4.045-10.271c0.048-0.119,0.182-0.178,0.303-0.132c0.12,0.047,0.179,0.183,0.132,0.303l-4.045,10.271       C309.364,426.146,309.276,426.202,309.184,426.202z"/>
				</g>
				<g>
					<path style="fill:#512651;" d="M321.738,431.146c-0.028,0-0.057-0.005-0.085-0.016c-0.12-0.047-0.179-0.183-0.132-0.303       l4.045-10.272c0.048-0.118,0.184-0.175,0.303-0.132c0.12,0.047,0.179,0.183,0.132,0.303l-4.045,10.271       C321.918,431.09,321.831,431.146,321.738,431.146z"/>
				</g>
				<g>
					<path style="fill:#512651;" d="M321.738,431.146c-0.028,0-0.057-0.005-0.085-0.016c-0.12-0.047-0.179-0.183-0.132-0.303       l4.045-10.272c0.048-0.118,0.184-0.175,0.303-0.132c0.12,0.047,0.179,0.183,0.132,0.303l-4.045,10.271       C321.918,431.09,321.831,431.146,321.738,431.146z"/>
				</g>
				<g>
					<path style="fill:#512651;" d="M334.292,436.09c-0.028,0-0.057-0.005-0.085-0.016c-0.12-0.047-0.179-0.183-0.132-0.303       l4.045-10.272c0.048-0.119,0.182-0.176,0.303-0.132c0.12,0.047,0.179,0.183,0.132,0.303l-4.045,10.271       C334.472,436.034,334.385,436.09,334.292,436.09z"/>
				</g>
			</g>
		</g>
		<g>
			<g>
				<polygon style="fill:#FFB289;" points="330.305,95.584 337.974,47.377 352.765,91.202 393.302,90.106 362.078,112.566       370.842,148.721 344,122.974 323.731,156.39 327.566,116.948 293.602,108.184     "/>
			</g>
			<g>
				<polygon style="fill:#FFB289;" points="72.99,298.981 79.43,258.503 91.849,295.301 125.887,294.381 99.668,313.24       107.028,343.598 84.489,321.979 67.47,350.037 70.69,316.92 42.172,309.56     "/>
			</g>
		</g>
		<g>
			<g>
				<path style="fill:#512651;" d="M386.919,440.494c-18.301,0-33.19-14.889-33.19-33.19c0-18.301,14.889-33.19,33.19-33.19      s33.19,14.889,33.19,33.19C420.109,425.604,405.22,440.494,386.919,440.494z M386.919,374.718      c-17.968,0-32.586,14.618-32.586,32.586c0,17.968,14.618,32.586,32.586,32.586c17.968,0,32.586-14.618,32.586-32.586      C419.505,389.336,404.888,374.718,386.919,374.718z"/>
			</g>
			<g>
				
					<ellipse transform="matrix(0.8541 -0.5201 0.5201 0.8541 -200.389 143.4829)" style="fill:#7182FF;" cx="155.555" cy="428.922" rx="32.888" ry="32.888"/>
			</g>
		</g>
	</g>
</g>















</svg>
