<?xml version="1.0" encoding="UTF-8"?>
<!-- Generator: Adobe Illustrator 25.2.1, SVG Export Plug-In . SVG Version: 6.00 Build 0)  -->
<svg xmlns="http://www.w3.org/2000/svg" xmlns:xlink="http://www.w3.org/1999/xlink" version="1.1" id="Capa_1" x="0px" y="0px" viewBox="0 0 512 512" style="enable-background:new 0 0 512 512;" xml:space="preserve" width="512" height="512">
<g>
	<g>
		<path style="fill:#FFFFFF;" d="M156.504,509.157c-7.462,0-14.77-1.36-21.522-3.896c-2.389,1.621-5.232,2.512-8.176,2.512h-88.45    c-4.187,0-8.173-1.803-10.936-4.948c-2.766-3.147-4.04-7.329-3.502-11.484c3.135-24.178,20.306-43.233,42.889-49.378v-18.292    c-8.998-10.849-16.906-22.489-23.605-34.743c-14.097-1.706-25.057-13.744-25.057-28.292c0-6.697,2.323-12.991,6.358-17.962    c-5.251-18.97-7.908-38.515-7.908-58.243c0-6.991,0.336-14.015,1.005-20.996l-7.879-2.775c-5.019-1.768-8.673-6.135-9.531-11.389    c-0.855-5.251,1.22-10.553,5.417-13.825l13.339-10.401l5.621-15.953c1.486-4.214,4.799-7.465,8.932-8.908    c6.483-15.534,14.706-30.193,24.574-43.804c-2.107-3.903-3.27-8.346-3.27-13.003c0-15.088,12.275-27.363,27.363-27.363    c0.929,0,1.851,0.048,2.763,0.14l64.395-78.071c-0.77-2.538-1.176-5.19-1.176-7.879c0-15.088,12.275-27.363,27.366-27.363    c13.275,0,24.372,9.503,26.849,22.062l49.217,21.377c1.926-0.531,3.9-0.796,5.903-0.796c8.218,0,15.616,4.431,19.512,11.488    c3.941-0.557,7.917-0.839,11.908-0.839c34.897,0,66.281,21.415,79.111,53.622l6.782-1.446l12.026-11.898    c2.765-2.735,6.462-4.209,10.242-4.209c1.391,0,2.794,0.199,4.166,0.609c5.099,1.524,8.96,5.709,10.071,10.915l3.526,16.541    l11.896,12.024c3.744,3.782,5.126,9.306,3.602,14.406c-1.524,5.1-5.706,8.962-10.913,10.074l-6.31,1.346    c0.825,1.164,1.64,2.332,2.441,3.51c8.981-6.457,19.121-11.029,29.678-13.266c1.002-0.213,2.014-0.317,3.019-0.317    c3.547,0,7.014,1.299,9.709,3.711c3.46,3.095,5.235,7.654,4.78,12.275c-0.813,8.268-3.375,16.258-7.55,23.716    c7.536,1.152,13.849,2.974,19.605,5.635c23.83,10.993,39.065,38.823,37.036,67.672c-1.602,22.737-13.225,46.027-32.731,65.582    c-0.81,0.81-1.69,1.675-2.637,2.576c0.668,1.671,1.035,3.493,1.035,5.403v87.751c-0.005,8.038-6.521,14.553-14.56,14.553h-0.552    l-0.005,57.696c-0.01,8.036-6.524,14.543-14.56,14.543H156.504z"/>
	</g>
	<g>
		<g>
			<circle style="fill:#FFB289;" cx="239.379" cy="284.432" r="203.834"/>
		</g>
		<g>
			<g>
				<g>
					<g>
						<path style="fill:#F7607D;" d="M501.683,260.034c-1.508,21.44-13.326,41.095-28.514,56.321        c-5.849,5.851-12.309,11.263-19.842,14.681c-1.768,0.796-3.565,1.491-5.392,2.083c-5.503,1.794-11.277,2.726-17.029,3.442        c-17.9,2.223-36.779,2.103-52.997-5.736c-18.455-8.916-31.148-26.792-39.174-45.65c-5.66-13.318-9.412-27.836-7.68-42.183        c0.25-2.1,0.637-4.187,1.182-6.258c2.995-12.076,10.402-23.173,21.46-28.682c8.215-4.085,17.607-4.655,26.544-3.046        c7.182,1.274,14.958,6.541,22.325,5.569c0.24-0.016,0.484-0.071,0.725-0.106c6.781-1.269,13.006-5.314,19.836-7.273        c0.881-0.269,1.776-0.477,2.688-0.665c8.974-1.745,18.227-1.912,27.307-0.944c6.838,0.743,13.692,2.124,19.938,5.013        C492.579,215.603,503.191,238.593,501.683,260.034z"/>
					</g>
					<g>
						<path style="fill:#7182FF;" d="M403.023,211.232c5.721-24.096,25.379-43.49,49.607-48.627        c-1.204,12.206-7.46,22.975-16.305,31.472C427.479,202.574,414.614,207.223,403.023,211.232z"/>
					</g>
					<g>
						<g>
							<path style="fill:#FFE9DC;" d="M462.423,223.138c-0.497,4.748,1.332,9.449,3.713,13.588c1.348,2.344,2.911,4.612,4.994,6.337         c2.082,1.725,4.745,2.872,7.444,2.708c4.742-0.287,8.527-4.697,9.232-9.395c0.704-4.698-1.121-9.464-3.792-13.392         c-2.584-3.801-7.588-9.154-12.531-9.638C466.466,212.854,462.894,218.644,462.423,223.138z"/>
						</g>
						<g>
							<path style="fill:#FFE9DC;" d="M479.891,262.122c0.316,1.188,0.799,2.355,1.597,3.291c1.319,1.546,3.434,2.312,5.461,2.168         c2.027-0.143,3.944-1.137,5.388-2.567c4.91-4.866,2.676-13.383-4.255-14.822C481.256,248.776,478.44,256.67,479.891,262.122z         "/>
						</g>
					</g>
				</g>
				<g>
					<path style="fill:#7182FF;" d="M403.023,211.232c-8.177-4.105-14.86-11.114-18.571-19.478       c-3.71-8.364-4.422-18.022-1.977-26.839c9.081,2.209,15.916,9.577,18.885,18.439       C404.33,192.216,404.013,201.938,403.023,211.232z"/>
				</g>
				<g style="opacity:0.33;">
					<path style="fill:#512651;" d="M447.935,333.119c-5.503,1.794-11.277,2.726-17.029,3.442       c-17.9,2.223-36.779,2.103-52.997-5.736c-18.455-8.916-31.148-26.792-39.174-45.65c-5.66-13.318-9.412-27.836-7.68-42.183       c0.25-2.1,0.637-4.187,1.182-6.258c2.067,9.324,5.841,18.262,10.382,26.681c11.365,21.02,27.901,39.398,48.236,51.959       C407.99,325.966,427.832,332.34,447.935,333.119z"/>
				</g>
			</g>
			<g>
				<g>
					<g>
						<path style="fill:#FFE9DC;" d="M333.841,305.587l-145.399,35.342l-2.878,0.698l-2.543-1.675l-10.913-7.143l-2.159-1.419        l-0.096-2.257l-0.096-2.676l-1.127-28.757v-0.093l-5.013-127.663c0,0,2.207-0.163,6.14-0.163        c0.192-0.023,0.384-0.023,0.6-0.023c1.031,0,2.207,0,3.454,0.046c0.192-0.023,0.384-0.023,0.6,0        c3.982,0.046,8.899,0.279,14.511,0.768c0.192,0.023,0.408,0.023,0.6,0.047c3.358,0.302,6.98,0.721,10.794,1.279        c0.192,0,0.384,0.047,0.6,0.07c7.651,1.117,16.022,2.745,24.705,5.188c0.192,0.047,0.384,0.093,0.576,0.163        c1.967,0.535,3.934,1.117,5.924,1.768c0.192,0.047,0.384,0.117,0.576,0.186c7.1,2.28,14.319,5.142,21.419,8.679        c0.192,0.07,0.36,0.163,0.552,0.256c4.077,2.024,8.107,4.281,12.065,6.794c0.168,0.093,0.336,0.209,0.504,0.326        c1.583,1,3.142,2.048,4.677,3.164c0.168,0.093,0.336,0.209,0.479,0.349c0.504,0.326,0.983,0.675,1.463,1.024        c5.78,4.234,11.033,9.027,15.83,14.192c0.12,0.139,0.264,0.279,0.408,0.442c0.911,0.977,1.799,1.978,2.686,3.001        c0.12,0.163,0.264,0.302,0.384,0.465c5.565,6.491,10.409,13.425,14.655,20.474c0.096,0.163,0.192,0.326,0.312,0.489        c0.839,1.419,1.679,2.862,2.494,4.281c0.096,0.186,0.192,0.372,0.288,0.535c2.758,4.932,5.205,9.888,7.387,14.681        c0.072,0.163,0.168,0.349,0.24,0.512c1.943,4.281,3.646,8.469,5.181,12.448l-135.205,60.702l-2.063,0.93        c0.024,0.117,0.048,0.233,0.072,0.349c0,0.046,0.024,0.093,0.024,0.139l2.087-0.745l2.902-1.047L327.7,282.716        c0.384,1.187,0.743,2.327,1.103,3.42c0.048,0.186,0.096,0.372,0.168,0.558c0.192,0.675,0.384,1.326,0.6,1.954        c0.048,0.186,0.096,0.396,0.168,0.582c1.103,3.723,1.943,6.956,2.59,9.562c0.048,0.186,0.096,0.372,0.12,0.558        c0.696,2.838,1.103,4.816,1.271,5.7C333.817,305.401,333.841,305.587,333.841,305.587z"/>
					</g>
					<g>
						<path style="fill:#FFB289;" d="M188.756,338.848c-0.147,1.421-0.381,2.643-0.615,3.58c-0.234,1.109-0.469,1.762-0.469,1.762        l-4.189-2.756l-12.742-8.383l-5.478-3.609c0,0,1.172-0.966,2.988-2.103c0.674-0.426,1.406-0.852,2.226-1.279        c3.984-2.046,9.52-3.751,13.885-0.625c2.373,1.677,3.603,4.092,4.16,6.649c0.058,0.199,0.088,0.398,0.117,0.597        C189.02,334.785,188.99,336.973,188.756,338.848z"/>
					</g>
					<g>
						<g>
							<path style="fill:#7182FF;" d="M168.817,335.831c-1.684,0-3.123-1.24-3.29-2.898L148.63,164.662         c-0.178-1.765,1.154-3.335,2.971-3.506c1.851-0.177,3.438,1.119,3.614,2.882l16.897,168.271         c0.178,1.765-1.154,3.335-2.971,3.506C169.031,335.826,168.923,335.831,168.817,335.831z"/>
						</g>
					</g>
					<g>
						<g>
							<path style="fill:#7182FF;" d="M360.728,302.399c-0.408-1.722-2.183-2.792-3.957-2.42c-0.192,0.047-9.234,2.024-23.05,5.072         c-16.478,3.653-39.767,8.795-62.937,13.983c-24.969,5.607-44.9,10.121-59.244,13.471         c-11.633,2.699-18.541,4.328-22.714,5.421c-3.43,0.908-5.013,1.489-5.804,2.024c-0.36,0.256-0.552,0.488-0.696,0.745         c-0.144,0.233-0.216,0.465-0.312,0.745c-0.576,1.675,0.36,3.49,2.087,4.072c0.36,0.093,0.696,0.163,1.055,0.163         c0.624,0,1.199-0.186,1.727-0.488c7.028-2.513,105.919-24.593,171.351-38.925         C360.008,305.866,361.136,304.144,360.728,302.399z"/>
						</g>
					</g>
				</g>
				<g>
					<path style="fill:#FFB289;" d="M172.324,325.2v0.279l-0.6,0.163v-0.186l-1.967-155.675c0.192-0.023,0.384-0.023,0.6-0.023       L172.324,325.2z"/>
				</g>
				<g>
					<path style="fill:#FFB289;" d="M177.193,331.691l-0.6,0.023l-0.144-7.794l-2.639-154.116c0.192-0.023,0.384-0.023,0.6,0       l2.639,154.023L177.193,331.691z"/>
				</g>
				<g>
					<path style="fill:#FFB289;" d="M200.914,171.968l-20.603,151.859l-0.552,4.048l-0.024,0.093l-0.503,3.769l-0.312-0.023       l-0.288-0.023v-0.116l0.504-7.841l9.786-153.162c0.192,0.023,0.408,0.023,0.6,0.047l-9.762,152.697l20.555-151.417       C200.507,171.898,200.699,171.945,200.914,171.968z"/>
				</g>
				<g>
					<path style="fill:#FFB289;" d="M232.695,179.273L181.87,324.177l-2.638,7.562l-0.024,0.07l-0.288-0.093l-0.288-0.093v-0.023       l1.103-3.629l1.247-4.048l44.637-146.764c0.192,0.047,0.384,0.093,0.576,0.163l-42.838,140.854l48.762-139.086       C232.311,179.134,232.503,179.204,232.695,179.273z"/>
				</g>
				<g>
					<path style="fill:#FFB289;" d="M267.785,194.443l-0.552,0.884l-82.245,130.594l-3.574,5.7l-0.791,1.28h-0.024l-0.984,1.582       l-0.839,1.326l-0.216-0.116l-0.024-0.023l-0.288-0.139l0.84-1.629l0.552-1.07l4.03-7.841l70.445-137.039       c0.192,0.07,0.36,0.163,0.552,0.256l-70.493,137.109l-2.255,4.397l2.615-4.141l82.197-130.571l0.528-0.861L267.785,194.443z"/>
				</g>
				<g>
					<path style="fill:#FFB289;" d="M293.162,217.966L191.128,323.641l-0.096,0.093l-3.67,3.816l-0.48,0.512l-1.607,1.652       l-0.072,0.047l-1.799,1.884l-0.024,0.023l-0.048,0.047l-1.319,1.373l-0.216-0.139v-0.023l-0.048-0.023l-0.216-0.163l0.6-0.884       l0.863-1.326l0.048-0.023l2.638-3.932l86.227-128.081c0.168,0.093,0.336,0.209,0.479,0.349l-86.299,128.174l-1.727,2.583       l-0.456,0.675l1.032-1.07l1.583-1.652l3.814-3.955l0.144-0.139l13.168-13.634l0.192-0.21l88.937-92.111       C292.898,217.663,293.042,217.803,293.162,217.966z"/>
				</g>
				<g>
					<path style="fill:#FFB289;" d="M290.092,214.499l-86.251,95.113l-12.712,14.03l-3.142,3.467l-0.024,0.023l-0.984,1.093       l-0.743,0.814l-0.024,0.023l-1.343,1.489l-0.576,0.652h-0.024l-0.624,0.698l-0.24-0.209l-0.024-0.023l-0.192-0.163l0.887-0.977       l1.751-1.931l0.815-0.907l3.838-4.234l99.203-109.399C289.803,214.196,289.948,214.336,290.092,214.499z"/>
				</g>
				<g>
					<path style="fill:#FFB289;" d="M308.128,238.929l-92.007,68.938l-11.297,8.469l-17.27,12.936l-0.768,0.558l-3.286,2.489       l-4.797,3.583l-0.168-0.233l-0.192-0.233l1.271-0.954l2.135-1.582l0.024-0.023l1.463-1.093l0.096-0.07l0.048-0.047l0.024-0.023       l1.463-1.094l2.423-1.815l6.284-4.7l11.321-8.492l102.921-77.105C307.912,238.603,308.009,238.766,308.128,238.929z"/>
				</g>
				<g>
					<path style="fill:#FFB289;" d="M310.911,243.745l-106.087,72.591l-11.249,7.701l-6.452,4.397l-0.911,0.628l-0.935,0.651       l-1.199,0.814l-1.943,1.326l-1.535,1.047l-1.487,1.024l-0.024-0.023l-0.336-0.465l0.887-0.605l1.775-1.21l1.631-1.117       l1.319-0.907l0.576-0.396l0.887-0.605l0.959-0.651l0.576-0.396l0.6-0.419l16.933-11.587l11.225-7.678l94.502-64.657       C310.719,243.396,310.815,243.582,310.911,243.745z"/>
				</g>
				<g>
					<path style="fill:#FFB289;" d="M318.538,258.938l-130.696,71.009l-4.341,2.373l-1.559,0.838l-0.144-0.209l-0.024-0.07       l-0.144-0.232l1.607-0.861l0.096-0.07l0.072-0.023l0.863-0.488l2.518-1.373l0.84-0.442l130.671-70.962       C318.37,258.589,318.466,258.775,318.538,258.938z"/>
				</g>
				<g>
					<path style="fill:#FFB289;" d="M328.972,286.694L188.73,333.274l-8.083,2.676l-0.192-0.558l6.068-2.024l2.111-0.698       l2.902-0.954l137.268-45.579C328.852,286.322,328.9,286.508,328.972,286.694z"/>
				</g>
				<g>
					<path style="fill:#FFB289;" d="M332.449,299.351l-143.528,36.598l-6.236,1.582l-0.168-0.558l6.356-2.094l140.698-46.23       c0.048,0.186,0.096,0.396,0.168,0.582l-138.875,45.625l141.465-36.063C332.377,298.979,332.425,299.165,332.449,299.351z"/>
				</g>
			</g>
			<g>
				<g>
					<g>
						<g>
							<path style="fill:#F7607D;" d="M452.2,422.275v5.377l-4.266,32.693l4.266,30.132v4.12H160.893         c-22.994,0-41.625-16.197-41.625-36.178c0-9.991,4.647-19.014,12.173-25.548c7.548-6.569,17.954-10.596,29.452-10.596H452.2z         "/>
						</g>
						<g>
							<g>
								<path style="fill:#FFE9DC;" d="M452.204,427.653v62.825h-98.187c-2.493,0-4.938-0.21-7.286-0.631          c-0.823-0.147-1.622-0.315-2.421-0.526c-4.212-1.009-8.11-2.671-11.547-4.858c-0.266-0.168-0.533-0.337-0.799-0.526          c-2.13-1.409-4.067-3.029-5.762-4.838c-0.194-0.168-0.339-0.337-0.508-0.526c-1.38-1.493-2.59-3.113-3.631-4.837          c-0.121-0.168-0.217-0.336-0.315-0.526c-0.92-1.535-1.67-3.176-2.275-4.859c-0.048-0.168-0.121-0.336-0.17-0.526          c-0.533-1.556-0.92-3.176-1.138-4.838c-0.024-0.168-0.048-0.357-0.072-0.526c-0.145-1.115-0.218-2.251-0.218-3.407          c0-0.484,0.024-0.967,0.049-1.43c0-0.19,0-0.358,0.024-0.526c0.121-1.662,0.387-3.281,0.774-4.859          c0.049-0.189,0.097-0.358,0.146-0.526c0.46-1.662,1.065-3.281,1.815-4.838c0.097-0.168,0.169-0.357,0.266-0.526          c0.871-1.704,1.888-3.323,3.074-4.837c0.145-0.189,0.29-0.357,0.436-0.526c1.186-1.472,2.518-2.861,3.994-4.143          c0.266-0.232,0.557-0.484,0.847-0.694c0.218-0.189,0.436-0.357,0.654-0.526c2.493-1.935,5.302-3.576,8.352-4.859          c0.436-0.189,0.872-0.357,1.331-0.526c4.406-1.661,9.272-2.587,14.379-2.587H452.204z"/>
							</g>
							<g>
								<g>
									<path style="fill:#FFA9DD;" d="M452.204,430.239v0.526H338.307c0.436-0.189,0.872-0.357,1.331-0.526H452.204z"/>
								</g>
								<g>
									<path style="fill:#FFA9DD;" d="M452.204,435.624v0.526H329.301c0.218-0.189,0.436-0.357,0.654-0.526H452.204z"/>
								</g>
								<g>
									<path style="fill:#FFA9DD;" d="M452.204,435.624v0.526H329.301c0.218-0.189,0.436-0.357,0.654-0.526H452.204z"/>
								</g>
								<g>
									<path style="fill:#FFA9DD;" d="M452.204,440.987v0.526h-128.18c0.145-0.189,0.29-0.357,0.436-0.526H452.204z"/>
								</g>
								<g>
									<path style="fill:#FFA9DD;" d="M452.204,440.987v0.526h-128.18c0.145-0.189,0.29-0.357,0.436-0.526H452.204z"/>
								</g>
								<g>
									<path style="fill:#FFA9DD;" d="M452.204,446.351v0.526H320.683c0.097-0.168,0.169-0.357,0.266-0.526H452.204z"/>
								</g>
								<g>
									<path style="fill:#FFA9DD;" d="M452.204,446.351v0.526H320.683c0.097-0.168,0.169-0.357,0.266-0.526H452.204z"/>
								</g>
								<g>
									<path style="fill:#FFA9DD;" d="M452.204,451.714v0.526H318.722c0.049-0.189,0.097-0.358,0.146-0.526H452.204z"/>
								</g>
								<g>
									<path style="fill:#FFA9DD;" d="M452.204,451.714v0.526H318.722c0.049-0.189,0.097-0.358,0.146-0.526H452.204z"/>
								</g>
								<g>
									<path style="fill:#FFA9DD;" d="M452.204,457.099v0.526H317.924c0-0.19,0-0.358,0.024-0.526H452.204z"/>
								</g>
								<g>
									<path style="fill:#FFA9DD;" d="M452.204,462.462v0.526H318.166c-0.024-0.168-0.048-0.357-0.072-0.526H452.204z"/>
								</g>
								<g>
									<path style="fill:#FFA9DD;" d="M452.204,462.462v0.526H318.166c-0.024-0.168-0.048-0.357-0.072-0.526H452.204z"/>
								</g>
								<g>
									<path style="fill:#FFA9DD;" d="M452.204,467.825v0.526H319.473c-0.048-0.168-0.121-0.336-0.17-0.526H452.204z"/>
								</g>
								<g>
									<path style="fill:#FFA9DD;" d="M452.204,473.21v0.526H322.063c-0.121-0.168-0.217-0.336-0.315-0.526H452.204z"/>
								</g>
								<g>
									<path style="fill:#FFA9DD;" d="M452.204,478.573v0.526H326.203c-0.194-0.168-0.339-0.337-0.508-0.526H452.204z"/>
								</g>
								<g>
									<path style="fill:#FFA9DD;" d="M452.204,483.937v0.526H332.763c-0.266-0.168-0.533-0.337-0.799-0.526H452.204z"/>
								</g>
								<g>
									<path style="fill:#FFA9DD;" d="M452.204,489.321v0.526H346.731c-0.823-0.147-1.622-0.315-2.421-0.526H452.204z"/>
								</g>
							</g>
						</g>
					</g>
				</g>
				<g>
					<g>
						<g>
							<path style="fill:#BD6EEB;" d="M467.316,334.615v6.534l-4.975,42.229l4.975,33.988v4.992H173.187         c-23.217,0-42.029-19.637-42.029-43.883c0-12.123,4.673-23.071,12.275-30.999c7.626-7.975,18.133-12.861,29.754-12.861         H467.316z"/>
						</g>
						<g>
							<g>
								<path style="fill:#FFE9DC;" d="M467.318,341.149v76.217h-99.14c-2.518,0-4.986-0.255-7.357-0.766          c-0.831-0.179-1.638-0.383-2.444-0.638c-4.253-1.225-8.188-3.24-11.659-5.894c-0.269-0.204-0.538-0.408-0.807-0.638          c-2.151-1.71-4.107-3.674-5.817-5.869c-0.196-0.204-0.342-0.408-0.513-0.638c-1.393-1.811-2.615-3.776-3.667-5.869          c-0.122-0.204-0.22-0.408-0.318-0.638c-0.929-1.862-1.687-3.853-2.297-5.894c-0.049-0.204-0.122-0.408-0.171-0.638          c-0.538-1.888-0.929-3.853-1.149-5.869c-0.025-0.204-0.049-0.434-0.073-0.638c-0.147-1.352-0.22-2.73-0.22-4.134          c0-0.587,0.025-1.174,0.049-1.735c0-0.23,0-0.434,0.024-0.638c0.122-2.016,0.391-3.981,0.782-5.894          c0.049-0.23,0.098-0.434,0.147-0.638c0.464-2.016,1.075-3.981,1.833-5.869c0.098-0.204,0.171-0.434,0.269-0.638          c0.88-2.067,1.906-4.031,3.104-5.869c0.147-0.23,0.293-0.434,0.44-0.638c1.198-1.786,2.542-3.47,4.033-5.027          c0.269-0.281,0.562-0.587,0.856-0.842c0.22-0.23,0.44-0.434,0.66-0.638c2.518-2.348,5.353-4.338,8.433-5.894          c0.44-0.23,0.88-0.434,1.344-0.638c4.448-2.016,9.362-3.138,14.519-3.138H467.318z"/>
							</g>
							<g>
								<g>
									<path style="fill:#FFA9DD;" d="M467.318,344.288v0.638H352.315c0.44-0.23,0.88-0.434,1.344-0.638H467.318z"/>
								</g>
								<g>
									<path style="fill:#FFA9DD;" d="M467.318,350.82v0.638H343.222c0.22-0.23,0.44-0.434,0.66-0.638H467.318z"/>
								</g>
								<g>
									<path style="fill:#FFA9DD;" d="M467.318,350.82v0.638H343.222c0.22-0.23,0.44-0.434,0.66-0.638H467.318z"/>
								</g>
								<g>
									<path style="fill:#FFA9DD;" d="M467.318,357.326v0.638H337.894c0.147-0.23,0.293-0.434,0.44-0.638H467.318z"/>
								</g>
								<g>
									<path style="fill:#FFA9DD;" d="M467.318,357.326v0.638H337.894c0.147-0.23,0.293-0.434,0.44-0.638H467.318z"/>
								</g>
								<g>
									<path style="fill:#FFA9DD;" d="M467.318,363.833v0.638H334.521c0.098-0.204,0.171-0.434,0.269-0.638H467.318z"/>
								</g>
								<g>
									<path style="fill:#FFA9DD;" d="M467.318,363.833v0.638H334.521c0.098-0.204,0.171-0.434,0.269-0.638H467.318z"/>
								</g>
								<g>
									<path style="fill:#FFA9DD;" d="M467.318,370.34v0.638H332.541c0.049-0.23,0.098-0.434,0.147-0.638H467.318z"/>
								</g>
								<g>
									<path style="fill:#FFA9DD;" d="M467.318,370.34v0.638H332.541c0.049-0.23,0.098-0.434,0.147-0.638H467.318z"/>
								</g>
								<g>
									<path style="fill:#FFA9DD;" d="M467.318,376.872v0.638H331.735c0-0.23,0-0.434,0.024-0.638H467.318z"/>
								</g>
								<g>
									<path style="fill:#FFA9DD;" d="M467.318,383.379v0.638h-135.34c-0.025-0.204-0.049-0.434-0.073-0.638H467.318z"/>
								</g>
								<g>
									<path style="fill:#FFA9DD;" d="M467.318,383.379v0.638h-135.34c-0.025-0.204-0.049-0.434-0.073-0.638H467.318z"/>
								</g>
								<g>
									<path style="fill:#FFA9DD;" d="M467.318,389.885v0.638h-134.02c-0.049-0.204-0.122-0.408-0.171-0.638H467.318z"/>
								</g>
								<g>
									<path style="fill:#FFA9DD;" d="M467.318,396.417v0.638H335.914c-0.122-0.204-0.22-0.408-0.318-0.638H467.318z"/>
								</g>
								<g>
									<path style="fill:#FFA9DD;" d="M467.318,402.924v0.638H340.094c-0.196-0.204-0.342-0.408-0.513-0.638H467.318z"/>
								</g>
								<g>
									<path style="fill:#FFA9DD;" d="M467.318,409.43v0.638H346.718c-0.269-0.204-0.538-0.408-0.807-0.638H467.318z"/>
								</g>
								<g>
									<path style="fill:#FFA9DD;" d="M467.318,415.963v0.638H360.821c-0.831-0.179-1.638-0.383-2.444-0.638H467.318z"/>
								</g>
							</g>
						</g>
					</g>
					<g>
						<path style="fill:#FFA9DD;" d="M282.286,393.894H177.69c-8.934,0-16.203-7.269-16.203-16.203v-3.945        c0-8.934,7.269-16.201,16.203-16.201h104.596c8.934,0,16.201,7.267,16.201,16.201v3.945        C298.487,386.625,291.22,393.894,282.286,393.894z M177.69,359.175c-8.036,0-14.573,6.538-14.573,14.572v3.945        c0,8.036,6.538,14.573,14.573,14.573h104.596c8.034,0,14.572-6.538,14.572-14.573v-3.945c0-8.034-6.538-14.572-14.572-14.572        H177.69z"/>
					</g>
				</g>
				<g>
					<path style="fill:#FFE9DC;" d="M166.724,456.413c0,6.665-5.403,12.068-12.068,12.068c-6.665,0-12.068-5.403-12.068-12.068       s5.403-12.068,12.068-12.068C161.321,444.345,166.724,449.748,166.724,456.413z"/>
				</g>
				<g>
					<path style="fill:#FFE9DC;" d="M273.111,467.739h-83.179c-6.229,0-11.326-5.096-11.326-11.326l0,0       c0-6.229,5.097-11.326,11.326-11.326h83.179c6.229,0,11.326,5.097,11.326,11.326l0,0       C284.437,462.642,279.34,467.739,273.111,467.739z"/>
				</g>
			</g>
			<g>
				<g>
					<polygon style="fill:#7182FF;" points="87.692,484.961 86.244,484.961 86.244,143.532 86.409,143.331 180.103,29.739        180.603,29.955 262.385,65.477 261.807,66.806 180.527,31.501 87.692,144.053      "/>
				</g>
				<g>
					
						<ellipse transform="matrix(0.2298 -0.9732 0.9732 0.2298 -72.8753 194.6766)" style="fill:#BD6EEB;" cx="86.555" cy="143.379" rx="12.804" ry="12.804"/>
				</g>
				<g>
					<circle style="fill:#BD6EEB;" cx="179.901" cy="30.207" r="12.804"/>
				</g>
				<g>
					<g>
						<path style="fill:#BD6EEB;" d="M274.057,77.225l-14.353,5.821l-5.006-12.344c-1.608-3.963,0.302-8.48,4.266-10.087l0,0        c3.964-1.607,8.48,0.302,10.088,4.266L274.057,77.225z"/>
					</g>
					<g>
						<path style="fill:#BD6EEB;" d="M359.828,117.674l-88.013,38.267l-41.228,17.908c-5.072-9.731-7.935-20.796-7.935-32.54        c0-28.512,16.913-53.094,41.252-64.208c8.954-4.125,18.903-6.406,29.386-6.406C324.011,70.695,350.122,90.302,359.828,117.674        z"/>
					</g>
					<g>
						<g>
							<path style="fill:#512651;" d="M359.828,117.674c0,0-39.311,58.141-129.24,56.176c0,0,14.729-17.908,45.523-33.608         c10.24-5.242,22.276-10.24,36.132-14.22C326.22,121.969,342.065,118.936,359.828,117.674z"/>
						</g>
						<g>
							<path style="fill:#FFE9DC;" d="M313.723,133.471c0,10.726-8.687,19.413-19.413,19.413c-8.348,0-15.457-5.266-18.2-12.642         c10.24-5.242,22.276-10.24,36.132-14.22C313.189,128.327,313.723,130.826,313.723,133.471z"/>
						</g>
					</g>
					<g style="opacity:0.21;">
						<path style="fill:#512651;" d="M271.815,155.941l-41.228,17.908c-5.072-9.731-7.935-20.796-7.935-32.54        c0-28.512,16.913-53.094,41.252-64.208c-1.504,2.257-3.3,4.538-4.028,6.188c-6.163,14.026-6.139,30.308-1.771,45.013        C261.041,138.203,265.87,147.448,271.815,155.941z"/>
					</g>
					<g>
						<path style="fill:#512651;" d="M258.379,79.952c-0.062,0-0.122-0.031-0.156-0.089c-0.051-0.086-0.023-0.197,0.064-0.248        c0.055-0.034,5.672-3.34,12.43-5.386c0.098-0.031,0.198,0.027,0.225,0.12c0.03,0.096-0.024,0.197-0.12,0.225        c-6.714,2.035-12.294,5.32-12.351,5.352C258.442,79.944,258.41,79.952,258.379,79.952z"/>
					</g>
					<g>
						<g>
							<path style="fill:#FFE9DC;" d="M307.145,84.618c0.672,1.456,1.717,2.784,2.97,3.685c3.29,2.368,9.333,4.359,12.644,1.011         c2.592-2.621,1.324-6.369-0.955-8.665c-2.632-2.651-7.322-5.402-11.185-4.53C306.043,77.153,305.584,81.233,307.145,84.618z"/>
						</g>
						<g>
							<path style="fill:#FFE9DC;" d="M336.649,93.299c0,2.452-1.988,4.44-4.44,4.44c-2.452,0-4.44-1.988-4.44-4.44         c0-2.452,1.988-4.44,4.44-4.44C334.661,88.858,336.649,90.846,336.649,93.299z"/>
						</g>
					</g>
				</g>
				<g>
					<path style="fill:#BD6EEB;" d="M131.194,493.213H42.745c2.839-21.912,21.548-38.826,44.212-38.826       C109.646,454.388,128.355,471.301,131.194,493.213z"/>
				</g>
			</g>
		</g>
		<g>
			<g>
				<polygon style="fill:#BD6EEB;" points="58.982,250.696 51.944,270.671 38.923,253.968 18.947,246.93 35.65,233.908       42.689,213.933 55.71,230.636 75.685,237.674     "/>
			</g>
			<g>
				<polygon style="fill:#FFE9DC;" points="198.437,96.727 190.917,118.067 177.006,100.223 155.665,92.703 173.51,78.792       181.029,57.451 194.941,75.295 216.281,82.815     "/>
			</g>
			<g>
				<polygon style="fill:#FFE9DC;" points="272.922,413.446 265.884,433.421 252.862,416.718 232.887,409.68 249.59,396.659       256.628,376.683 269.65,393.386 289.625,400.424     "/>
			</g>
			<g>
				<polygon style="fill:#FFE9DC;" points="400.049,146.952 384.994,161.848 380.575,141.135 365.68,126.079 386.393,121.66       401.449,106.765 405.867,127.478 420.762,142.534     "/>
			</g>
		</g>
		<g>
			<path style="fill:#FFE9DC;" d="M138.081,276.377c0,7.699-6.241,13.94-13.94,13.94c-7.699,0-13.94-6.241-13.94-13.94     c0-7.699,6.241-13.94,13.94-13.94C131.84,262.437,138.081,268.678,138.081,276.377z"/>
		</g>
		<g>
			
				<ellipse transform="matrix(0.0985 -0.9951 0.9951 0.0985 -312.8769 375.8862)" style="fill:#F7607D;" cx="51.034" cy="360.637" rx="13.94" ry="13.94"/>
		</g>
		<g>
			<g>
				<path style="fill:#BD6EEB;" d="M137.771,176.062c-13.351,0-24.214-10.863-24.214-24.215c0-13.351,10.863-24.214,24.214-24.214      c13.353,0,24.216,10.863,24.216,24.214C161.986,165.199,151.123,176.062,137.771,176.062z M137.771,128.356      c-12.952,0-23.49,10.538-23.49,23.49c0,12.954,10.538,23.491,23.49,23.491c12.954,0,23.491-10.538,23.491-23.491      C161.262,138.894,150.724,128.356,137.771,128.356z"/>
			</g>
			<g>
				<path style="fill:#FFE9DC;" d="M132.815,404.058c-13.351,0-24.214-10.863-24.214-24.216c0-13.351,10.863-24.214,24.214-24.214      c13.352,0,24.215,10.863,24.215,24.214C157.03,393.195,146.167,404.058,132.815,404.058z M132.815,356.353      c-12.952,0-23.49,10.538-23.49,23.49c0,12.954,10.538,23.491,23.49,23.491c12.954,0,23.491-10.538,23.491-23.491      C156.306,366.891,145.768,356.353,132.815,356.353z"/>
			</g>
			<g>
				<path style="fill:#FFE9DC;" d="M321.159,195.887c-13.351,0-24.214-10.863-24.214-24.214c0-13.353,10.863-24.215,24.214-24.215      c13.353,0,24.215,10.863,24.215,24.215C345.375,185.024,334.512,195.887,321.159,195.887z M321.159,148.181      c-12.952,0-23.49,10.538-23.49,23.491c0,12.952,10.538,23.49,23.49,23.49c12.954,0,23.491-10.538,23.491-23.49      C344.651,158.719,334.113,148.181,321.159,148.181z"/>
			</g>
		</g>
	</g>
</g>















</svg>
