<?xml version="1.0" encoding="UTF-8"?>
<!-- Generator: Adobe Illustrator 25.2.1, SVG Export Plug-In . SVG Version: 6.00 Build 0)  -->
<svg xmlns="http://www.w3.org/2000/svg" xmlns:xlink="http://www.w3.org/1999/xlink" version="1.1" id="Capa_1" x="0px" y="0px" viewBox="0 0 512 512" style="enable-background:new 0 0 512 512;" xml:space="preserve" width="512" height="512">
<g>
	<g>
		<path style="fill:#FFFFFF;" d="M101.753,465.894c-9.336,0-18.501-1.526-27.245-4.538c-17.629-6.064-26.271-21.113-33.214-33.207    c-2.504-4.372-4.575-8.469-6.344-12.538c-0.065-0.146-0.132-0.294-0.196-0.442c-0.204-0.16-0.402-0.321-0.597-0.49    c-2.941-2.555-4.703-6.205-4.876-10.096l-0.259-5.757c-1.05-3.896-1.827-7.565-2.363-11.172    c-1.262-8.436-0.996-16.461,0.786-23.89l-3.489-77.645l-6.88,1.421c-0.959,0.199-1.924,0.295-2.876,0.295    c-5.14,0-9.979-2.8-12.494-7.455c-2.98-5.519-1.988-12.339,2.439-16.78l17.99-18.042l-0.807-18.026l-7.537-24.507    c-1.859-6.046,0.506-12.563,5.743-16.023c-0.074-1.75-0.074-1.902-0.074-2.096c0-6.19,4.018-11.671,9.918-13.542    c0,0,0.204-0.065,0.597-0.186c1.727-0.941,3.669-1.547,5.741-1.72c1.826-0.963,3.852-1.54,5.93-1.662    c1.611-0.745,3.385-1.205,5.262-1.31c0.849-0.216,1.725-0.438,2.631-0.664c1.549-0.387,3.181-0.787,4.89-1.196    c27.996-47.635,73.72-81.064,127.321-93.223l2.12-13.323c1.029-6.455,6.326-11.375,12.841-11.923c0.4-0.034,0.8-0.05,1.195-0.05    c6.046,0,11.491,3.851,13.451,9.663l3.69,10.933c3.766-0.217,7.481-0.327,11.121-0.327c37.343,0,73.174,10.202,104.56,29.643    c-0.041-0.21-0.081-0.424-0.113-0.638c-0.684-4.394,0.377-8.771,2.985-12.344c2.61-3.578,6.46-5.924,10.836-6.605    c7.396-1.157,14.984-1.744,22.544-1.744c79.965,0,145.02,65.056,145.02,145.021c0,67.091-46.198,125.267-110.821,140.916    c-5.186,9.538-11.128,18.627-17.735,27.13l-0.086,5.768l23.545,9.828c6.238,2.603,9.777,9.239,8.464,15.87    c-1.313,6.629-7.114,11.414-13.872,11.445c-20.94,0.09-53.389,0.282-64.669,0.46c-32.835,22.001-70.997,33.605-110.659,33.605    c-26.431,0-52.013-5.084-76.178-15.123c-3.133,2.432-6.388,4.622-9.743,6.545c-3.514,2.014-6.899,3.598-10.353,4.848    C120.931,464.246,111.459,465.894,101.753,465.894z"/>
	</g>
	<g>
		<g>
			
				<ellipse transform="matrix(0.7071 -0.7071 0.7071 0.7071 -122.2609 238.0782)" style="fill:#BD6EEB;" cx="226.255" cy="266.621" rx="184.972" ry="184.972"/>
		</g>
		<g>
			<g style="opacity:0.43;">
				
					<ellipse transform="matrix(0.9226 -0.3857 0.3857 0.9226 -56.8043 57.4084)" style="fill:#FFA9DD;" cx="114.686" cy="170.287" rx="25.609" ry="25.609"/>
			</g>
			<g>
				<path style="fill:#512651;" d="M319.865,416.873c-14.274,0-25.887-11.612-25.887-25.887c0-14.274,11.613-25.887,25.887-25.887      s25.887,11.613,25.887,25.887C345.752,405.261,334.139,416.873,319.865,416.873z M319.865,365.656      c-13.968,0-25.331,11.363-25.331,25.331c0,13.967,11.363,25.33,25.331,25.33s25.331-11.363,25.331-25.33      C345.196,377.019,333.833,365.656,319.865,365.656z"/>
			</g>
		</g>
		<g>
			<g>
				<g>
					<path style="fill:#512651;" d="M366.765,408.277c-0.677,0-1.225-0.549-1.225-1.225V93.537c0-0.677,0.549-1.225,1.225-1.225       s1.225,0.549,1.225,1.225v313.515C367.99,407.729,367.442,408.277,366.765,408.277z"/>
				</g>
				<g>
					<path style="fill:#512651;" d="M367.067,350.45c-7.313,0-14.647-0.614-21.797-1.825c-0.667-0.113-1.116-0.745-1.003-1.413       c0.113-0.667,0.742-1.116,1.413-1.003c7.015,1.187,14.212,1.79,21.388,1.79c70.151,0,127.223-57.072,127.223-127.223       S437.218,93.554,367.067,93.554c-6.638,0-13.301,0.515-19.806,1.532c-0.671,0.102-1.295-0.353-1.4-1.022       c-0.104-0.669,0.353-1.295,1.022-1.4c6.629-1.036,13.421-1.562,20.184-1.562c71.502,0,129.673,58.172,129.673,129.673       C496.741,292.279,438.569,350.45,367.067,350.45z"/>
				</g>
				<g>
					<path style="fill:#512651;" d="M332.008,418.134l34.757-15.111l34.757,14.507C401.521,417.529,332.31,417.831,332.008,418.134z       "/>
				</g>
			</g>
			<g>
				<g>
					<g>
						<path style="fill:#7182FF;" d="M478.732,245.101c-9.02,45.716-46.047,81.37-92.45,88.354        c-5.445,0.829-11.009,1.255-16.691,1.255c-41.975,0-78.482-23.225-97.422-57.53c-4.901-8.855-8.618-18.419-10.962-28.552        v-0.024c-1.847-8.073-2.841-16.478-2.841-25.119c0-4.83,37.264-93.492,78.174-106.205c10.441-3.243,21.544-4.995,33.05-4.995        c9.47,0,18.656,1.184,27.415,3.409C437.207,125.898,480.106,238.117,478.732,245.101z"/>
					</g>
					<g>
						<path style="fill:#FFB289;" d="M480.816,223.486c0,7.41-0.71,14.631-2.083,21.615c-0.686,0.142-1.397,0.237-2.131,0.26        c-5.398,0.166-10.18-3.291-15.388-4.735c-1.634-0.45-3.291-0.686-4.972-0.71c-4.19-0.095-8.405,1.065-11.908,3.338        c-1.799,1.184-3.48,2.675-5.54,3.315c-4.64,1.468-9.517-1.752-12.453-5.635c-3.693-4.924-5.635-11.127-5.398-17.283        c0.237-5.682,2.202-11.695-0.284-16.786c-3.22-6.581-11.767-7.907-18.727-10.204c-16.146-5.35-28.41-20.905-29.83-37.856        c-1.468-17.543,9.233-36.223,24.906-43.112c40.2,10.204,71.687,42.283,80.991,82.838        C479.845,206.558,480.816,214.915,480.816,223.486z"/>
					</g>
					<g>
						<path style="fill:#FFB289;" d="M344.662,157.835c-5.587,10.133-16.028,17.141-27.297,19.863        c-3.693,0.876-7.623,1.421-10.725,3.622c-6.203,4.475-6.392,13.495-9.565,20.455c-4.948,10.89-18.324,16.572-29.523,12.335        c-3.338-1.255-6.061-2.912-8.262-4.901c5.563-43.562,36.341-79.216,77.251-91.929c2.912,2.036,5.445,4.569,7.434,7.529        C350.439,134.421,350.249,147.679,344.662,157.835z"/>
					</g>
					<g>
						<path style="fill:#FFB289;" d="M389.218,324.743c-0.213,3.101-1.302,6.037-2.936,8.712        c-5.445,0.829-11.009,1.255-16.691,1.255c-41.975,0-78.482-23.225-97.422-57.53c-4.901-8.855-8.618-18.419-10.962-28.552        v-0.024c5.09-2.699,11.435-3.954,16.738-4.546c5.871-0.639,11.956-0.663,17.567,1.184c5.635,1.87,10.772,5.871,12.879,11.388        c1.681,4.404,2.202,10.441,6.747,11.719c2.581,0.734,5.256-0.639,7.6-1.965c8.594-4.924,17.519-10.275,27.439-10.535        c9.896-0.237,20.763,6.842,20.644,16.738c-0.071,6.96-5.208,12.642-8.452,18.798c-0.734,1.373-1.302,2.888-1.704,4.451        c-1.397,5.493-0.592,11.648,4.285,13.968c4.498,2.131,9.896-0.332,14.773,0.663        C385.833,311.721,389.692,318.493,389.218,324.743z"/>
					</g>
				</g>
				<g style="opacity:0.25;">
					<path style="fill:#512651;" d="M480.816,223.486c0,7.41-0.71,14.631-2.083,21.615c-9.02,45.716-46.047,81.37-92.45,88.354       c-5.445,0.829-11.009,1.255-16.691,1.255c-41.975,0-78.482-23.225-97.422-57.53c13.684,9.138,29.972,14.063,46.26,16.809       c13.921,2.344,28.197,3.149,42.236,1.847c6.724-0.592,13.376-1.704,19.934-3.362c29.547-7.481,55.778-26.232,74.173-50.546       c0.497-0.663,0.994-1.326,1.468-2.012c9.257-12.642,16.478-26.634,21.757-41.384       C479.845,206.558,480.816,214.915,480.816,223.486z"/>
				</g>
			</g>
		</g>
		<g>
			<g>
				<g>
					<path style="fill:#FFFFFF;" d="M372.454,173.553l-3.252,223.634l-22.742-1.229l-134.201-7.274L62.615,403.18l-19.055,1.844       c0,0-9.809-217.743-9.809-219.049c0,0,7.197-2.279,19.311-5.301c32.269-8.068,99.396-21.334,157.89-10.398       c0,0,76.781-23.204,144.035-3.074C360.904,168.969,366.743,171.069,372.454,173.553z"/>
				</g>
				<g>
					<path style="fill:#FFB289;" d="M212.263,389.018c-0.182,0-0.33-0.147-0.331-0.329l-1.308-218.4       c-0.001-0.183,0.146-0.332,0.329-0.333c0.001,0,0.002,0,0.002,0c0.182,0,0.33,0.147,0.331,0.329l1.308,218.401       c0.001,0.183-0.146,0.332-0.329,0.333C212.264,389.018,212.264,389.018,212.263,389.018z"/>
				</g>
				<g style="opacity:0.37;">
					<path style="fill:#FFB289;" d="M62.615,403.18l-19.055,1.844c0,0-9.809-217.743-9.809-219.049c0,0,7.197-2.279,19.311-5.301       C54.573,216.81,60.694,358.975,62.615,403.18z"/>
				</g>
				<g style="opacity:0.37;">
					<path style="fill:#FFB289;" d="M372.454,173.553l-3.252,223.634l-22.742-1.229l8.528-228.756       C360.904,168.969,366.743,171.069,372.454,173.553z"/>
				</g>
				<g>
					<path style="fill:#FFB289;" d="M47.482,406.944c-0.088,0-0.161-0.069-0.166-0.158L36.854,185.007       c-0.004-0.091,0.066-0.169,0.158-0.173c0.085,0.005,0.169,0.067,0.173,0.158l10.462,221.779       c0.004,0.091-0.066,0.169-0.158,0.173C47.487,406.944,47.485,406.944,47.482,406.944z"/>
				</g>
				<g>
					<path style="fill:#FFB289;" d="M52.059,405.854c-0.088,0-0.162-0.07-0.166-0.159l-9.482-222.324       c-0.004-0.091,0.067-0.169,0.159-0.173c0.074-0.002,0.169,0.067,0.173,0.159l9.482,222.324       c0.004,0.091-0.067,0.169-0.159,0.173C52.064,405.854,52.061,405.854,52.059,405.854z"/>
				</g>
				<g>
					<path style="fill:#FFB289;" d="M58.272,404.546c-0.088,0-0.161-0.069-0.166-0.158L47.643,182.065       c-0.004-0.091,0.066-0.169,0.158-0.173c0.091,0.008,0.168,0.066,0.173,0.158l10.463,222.324       c0.004,0.091-0.066,0.169-0.158,0.173C58.276,404.546,58.274,404.546,58.272,404.546z"/>
				</g>
				<g>
					<path style="fill:#FFB289;" d="M350.017,397.353c-0.002,0-0.004,0-0.007,0c-0.091-0.004-0.162-0.08-0.159-0.172l8.718-229.298       c0.004-0.091,0.083-0.154,0.172-0.159c0.091,0.004,0.162,0.08,0.159,0.172l-8.718,229.298       C350.179,397.283,350.105,397.353,350.017,397.353z"/>
				</g>
				<g>
					<path style="fill:#FFB289;" d="M354.812,396.918c-0.002,0-0.004,0-0.007,0c-0.091-0.004-0.162-0.08-0.159-0.172l8.718-227.555       c0.003-0.089,0.077-0.159,0.166-0.159c0.002,0,0.004,0,0.007,0c0.091,0.004,0.162,0.08,0.159,0.172l-8.718,227.555       C354.974,396.848,354.901,396.918,354.812,396.918z"/>
				</g>
				<g>
					<path style="fill:#FFB289;" d="M360.915,396.918c-0.002,0-0.004,0-0.006,0c-0.092-0.003-0.163-0.08-0.16-0.172l8.282-224.939       c0.003-0.092,0.098-0.154,0.172-0.16c0.092,0.003,0.163,0.08,0.16,0.172l-8.282,224.939       C361.077,396.848,361.004,396.918,360.915,396.918z"/>
				</g>
			</g>
			<g style="opacity:0.43;">
				<g>
					<path style="fill:#FFA9DD;" d="M71.676,206.687l3.27,56.453c0,0,84.679-11.116,116.393-9.808l-0.654-58.85       C190.685,194.481,137.283,189.25,71.676,206.687z"/>
				</g>
				<g>
					<g>
						<path style="fill:#FFA9DD;" d="M78.324,283.463c-0.226,0-0.428-0.158-0.477-0.388c-0.056-0.264,0.113-0.523,0.377-0.579        c0.68-0.145,68.492-14.347,112.294-9.817c0.268,0.028,0.463,0.268,0.436,0.537c-0.028,0.268-0.26,0.461-0.537,0.436        c-43.643-4.518-111.313,9.657-111.991,9.8C78.392,283.46,78.357,283.463,78.324,283.463z"/>
					</g>
					<g>
						<path style="fill:#FFA9DD;" d="M78.324,297.522c-0.226,0-0.428-0.158-0.477-0.388c-0.056-0.264,0.113-0.523,0.377-0.579        c0.68-0.145,68.492-14.347,112.294-9.817c0.268,0.028,0.463,0.268,0.436,0.537c-0.028,0.268-0.26,0.461-0.537,0.436        c-43.643-4.516-111.313,9.656-111.991,9.8C78.392,297.518,78.357,297.522,78.324,297.522z"/>
					</g>
					<g>
						<path style="fill:#FFA9DD;" d="M78.324,297.522c-0.226,0-0.428-0.158-0.477-0.388c-0.056-0.264,0.113-0.523,0.377-0.579        c0.68-0.145,68.492-14.347,112.294-9.817c0.268,0.028,0.463,0.268,0.436,0.537c-0.028,0.268-0.26,0.461-0.537,0.436        c-43.643-4.516-111.313,9.656-111.991,9.8C78.392,297.518,78.357,297.522,78.324,297.522z"/>
					</g>
					<g>
						<path style="fill:#FFA9DD;" d="M78.324,311.581c-0.226,0-0.428-0.158-0.477-0.388c-0.056-0.264,0.113-0.523,0.377-0.579        c0.68-0.144,68.5-14.345,112.294-9.817c0.268,0.028,0.463,0.268,0.436,0.537c-0.028,0.268-0.26,0.462-0.537,0.436        c-43.645-4.517-111.312,9.656-111.991,9.801C78.392,311.577,78.357,311.581,78.324,311.581z"/>
					</g>
					<g>
						<path style="fill:#FFA9DD;" d="M78.324,311.581c-0.226,0-0.428-0.158-0.477-0.388c-0.056-0.264,0.113-0.523,0.377-0.579        c0.68-0.144,68.5-14.345,112.294-9.817c0.268,0.028,0.463,0.268,0.436,0.537c-0.028,0.268-0.26,0.462-0.537,0.436        c-43.645-4.517-111.312,9.656-111.991,9.801C78.392,311.577,78.357,311.581,78.324,311.581z"/>
					</g>
					<g>
						<path style="fill:#FFA9DD;" d="M78.324,325.639c-0.226,0-0.428-0.158-0.477-0.388c-0.056-0.264,0.113-0.523,0.377-0.579        c0.68-0.145,68.492-14.347,112.294-9.817c0.268,0.028,0.463,0.268,0.436,0.537c-0.028,0.268-0.26,0.462-0.537,0.436        c-43.643-4.516-111.313,9.656-111.991,9.801C78.392,325.636,78.357,325.639,78.324,325.639z"/>
					</g>
					<g>
						<path style="fill:#FFA9DD;" d="M78.324,325.639c-0.226,0-0.428-0.158-0.477-0.388c-0.056-0.264,0.113-0.523,0.377-0.579        c0.68-0.145,68.492-14.347,112.294-9.817c0.268,0.028,0.463,0.268,0.436,0.537c-0.028,0.268-0.26,0.462-0.537,0.436        c-43.643-4.516-111.313,9.656-111.991,9.801C78.392,325.636,78.357,325.639,78.324,325.639z"/>
					</g>
					<g>
						<path style="fill:#FFA9DD;" d="M78.324,339.698c-0.226,0-0.428-0.158-0.477-0.388c-0.056-0.264,0.113-0.523,0.377-0.579        c0.68-0.145,68.492-14.347,112.294-9.817c0.268,0.028,0.463,0.268,0.436,0.537c-0.028,0.268-0.26,0.462-0.537,0.436        c-43.643-4.518-111.313,9.657-111.991,9.801C78.392,339.694,78.357,339.698,78.324,339.698z"/>
					</g>
					<g>
						<path style="fill:#FFA9DD;" d="M78.324,339.698c-0.226,0-0.428-0.158-0.477-0.388c-0.056-0.264,0.113-0.523,0.377-0.579        c0.68-0.145,68.492-14.347,112.294-9.817c0.268,0.028,0.463,0.268,0.436,0.537c-0.028,0.268-0.26,0.462-0.537,0.436        c-43.643-4.518-111.313,9.657-111.991,9.801C78.392,339.694,78.357,339.698,78.324,339.698z"/>
					</g>
					<g>
						<path style="fill:#FFA9DD;" d="M78.324,353.757c-0.226,0-0.428-0.158-0.477-0.388c-0.056-0.264,0.113-0.523,0.377-0.579        c0.68-0.144,68.5-14.345,112.294-9.817c0.268,0.028,0.463,0.268,0.436,0.537c-0.028,0.268-0.26,0.463-0.537,0.436        c-43.645-4.52-111.312,9.657-111.991,9.8C78.392,353.753,78.357,353.757,78.324,353.757z"/>
					</g>
					<g>
						<path style="fill:#FFA9DD;" d="M78.324,353.757c-0.226,0-0.428-0.158-0.477-0.388c-0.056-0.264,0.113-0.523,0.377-0.579        c0.68-0.144,68.5-14.345,112.294-9.817c0.268,0.028,0.463,0.268,0.436,0.537c-0.028,0.268-0.26,0.463-0.537,0.436        c-43.645-4.52-111.312,9.657-111.991,9.8C78.392,353.753,78.357,353.757,78.324,353.757z"/>
					</g>
					<g>
						<path style="fill:#FFA9DD;" d="M78.324,367.816c-0.237,0-0.445-0.173-0.482-0.414c-0.041-0.267,0.141-0.516,0.408-0.558        c0.674-0.104,67.833-10.467,112.225-9.814c0.27,0.004,0.486,0.225,0.481,0.495c-0.004,0.269-0.253,0.493-0.495,0.481        c-44.293-0.637-111.388,9.698-112.061,9.803C78.374,367.813,78.349,367.816,78.324,367.816z"/>
					</g>
					<g>
						<path style="fill:#FFA9DD;" d="M78.324,353.757c-0.226,0-0.428-0.158-0.477-0.388c-0.056-0.264,0.113-0.523,0.377-0.579        c0.68-0.144,68.5-14.345,112.294-9.817c0.268,0.028,0.463,0.268,0.436,0.537c-0.028,0.268-0.26,0.463-0.537,0.436        c-43.645-4.52-111.312,9.657-111.991,9.8C78.392,353.753,78.357,353.757,78.324,353.757z"/>
					</g>
				</g>
				<g>
					<g>
						<path style="fill:#FFA9DD;" d="M231.879,193.335c-0.24,0-0.449-0.177-0.483-0.421c-0.038-0.267,0.149-0.514,0.417-0.551        c0.668-0.093,67.204-9.221,110.626-1.962c0.266,0.045,0.446,0.296,0.401,0.562c-0.044,0.266-0.293,0.454-0.562,0.401        c-43.277-7.233-109.665,1.873-110.33,1.966C231.924,193.333,231.902,193.335,231.879,193.335z"/>
					</g>
					<g>
						<path style="fill:#FFA9DD;" d="M231.552,208.048c-0.238,0-0.446-0.174-0.482-0.416c-0.041-0.267,0.143-0.516,0.41-0.556        c0.661-0.101,66.654-9.905,110.08-2.645c0.266,0.045,0.446,0.296,0.401,0.562c-0.044,0.267-0.294,0.451-0.562,0.401        c-43.274-7.236-109.114,2.547-109.774,2.647C231.601,208.046,231.577,208.048,231.552,208.048z"/>
					</g>
					<g>
						<path style="fill:#FFA9DD;" d="M231.225,222.106c-0.237,0-0.445-0.173-0.482-0.415c-0.041-0.267,0.142-0.516,0.409-0.557        c0.656-0.1,66.1-9.933,109.53-2.672c0.266,0.045,0.446,0.296,0.401,0.562c-0.043,0.266-0.296,0.453-0.562,0.401        c-43.271-7.233-108.567,2.575-109.221,2.674C231.275,222.104,231.25,222.106,231.225,222.106z"/>
					</g>
					<g>
						<path style="fill:#FFA9DD;" d="M230.136,235.511c-0.24,0-0.448-0.176-0.483-0.42c-0.038-0.267,0.147-0.514,0.415-0.552        c0.659-0.094,66.31-9.306,109.736-2.045c0.266,0.045,0.446,0.296,0.401,0.562c-0.044,0.266-0.292,0.45-0.562,0.401        c-43.277-7.233-108.781,1.955-109.438,2.048C230.182,235.509,230.159,235.511,230.136,235.511z"/>
					</g>
					<g>
						<path style="fill:#FFA9DD;" d="M231.008,249.461c-0.239,0-0.448-0.176-0.483-0.419c-0.039-0.267,0.146-0.515,0.413-0.554        c0.64-0.093,64.561-9.222,107.987-1.964c0.266,0.045,0.446,0.296,0.401,0.562c-0.044,0.266-0.294,0.453-0.562,0.401        c-43.278-7.233-107.047,1.875-107.686,1.967C231.054,249.459,231.031,249.461,231.008,249.461z"/>
					</g>
					<g>
						<path style="fill:#FFA9DD;" d="M234.059,278.232c-0.247,0-0.459-0.187-0.486-0.438c-0.028-0.268,0.167-0.509,0.435-0.537        c0.583-0.062,58.857-6.093,103.117-2.675c0.269,0.021,0.47,0.256,0.45,0.525c-0.021,0.269-0.269,0.469-0.525,0.45        c-44.169-3.41-102.357,2.612-102.94,2.673C234.093,278.231,234.076,278.232,234.059,278.232z"/>
					</g>
					<g>
						<path style="fill:#FFA9DD;" d="M232.316,264.282c-0.235,0-0.443-0.171-0.482-0.41c-0.044-0.266,0.137-0.518,0.403-0.561        c0.619-0.1,62.381-10.013,105.81-2.755c0.266,0.045,0.446,0.296,0.401,0.562c-0.043,0.266-0.295,0.45-0.562,0.401        c-43.271-7.234-104.874,2.655-105.491,2.756C232.368,264.28,232.342,264.282,232.316,264.282z"/>
					</g>
				</g>
			</g>
			<g style="opacity:0.43;">
				<path style="fill:#FFA9DD;" d="M233.344,299.897l-0.625,62.757c0,0,70.085-1.11,100.296,0.095l5.25-65.388      C338.265,297.362,294.22,291.846,233.344,299.897z"/>
			</g>
		</g>
		<g>
			<g>
				<path style="fill:#512651;" d="M103.557,358.937c3.513-19.958,13.931-38.696,29.18-52.281c0.406-0.362,1.027-0.326,1.389,0.08      c0.362,0.406,0.326,1.027-0.08,1.389c-0.004,0.004-0.012,0.011-0.017,0.015c-15.204,12.943-25.94,31.174-29.87,50.91      c-0.033,0.166-0.194,0.274-0.36,0.241C103.635,359.258,103.528,359.1,103.557,358.937z"/>
			</g>
			<g>
				<g>
					<path style="fill:#7182FF;" d="M104.643,359.623c-6.128,0.213-12.109-2.785-16.292-7.268       c-4.183-4.483-6.698-10.326-8.008-16.316c-1.859-8.501-1.282-17.862,3.345-25.232c2.236,1.076,4.337,1.489,6.573,2.564       c2.532,1.218,5.082,2.446,7.336,4.124c6.195,4.612,9.58,12.296,10.377,19.978C108.771,345.156,106.721,352.184,104.643,359.623       z"/>
				</g>
				<g>
					<path style="fill:#512651;" d="M104.285,361.651c-0.069,0-0.132-0.047-0.149-0.116c-3.961-15.964-8.881-32.749-17.979-47.342       c-0.733-1.176-1.477-2.302-2.518-3.138c-0.066-0.053-0.076-0.149-0.023-0.216c0.054-0.065,0.151-0.076,0.216-0.023       c1.078,0.866,1.838,2.015,2.585,3.215c9.121,14.629,14.05,31.441,18.017,47.43c0.02,0.082-0.03,0.165-0.112,0.186       C104.309,361.649,104.297,361.651,104.285,361.651z"/>
				</g>
			</g>
			<g>
				<path style="fill:#F7607D;" d="M165.634,408.013c-0.639,1.373-1.278,2.723-1.941,4.048      c-6.818,13.518-17.212,25.261-30.422,32.837c-2.604,1.491-5.303,2.794-8.12,3.811c-14.702,5.327-31.156,5.374-45.929,0.284      c-12.524-4.309-19.295-16.004-25.521-26.847c-2.06-3.599-3.977-7.316-5.635-11.127c-3.456-7.765-6.013-15.957-7.268-24.385      c-1.373-9.186-0.639-18.94,3.788-27.108c11.34-20.834,46.924-19.65,59.187-0.118c5.871-6.345,13.992-10.725,15.696-11.553      c6.321-3.078,13.281-4.853,20.313-4.829c13.755,0.024,25.971,7.813,30.683,20.999      C175.53,378.206,171.742,394.471,165.634,408.013z"/>
			</g>
			<g style="opacity:0.25;">
				<path style="fill:#512651;" d="M165.634,408.013c-0.639,1.373-1.278,2.723-1.941,4.048      c-6.818,13.518-17.212,25.261-30.422,32.837c-2.604,1.491-5.303,2.794-8.12,3.811c-14.702,5.327-31.156,5.374-45.929,0.284      c-12.524-4.309-19.295-16.004-25.521-26.847c-2.06-3.599-3.977-7.316-5.635-11.127c7.268,9.778,17.875,16.951,29.475,20.786      c12.761,4.238,26.634,4.64,39.868,2.273C135.709,430.811,153.394,421.744,165.634,408.013z"/>
			</g>
			<g>
				<g>
					<path style="fill:#FFF3EA;" d="M147.49,377.525c2.014,1.512,4.469,2.607,6.982,2.442c3.226-0.212,6.067-2.534,7.506-5.43       c1.584-3.187,1.65-7.008,0.568-10.398c-1.082-3.39-3.241-6.369-5.849-8.791C142.262,341.94,135.54,368.552,147.49,377.525z"/>
				</g>
				<g>
					<path style="fill:#FFF3EA;" d="M151.692,397.633c-0.272,1.94-0.057,4.006,0.961,5.68c1.018,1.673,2.932,2.867,4.883,2.692       c2.124-0.191,3.822-1.876,4.935-3.695c1.124-1.837,1.863-3.961,1.784-6.112s-1.052-4.321-2.807-5.568       C156.204,386.904,152.324,393.122,151.692,397.633z"/>
				</g>
			</g>
		</g>
		<g>
			<g>
				<polygon style="fill:#FFB289;" points="190.824,106.401 197.987,61.38 211.8,102.309 249.659,101.285 220.497,122.261       228.683,156.027 203.614,131.982 184.685,163.19 188.266,126.354 156.547,118.168     "/>
			</g>
			<g>
				<polygon style="fill:#FFB289;" points="224.77,385.176 252.19,348.757 245.219,391.387 279.145,408.22 243.555,413.089       234.967,446.755 224.085,413.767 192.741,432.47 213.162,401.605 188.974,379.512     "/>
			</g>
			<g>
				<polygon style="fill:#FFB289;" points="41.93,246.98 27.455,199.918 60.322,233.031 96.544,214.027 78.248,248.24       102.25,277.086 66.503,265.698 62.996,304.964 48.943,267.543 14.292,274.698     "/>
			</g>
		</g>
	</g>
</g>















</svg>
