<?xml version="1.0" encoding="UTF-8"?>
<!-- Generator: Adobe Illustrator 25.2.1, SVG Export Plug-In . SVG Version: 6.00 Build 0)  -->
<svg xmlns="http://www.w3.org/2000/svg" xmlns:xlink="http://www.w3.org/1999/xlink" version="1.1" id="Capa_1" x="0px" y="0px" viewBox="0 0 512 512" style="enable-background:new 0 0 512 512;" xml:space="preserve" width="512" height="512">
<g>
	<path style="fill:#FFFFFF;" d="M483.327,160.005c11.034-10.276,19.367-23.228,24.101-37.457c3.034-9.123,4.572-18.671,4.572-28.379   c0-49.574-40.332-89.905-89.906-89.905c-36.832,0-69.818,22.921-83.364,56.23c-14.733-5.401-29.931-9.166-45.479-11.268   c2.662-3.851,3.197-8.978,1.041-13.477c-2.225-4.569-6.943-7.52-12.021-7.52c-1.419,0-2.971,0.261-4.334,0.724l-0.058,0.02   l-117.9,6.001c-5.775,0.294-10.639,4.411-11.885,10.056c-0.338,1.538-0.386,3.086-0.173,4.578c-1.908-1.07-4.072-1.644-6.287-1.644   c-1.147,0-2.307,0.152-3.452,0.472l-24.672,6.889L97.006,29.616c-2.411-3.757-6.525-5.904-10.804-5.904   c-1.381,0-2.781,0.223-4.146,0.689c-5.591,1.909-9.156,7.385-8.642,13.269l3.015,34.401L54.733,86.16   c-4.755,3.088-6.921,8.926-5.331,14.367c1.59,5.441,6.56,9.196,12.229,9.237l19.377,0.142l0.068,0.457   C60.555,121.55,45.793,147.658,44.343,178.6c-0.285,2.366-0.315,4.797-0.09,7.176c0.236,11.703,2.365,22.772,6.009,32.674   c-1.638,7.424-2.905,14.948-3.762,22.533c-2.602,1.95-4.443,4.87-4.982,8.259l-5.937,37.313l-26.911,9.237   c-5.362,1.841-8.881,6.979-8.661,12.643c0.222,5.664,4.132,10.512,9.62,11.929l21.025,5.426l-2.511,25.834   c-0.58,5.963,3.041,11.534,8.725,13.424c1.335,0.445,2.701,0.658,4.049,0.658c4.392,0,8.601-2.263,10.978-6.183l8.343-13.755   c6.055,15.382,13.846,30.029,23.255,43.703c-5.243,5.382-13.036,16.665-11.613,35.282c0.769,10.163,3.251,17.959,5.972,23.667   c-3.734,5.629-6.949,13.796-5.955,24.687c1.916,21.262,13.987,30.984,15.357,32.023c2.232,1.69,4.954,2.605,7.754,2.605h361.736   c7.089,0,12.838-5.748,12.838-12.838v-98.521c0-5.786-3.83-10.679-9.091-12.281v-23.502c0.477-0.986,0.945-1.972,1.402-2.954   l21.141-2.276c6.172-0.664,10.984-5.652,11.429-11.843c0.445-6.193-3.604-11.815-9.618-13.358l-11.504-2.948   c3.797-12.978,6.373-26.3,7.702-39.835l4.983,0.307c0.265,0.015,0.529,0.023,0.79,0.023c5.317,0,10.123-3.293,12.012-8.322   c1.983-5.276,0.293-11.229-4.168-14.674l-12.821-9.904c-0.426-8.571-1.352-17.133-2.768-25.566l5.002-13.322   c2.077-5.531,0.111-11.761-4.76-15.102c-2.198-1.507-4.733-2.248-7.257-2.248c-0.154,0-0.309,0.002-0.464,0.008   c-2.635-8.165-5.75-16.17-9.333-23.97c7.468-3.742,14.43-8.525,20.581-14.175C483.007,160.298,483.168,160.153,483.327,160.005z"/>
	<g>
		<g>
			<circle style="fill:#BD6EEB;" cx="262.515" cy="265.736" r="205.672"/>
		</g>
		<g>
			<g>
				<path style="fill:#FFF3EA;" d="M431.86,199.411c0,8.273-6.706,14.979-14.979,14.979c-8.273,0-14.979-6.706-14.979-14.979      c0-8.272,6.706-14.979,14.979-14.979C425.154,184.432,431.86,191.138,431.86,199.411z"/>
			</g>
			<g>
				<path style="fill:#512651;" d="M290.51,93.757c-5.4,0-9.792-4.393-9.792-9.793c0-5.4,4.393-9.792,9.792-9.792      c5.4,0,9.792,4.393,9.792,9.792C300.303,89.364,295.91,93.757,290.51,93.757z M290.51,74.725c-5.095,0-9.239,4.145-9.239,9.239      c0,5.095,4.144,9.239,9.239,9.239c5.095,0,9.239-4.145,9.239-9.239C299.75,78.87,295.605,74.725,290.51,74.725z"/>
			</g>
			<g>
				<path style="fill:#FFF3EA;" d="M88.8,220.169c0,5.255-4.26,9.516-9.516,9.516c-5.256,0-9.516-4.26-9.516-9.516      c0-5.256,4.261-9.516,9.516-9.516C84.54,210.653,88.8,214.914,88.8,220.169z"/>
			</g>
			<g>
				<path style="fill:#512651;" d="M416.882,331.204c-8.412,0-15.256-6.844-15.256-15.255c0-8.412,6.844-15.255,15.256-15.255      c8.412,0,15.255,6.844,15.255,15.255C432.137,324.361,425.294,331.204,416.882,331.204z M416.882,301.247      c-8.107,0-14.703,6.596-14.703,14.702c0,8.107,6.596,14.702,14.703,14.702c8.106,0,14.702-6.596,14.702-14.702      C431.584,307.843,424.988,301.247,416.882,301.247z"/>
			</g>
		</g>
		<g>
			<g>
				<g>
					<path style="fill:#7182FF;" d="M446.562,346.062v54.816H102.497c0,0-6.29-5.991-8.9-20.133       c-0.428-2.225-0.728-4.643-0.92-7.274c-1.412-19.406,9.82-27.408,9.82-27.408H446.562z"/>
				</g>
				<g>
					<rect x="124.342" y="346.062" style="fill:#FFB289;" width="11.254" height="54.816"/>
				</g>
				<g>
					<rect x="146.615" y="346.062" style="fill:#FFB289;" width="11.233" height="54.816"/>
				</g>
				<g>
					<rect x="401.545" y="346.062" style="fill:#FFB289;" width="11.233" height="54.816"/>
				</g>
				<g>
					
						<ellipse transform="matrix(0.7071 -0.7071 0.7071 0.7071 -211.8972 240.3328)" style="fill:#FFB289;" cx="184.159" cy="375.949" rx="16.752" ry="16.752"/>
				</g>
			</g>
			<g style="opacity:0.16;">
				<path style="fill:#512651;" d="M446.562,346.062v34.682H93.596c-0.428-2.225-0.728-4.643-0.92-7.274      c-1.412-19.406,9.82-27.408,9.82-27.408H446.562z"/>
			</g>
		</g>
		<g>
			<g>
				<path style="fill:#FF8C9D;" d="M455.653,396.378v54.816H93.916c0,0-8.863-8.023-10.325-27.408      c-1.485-19.406,10.325-27.408,10.325-27.408H455.653z"/>
			</g>
			<g>
				<ellipse style="fill:#FFF3EA;" cx="129.969" cy="426.267" rx="16.011" ry="16.752"/>
			</g>
			<g>
				<rect x="176.292" y="416.347" style="fill:#FFF3EA;" width="207.501" height="18.209"/>
			</g>
		</g>
		<g>
			<g>
				<path style="fill:#FFB289;" d="M455.653,449.011v45.887H93.916c0,0-8.863-6.716-10.325-22.944      c-1.485-16.245,10.325-22.943,10.325-22.943H455.653z"/>
			</g>
			<g>
				<rect x="176.292" y="465.727" style="fill:#FFF3EA;" width="207.501" height="15.243"/>
			</g>
		</g>
		<g>
			<g>
				<g>
					<g>
						<path style="fill:#512651;" d="M92.553,130.405v221.472l302-31.32V102.456c0-7.601-6.567-13.537-14.129-12.772        l-276.325,27.949C97.543,118.296,92.553,123.816,92.553,130.405z"/>
					</g>
				</g>
				<g>
					<g>
						<polygon style="fill:#FFF3EA;" points="101.68,130.234 101.68,343.911 385.427,315.199 385.427,102.23       "/>
					</g>
					<g>
						<polygon style="fill:#512651;" points="92.553,351.878 232.007,369.359 480.567,342.6 394.553,320.558       "/>
					</g>
					<g>
						<g>
							<path style="fill:#7182FF;" d="M188.92,186.847c-6.591-5.363-16.026-6.909-24.058-4.133         c-8.031,2.775-14.447,9.706-16.806,17.869c-2.36,8.163-0.684,17.345,4.227,24.279c-5.34,8.233-10.071,19.923-8.785,29.651         c1.286,9.729,8.568,19.048,18.286,20.41c2.902,0.407,5.851,0.117,8.767-0.173c2.511,7.932,11.006,13.86,19.085,15.849         c8.079,1.988,16.916-0.014,23.739-4.775c6.823-4.761,11.66-12.108,13.988-20.096c4.253,5.765,9.851,11.336,16.511,13.976         c7.677,3.043,16.702,1.996,23.841-2.154c7.139-4.15,12.399-11.192,15.029-19.02c7.761,9.049,20.834,12.16,32.347,9.066         c11.513-3.094,20.837-13.181,23.018-24.901c-0.14,0.761,8.025-0.77,8.757-0.969c4.504-1.228,8.213-4.863,10.581-8.808         c7.479-12.461,5.091-32.248-6.801-41.307c-2.031-1.547-4.286-2.811-6.69-3.679c-0.567-0.205-7.123-1.832-7.152-1.33         c0.455-7.893-4.298-15.98-10.914-20.307c-6.617-4.326-14.888-5.607-22.756-4.835c-4.2,0.412-8.545,1.478-11.667,4.318         c-6.324-9.905-20.307-13.139-31.359-9.146c-11.052,3.993-19.241,13.745-24.049,24.468c-0.649-3.853-3.915-7.353-7.175-9.508         c-6.857-4.533-15.824-5.715-23.621-3.112C197.464,171.084,191.679,179.104,188.92,186.847z"/>
						</g>
						<g>
							<g>
								<g>
									<path style="fill:#FFF3EA;" d="M198.253,208.335l19.612,31.606c0.819,1.279,1.263,2.258,1.334,2.935           c0.15,1.43-0.867,2.848-3.052,4.241c-1.282,0.817-2.381,1.276-3.295,1.374c-0.638,0.067-1.223-0.055-1.757-0.362           c-0.537-0.302-0.932-0.643-1.195-1.017c-0.262-0.377-0.632-0.938-1.111-1.696l-3.783-6.116l-16.528,1.737l-2.426,6.769           c-0.316,0.84-0.561,1.447-0.744,1.832c-0.181,0.379-0.499,0.784-0.957,1.212c-0.458,0.436-1.005,0.681-1.643,0.748           c-0.915,0.095-2.084-0.121-3.507-0.658c-2.425-0.869-3.71-2.022-3.86-3.452c-0.072-0.678,0.158-1.729,0.693-3.148           l12.605-35.053c0.342-0.963,0.931-1.767,1.769-2.421c0.833-0.649,1.752-1.027,2.746-1.133           C195.3,205.508,197,206.377,198.253,208.335z M194.924,223.165l-3.076,8.588l7.934-0.835L194.924,223.165z"/>
								</g>
							</g>
							<g>
								<g>
									<path style="fill:#FFF3EA;" d="M266.622,219.718c2.638,2.537,4.14,5.539,4.504,8.999c0.339,3.988-0.649,7.412-2.963,10.265           c-2.413,3.07-5.508,4.803-9.287,5.201l-15.694,1.649c-1.035,0.107-1.9,0.1-2.6-0.03c-0.694-0.128-1.237-0.311-1.626-0.551           c-0.385-0.242-0.698-0.628-0.936-1.169c-0.237-0.538-0.387-0.991-0.445-1.372c-0.061-0.376-0.128-0.941-0.208-1.697           l-3.482-33.119c-0.1-0.954-0.144-1.652-0.131-2.098c0.015-0.442,0.147-0.98,0.404-1.611           c0.255-0.632,0.749-1.103,1.479-1.422c0.731-0.321,1.733-0.544,3.007-0.677l15.036-1.581           c3.661-0.385,6.858,0.566,9.592,2.85c2.858,2.32,4.478,5.285,4.858,8.904C268.405,214.883,267.903,217.375,266.622,219.718           z M260.496,229.17c-0.097-0.913-0.284-1.639-0.561-2.172c-0.277-0.536-0.687-0.881-1.225-1.051           c-0.542-0.162-1.013-0.254-1.417-0.272s-1.004,0.015-1.8,0.1c-1.551,0.163-2.716,0.004-3.489-0.481           c-0.774-0.482-1.257-1.616-1.444-3.407c-0.175-1.668,0.075-2.823,0.752-3.457c0.677-0.633,1.873-1.042,3.583-1.22           c0.515-0.056,0.911-0.116,1.186-0.185c0.275-0.069,0.57-0.21,0.89-0.427c0.318-0.214,0.525-0.538,0.622-0.969           c0.095-0.432,0.105-1.008,0.03-1.725c-0.135-1.274-0.548-2.072-1.249-2.401c-0.698-0.328-1.704-0.423-3.017-0.285           l-8.353,0.878l2.377,22.613l9.786-1.028c0.398-0.043,0.734-0.106,1.006-0.193c0.271-0.09,0.646-0.271,1.12-0.542           c0.474-0.268,0.816-0.729,1.031-1.376C260.537,230.926,260.596,230.124,260.496,229.17z"/>
								</g>
							</g>
							<g>
								<g>
									<path style="fill:#FFF3EA;" d="M317.906,226.139l0.331-0.273c1.268-0.938,2.181-1.438,2.738-1.499           c1.234-0.13,2.685,0.849,4.35,2.927c1.021,1.298,1.577,2.386,1.67,3.259c0.082,0.795-0.114,1.499-0.591,2.113           c-0.479,0.616-1.221,1.298-2.231,2.045c-0.33,0.276-0.804,0.647-1.421,1.116c-0.614,0.469-1.901,1.124-3.864,1.977           c-1.961,0.848-3.958,1.377-5.987,1.589c-1.75,0.185-3.616,0.132-5.596-0.164c-1.981-0.296-4.059-0.92-6.231-1.877           c-2.173-0.958-4.163-2.198-5.973-3.715c-1.808-1.519-3.379-3.548-4.711-6.081c-1.332-2.535-2.162-5.376-2.494-8.52           c-0.322-3.06-0.1-5.909,0.669-8.546c0.769-2.633,1.872-4.861,3.31-6.683c1.438-1.819,3.132-3.406,5.082-4.756           c1.949-1.353,3.882-2.381,5.801-3.084c1.916-0.706,3.789-1.156,5.62-1.348c1.87-0.195,3.799-0.102,5.789,0.269           c1.991,0.374,3.514,0.807,4.573,1.298l1.518,0.686c0.764,0.365,1.348,0.67,1.759,0.929c0.409,0.26,0.81,0.632,1.201,1.113           c0.393,0.479,0.621,1.017,0.683,1.62c0.104,0.994-0.199,2.107-0.914,3.35c-1.325,2.313-2.605,3.532-3.836,3.663           c-0.716,0.075-1.776-0.255-3.181-0.994c-1.814-1.174-4.112-1.619-6.898-1.324c-1.234,0.127-2.483,0.491-3.747,1.086           c-1.264,0.596-2.456,1.396-3.577,2.398c-1.124,1.002-1.999,2.342-2.627,4.017c-0.63,1.672-0.837,3.507-0.629,5.497           c0.213,2.026,0.801,3.794,1.763,5.301c0.963,1.511,2.109,2.645,3.436,3.412c1.328,0.767,2.672,1.298,4.029,1.596           c1.36,0.302,2.635,0.388,3.829,0.263c1.233-0.13,2.379-0.41,3.441-0.849c1.06-0.43,1.812-0.831,2.257-1.2L317.906,226.139z           "/>
								</g>
							</g>
						</g>
					</g>
				</g>
			</g>
			<g>
				<path style="fill:#FFF3EA;" d="M92.553,352.016c-0.07,0-0.131-0.053-0.137-0.124c-0.009-0.076,0.047-0.144,0.123-0.152      l302-31.32c0.072-0.012,0.145,0.048,0.151,0.124c0.009,0.076-0.046,0.144-0.123,0.152l-302,31.32      C92.563,352.016,92.557,352.016,92.553,352.016z"/>
			</g>
			<g>
				<g>
					<path style="fill:#FFF3EA;" d="M232.39,365.135l-105.825-13.12c-0.07-0.009-0.122-0.069-0.121-0.139       c0.001-0.071,0.054-0.129,0.124-0.136l264.942-26.212c0.02-0.002,0.032,0,0.048,0.003l64.13,15.842       c0.065,0.016,0.109,0.077,0.105,0.144c-0.004,0.067-0.057,0.121-0.124,0.128L232.39,365.135z M127.831,351.894l104.561,12.966       l222.461-23.407l-63.34-15.647L127.831,351.894z"/>
				</g>
				<g>
					<path style="fill:#FFF3EA;" d="M147.202,354.483c-0.07,0-0.131-0.053-0.137-0.124c-0.009-0.076,0.048-0.144,0.123-0.152       l255.247-25.766c0.087-0.01,0.144,0.048,0.151,0.124c0.009,0.076-0.047,0.144-0.123,0.152l-255.247,25.766       C147.211,354.483,147.207,354.483,147.202,354.483z"/>
				</g>
				<g>
					<path style="fill:#FFF3EA;" d="M167.006,356.668c-0.07,0-0.131-0.053-0.137-0.124c-0.009-0.076,0.046-0.144,0.123-0.152       l245.549-25.402c0.073-0.015,0.145,0.048,0.151,0.124c0.009,0.076-0.046,0.144-0.123,0.152L167.02,356.668       C167.015,356.668,167.01,356.668,167.006,356.668z"/>
				</g>
				<g>
					<path style="fill:#FFF3EA;" d="M188.856,359.399c-0.07,0-0.13-0.052-0.137-0.124c-0.009-0.076,0.046-0.144,0.122-0.152       l235.717-25.128c0.086-0.01,0.144,0.047,0.152,0.123c0.009,0.076-0.046,0.144-0.122,0.152l-235.717,25.128       C188.866,359.399,188.86,359.399,188.856,359.399z"/>
				</g>
				<g>
					<path style="fill:#FFF3EA;" d="M210.434,362.131c-0.07,0-0.13-0.052-0.137-0.123c-0.009-0.076,0.046-0.144,0.122-0.153       l225.884-25.128c0.079-0.004,0.145,0.046,0.152,0.123c0.009,0.076-0.046,0.144-0.122,0.153L210.449,362.13       C210.444,362.131,210.44,362.131,210.434,362.131z"/>
				</g>
			</g>
			<g style="opacity:0.34;">
				<polygon style="fill:#FFF3EA;" points="101.68,130.234 385.697,315.104 101.68,343.911     "/>
			</g>
		</g>
		<g>
			<g>
				<path style="fill:#FFB289;" d="M498.07,94.169c0,8.494-1.369,16.668-3.915,24.327c-4.129,12.41-11.318,23.407-20.668,32.115      c-0.021,0-0.021,0-0.021,0c-13.757,12.816-32.201,20.647-52.462,20.647c-20.133,0-38.448-7.702-52.184-20.347      c-0.021,0-0.021,0-0.021,0c-8.901-8.216-15.876-18.507-20.133-30.082c-3.081-8.301-4.75-17.288-4.75-26.659      c0-42.556,34.511-77.067,77.089-77.067C463.559,17.101,498.07,51.613,498.07,94.169z"/>
			</g>
			<g>
				<g>
					<g>
						<path style="fill:#512651;" d="M389.369,102.673c0,4.073-3.302,7.375-7.375,7.375c-4.073,0-7.375-3.302-7.375-7.375        c0-4.073,3.302-7.375,7.375-7.375C386.067,95.298,389.369,98.6,389.369,102.673z"/>
					</g>
					<g>
						<circle style="fill:#512651;" cx="459.993" cy="102.673" r="7.375"/>
					</g>
				</g>
				<g>
					<path style="fill:#512651;" d="M421.383,127.917c-0.762,0-1.524-0.032-2.285-0.096c-6.603-0.559-15.707-4.552-19.512-10.267       c-0.143-0.214-0.085-0.504,0.13-0.647c0.212-0.141,0.504-0.085,0.646,0.13c3.65,5.48,12.432,9.314,18.815,9.855       c9.687,0.821,19.98-4.125,24.448-11.759c0.131-0.223,0.414-0.297,0.638-0.167c0.223,0.13,0.297,0.416,0.167,0.638       C440.066,123.059,430.821,127.917,421.383,127.917z"/>
				</g>
			</g>
			<g>
				<path style="fill:#FF8C9D;" d="M387.176,130.542c0,10.591-8.066,19.299-18.358,20.369c-0.021,0-0.021,0-0.021,0      c-8.901-8.216-15.876-18.507-20.133-30.082c3.444-6.419,10.249-10.784,18.037-10.784      C377.997,110.044,387.176,119.223,387.176,130.542z"/>
			</g>
			<g>
				<path style="fill:#FF8C9D;" d="M494.154,118.496c-4.129,12.41-11.318,23.407-20.668,32.115c-0.021,0-0.021,0-0.021,0      c-9.35-1.926-16.368-10.184-16.368-20.069c0-11.318,9.179-20.497,20.497-20.497      C484.398,110.044,490.432,113.361,494.154,118.496z"/>
			</g>
		</g>
		<g>
			<g>
				<g>
					<path style="fill:#512651;" d="M195.637,91.222c-0.085,0-0.169-0.039-0.224-0.113c-0.09-0.123-0.064-0.296,0.059-0.387       c1.151-0.845,2.252-1.757,3.271-2.708c0.115-0.104,0.288-0.098,0.391,0.013c0.105,0.112,0.098,0.287-0.013,0.392       c-1.036,0.966-2.153,1.892-3.321,2.749C195.751,91.204,195.694,91.222,195.637,91.222z"/>
				</g>
				<g>
					<path style="fill:#512651;" d="M111.382,349.947h-0.011c-0.553-0.034-1.129-0.078-1.693-0.133c-0.011,0-0.011,0-0.011,0       c-0.144-0.022-0.243-0.133-0.243-0.276c0-0.011,0-0.022,0-0.033c0.011-0.144,0.155-0.254,0.298-0.244l0.011,0.034v-0.034       c0.532,0.055,1.074,0.089,1.671,0.133c0.144,0.011,0.265,0.133,0.254,0.287C111.648,349.825,111.525,349.947,111.382,349.947z        M105.308,349.161c-0.011,0-0.032,0-0.055,0c-1.438-0.288-2.887-0.653-4.326-1.084c-0.121-0.044-0.199-0.144-0.199-0.266       c0-0.033,0-0.055,0.011-0.089c0.044-0.144,0.2-0.221,0.344-0.177c1.438,0.431,2.876,0.785,4.282,1.062       c0.154,0.033,0.243,0.177,0.22,0.332C105.552,349.073,105.441,349.161,105.308,349.161z M96.823,346.617       c-0.044,0-0.077-0.011-0.11-0.022c-1.349-0.542-2.711-1.161-4.06-1.847c-0.011,0-0.011,0-0.011-0.011       c-0.089-0.044-0.145-0.144-0.145-0.244c0-0.033,0.012-0.077,0.034-0.122c0.067-0.121,0.232-0.188,0.365-0.121       c1.305,0.663,2.656,1.272,4.027,1.825c0.145,0.055,0.211,0.221,0.156,0.365C97.033,346.55,96.934,346.617,96.823,346.617z        M88.901,342.612c-0.055,0-0.099-0.011-0.144-0.044c-1.25-0.763-2.5-1.593-3.716-2.478c-0.067-0.044-0.111-0.133-0.111-0.221       c0-0.056,0.012-0.111,0.055-0.166c0.078-0.122,0.266-0.144,0.388-0.055c1.184,0.863,2.422,1.682,3.673,2.456       c0.066,0.033,0.11,0.099,0.121,0.166c0.023,0.077,0,0.155-0.034,0.21C89.079,342.568,88.99,342.612,88.901,342.612z        M81.711,337.402c-0.066,0-0.121-0.022-0.176-0.066c-1.106-0.93-2.213-1.947-3.297-2.998c-0.055-0.056-0.078-0.122-0.089-0.199       c0-0.077,0.034-0.144,0.089-0.199c0.099-0.099,0.287-0.111,0.387,0c1.063,1.04,2.157,2.036,3.264,2.976       c0.122,0.1,0.133,0.277,0.034,0.387C81.866,337.368,81.788,337.402,81.711,337.402z M75.372,331.184       c-0.078,0-0.154-0.034-0.199-0.089c-0.974-1.106-1.925-2.257-2.833-3.44c-0.044-0.056-0.055-0.111-0.055-0.166       c0-0.088,0.034-0.177,0.11-0.221c0.111-0.099,0.299-0.066,0.388,0.044c0.874,1.161,1.825,2.312,2.798,3.418       c0.101,0.111,0.089,0.288-0.022,0.387C75.505,331.162,75.438,331.184,75.372,331.184z M69.995,324.137       c-0.089,0-0.177-0.055-0.232-0.133c-0.41-0.63-0.83-1.294-1.227-1.958c-0.344-0.575-0.698-1.184-1.074-1.848c0,0,0,0,0-0.011       c-0.022-0.034-0.032-0.078-0.032-0.122c0-0.11,0.044-0.199,0.132-0.254c0.133-0.066,0.31-0.022,0.388,0.111       c0.365,0.664,0.718,1.272,1.062,1.847c0.399,0.653,0.796,1.294,1.216,1.936c0.044,0.066,0.056,0.133,0.044,0.21       c-0.022,0.066-0.066,0.133-0.121,0.177C70.106,324.115,70.05,324.137,69.995,324.137z M65.658,316.393       c-0.11,0-0.209-0.055-0.254-0.155c-0.642-1.339-1.25-2.71-1.803-4.071l-0.012-0.011c0-0.033-0.011-0.066-0.011-0.099       c0-0.111,0.067-0.21,0.166-0.254c0.144-0.056,0.298,0.011,0.365,0.144c0,0.011,0,0.011,0,0.011       c0.011,0.011,0.011,0.022,0.011,0.033c0.564,1.361,1.161,2.711,1.792,4.005c0.066,0.144,0,0.31-0.133,0.376       C65.736,316.393,65.703,316.393,65.658,316.393z M62.284,308.184c-0.11,0-0.222-0.078-0.255-0.188       c-0.475-1.35-0.929-2.788-1.349-4.249c-0.011-0.022-0.011-0.055-0.011-0.077c0-0.121,0.089-0.221,0.199-0.266       c0.144-0.033,0.299,0.044,0.343,0.189l0,0c0.011,0.011,0.011,0.022,0.011,0.022c0.41,1.416,0.851,2.832,1.328,4.204       c0.044,0.144-0.033,0.299-0.166,0.354C62.35,308.184,62.318,308.184,62.284,308.184z M59.829,299.655       c-0.133,0-0.244-0.089-0.277-0.21c-0.321-1.394-0.631-2.854-0.918-4.359c0-0.022,0-0.033,0-0.056       c0-0.133,0.089-0.243,0.222-0.265c0.154-0.034,0.298,0.077,0.321,0.221c0.277,1.471,0.586,2.921,0.917,4.326       c0.023,0.077,0,0.155-0.032,0.21c-0.044,0.066-0.099,0.111-0.177,0.133C59.861,299.655,59.85,299.655,59.829,299.655z        M58.18,290.926c-0.133,0-0.255-0.099-0.277-0.232c-0.211-1.46-0.387-2.954-0.542-4.425c0,0,0-0.011,0-0.022       c0-0.144,0.111-0.266,0.255-0.277s0.277,0.099,0.298,0.244c0.156,1.515,0.344,2.998,0.542,4.403       c0.022,0.144-0.078,0.287-0.232,0.309C58.202,290.926,58.191,290.926,58.18,290.926z M57.284,282.097h-0.012       c-0.154,0-0.277-0.111-0.287-0.254c-0.099-1.494-0.166-2.987-0.211-4.447v-0.011c0-0.155,0.122-0.277,0.266-0.277h0.011       c0.145,0,0.266,0.122,0.277,0.265c0.044,1.527,0.122,3.009,0.211,4.425C57.549,281.954,57.439,282.087,57.284,282.097       L57.284,282.097z M56.985,273.225c-0.154,0-0.287-0.122-0.287-0.277c0.011-1.438,0.034-2.943,0.077-4.447       c0-0.155,0.122-0.265,0.276-0.265h0.012c0.144,0,0.265,0.122,0.265,0.277c-0.043,1.571-0.066,3.02-0.066,4.436       C57.262,273.103,57.129,273.225,56.985,273.225z M57.251,264.352c0,0-0.011-0.011-0.023-0.011       c-0.066,0-0.133-0.034-0.188-0.089c-0.044-0.056-0.077-0.122-0.066-0.199c0.089-1.571,0.21-3.02,0.342-4.436       c0.011-0.155,0.144-0.266,0.299-0.254c0.144,0.022,0.254,0.132,0.254,0.277c0,0.011,0,0.022,0,0.033       c-0.144,1.405-0.254,2.899-0.342,4.414C57.517,264.231,57.395,264.352,57.251,264.352z M58.102,255.513       c-0.011,0-0.022,0-0.032-0.011c-0.078-0.011-0.145-0.044-0.189-0.099c-0.043-0.066-0.055-0.133-0.055-0.21       c0.211-1.483,0.454-2.965,0.73-4.392c0.023-0.144,0.177-0.254,0.321-0.222c0.133,0.022,0.232,0.133,0.232,0.266       c0,0.022,0,0.044-0.011,0.055c0,0.011,0,0.011,0,0.022c-0.266,1.372-0.509,2.844-0.72,4.348       C58.357,255.413,58.246,255.513,58.102,255.513z M59.795,246.795c-0.022,0-0.044,0-0.066-0.011       c-0.078-0.011-0.133-0.067-0.177-0.133c-0.034-0.055-0.044-0.133-0.023-0.199c0.388-1.527,0.797-2.932,1.25-4.281       c0.044-0.144,0.211-0.221,0.344-0.177c0.121,0.044,0.199,0.144,0.199,0.266c0,0.022-0.011,0.055-0.011,0.077       c0,0,0,0-0.011,0.011c0,0.011,0,0.022-0.012,0.033c-0.453,1.372-0.862,2.799-1.227,4.204       C60.038,246.707,59.917,246.795,59.795,246.795z M62.594,238.377c-0.033,0-0.067-0.011-0.099-0.022       c-0.078-0.033-0.133-0.077-0.155-0.155c-0.034-0.066-0.022-0.144,0-0.21c0.078-0.177,0.155-0.354,0.232-0.531       c0.521-1.195,1.085-2.378,1.682-3.496c0.066-0.133,0.232-0.189,0.365-0.122c0.089,0.044,0.155,0.144,0.155,0.244       c0,0.044-0.011,0.089-0.034,0.133c-0.597,1.128-1.151,2.29-1.659,3.463c-0.055,0.111-0.099,0.232-0.154,0.343l-0.078,0.188       C62.804,238.31,62.705,238.377,62.594,238.377z M87.829,237.503c-0.011,0-0.022,0-0.022,0       c-1.494-0.133-2.966-0.442-4.404-0.918c-0.11-0.044-0.188-0.144-0.188-0.265c0-0.033,0-0.066,0.011-0.089       c0.044-0.133,0.211-0.221,0.354-0.177c1.394,0.465,2.832,0.763,4.271,0.896c0.155,0.022,0.265,0.155,0.254,0.31       C88.094,237.392,87.972,237.503,87.829,237.503z M92.254,237.381c-0.133,0-0.254-0.099-0.277-0.232c0-0.011,0-0.022,0-0.033       v-0.011c0-0.133,0.099-0.254,0.232-0.277c1.482-0.232,2.877-0.675,4.149-1.294c0.133-0.066,0.299-0.011,0.365,0.132       c0.067,0.133,0.011,0.299-0.122,0.365c-1.327,0.642-2.766,1.096-4.303,1.339C92.287,237.381,92.265,237.381,92.254,237.381z        M79.454,234.77c-0.043,0-0.099-0.022-0.144-0.044c-1.25-0.719-2.477-1.593-3.661-2.567c-0.067-0.055-0.099-0.132-0.099-0.221       c0-0.056,0.022-0.122,0.055-0.166c0.099-0.121,0.287-0.132,0.399-0.044c1.151,0.962,2.367,1.814,3.584,2.522       c0.067,0.033,0.111,0.099,0.133,0.166c0.023,0.078,0.011,0.144-0.022,0.21C79.643,234.715,79.554,234.77,79.454,234.77z        M100.042,233.453c-0.066,0-0.133-0.033-0.188-0.077s-0.089-0.121-0.089-0.188c0-0.077,0.023-0.144,0.078-0.199       c0.973-1.04,1.77-2.257,2.367-3.618c0.055-0.144,0.221-0.21,0.365-0.144c0.067,0.022,0.11,0.077,0.144,0.144       c0.023,0.078,0.023,0.144-0.011,0.21c-0.608,1.416-1.438,2.689-2.467,3.784C100.186,233.42,100.12,233.453,100.042,233.453z        M66.754,230.544c-0.055,0-0.11-0.022-0.155-0.044c-0.067-0.044-0.111-0.111-0.122-0.177c-0.011-0.078,0-0.155,0.044-0.211       c0.83-1.261,1.715-2.478,2.633-3.606c0.089-0.121,0.277-0.133,0.387-0.044c0.067,0.055,0.1,0.133,0.1,0.21       c0,0.066-0.023,0.133-0.056,0.177c-0.929,1.139-1.803,2.334-2.599,3.562C66.931,230.5,66.842,230.544,66.754,230.544z        M72.606,229.161c-0.078,0-0.144-0.033-0.199-0.089c-0.963-1.029-1.925-2.179-2.866-3.429c-0.032-0.044-0.055-0.1-0.055-0.166       c0-0.088,0.044-0.166,0.111-0.221c0.11-0.089,0.298-0.066,0.387,0.055c0.929,1.228,1.881,2.368,2.821,3.385       c0.055,0.055,0.078,0.122,0.078,0.199c0,0.077-0.034,0.144-0.089,0.199C72.739,229.139,72.672,229.161,72.606,229.161z        M103.472,225.455h-0.012c-0.144-0.011-0.265-0.132-0.265-0.277v-0.011c0.011-0.188,0.022-0.354,0.022-0.52       c0-1.317-0.243-2.567-0.72-3.706c-0.022-0.066-0.022-0.144,0-0.211c0.034-0.066,0.089-0.121,0.156-0.154       c0.133-0.056,0.298,0.011,0.365,0.154c0.497,1.206,0.752,2.523,0.752,3.916c0,0.188-0.011,0.365-0.022,0.542       C103.749,225.345,103.627,225.455,103.472,225.455z M72.34,223.663c-0.078,0-0.144-0.033-0.199-0.089       c-0.111-0.1-0.099-0.277,0-0.387c1.062-1.051,2.19-2.047,3.352-2.965c0.121-0.088,0.298-0.067,0.387,0.056       c0.044,0.044,0.055,0.099,0.066,0.166c0,0.089-0.044,0.166-0.11,0.222c-1.14,0.885-2.246,1.87-3.297,2.909       C72.484,223.629,72.418,223.663,72.34,223.663z M67.218,222.114c-0.089,0-0.177-0.044-0.232-0.122       c-0.785-1.228-1.549-2.511-2.279-3.816c0-0.011,0-0.011,0-0.011c-0.023-0.044-0.034-0.089-0.034-0.133       c-0.011-0.099,0.044-0.199,0.133-0.243c0.133-0.078,0.309-0.022,0.387,0.111c0.697,1.272,1.461,2.544,2.257,3.794       c0.089,0.122,0.044,0.299-0.078,0.377C67.329,222.103,67.274,222.114,67.218,222.114z M79.333,218.22       c-0.099,0-0.188-0.055-0.243-0.132c-0.033-0.066-0.044-0.144-0.033-0.21c0.022-0.078,0.066-0.133,0.133-0.177       c1.106-0.653,2.245-1.239,3.408-1.748c0.188-0.089,0.387-0.166,0.586-0.254l0,0c0.144-0.055,0.31,0.011,0.365,0.155       c0.012,0.033,0.023,0.066,0.023,0.099c0,0.111-0.067,0.21-0.166,0.254l0,0c-0.011,0.011-0.022,0.011-0.034,0.011       c-0.188,0.077-0.364,0.155-0.553,0.232c-1.139,0.509-2.268,1.084-3.351,1.726C79.421,218.209,79.377,218.22,79.333,218.22z        M100.175,217.545c-0.066,0-0.122-0.022-0.177-0.066c-1.039-0.907-2.301-1.615-3.75-2.102       c-0.078-0.022-0.133-0.066-0.166-0.133c-0.034-0.066-0.034-0.144-0.011-0.21c0.044-0.144,0.199-0.221,0.342-0.177       c1.516,0.509,2.854,1.25,3.95,2.201c0.055,0.055,0.089,0.122,0.089,0.199c0.011,0.077-0.022,0.144-0.066,0.188       C100.33,217.512,100.264,217.545,100.175,217.545z M87.552,214.989c-0.133,0-0.254-0.099-0.277-0.221       c-0.011-0.078,0-0.144,0.044-0.21c0.044-0.066,0.099-0.1,0.177-0.122c1.294-0.232,2.578-0.354,3.817-0.354       c0.21,0,0.442,0,0.663,0.011c0.144,0,0.266,0.122,0.266,0.277v0.011c0,0.155-0.122,0.265-0.277,0.265h-0.011       c-0.255-0.011-0.454-0.011-0.642-0.011c-1.218,0-2.468,0.122-3.718,0.343C87.586,214.989,87.563,214.989,87.552,214.989z        M62.948,214.348c-0.11,0-0.21-0.066-0.254-0.166c-0.62-1.339-1.206-2.721-1.737-4.104c-0.011-0.033-0.022-0.066-0.022-0.099       c0-0.111,0.077-0.221,0.177-0.254c0.144-0.056,0.309,0.022,0.364,0.155c0.532,1.383,1.106,2.754,1.716,4.071       c0.066,0.133,0.011,0.299-0.133,0.365C63.026,214.337,62.981,214.348,62.948,214.348z M59.762,206.062       c-0.121,0-0.232-0.077-0.265-0.199c-0.432-1.394-0.83-2.843-1.184-4.292c-0.011-0.022-0.011-0.044-0.011-0.066       c0-0.133,0.089-0.243,0.21-0.265c0.156-0.034,0.299,0.055,0.332,0.199c0.354,1.439,0.753,2.876,1.184,4.271       c0.044,0.144-0.034,0.299-0.188,0.343C59.817,206.062,59.784,206.062,59.762,206.062z M57.671,197.433       c-0.133,0-0.255-0.089-0.277-0.221c-0.255-1.438-0.465-2.921-0.642-4.403c0-0.011,0-0.011,0-0.011c0-0.011,0-0.022,0-0.033       c-0.011-0.144,0.099-0.254,0.243-0.277c0.156-0.011,0.289,0.099,0.31,0.244c0.166,1.515,0.387,2.987,0.642,4.381       c0.022,0.144-0.078,0.287-0.232,0.321C57.705,197.433,57.682,197.433,57.671,197.433z M56.643,188.615       c-0.145,0-0.266-0.111-0.266-0.266c-0.089-1.438-0.122-2.876-0.122-4.27v-0.177c0-0.011,0-0.011,0-0.022       c0.011-0.144,0.133-0.254,0.277-0.254s0.266,0.121,0.277,0.265v0.011c0,0.011,0,0.022,0,0.033v0.144       c0,1.416,0.034,2.843,0.111,4.248c0.011,0.077-0.012,0.144-0.067,0.199c-0.044,0.056-0.121,0.089-0.188,0.089       C56.664,188.615,56.654,188.615,56.643,188.615z M56.664,179.743h-0.011c-0.156-0.011-0.266-0.144-0.266-0.299       c0.099-1.494,0.232-2.987,0.399-4.436l0,0c0.022-0.155,0.144-0.254,0.309-0.244c0.145,0.022,0.244,0.144,0.244,0.277v0.033       c-0.177,1.471-0.31,2.954-0.399,4.404C56.93,179.632,56.808,179.743,56.664,179.743z M57.705,170.925c-0.023,0-0.034,0-0.056,0       c-0.144-0.033-0.243-0.177-0.22-0.32c0.254-1.461,0.564-2.932,0.896-4.37c0.034-0.144,0.199-0.232,0.332-0.21       c0.122,0.033,0.211,0.144,0.222,0.265c0,0.022-0.011,0.044-0.011,0.078c-0.332,1.427-0.631,2.887-0.885,4.325       C57.948,170.826,57.838,170.925,57.705,170.925z M59.729,162.286c-0.023,0-0.044,0-0.078-0.011       c-0.144-0.044-0.222-0.199-0.177-0.343c0.399-1.372,0.863-2.799,1.383-4.237c0.044-0.144,0.211-0.21,0.354-0.166       c0.11,0.044,0.177,0.144,0.177,0.255c0,0.034,0,0.066-0.012,0.1c-0.497,1.394-0.963,2.799-1.371,4.204       C59.962,162.208,59.85,162.286,59.729,162.286z M62.749,153.933c-0.044,0-0.078,0-0.11-0.022       c-0.144-0.055-0.211-0.221-0.144-0.365c0.586-1.372,1.216-2.721,1.869-4.038l0.011-0.011c0.067-0.122,0.232-0.177,0.365-0.111       c0.089,0.044,0.156,0.144,0.156,0.255c-0.012,0.044-0.012,0.077-0.034,0.111c-0.663,1.339-1.294,2.688-1.858,4.016       C62.96,153.866,62.859,153.933,62.749,153.933z M66.72,146.001c-0.044,0-0.099-0.011-0.133-0.033       c-0.133-0.078-0.176-0.255-0.099-0.387c0.067-0.121,0.133-0.244,0.211-0.365c0.686-1.161,1.404-2.312,2.135-3.418       c0.078-0.122,0.255-0.155,0.376-0.078c0.078,0.056,0.133,0.133,0.133,0.232c0,0.056-0.022,0.111-0.044,0.155       c-0.73,1.095-1.449,2.246-2.124,3.396c-0.034,0.056-0.066,0.122-0.099,0.177c-0.044,0.067-0.078,0.122-0.11,0.188       C66.908,145.946,66.82,146.001,66.72,146.001z M71.61,138.588c-0.066,0-0.121-0.011-0.165-0.044       c-0.122-0.1-0.144-0.266-0.055-0.387c0.862-1.173,1.791-2.357,2.754-3.507c0.099-0.111,0.277-0.133,0.388-0.034       c0.066,0.056,0.099,0.133,0.099,0.21c0,0.066-0.023,0.122-0.055,0.166c0,0.011,0,0.011,0,0.011       c-0.012,0.011-0.023,0.022-0.023,0.022c-0.929,1.117-1.847,2.279-2.721,3.452C71.777,138.555,71.699,138.588,71.61,138.588z        M77.285,131.774c-0.066,0-0.132-0.033-0.188-0.078c-0.055-0.044-0.089-0.122-0.089-0.188c0-0.077,0.023-0.144,0.078-0.199       c1.007-1.084,2.047-2.158,3.109-3.186c0.11-0.099,0.287-0.099,0.398,0.011c0.044,0.044,0.078,0.122,0.078,0.188       c0,0.077-0.034,0.144-0.089,0.199c-1.051,1.018-2.091,2.09-3.097,3.164C77.441,131.74,77.363,131.774,77.285,131.774z        M83.658,125.589c-0.078,0-0.156-0.033-0.211-0.088c-0.099-0.122-0.089-0.299,0.023-0.399c1.117-0.962,2.268-1.925,3.429-2.843       c0.122-0.099,0.298-0.077,0.387,0.044c0.044,0.055,0.056,0.111,0.056,0.177c0,0.077-0.034,0.155-0.1,0.21       c-1.161,0.918-2.3,1.87-3.396,2.832C83.791,125.567,83.724,125.589,83.658,125.589z M90.617,120.08       c-0.089,0-0.166-0.044-0.221-0.11c-0.044-0.067-0.055-0.133-0.044-0.211c0.011-0.066,0.044-0.132,0.11-0.177       c1.161-0.83,2.401-1.671,3.684-2.5c0.133-0.077,0.299-0.033,0.388,0.089c0.022,0.044,0.044,0.099,0.044,0.155       c-0.012,0.089-0.056,0.177-0.133,0.221c-1.25,0.808-2.478,1.638-3.662,2.489C90.738,120.069,90.683,120.08,90.617,120.08z        M98.085,115.279c-0.1,0-0.188-0.055-0.244-0.133c-0.032-0.066-0.044-0.144-0.022-0.21c0.022-0.077,0.066-0.133,0.133-0.177       c1.271-0.73,2.589-1.449,3.904-2.135c0.133-0.066,0.31-0.011,0.377,0.121c0.011,0.034,0.022,0.078,0.022,0.133       c0,0.099-0.055,0.188-0.144,0.232c-1.328,0.697-2.644,1.416-3.883,2.135C98.184,115.268,98.14,115.279,98.085,115.279z        M105.972,111.197c-0.111,0-0.211-0.066-0.255-0.155c-0.055-0.144,0-0.31,0.144-0.376c1.339-0.608,2.711-1.206,4.083-1.759       c0.144-0.056,0.31,0.011,0.365,0.155c0.011,0.034,0.011,0.066,0.011,0.1c0,0.11-0.055,0.21-0.154,0.254       c-0.012,0-0.012,0-0.012,0c-0.011,0-0.022,0.011-0.032,0.011c-1.328,0.542-2.689,1.129-4.028,1.748       C106.049,111.185,106.017,111.197,105.972,111.197z M114.203,107.856c-0.121,0-0.22-0.066-0.265-0.177       c-0.023-0.077-0.023-0.144,0.011-0.21c0.033-0.066,0.089-0.122,0.154-0.144c1.406-0.498,2.821-0.963,4.237-1.394       c0.133-0.033,0.299,0.044,0.344,0.188c0.011,0.033,0.011,0.055,0.011,0.088c0,0.111-0.078,0.221-0.2,0.255       c-1.405,0.431-2.821,0.896-4.204,1.383C114.259,107.856,114.236,107.856,114.203,107.856z M122.7,105.289       c-0.133,0-0.244-0.089-0.277-0.21c-0.034-0.155,0.055-0.299,0.21-0.343c1.427-0.354,2.888-0.697,4.337-0.996h0.012       c0.155-0.022,0.287,0.078,0.309,0.222c0.011,0.022,0.011,0.033,0.011,0.055c0,0.133-0.088,0.244-0.22,0.277       c-1.45,0.288-2.899,0.631-4.315,0.985C122.744,105.278,122.721,105.289,122.7,105.289z M131.395,103.497       c-0.133,0-0.254-0.099-0.277-0.232c-0.011-0.066,0.012-0.144,0.044-0.199c0.044-0.066,0.111-0.099,0.188-0.111       c1.018-0.166,2.035-0.309,2.998-0.431c0.509-0.056,0.973-0.111,1.416-0.166c0.144-0.011,0.287,0.1,0.299,0.244       c0,0.011,0,0.022,0,0.033c0,0.144-0.1,0.254-0.244,0.277c-0.41,0.044-0.841,0.1-1.404,0.166       c-1.018,0.132-2.025,0.265-2.976,0.42C131.417,103.497,131.406,103.497,131.395,103.497z M140.212,102.501       c-0.145,0-0.266-0.111-0.277-0.266c-0.012-0.066,0.022-0.144,0.066-0.199c0.044-0.056,0.11-0.089,0.188-0.089       c1.372-0.111,2.821-0.199,4.436-0.288c0.156-0.011,0.288,0.1,0.299,0.254v0.022c0,0.144-0.122,0.266-0.266,0.277       c-1.615,0.089-3.064,0.177-4.425,0.288h-0.011H140.212z M149.084,102.003c-0.154,0-0.276-0.122-0.276-0.265       c-0.011-0.155,0.099-0.288,0.255-0.288c0.752-0.033,1.493-0.067,2.234-0.099c0.741-0.022,1.472-0.056,2.213-0.089l0,0       c0.155,0,0.277,0.121,0.287,0.265v0.022c-0.011,0.144-0.121,0.266-0.265,0.266c-0.542,0.022-1.074,0.044-1.604,0.066       C150.987,101.926,150.036,101.959,149.084,102.003L149.084,102.003z M157.968,101.616h-0.011c-0.156,0-0.277-0.111-0.288-0.265       c0-0.144,0.111-0.277,0.266-0.288c1.626-0.089,3.065-0.177,4.425-0.277c0.166,0,0.287,0.111,0.299,0.266v0.011       c0,0.144-0.111,0.266-0.255,0.277C160.922,101.45,159.428,101.539,157.968,101.616L157.968,101.616z M166.808,100.952       c-0.145,0-0.266-0.11-0.277-0.243c-0.012-0.155,0.099-0.288,0.243-0.31c0.42-0.044,0.83-0.088,1.272-0.144       c1.062-0.122,2.113-0.265,3.12-0.42c0.177-0.022,0.299,0.089,0.321,0.244c0,0.011,0,0.022,0,0.033       c0,0.144-0.099,0.254-0.232,0.277c-0.996,0.155-2.046,0.287-3.142,0.42c-0.475,0.056-0.863,0.1-1.273,0.144       C166.83,100.952,166.819,100.952,166.808,100.952z M175.581,99.603c-0.133,0-0.243-0.089-0.266-0.221       c-0.033-0.155,0.055-0.299,0.211-0.332c1.46-0.299,2.899-0.652,4.292-1.04c0.144-0.033,0.309,0.055,0.342,0.199       c0.011,0.022,0.011,0.044,0.011,0.066c0,0.133-0.077,0.244-0.199,0.276c-1.36,0.377-2.821,0.73-4.337,1.051       C175.614,99.603,175.602,99.603,175.581,99.603z M184.132,97.224c-0.121,0-0.22-0.078-0.265-0.188       c-0.056-0.144,0.022-0.299,0.165-0.354c1.406-0.509,2.777-1.062,4.093-1.67c0.133-0.056,0.298,0.011,0.365,0.144       c0.066,0.133,0,0.299-0.133,0.365c-1.294,0.586-2.688,1.161-4.138,1.682C184.188,97.213,184.165,97.224,184.132,97.224z"/>
				</g>
				<g>
					<path style="fill:#512651;" d="M113.833,350.013c-0.822,0-1.646-0.024-2.464-0.071c-0.152-0.009-0.269-0.14-0.26-0.293       c0.009-0.152,0.143-0.26,0.293-0.26c1.412,0.082,2.84,0.092,4.251,0.031c0.145-0.003,0.281,0.111,0.288,0.265       c0.007,0.152-0.111,0.282-0.265,0.288C115.065,350,114.449,350.013,113.833,350.013z"/>
				</g>
			</g>
			<g>
				<g>
					<polygon style="fill:#FFA9DD;" points="159.539,47.794 200.328,69.281 193.044,92.588 211.618,86.033 215.624,116.26        281.177,41.603      "/>
				</g>
				<g>
					<path style="fill:#512651;" d="M211.617,86.31c-0.091,0-0.18-0.045-0.233-0.128c-0.082-0.129-0.044-0.3,0.084-0.382       l67.613-43.187l-78.664,26.93c-0.14,0.051-0.302-0.027-0.351-0.172c-0.05-0.145,0.027-0.302,0.172-0.352l80.85-27.678       c0.131-0.044,0.278,0.015,0.339,0.142c0.06,0.126,0.017,0.278-0.1,0.354l-69.56,44.43       C211.72,86.296,211.668,86.31,211.617,86.31z"/>
				</g>
			</g>
		</g>
		<g>
			<g>
				<polygon style="fill:#FFB289;" points="45.955,296.191 53.103,251.26 66.889,292.107 104.672,291.085 75.569,312.019       83.738,345.718 58.719,321.721 39.828,352.866 43.402,316.104 11.745,307.935     "/>
			</g>
			<g>
				<polygon style="fill:#FFB289;" points="437.007,241.693 470.961,211.409 455.806,251.768 485.719,274.873 449.936,272.682       434.952,303.952 430.749,269.541 396.417,281.719 422.436,255.503 403.081,229.154     "/>
			</g>
			<g>
				<polygon style="fill:#FFB289;" points="88.8,78.637 85.11,36.551 106.737,70.238 140.542,60.801 119.045,86.219 134,114.734       106.054,98.756 96.057,131.072 90.989,97.15 60.631,96.927     "/>
			</g>
		</g>
	</g>
</g>















</svg>
