<?xml version="1.0" encoding="UTF-8"?>
<!-- Generator: Adobe Illustrator 25.2.1, SVG Export Plug-In . SVG Version: 6.00 Build 0)  -->
<svg xmlns="http://www.w3.org/2000/svg" xmlns:xlink="http://www.w3.org/1999/xlink" version="1.1" id="Capa_1" x="0px" y="0px" viewBox="0 0 511.037 511.037" style="enable-background:new 0 0 511.037 511.037;" xml:space="preserve" width="512" height="512">
<g>
	<g>
		<path style="fill:#FFFFFF;" d="M23.531,510.99c-7.579,0-13.724-6.145-13.724-13.724V306.29c0-2.017,0.442-3.972,1.262-5.748    c-1.121-8.591-1.789-17.285-1.995-25.972c-0.123-0.581-0.217-1.162-0.281-1.747c-0.186-1.816-0.119-3.634,0.201-5.578    c0.339-56.473,20.222-110.807,56.231-154.069c-4.372-2.216-7.309-6.657-7.506-11.705c-0.237-6.056,3.525-11.549,9.257-13.517    l28.159-9.666l6.217-39.085c0.992-6.237,6.112-10.993,12.404-11.52c0.389-0.033,0.775-0.049,1.157-0.049    c5.841,0,11.102,3.722,12.996,9.335l6.4,18.956c31.74-17.634,66.949-27.875,103.326-30.042c-0.022-0.527-0.027-1.003-0.027-1.432    c0-0.114,0.002-0.23,0.004-0.344c0.063-2.535,0.643-5.145,1.776-7.975c0.027-0.071,0.056-0.143,0.087-0.214    c1.905-4.546,5.412-8.042,10.137-10.105c2.833-1.24,6.15-2.036,10.128-2.432l29.977-3.149C291.244,0.078,292.729,0,294.155,0    c0.755,0,1.503,0.021,2.242,0.065c1.705,0.077,3.445,0.282,5.178,0.605c6.407,1.168,12.349,3.997,17.591,8.397    c1.273,1.054,2.344,2.033,3.304,3.024c0.523,0.521,1.389,1.412,2.267,2.486c4.803,5.714,7.753,12.422,8.776,19.941    c0.076,0.5,0.143,1.001,0.19,1.501c0.092,0.876,0.139,1.749,0.172,2.625c0.011,0.288,0.018,0.576,0.025,0.862    c8.627,3.071,17.086,6.634,25.28,10.646l10.577-1.896c0.806-0.143,1.615-0.215,2.421-0.215c3.194,0,6.319,1.117,8.808,3.199    c3.116,2.607,4.917,6.462,4.917,10.526v3.661c5.087,3.353,10.07,6.914,14.906,10.649h7.968c7.579,0,13.724,6.145,13.724,13.724    v5.162c1.313,1.287,2.614,2.589,3.896,3.905l1.034-0.002c7.917,0,14.33,6.413,14.33,14.294c0,0.925-0.089,1.829-0.257,2.707    c32.667,40.429,51.663,90.766,53.821,142.706c1.416,2.658,2.627,5.457,3.617,8.359c3.2,10.718,4.962,19.329,1.557,29.243    c-1.394,3.554-3.829,6.665-7.005,8.906c-0.246,0.172-0.494,0.34-0.746,0.503c-3.746,24.741-11.18,48.397-22.197,70.661    c0,0,5.055-0.134,5.178-0.134c5.875,0,11.115,3.746,13.003,9.339c1.926,5.71-0.098,12.009-4.99,15.527l-23.093,16.61l6.409,26.444    c1.436,5.926-1.208,12.089-6.493,15.129c-2.135,1.229-4.496,1.827-6.84,1.827c-3.458,0-6.882-1.305-9.505-3.82l-3.029-2.906    v38.122c0,13.333-7.713,18.607-17.021,18.607h-0.308c-0.029,0.011-0.054,0.031-0.085,0.031    C417.574,511.07,23.531,510.99,23.531,510.99z"/>
	</g>
	<g>
		<g style="opacity:0.33;">
			<circle style="fill:#FF8C9D;" cx="251.873" cy="268.725" r="229.551"/>
		</g>
		<g>
			<path style="fill:#512651;" d="M425.91,236.202c-17.931,0-32.52-14.587-32.52-32.518s14.589-32.519,32.52-32.519     c17.931,0,32.518,14.588,32.518,32.519S443.841,236.202,425.91,236.202z M425.91,171.757c-17.605,0-31.928,14.322-31.928,31.927     c0,17.604,14.323,31.926,31.928,31.926c17.605,0,31.926-14.322,31.926-31.926C457.837,186.079,443.515,171.757,425.91,171.757z"/>
		</g>
		<g>
			<path style="fill:#FF8C9D;" d="M227.344,72.039c0,9.866-7.998,17.863-17.863,17.863c-9.866,0-17.863-7.998-17.863-17.863     c0-9.866,7.998-17.863,17.863-17.863C219.347,54.175,227.344,62.173,227.344,72.039z"/>
		</g>
		<g>
			<path style="fill:#512651;" d="M87.18,328.477c-17.931,0-32.518-14.587-32.518-32.518c0-17.931,14.587-32.518,32.518-32.518     c17.931,0,32.518,14.588,32.518,32.518C119.698,313.889,105.111,328.477,87.18,328.477z M87.18,264.032     c-17.605,0-31.926,14.322-31.926,31.926c0,17.604,14.322,31.926,31.926,31.926c17.605,0,31.926-14.322,31.926-31.926     C119.107,278.354,104.785,264.032,87.18,264.032z"/>
		</g>
		<g>
			<g>
				<path style="fill:#512651;" d="M105.868,493.068c-0.158,0-0.29-0.125-0.296-0.285L91.557,113.756      c-0.006-0.164,0.121-0.301,0.285-0.307c0.146,0.005,0.301,0.123,0.306,0.285l14.015,379.027      c0.006,0.164-0.121,0.301-0.285,0.307C105.875,493.068,105.872,493.068,105.868,493.068z"/>
			</g>
			<g>
				<g>
					<polygon style="fill:#FFB289;" points="80.558,113.939 371.788,61.767 371.788,89.8 408.387,89.8 408.387,126.399      "/>
				</g>
				<g>
					<path style="fill:#7182FF;" d="M427.075,113.161v379.222H93.796L80.558,113.939       C80.558,113.939,428.243,111.993,427.075,113.161z"/>
				</g>
				<g>
					<path style="fill:#512651;" d="M80.558,114.236c-0.158,0-0.289-0.125-0.296-0.283c-0.007-0.159,0.113-0.295,0.272-0.308       l291.23-24.14c0.16-0.006,0.306,0.107,0.319,0.271c0.014,0.163-0.107,0.306-0.27,0.319L87.911,113.627l339.163-0.762       c0.001,0,0.001,0,0.001,0c0.163,0,0.296,0.132,0.296,0.295s-0.132,0.296-0.295,0.297l-346.517,0.779       C80.558,114.236,80.558,114.236,80.558,114.236z"/>
				</g>
				<g>
					<g>
						<rect x="147.334" y="163.97" style="fill:#FFF3EA;" width="220.758" height="96.363"/>
					</g>
					<g>
						<rect x="187.631" y="293.622" style="fill:#FFF3EA;" width="146.004" height="14.601"/>
					</g>
				</g>
			</g>
			<g>
				
					<ellipse transform="matrix(0.1602 -0.9871 0.9871 0.1602 -339.7508 456.9521)" style="fill:#FFA9DD;" cx="98.666" cy="428.141" rx="32.223" ry="32.223"/>
			</g>
			<g>
				<g>
					<g>
						<path style="fill:#FFB289;" d="M23.141,306.291v190.975h400.638L23.141,306.291z M57.864,475.056V349.5L321.28,475.056H57.864        z"/>
					</g>
					<g>
						<g>
							<path style="fill:#512651;" d="M41.206,484.977v12.283h-2.287v-12.283c0-0.618,0.526-1.144,1.144-1.144         C40.703,483.833,41.206,484.359,41.206,484.977z"/>
						</g>
						<g>
							<path style="fill:#512651;" d="M56.394,484.977v12.283h-2.287v-12.283c0-0.618,0.526-1.144,1.144-1.144         C55.891,483.833,56.394,484.359,56.394,484.977z"/>
						</g>
						<g>
							<path style="fill:#512651;" d="M56.394,484.977v12.283h-2.287v-12.283c0-0.618,0.526-1.144,1.144-1.144         C55.891,483.833,56.394,484.359,56.394,484.977z"/>
						</g>
						<g>
							<path style="fill:#512651;" d="M71.583,484.977v12.283h-2.287v-12.283c0-0.618,0.503-1.144,1.144-1.144         C71.079,483.833,71.583,484.359,71.583,484.977z"/>
						</g>
						<g>
							<path style="fill:#512651;" d="M71.583,484.977v12.283h-2.287v-12.283c0-0.618,0.503-1.144,1.144-1.144         C71.079,483.833,71.583,484.359,71.583,484.977z"/>
						</g>
						<g>
							<path style="fill:#512651;" d="M86.771,484.977v12.283h-2.287v-12.283c0-0.618,0.503-1.144,1.144-1.144         C86.245,483.833,86.771,484.359,86.771,484.977z"/>
						</g>
						<g>
							<path style="fill:#512651;" d="M86.771,484.977v12.283h-2.287v-12.283c0-0.618,0.503-1.144,1.144-1.144         C86.245,483.833,86.771,484.359,86.771,484.977z"/>
						</g>
						<g>
							<path style="fill:#512651;" d="M101.959,484.977v12.283h-2.287v-12.283c0-0.618,0.503-1.144,1.144-1.144         C101.433,483.833,101.959,484.359,101.959,484.977z"/>
						</g>
						<g>
							<path style="fill:#512651;" d="M101.959,484.977v12.283h-2.287v-12.283c0-0.618,0.503-1.144,1.144-1.144         C101.433,483.833,101.959,484.359,101.959,484.977z"/>
						</g>
						<g>
							<path style="fill:#512651;" d="M117.148,484.977v12.283h-2.287v-12.283c0-0.618,0.503-1.144,1.144-1.144         C116.622,483.833,117.148,484.359,117.148,484.977z"/>
						</g>
						<g>
							<path style="fill:#512651;" d="M117.148,484.977v12.283h-2.287v-12.283c0-0.618,0.503-1.144,1.144-1.144         C116.622,483.833,117.148,484.359,117.148,484.977z"/>
						</g>
						<g>
							<path style="fill:#512651;" d="M132.313,484.977v12.283h-2.287v-12.283c0-0.618,0.526-1.144,1.144-1.144         C131.81,483.833,132.313,484.359,132.313,484.977z"/>
						</g>
						<g>
							<path style="fill:#512651;" d="M132.313,484.977v12.283h-2.287v-12.283c0-0.618,0.526-1.144,1.144-1.144         C131.81,483.833,132.313,484.359,132.313,484.977z"/>
						</g>
						<g>
							<path style="fill:#512651;" d="M147.501,484.977v12.283h-2.287v-12.283c0-0.618,0.526-1.144,1.144-1.144         C146.998,483.833,147.501,484.359,147.501,484.977z"/>
						</g>
						<g>
							<path style="fill:#512651;" d="M147.501,484.977v12.283h-2.287v-12.283c0-0.618,0.526-1.144,1.144-1.144         C146.998,483.833,147.501,484.359,147.501,484.977z"/>
						</g>
						<g>
							<path style="fill:#512651;" d="M162.69,484.977v12.283h-2.287v-12.283c0-0.618,0.503-1.144,1.144-1.144         S162.69,484.359,162.69,484.977z"/>
						</g>
						<g>
							<path style="fill:#512651;" d="M162.69,484.977v12.283h-2.287v-12.283c0-0.618,0.503-1.144,1.144-1.144         S162.69,484.359,162.69,484.977z"/>
						</g>
						<g>
							<path style="fill:#512651;" d="M177.878,484.977v12.283h-2.287v-12.283c0-0.618,0.503-1.144,1.144-1.144         C177.352,483.833,177.878,484.359,177.878,484.977z"/>
						</g>
						<g>
							<path style="fill:#512651;" d="M177.878,484.977v12.283h-2.287v-12.283c0-0.618,0.503-1.144,1.144-1.144         C177.352,483.833,177.878,484.359,177.878,484.977z"/>
						</g>
						<g>
							<path style="fill:#512651;" d="M193.066,484.977v12.283h-2.287v-12.283c0-0.618,0.503-1.144,1.144-1.144         C192.54,483.833,193.066,484.359,193.066,484.977z"/>
						</g>
						<g>
							<path style="fill:#512651;" d="M193.066,484.977v12.283h-2.287v-12.283c0-0.618,0.503-1.144,1.144-1.144         C192.54,483.833,193.066,484.359,193.066,484.977z"/>
						</g>
						<g>
							<path style="fill:#512651;" d="M208.232,484.977v12.283h-2.287v-12.283c0-0.618,0.526-1.144,1.144-1.144         C207.729,483.833,208.232,484.359,208.232,484.977z"/>
						</g>
						<g>
							<path style="fill:#512651;" d="M223.42,484.977v12.283h-2.287v-12.283c0-0.618,0.526-1.144,1.144-1.144         C222.917,483.833,223.42,484.359,223.42,484.977z"/>
						</g>
						<g>
							<path style="fill:#512651;" d="M238.609,484.977v12.283h-2.287v-12.283c0-0.618,0.503-1.144,1.144-1.144         C238.105,483.833,238.609,484.359,238.609,484.977z"/>
						</g>
						<g>
							<path style="fill:#512651;" d="M253.797,484.977v12.283h-2.287v-12.283c0-0.618,0.503-1.144,1.144-1.144         C253.294,483.833,253.797,484.359,253.797,484.977z"/>
						</g>
						<g>
							<path style="fill:#512651;" d="M268.985,484.977v12.283h-2.287v-12.283c0-0.618,0.503-1.144,1.144-1.144         C268.459,483.833,268.985,484.359,268.985,484.977z"/>
						</g>
						<g>
							<path style="fill:#512651;" d="M284.174,484.977v12.283h-2.287v-12.283c0-0.618,0.503-1.144,1.144-1.144         C283.647,483.833,284.174,484.359,284.174,484.977z"/>
						</g>
						<g>
							<path style="fill:#512651;" d="M299.339,484.977v12.283h-2.287v-12.283c0-0.618,0.526-1.144,1.144-1.144         C298.836,483.833,299.339,484.359,299.339,484.977z"/>
						</g>
						<g>
							<path style="fill:#512651;" d="M314.527,484.977v12.283h-2.287v-12.283c0-0.618,0.526-1.144,1.144-1.144         C314.024,483.833,314.527,484.359,314.527,484.977z"/>
						</g>
						<g>
							<path style="fill:#512651;" d="M329.716,484.977v12.283h-2.287v-12.283c0-0.618,0.503-1.144,1.144-1.144         S329.716,484.359,329.716,484.977z"/>
						</g>
						<g>
							<path style="fill:#512651;" d="M344.904,484.977v12.283h-2.287v-12.283c0-0.618,0.503-1.144,1.144-1.144         C344.401,483.833,344.904,484.359,344.904,484.977z"/>
						</g>
						<g>
							<path style="fill:#512651;" d="M360.092,484.977v12.283h-2.287v-12.283c0-0.618,0.503-1.144,1.144-1.144         C359.566,483.833,360.092,484.359,360.092,484.977z"/>
						</g>
						<g>
							<path style="fill:#512651;" d="M375.281,484.977v12.283h-2.287v-12.283c0-0.618,0.503-1.144,1.144-1.144         C374.755,483.833,375.281,484.359,375.281,484.977z"/>
						</g>
					</g>
				</g>
				<g>
					<polygon style="fill:#FFF3EA;" points="418.839,497.966 23.362,310.205 23.489,309.938 418.966,497.699      "/>
				</g>
			</g>
			<g>
				<g>
					<g>
						<path style="fill:#BD6EEB;" d="M109.718,262.091c-0.137-1.349-1.029-3.294-2.653-5.855l-6.405-10.316l-17.362-27.997        l-12.26-19.741l-3.179-5.123c-2.516-3.912-5.902-5.65-10.202-5.215c-1.99,0.229-3.82,0.984-5.49,2.265        c-1.67,1.304-2.859,2.928-3.545,4.849l-4.827,13.404l-8.28,23.034l-11.208,31.2l-0.869,2.425        c-1.075,2.836-1.533,4.941-1.395,6.29c0.32,2.859,2.882,5.169,7.731,6.908c2.837,1.075,5.169,1.51,6.999,1.327        c1.281-0.137,2.379-0.64,3.294-1.51c0.915-0.846,1.556-1.67,1.898-2.425c0.366-0.755,0.869-1.99,1.487-3.66l3.82-10.659        v-0.069l1.029-2.79l32.184-3.385l0.869-0.091l7.548,12.215c0.961,1.51,1.716,2.653,2.242,3.385        c0.503,0.755,1.304,1.441,2.379,2.036c1.075,0.617,2.242,0.869,3.5,0.732c1.83-0.206,4.026-1.121,6.588-2.745        C107.98,267.787,110.016,264.951,109.718,262.091z M61.203,222.703l9.698,15.485l-15.852,1.67L61.203,222.703z"/>
					</g>
				</g>
				<g>
					<path style="fill:#FFB289;" d="M71.038,198.181c-1.624,7.823-8.555,13.679-16.858,13.679c-3.911,0-7.503-1.304-10.385-3.5       l4.827-13.404c0.686-1.922,1.875-3.546,3.545-4.849c1.67-1.281,3.5-2.036,5.49-2.265c4.3-0.434,7.686,1.304,10.202,5.215       L71.038,198.181z"/>
				</g>
				<g>
					<path style="fill:#FFB289;" d="M42.789,245.439c0,9.516-7.709,17.224-17.224,17.224c-0.435,0-0.846-0.023-1.258-0.068       l11.208-31.2C39.907,234.482,42.789,239.629,42.789,245.439z"/>
				</g>
				<g>
					<path style="fill:#FFB289;" d="M80.485,255.046l-32.184,3.385l-1.029,2.79c0.091-9.424,7.777-17.041,17.224-17.041       C71.77,244.181,77.969,248.665,80.485,255.046z"/>
				</g>
				<g>
					<path style="fill:#FFB289;" d="M100.661,245.919c-1.418,0.389-2.905,0.595-4.438,0.595c-9.516,0-17.224-7.709-17.224-17.224       c0-4.346,1.601-8.349,4.3-11.368L100.661,245.919z"/>
				</g>
				<g>
					<g>
						<g>
							<path style="fill:#FF8C9D;" d="M325.649,70.27c-0.48-4.438-1.876-8.487-4.209-12.169c-0.412-0.641-0.846-1.281-1.304-1.899         c-1.029-1.372-2.173-2.653-3.477-3.911c2.242-4.14,3.294-8.532,3.111-13.13c-0.023-0.595-0.046-1.189-0.114-1.784         c-0.023-0.297-0.069-0.595-0.114-0.892c-0.664-5.032-2.608-9.424-5.764-13.153c-0.48-0.595-1.006-1.144-1.555-1.692         c-0.686-0.709-1.464-1.395-2.264-2.059c-3.408-2.859-7.16-4.666-11.3-5.421c-1.098-0.206-2.219-0.343-3.362-0.389         c-1.464-0.091-2.974-0.046-4.529,0.114l-22.828,2.402l-4.552,0.48l-2.676,0.274c-2.539,0.252-4.529,0.709-5.993,1.35         c-1.464,0.64-2.448,1.578-2.974,2.836c-0.503,1.258-0.778,2.333-0.801,3.225c0,0.366,0,0.801,0.046,1.304         c0.023,0.732,0.091,1.624,0.206,2.676c0,0.069,0.023,0.137,0.023,0.206l1.67,15.897l0.275,2.63l1.693,16.081l0.275,2.631         l1.693,16.126l0.275,2.608l1.075,10.248c0.16,1.509,0.297,2.63,0.412,3.385c0.091,0.618,0.297,1.327,0.641,2.15         c0.069,0.183,0.16,0.389,0.252,0.595c0.252,0.549,0.526,1.029,0.846,1.418c0.297,0.366,0.641,0.686,1.03,0.915         c0.777,0.48,1.853,0.846,3.248,1.098c1.395,0.251,3.134,0.275,5.193,0.069l13.541-1.418l4.552-0.48l13.29-1.395         c7.548-0.801,13.724-4.278,18.551-10.408c3.66-4.506,5.673-9.744,6.016-15.668c0.046-0.938,0.046-1.876,0.023-2.836         C325.74,71.62,325.718,70.956,325.649,70.27z M285.253,81.501l-7.068,0.755l-1.258-12.032l-0.274-2.608l-1.716-16.103         l-0.275-2.631l-1.235-11.826l16.698-1.761c1.258-0.137,2.379-0.16,3.362-0.069c1.052,0.091,1.944,0.297,2.676,0.641         c0.069,0.023,0.114,0.069,0.183,0.114c1.281,0.686,2.059,2.242,2.31,4.689c0.16,1.418,0.137,2.562-0.046,3.431         c-0.206,0.869-0.618,1.509-1.258,1.944c-0.641,0.435-1.235,0.709-1.784,0.846c-0.549,0.137-1.327,0.275-2.356,0.366         c-3.431,0.366-5.81,1.19-7.159,2.448c-1.372,1.258-1.853,3.568-1.51,6.908c0.183,1.853,0.549,3.363,1.052,4.506         c0.343,0.8,0.778,1.418,1.281,1.898c0.16,0.16,0.343,0.297,0.549,0.412c1.555,0.961,3.866,1.281,6.977,0.961         c1.578-0.183,2.791-0.229,3.591-0.206c0.823,0.046,1.761,0.229,2.836,0.549c1.075,0.343,1.898,1.029,2.448,2.104         c0.183,0.366,0.366,0.777,0.503,1.235c0.229,0.709,0.412,1.533,0.526,2.448c0.046,0.206,0.069,0.435,0.091,0.663         c0.206,1.899,0.092,3.5-0.343,4.781c-0.435,1.304-1.098,2.219-2.059,2.768c-0.938,0.526-1.693,0.892-2.242,1.075         c-0.549,0.183-1.212,0.298-2.013,0.389l-7.914,0.824L285.253,81.501z"/>
						</g>
					</g>
					<g>
						<path style="fill:#7182FF;" d="M267.938,16.287l-16.744,12.146c-0.114-1.052-0.183-1.944-0.206-2.676l12.398-8.99        L267.938,16.287z"/>
					</g>
					<g>
						<path style="fill:#7182FF;" d="M298.658,14.16l-45.496,33.007l-0.275-2.63l42.408-30.765        C296.439,13.817,297.56,13.955,298.658,14.16z"/>
					</g>
					<g>
						<path style="fill:#7182FF;" d="M298.658,14.16l-45.496,33.007l-0.275-2.63l42.408-30.765        C296.439,13.817,297.56,13.955,298.658,14.16z"/>
					</g>
					<g>
						<polygon style="fill:#7182FF;" points="274.937,51.514 255.128,65.879 254.854,63.248 274.663,48.883       "/>
					</g>
					<g>
						<path style="fill:#7182FF;" d="M313.777,23.333l-17.43,12.65c-0.069-0.046-0.114-0.092-0.183-0.114        c-0.732-0.343-1.624-0.549-2.676-0.641l18.734-13.587C312.771,22.189,313.297,22.738,313.777,23.333z"/>
					</g>
					<g>
						<polygon style="fill:#7182FF;" points="276.927,70.224 257.096,84.612 256.821,82.005 276.653,67.617       "/>
					</g>
					<g>
						<path style="fill:#7182FF;" d="M319.77,39.161l-32.893,23.858c-0.503-0.48-0.938-1.098-1.281-1.898l33.945-24.636        c0.046,0.297,0.091,0.595,0.114,0.892C319.725,37.972,319.747,38.567,319.77,39.161z"/>
					</g>
					<g>
						<path style="fill:#7182FF;" d="M285.253,81.501l4.575-0.48l-29.508,21.387c-0.32-0.389-0.595-0.869-0.846-1.418        c-0.091-0.206-0.183-0.412-0.252-0.595L285.253,81.501z"/>
					</g>
					<g>
						<path style="fill:#7182FF;" d="M321.44,58.101l-17.133,12.42c-0.114-0.915-0.297-1.738-0.526-2.448l16.355-11.872        C320.594,56.82,321.028,57.461,321.44,58.101z"/>
					</g>
					<g>
						<path style="fill:#7182FF;" d="M325.763,72.283c0.023,0.961,0.023,1.898-0.023,2.836l-37.856,27.472l-4.552,0.48        L325.763,72.283z"/>
					</g>
				</g>
				<g>
					<g>
						<g>
							<path style="fill:#FFA9DD;" d="M485.629,288.743l-0.291-3.514c-0.194-2.472-0.969-5.743-2.326-9.814         c-1.381-4.047-3.199-7.706-5.477-10.977c-0.097-0.121-0.169-0.242-0.267-0.363c-1.769-2.448-3.853-4.798-6.276-7.052         c-0.557-0.533-1.163-1.066-1.769-1.575c-3.271-2.811-7.173-5.331-11.68-7.536c-4.507-2.205-9.208-3.707-14.054-4.483         c-3.296-0.533-6.785-0.582-10.468-0.121c-1.72,0.194-3.489,0.509-5.307,0.921c-2.375,0.533-4.725,1.309-7.027,2.278         c-3.199,1.357-6.349,3.126-9.451,5.307c-5.477,3.853-9.862,8.336-13.182,13.4c-3.296,5.089-5.428,10.08-6.373,15         c-0.921,4.919-1.163,9.886-0.678,14.878c0.17,1.72,0.388,3.368,0.678,4.968c0.533,3.053,1.284,5.888,2.278,8.481         c0.121,0.339,0.266,0.654,0.412,0.994c1.405,3.562,3.077,6.761,5.064,9.523c2.496,3.538,5.525,6.688,9.135,9.426         c2.108,1.624,3.829,2.859,5.21,3.732c0.994,0.654,1.793,1.115,2.423,1.381c1.502,0.655,2.69,1.139,3.538,1.478         c0.824,0.364,1.623,0.703,2.35,0.945c1.406,0.557,2.666,0.897,3.732,1.066c1.624,0.242,3.126-0.121,4.507-1.09         c1.527-1.09,2.957-3.223,4.313-6.47c2.108-5.21,2.423-8.917,0.921-11.05c-0.703-0.969-2.569-2.157-5.598-3.514l-0.848-0.339         l-1.817-0.581c-1.139-0.436-2.665-1.43-4.556-2.932c-1.914-1.527-3.611-3.344-5.137-5.501         c-0.169-0.242-0.363-0.509-0.509-0.775c-1.236-1.89-2.205-4.071-2.956-6.567c-0.412-1.357-0.703-2.738-0.897-4.192         c-0.242-1.575-0.339-3.199-0.315-4.895c0.048-3.247,0.969-6.543,2.763-9.887c1.793-3.344,4.459-6.252,7.972-8.724         c3.465-2.447,7.076-3.974,10.807-4.531c2.472-0.363,4.75-0.388,6.906-0.073c1.115,0.145,2.205,0.412,3.247,0.775         c1.914,0.678,3.732,1.478,5.404,2.423c0.945,0.533,1.842,1.09,2.714,1.72c2.399,1.72,4.386,3.659,5.888,5.792         c3.417,4.846,4.967,9.572,4.677,14.127c0,0.412,0.024,0.824,0.048,1.212c0.169,2.714,0.63,4.604,1.405,5.694         c0.678,0.969,1.817,1.745,3.392,2.302c1.842,0.63,4.289,0.969,7.342,1.018c3.029,0.024,5.404-0.557,7.124-1.769         c1.066-0.751,1.817-1.721,2.302-2.956c0.485-1.212,0.751-2.326,0.8-3.368C485.799,291.917,485.75,290.512,485.629,288.743z"/>
						</g>
					</g>
					<g>
						<path style="fill:#BD6EEB;" d="M433.022,243.308l-4.047,6.446c-1.309,2.108-4.144,2.762-6.252,1.43        c-1.357-0.872-2.133-2.35-2.133-3.853c0-0.266,0.024-0.557,0.097-0.824c2.302-0.969,4.652-1.745,7.027-2.278        C429.532,243.817,431.301,243.502,433.022,243.308z"/>
					</g>
					<g>
						<path style="fill:#BD6EEB;" d="M426.043,328.411c0,0.824-0.218,1.648-0.678,2.399l-3.271,5.21        c-0.727-0.242-1.526-0.582-2.35-0.945c-0.848-0.339-2.036-0.824-3.538-1.478c-0.63-0.267-1.43-0.727-2.423-1.381l3.902-6.228        c1.308-2.108,4.119-2.762,6.252-1.43C425.292,325.406,426.043,326.884,426.043,328.411z"/>
					</g>
					<g>
						<path style="fill:#BD6EEB;" d="M455.121,259.737c0,0.824-0.218,1.648-0.678,2.399l-4.41,7.027        c-1.672-0.945-3.489-1.745-5.404-2.423c-1.042-0.363-2.133-0.63-3.247-0.775c0.097-0.218,0.218-0.436,0.339-0.63l5.04-8.021        c1.309-2.108,4.119-2.762,6.252-1.43C454.37,256.733,455.121,258.211,455.121,259.737z"/>
					</g>
					<g>
						<path style="fill:#BD6EEB;" d="M396.674,304.591c0,0.824-0.242,1.648-0.703,2.399l-1.599,2.544        c-0.146-0.339-0.291-0.654-0.412-0.994c-0.993-2.593-1.745-5.428-2.278-8.481c0.969-0.097,1.987,0.121,2.859,0.679        C395.898,301.586,396.674,303.064,396.674,304.591z"/>
					</g>
					<g>
						<path style="fill:#BD6EEB;" d="M413.604,270.174l-5.04,8.037c-1.326,2.114-4.14,2.759-6.254,1.433l0,0        c-2.114-1.326-2.759-4.14-1.433-6.254l5.04-8.037c1.326-2.114,4.14-2.759,6.254-1.433l0,0        C414.285,265.245,414.93,268.06,413.604,270.174z"/>
					</g>
					<g>
						<path style="fill:#BD6EEB;" d="M417.101,304.833l-1.721,2.762c-1.333,2.108-4.144,2.763-6.276,1.43        c-1.357-0.848-2.108-2.326-2.108-3.853c0-0.824,0.218-1.648,0.679-2.399l5.04-8.045c0.145-0.242,0.315-0.46,0.533-0.654        c0.194,1.454,0.485,2.835,0.897,4.192C414.896,300.762,415.866,302.943,417.101,304.833z"/>
					</g>
					<g>
						<path style="fill:#BD6EEB;" d="M477.269,264.075l-1.89,3.005c-1.333,2.108-4.144,2.762-6.252,1.43        c-1.357-0.872-2.133-2.35-2.133-3.853c0-0.824,0.242-1.648,0.703-2.399l3.296-5.234        C473.416,259.277,475.5,261.628,477.269,264.075z"/>
					</g>
					<g>
						<path style="fill:#BD6EEB;" d="M475.864,287.871c0,0.824-0.242,1.648-0.703,2.399l-5.04,8.045        c-0.485,0.775-1.187,1.357-1.963,1.696c-1.575-0.557-2.714-1.333-3.392-2.302c-0.775-1.091-1.236-2.98-1.405-5.694        l4.119-6.543c1.333-2.133,4.144-2.763,6.252-1.454C475.088,284.89,475.864,286.368,475.864,287.871z"/>
					</g>
				</g>
			</g>
			<g>
				<polygon style="fill:#FFB289;" points="413.613,395.201 420.849,355.723 435.618,390.907 475.336,389.834 444.743,411.839       453.33,447.263 427.031,422.037 407.172,454.777 410.929,416.133 377.652,407.546     "/>
			</g>
			<g>
				<polygon style="fill:#FFA9DD;" points="107.004,88.592 114.518,41.36 129.009,84.298 168.727,83.225 138.134,105.23       146.721,140.654 120.422,115.428 100.563,148.168 104.32,109.524 71.043,100.937     "/>
			</g>
			<g>
				<polygon style="fill:#FF8C9D;" points="191.322,407.127 198.836,359.895 213.328,402.833 253.045,401.76 222.452,423.765       231.04,459.189 204.74,433.963 184.882,466.703 188.639,428.059 155.362,419.472     "/>
			</g>
		</g>
	</g>
</g>















</svg>
