<?xml version="1.0" encoding="UTF-8"?>
<!-- Generator: Adobe Illustrator 25.2.1, SVG Export Plug-In . SVG Version: 6.00 Build 0)  -->
<svg xmlns="http://www.w3.org/2000/svg" xmlns:xlink="http://www.w3.org/1999/xlink" version="1.1" id="Capa_1" x="0px" y="0px" viewBox="0 0 512 512" style="enable-background:new 0 0 512 512;" xml:space="preserve" width="512" height="512">
<g>
	<g>
		<path style="fill:#FFFFFF;" d="M120.132,429.443c-4.529,0-8.702-2.269-11.164-6.068c-2.417-3.728-2.817-8.392-1.07-12.475    l1.01-2.361l-2.528-0.453c-7.594-1.358-14.864-3.288-21.606-5.732l-0.735-0.267l-0.725,0.293c-1.432,0.577-2.943,0.94-4.491,1.078    c-0.465,0.042-0.932,0.062-1.395,0.062c-2.534,0-5.07-0.626-7.334-1.813l-3.475-1.827c-2.982-1.566-5.366-3.993-6.899-7.02    l-0.656-1.297l-1.442,0.196c-0.254,0.035-0.509,0.063-0.765,0.086c-0.476,0.043-0.955,0.064-1.432,0.064    c-2.595,0-5.186-0.641-7.492-1.854l-3.395-1.787c-3.774-1.984-6.619-5.454-7.807-9.522c-1.159-3.963-0.728-8.175,1.214-11.859    c0.353-0.671,1.077-2.047,2.39-3.49c0.139-0.153,0.282-0.302,0.427-0.448l11.866-11.887l-0.452-5.069l-0.124-0.292    c-0.518-1.238-1.023-2.48-1.51-3.724l-0.393-1.005l-38.75-8.902c-1.505-0.352-2.936-0.945-4.246-1.763    c-3.959-2.123-6.554-5.933-7.06-10.258c-0.529-4.52,1.254-8.941,4.766-11.828c1.741-1.62,3.755-2.749,5.92-3.348l0.185-0.052    l10.098-4.978l-0.929-1.841c-4.068-8.06-5.31-15.358-5.517-16.739c-0.649-4.309,0.855-8.667,4.023-11.659l1.117-1.055    l23.065-22.04l0.131-0.616c2.945-13.834,7.589-27.081,13.806-39.375c7.125-14.093,16.383-27.152,27.513-38.816l0.592-0.621    l-0.029-0.859c-0.102-2.94,0.791-5.871,2.512-8.253l24.81-34.343c2.26-3.128,5.761-5.12,9.606-5.463    c0.391-0.035,0.785-0.053,1.181-0.053c0.36,0,0.721,0.015,1.083,0.045c4.616,0.378,8.765,3.185,10.828,7.327l2.364,4.737    l1.783-0.789c18.91-8.37,39.995-13.839,62.67-16.255l1.875-0.199l-0.229-8.653c-0.4-8.477,5.568-15.76,13.88-16.984l4.969-0.73    c0.253-0.037,0.66-0.086,0.919-0.109c0.477-0.043,0.952-0.064,1.425-0.064c2.711,0,5.407,0.698,7.799,2.019l1.354,0.747l1.087-1.1    c2.493-2.527,5.771-4.198,9.228-4.704l4.463-0.657c0.255-0.037,0.694-0.09,0.956-0.113c0.509-0.046,1.015-0.068,1.516-0.068    c7.583,0,13.921,4.983,15.772,12.401l5.413,19.903l1.322,0.194c2.858,0.421,5.719,0.882,8.577,1.383l1.255,0.22l0.749-1.032    c6.687-9.212,16.96-15.069,28.19-16.069c1.163-0.104,2.34-0.157,3.502-0.157c20.045,0,37.143,15.656,38.924,35.641    c0.111,1.251,0.164,2.509,0.155,3.739l-0.008,1.205l1.05,0.589c7.862,4.42,15.472,9.61,22.619,15.426l0.68,0.553l0.869-0.112    c3.443-0.44,6.91-0.817,10.305-1.119c7.24-0.645,14.409-0.972,21.308-0.972c31.939,0,59.953,7.061,81.015,20.419    c3.779,2.395,6.088,6.493,6.178,10.961l0.018,0.842l0.604,0.585c0.511,0.493,0.991,1.039,1.428,1.624    c1.099,1.414,1.887,2.969,2.363,4.65l0.12,0.428l0.289,0.338c0.249,0.293,0.487,0.598,0.71,0.911    c0.137,0.192,0.265,0.379,0.385,0.568l0.259,0.415l0.419,0.253c4.773,2.873,7.358,8.485,6.43,13.964l-33.87,198.893    c-1.022,6.097-6.049,10.736-12.224,11.286c-0.392,0.035-0.795,0.052-1.199,0.052c-0.59,0-1.184-0.036-1.752-0.11l-89.36-10.752    l-0.579,0.323c-12.429,6.926-26.038,11.35-39.357,12.794c-0.639,0.07-1.274,0.132-1.917,0.189    c-3.205,0.285-6.582,0.431-10.035,0.431c-10.805,0-21.387-1.387-31.62-2.728c-6.224-0.817-12.017-1.577-17.821-2.049    c-5.371-0.439-10.948-0.651-17.048-0.651c-12.238,0-24.507,0.859-37.496,1.768c-11.889,0.834-24.175,1.694-36.474,1.819    c-0.857,0.009-1.712,0.013-2.565,0.013c-1.14,0-2.277-0.007-3.407-0.023l-1.082-0.014l-0.62,0.887    c-2.256,3.228-5.8,5.279-9.722,5.628c-0.26,0.024-0.515,0.038-0.773,0.047L120.132,429.443z"/>
	</g>
	<g>
		<g>
			<path style="fill:#BD6EEB;" d="M70.059,212.213c-21.089,41.704-21.503,93.262-1.088,135.3     c6.509,13.403,15.117,25.976,26.491,35.601c23.5,19.886,56.108,25.157,86.891,24.845c30.783-0.312,61.553-5.398,92.235-2.893     c19.654,1.604,39.274,6.316,58.878,4.191c22.53-2.443,43.607-14.073,59.131-30.583c15.523-16.509,25.677-37.652,30.795-59.728     c7.49-32.309,4.298-67.043-9.207-97.335c-13.504-30.292-37.283-55.939-66.597-71.451c-18.692-9.891-39.303-15.659-60.054-19.732     c-63.723-12.507-135.876-6.616-185.502,39.531C89.031,182.047,78.075,196.36,70.059,212.213z"/>
		</g>
		<g>
			<path style="fill:#FFE9DC;" d="M168.349,241.071c-5.544,0-10.862-1.924-15.167-5.524c-4.857-4.062-7.842-9.773-8.403-16.08     c-1.161-13.02,8.488-24.556,21.508-25.716c13.013-1.166,24.557,8.488,25.716,21.509c0.562,6.307-1.365,12.455-5.428,17.312     c-4.063,4.857-9.773,7.842-16.081,8.404C169.777,241.039,169.061,241.071,168.349,241.071z M168.408,194.037     c-0.691,0-1.386,0.03-2.088,0.093c-6.206,0.554-11.825,3.49-15.821,8.269c-3.997,4.779-5.894,10.829-5.341,17.035     c0.553,6.206,3.49,11.825,8.268,15.822c4.779,3.996,10.821,5.892,17.035,5.341c6.206-0.554,11.825-3.49,15.822-8.269     c3.997-4.779,5.894-10.828,5.341-17.035C190.544,203.183,180.341,194.037,168.408,194.037z"/>
		</g>
		<g>
			<path style="fill:#FFE9DC;" d="M311.609,406.027c-12.129,0-22.498-9.295-23.595-21.603c-1.16-13.02,8.489-24.557,21.509-25.717     c12.998-1.169,24.556,8.488,25.716,21.509c0.562,6.307-1.366,12.455-5.428,17.313c-4.062,4.857-9.773,7.842-16.08,8.403     C313.019,405.996,312.31,406.027,311.609,406.027z M311.643,358.994c-0.69,0-1.386,0.03-2.087,0.093     c-12.81,1.142-22.304,12.493-21.163,25.305c0.553,6.206,3.49,11.825,8.269,15.821c4.779,3.997,10.829,5.895,17.035,5.341     c6.205-0.553,11.825-3.49,15.822-8.269c3.997-4.779,5.894-10.829,5.341-17.035C333.781,368.14,323.578,358.994,311.643,358.994z"/>
		</g>
		<g>
			<g>
				<polygon style="fill:#7182FF;" points="191.718,153.529 192.475,186.941 192.44,187.042 64.674,306.001 30.319,277.915       158.654,155.269     "/>
			</g>
			<g>
				<polygon style="fill:#FFB289;" points="210.091,137.973 202.591,158.828 192.475,186.941 191.033,175.346 172.669,174.246       170.791,157.69 158.654,155.269 187.987,145.392     "/>
			</g>
			<g>
				<path style="fill:#512651;" d="M210.091,137.973l-7.5,20.855c-0.493-0.121-0.993-0.271-1.464-0.428      c-5.083-1.816-10.74-7.212-13.141-13.008L210.091,137.973z"/>
			</g>
			<g>
				<path style="fill:#512651;" d="M40.188,280.068c-0.059,0-0.119-0.024-0.162-0.07c-0.084-0.09-0.079-0.23,0.01-0.314      l130.603-122.156c0.091-0.084,0.232-0.078,0.314,0.01c0.084,0.09,0.079,0.23-0.01,0.314L40.34,280.008      C40.296,280.049,40.242,280.068,40.188,280.068z"/>
			</g>
			<g>
				<path style="fill:#512651;" d="M52.114,287.777c-0.059,0-0.118-0.023-0.162-0.07c-0.084-0.089-0.08-0.23,0.01-0.314      l120.555-113.31c0.09-0.084,0.231-0.08,0.314,0.01c0.084,0.089,0.08,0.23-0.01,0.314L52.266,287.717      C52.223,287.758,52.169,287.777,52.114,287.777z"/>
			</g>
			<g>
				<path style="fill:#512651;" d="M60.786,298.15c-0.059,0-0.118-0.023-0.162-0.07c-0.084-0.09-0.08-0.23,0.01-0.314      l129.88-121.965c0.09-0.084,0.23-0.08,0.314,0.01c0.084,0.09,0.08,0.23-0.01,0.314L60.938,298.09      C60.896,298.131,60.841,298.15,60.786,298.15z"/>
			</g>
			<g>
				<g>
					<path style="fill:#FFB289;" d="M64.674,306.001l-0.202,0.174c-30.052,7.658-35.271-27.205-35.271-27.205l1.117-1.055       c7.24,0.126,14.197,3.374,19.735,8.062c5.661,4.81,9.895,11.032,13.415,17.589C63.885,304.353,64.309,305.17,64.674,306.001z"/>
				</g>
				<g>
					<path style="fill:#512651;" d="M53.661,301.147l-0.1,0.087c-14.938,3.807-17.532-13.522-17.532-13.522l0.555-0.524       c3.599,0.063,7.057,1.677,9.809,4.007c2.814,2.391,4.919,5.483,6.668,8.743C53.269,300.328,53.48,300.734,53.661,301.147z"/>
				</g>
			</g>
		</g>
		<g>
			<g>
				<g>
					<polygon style="fill:#FFB289;" points="484.136,193.817 491.819,196.63 490.462,205.932 499.803,207.723 465.936,406.606        318.445,388.926 167.946,389.003 216.355,171.773 348.058,182.771      "/>
				</g>
				<g>
					<path style="fill:#FFE9DC;" d="M165.949,381.311l46.742-211.398c0,0,72.403-31.372,133.524,6.901       c0,0,85.089-26.382,140.696,8.885L456.69,396.063l-140.657-8.451L165.949,381.311z"/>
				</g>
				<g>
					<path style="fill:#512651;" d="M459.443,400.162c-0.005,0-0.011-0.001-0.016-0.001l-140.434-12.078l-150.648-4.171       c-0.105-0.003-0.188-0.091-0.185-0.196c0.003-0.106,0.089-0.194,0.196-0.185l150.659,4.172l140.268,12.064l31.915-203.127       c0.016-0.103,0.111-0.173,0.218-0.158c0.104,0.017,0.175,0.114,0.159,0.218l-31.943,203.303       C459.616,400.094,459.536,400.162,459.443,400.162z"/>
				</g>
				<g>
					<path style="fill:#512651;" d="M461.714,403.566c-0.007,0-0.014-0.001-0.021-0.001l-142.705-15.483l-152.528-0.833       c-0.105-0.001-0.19-0.087-0.189-0.192c0.001-0.105,0.086-0.19,0.191-0.19c0.001,0,0.001,0,0.001,0l152.547,0.834       l142.545,15.464l32.583-196.844c0.017-0.104,0.117-0.178,0.219-0.157c0.104,0.017,0.174,0.115,0.157,0.219l-32.612,197.022       C461.887,403.5,461.806,403.566,461.714,403.566z"/>
				</g>
				<g>
					<path style="fill:#512651;" d="M465.936,406.797c-0.007,0-0.015-0.001-0.023-0.002l-147.165-17.708l-152.971,1.503       c-0.001,0-0.001,0-0.002,0c-0.105,0-0.189-0.084-0.191-0.189c-0.001-0.105,0.084-0.191,0.189-0.192l152.995-1.501       l147.01,17.688l33.837-198.705c0.017-0.103,0.112-0.178,0.22-0.156c0.103,0.018,0.173,0.116,0.156,0.22l-33.867,198.883       C466.108,406.731,466.028,406.797,465.936,406.797z"/>
				</g>
				<g>
					<path style="fill:#512651;" d="M318.713,388.627c-0.017,0-0.033-0.001-0.05-0.003c-0.208-0.027-0.356-0.218-0.328-0.427       l27.503-211.432c0.027-0.209,0.222-0.359,0.427-0.329c0.208,0.027,0.356,0.218,0.328,0.427L319.09,388.296       C319.065,388.488,318.901,388.627,318.713,388.627z"/>
				</g>
			</g>
			<g>
				<g>
					<path style="fill:#512651;" d="M468.671,203.441c-0.033,0-0.068-0.005-0.102-0.014c-46.782-12.43-109.729-5.199-110.359-5.123       c-0.211,0.022-0.415-0.13-0.441-0.348c-0.026-0.217,0.13-0.415,0.348-0.441c0.631-0.075,63.725-7.326,110.656,5.145       c0.212,0.057,0.338,0.274,0.281,0.486C469.007,203.324,468.846,203.441,468.671,203.441z"/>
				</g>
				<g>
					<path style="fill:#512651;" d="M466.519,216.093c-0.033,0-0.068-0.005-0.102-0.014c-46.782-12.43-109.728-5.199-110.359-5.124       c-0.215,0.027-0.415-0.13-0.441-0.348c-0.026-0.217,0.13-0.415,0.348-0.441c0.632-0.076,63.725-7.324,110.656,5.145       c0.212,0.056,0.338,0.274,0.282,0.486C466.856,215.976,466.695,216.093,466.519,216.093z"/>
				</g>
				<g>
					<path style="fill:#512651;" d="M464.838,230.343c-0.033,0-0.068-0.005-0.102-0.014c-46.782-12.43-109.728-5.199-110.359-5.124       c-0.211,0.021-0.415-0.13-0.441-0.348c-0.026-0.217,0.13-0.415,0.348-0.441c0.632-0.076,63.725-7.324,110.656,5.145       c0.211,0.056,0.338,0.274,0.282,0.486C465.175,230.226,465.014,230.343,464.838,230.343z"/>
				</g>
				<g>
					<path style="fill:#512651;" d="M462.351,245.341c-0.033,0-0.068-0.005-0.102-0.014c-46.782-12.431-109.728-5.198-110.359-5.124       c-0.216,0.024-0.415-0.131-0.441-0.348c-0.025-0.217,0.13-0.415,0.348-0.441c0.632-0.075,63.725-7.325,110.656,5.145       c0.212,0.056,0.338,0.274,0.282,0.486C462.688,245.223,462.527,245.341,462.351,245.341z"/>
				</g>
				<g>
					<path style="fill:#512651;" d="M461.169,261.513c-0.033,0-0.068-0.005-0.102-0.014c-46.782-12.431-109.729-5.199-110.359-5.124       c-0.21,0.029-0.415-0.13-0.441-0.348c-0.026-0.217,0.13-0.415,0.348-0.441c0.632-0.075,63.725-7.325,110.656,5.145       c0.212,0.056,0.338,0.274,0.282,0.486C461.506,261.395,461.345,261.513,461.169,261.513z"/>
				</g>
				<g>
					<path style="fill:#512651;" d="M458.773,278.777c-0.033,0-0.068-0.005-0.102-0.014c-46.782-12.431-109.729-5.198-110.359-5.124       c-0.215,0.027-0.415-0.13-0.441-0.348c-0.026-0.217,0.13-0.415,0.348-0.441c0.632-0.075,63.726-7.325,110.656,5.145       c0.211,0.056,0.338,0.274,0.281,0.486C459.11,278.66,458.949,278.777,458.773,278.777z"/>
				</g>
				<g>
					<path style="fill:#512651;" d="M456.08,296.396c-0.033,0-0.068-0.005-0.102-0.014c-46.782-12.43-109.729-5.2-110.359-5.124       c-0.211,0.024-0.415-0.131-0.441-0.348c-0.025-0.217,0.13-0.415,0.348-0.441c0.632-0.075,63.725-7.325,110.656,5.145       c0.212,0.056,0.338,0.274,0.281,0.486C456.417,296.278,456.256,296.396,456.08,296.396z"/>
				</g>
			</g>
			<g>
				<g>
					<path style="fill:#512651;" d="M327.851,198.065c-0.033,0-0.068-0.005-0.102-0.014c-46.782-12.431-109.729-5.199-110.359-5.124       c-0.213,0.029-0.415-0.13-0.441-0.348c-0.026-0.217,0.13-0.415,0.348-0.441c0.631-0.075,63.725-7.324,110.656,5.146       c0.212,0.056,0.338,0.274,0.281,0.486C328.187,197.947,328.026,198.065,327.851,198.065z"/>
				</g>
				<g>
					<path style="fill:#512651;" d="M325.699,210.717c-0.033,0-0.068-0.005-0.102-0.014c-46.782-12.431-109.729-5.198-110.359-5.124       c-0.216,0.025-0.415-0.131-0.441-0.348c-0.025-0.217,0.13-0.415,0.348-0.441c0.632-0.076,63.724-7.325,110.656,5.145       c0.212,0.056,0.338,0.274,0.282,0.486C326.036,210.599,325.875,210.717,325.699,210.717z"/>
				</g>
				<g>
					<path style="fill:#512651;" d="M324.018,224.967c-0.033,0-0.068-0.005-0.102-0.014c-46.782-12.431-109.728-5.199-110.359-5.124       c-0.212,0.028-0.415-0.13-0.441-0.348c-0.025-0.217,0.13-0.415,0.348-0.441c0.632-0.075,63.725-7.325,110.656,5.145       c0.211,0.056,0.338,0.274,0.281,0.486C324.355,224.849,324.194,224.967,324.018,224.967z"/>
				</g>
				<g>
					<path style="fill:#512651;" d="M321.531,239.964c-0.033,0-0.068-0.005-0.102-0.014c-46.782-12.43-109.728-5.198-110.359-5.124       c-0.217,0.023-0.415-0.131-0.441-0.348c-0.026-0.217,0.13-0.415,0.348-0.441c0.632-0.076,63.725-7.325,110.656,5.145       c0.212,0.056,0.338,0.274,0.281,0.486C321.868,239.847,321.707,239.964,321.531,239.964z"/>
				</g>
				<g>
					<path style="fill:#512651;" d="M320.349,256.137c-0.033,0-0.068-0.005-0.102-0.014c-46.782-12.431-109.729-5.198-110.359-5.123       c-0.211,0.027-0.415-0.13-0.441-0.348c-0.025-0.217,0.13-0.415,0.348-0.441c0.632-0.075,63.725-7.325,110.656,5.145       c0.212,0.057,0.338,0.274,0.282,0.486C320.686,256.019,320.525,256.137,320.349,256.137z"/>
				</g>
				<g>
					<path style="fill:#512651;" d="M317.952,273.401c-0.033,0-0.068-0.005-0.102-0.014c-46.782-12.43-109.729-5.199-110.359-5.124       c-0.216,0.025-0.415-0.131-0.441-0.348c-0.026-0.217,0.13-0.415,0.348-0.441c0.632-0.075,63.725-7.325,110.656,5.145       c0.212,0.056,0.338,0.274,0.282,0.486C318.289,273.283,318.128,273.401,317.952,273.401z"/>
				</g>
				<g>
					<path style="fill:#512651;" d="M315.26,291.019c-0.033,0-0.068-0.005-0.102-0.014c-46.782-12.431-109.729-5.199-110.359-5.124       c-0.213,0.022-0.415-0.13-0.441-0.348c-0.025-0.217,0.13-0.415,0.348-0.441c0.632-0.075,63.725-7.325,110.656,5.145       c0.212,0.056,0.338,0.274,0.281,0.486C315.597,290.902,315.436,291.019,315.26,291.019z"/>
				</g>
				<g>
					<path style="fill:#512651;" d="M311.909,306.359c-0.032,0-0.065-0.004-0.097-0.013c-46.94-11.836-109.786-3.806-110.415-3.724       c-0.221,0.03-0.417-0.125-0.445-0.342s0.125-0.417,0.342-0.445c0.631-0.081,63.629-8.131,110.712,3.742       c0.213,0.053,0.342,0.269,0.288,0.482C312.249,306.239,312.086,306.359,311.909,306.359z"/>
				</g>
				<g>
					<path style="fill:#512651;" d="M307.228,322.515c-0.032,0-0.065-0.004-0.097-0.013c-46.941-11.836-109.786-3.807-110.415-3.724       c-0.217,0.029-0.417-0.125-0.445-0.342c-0.029-0.217,0.125-0.417,0.342-0.445c0.631-0.083,63.629-8.131,110.712,3.742       c0.213,0.053,0.342,0.269,0.288,0.482C307.567,322.395,307.405,322.515,307.228,322.515z"/>
				</g>
				<g>
					<path style="fill:#512651;" d="M304.157,342.026c-0.032,0-0.065-0.004-0.097-0.013c-46.936-11.836-109.786-3.807-110.415-3.724       c-0.22,0.032-0.416-0.125-0.445-0.342c-0.028-0.217,0.125-0.417,0.342-0.445c0.631-0.083,63.628-8.133,110.712,3.742       c0.213,0.053,0.342,0.269,0.288,0.482C304.497,341.906,304.335,342.026,304.157,342.026z"/>
				</g>
			</g>
			<g style="opacity:0.3;">
				<path style="fill:#FFA9DD;" d="M339.398,362.795l6.906-58.654c0,0,75.589-5.424,106.382,5.276l-9.775,59.565L339.398,362.795z"/>
			</g>
		</g>
		<g>
			<g>
				<g>
					<polygon style="fill:#512651;" points="14.737,318.191 163.404,352.49 306.196,262.503 156.354,248.367      "/>
				</g>
				<g>
					<path style="fill:#512651;" d="M64.821,321.653l5.079,56.999c0,0,31.083,26.451,96.489,15.67       c65.406-10.781,98.571-49.892,98.571-49.892l-5.824-65.352L64.821,321.653z"/>
				</g>
				<g>
					<path style="fill:#FFA9DD;" d="M166.642,353.128c-0.032,0-0.065-0.004-0.097-0.011L15.869,318.503       c-0.232-0.053-0.377-0.285-0.324-0.517c0.053-0.232,0.287-0.378,0.517-0.324l150.497,34.573l139.402-90.094       c0.2-0.13,0.467-0.071,0.596,0.128c0.13,0.2,0.072,0.467-0.128,0.596l-139.554,90.194       C166.806,353.104,166.724,353.128,166.642,353.128z"/>
				</g>
			</g>
			<g>
				<g>
					<path style="fill:#FFB289;" d="M299.575,344.254c-0.188,0-0.36-0.124-0.415-0.312c-7.26-25.21-21.193-43.621-41.413-54.722       c-41.382-22.719-95.761-7.115-96.307-6.955c-0.226,0.067-0.469-0.063-0.536-0.292c-0.067-0.229,0.064-0.469,0.292-0.536       c0.546-0.161,55.272-15.865,96.965,7.026c20.429,11.215,34.501,29.8,41.827,55.24c0.066,0.229-0.066,0.468-0.295,0.534       C299.655,344.249,299.614,344.254,299.575,344.254z"/>
				</g>
				<g>
					<g>
						<path style="fill:#FFB289;" d="M306.57,371.639l-4.422-15.668l2.52,15.866l-9.737,1.1l-2.055-16.199l0.152,16.397        l-4.407,0.509c0,0-4.344-36.014,6.417-40.319c10.761-4.305,17.12,37.668,17.12,37.668L306.57,371.639z"/>
					</g>
				</g>
			</g>
		</g>
		<g>
			<g>
				<polygon style="fill:#FFA9DD;" points="124.37,131.106 145.529,173.557 99.559,165.451     "/>
			</g>
			<g>
				
					<ellipse transform="matrix(0.9919 -0.1269 0.1269 0.9919 -14.9792 41.3717)" style="fill:#7182FF;" cx="317.089" cy="138.204" rx="25.802" ry="25.802"/>
			</g>
			<g>
				<polygon style="fill:#FF8C9D;" points="121.56,415.826 142.257,373.148 163.908,414.502     "/>
			</g>
		</g>
		<g>
			<g>
				<g>
					<path style="fill:#FFB289;" d="M81.418,387.718c-0.062,0.246-0.178,0.467-0.35,0.796c-0.663,1.26-2.111,1.756-3.371,1.096       l-3.454-1.817c-1.205-0.633-1.788-1.92-1.482-3.297l1.51-7.531l-9.81-5.158l-5.401,5.485c-0.962,1.031-2.353,1.281-3.503,0.676       l-3.397-1.787c-1.261-0.663-1.675-2.141-1.012-3.399c0.173-0.329,0.288-0.55,0.46-0.738l28.386-28.446       c0.934-0.976,2.323-1.225,3.529-0.591l3.726,1.958c1.205,0.633,1.788,1.92,1.513,3.244L81.418,387.718z M78.155,357.602       l-7.215,7.468l5.152,2.709L78.155,357.602z"/>
				</g>
			</g>
			<g>
				<g>
					<path style="fill:#FFB289;" d="M398.617,311.253c1.347-0.198,2.491,0.759,2.689,2.108l0.63,4.287       c0.198,1.347-0.619,2.596-1.968,2.794l-13.107,1.929l1.216,8.268l9.495-1.398c1.287-0.189,2.421,0.707,2.618,2.054l0.604,4.105       c0.198,1.347-0.629,2.534-1.915,2.723l-9.495,1.398l2.155,14.639c0.206,1.41-0.619,2.595-1.907,2.785l-4.35,0.64       c-1.285,0.19-2.48-0.698-2.686-2.109l-5.481-37.242c-0.29-1.961,0.919-3.952,2.94-4.25L398.617,311.253z"/>
				</g>
			</g>
			<g>
				<g>
					<path style="fill:#FFB289;" d="M225.432,124.062l0.975,23.724c-0.04,1.57-1.082,2.811-2.481,3.018l-4.391,0.646       c-0.799,0.117-1.504-0.051-2.049-0.515c-0.551-0.53-0.927-1.223-0.988-2.098l-1.11-41.727       c-0.129-1.816,1.014-3.276,2.743-3.531l5.391-0.792c1.399-0.206,2.734,0.548,3.341,1.888l13.044,27.185l4.582-29.849       c0.206-1.391,1.33-2.507,2.729-2.713l4.859-0.715c1.797-0.265,3.315,0.804,3.713,2.581l10.959,40.276       c0.196,0.855,0.036,1.627-0.343,2.293c-0.385,0.601-1.012,0.966-1.811,1.084l-4.592,0.675       c-1.466,0.216-2.894-0.729-3.253-2.242l-5.968-22.989l-3.842,25.183c-0.195,1.455-1.257,2.564-2.653,2.77l-4.528,0.665       c-1.396,0.206-2.731-0.55-3.327-1.823L225.432,124.062z"/>
				</g>
			</g>
		</g>
	</g>
</g>















</svg>
