<?xml version="1.0" encoding="UTF-8"?>
<!-- Generator: Adobe Illustrator 25.2.1, SVG Export Plug-In . SVG Version: 6.00 Build 0)  -->
<svg xmlns="http://www.w3.org/2000/svg" xmlns:xlink="http://www.w3.org/1999/xlink" version="1.1" id="Capa_1" x="0px" y="0px" viewBox="0 0 512 512" style="enable-background:new 0 0 512 512;" xml:space="preserve" width="512" height="512">
<g>
	<g>
		<path style="fill:#FFFFFF;" d="M311.688,512c-7.276,0-12.4-0.843-12.96-0.938c-4.362-0.748-8.082-3.583-9.96-7.591l-1.052-2.245    l-23.456-49.272h-73.966c-1.274,0.964-2.725,1.708-4.296,2.177l-74.835,22.323c-1.272,0.379-2.573,0.564-3.863,0.564    c-3.607,0-7.127-1.444-9.711-4.112c-3.511-3.621-4.715-8.892-3.123-13.677l2.419-7.274H49.202    c-7.094,0-12.957-5.364-13.752-12.246c-0.618-1.572-0.96-3.282-0.96-5.069c0-0.097,0-0.191,0.002-0.289    c-0.674-1.001-1.215-2.1-1.604-3.271c-6.438-6.048-10.234-14.573-10.234-23.595c0-8.69,3.527-16.926,9.55-22.932v-2.109    c-6.023-6.002-9.55-14.238-9.55-22.937c0-8.688,3.528-16.924,9.55-22.932v-6.231c-6.023-6.002-9.55-14.238-9.55-22.937    c0-8.688,3.528-16.924,9.55-22.933v-6.233c-6.023-6-9.55-14.236-9.55-22.935c0-8.689,3.527-16.926,9.55-22.932v-6.233    c-6.023-6-9.55-14.236-9.55-22.935c0-8.69,3.527-16.926,9.55-22.933v-6.233c-6.023-6.002-9.55-14.238-9.55-22.935    c0-8.689,3.527-16.926,9.55-22.932V107.27c0-7.468,6.055-13.523,13.523-13.523h40.613c9.696-11.71,20.853-22.138,32.811-30.669    c-0.202-1.94-0.304-3.883-0.304-5.821C118.849,25.686,144.535,0,176.107,0c23.32,0,44.021,14.233,52.798,35.096    c0.343,0.008,0.687,0.016,1.028,0.025l-0.042-19.335c-0.011-5.044,2.785-9.674,7.253-12.011c1.972-1.032,4.125-1.542,6.268-1.542    c2.718,0,5.423,0.818,7.734,2.429c0,0,74.734,52.089,74.809,52.144c18.412,8.646,34.6,19.551,48.227,32.485h81.354    c18.643,0,33.808,15.165,33.808,33.807v77.591c0,18.643-15.165,33.808-33.808,33.808h-22.884    c-0.788,36.649-12.938,69.63-34.893,94.171c-7.571,13.679-20.294,23.608-35.362,27.603c-1.864,1.026-3.74,2.036-5.617,3.044    c-6.073,3.266-11.839,6.37-17.054,9.955v10.512l32.936,71.582c0.071,0.15,0.363,0.847,0.363,0.847    c0.808,1.939,1.153,4.039,1.008,6.132C371.715,491.942,348.408,512,311.688,512z"/>
	</g>
	<g>
		<g>
			<path style="fill:#BD6EEB;" d="M74.522,139.939c-14.38,32.553-18.868,68.715-18.742,104.303     c0.172,48.434,9.999,99.687,42.76,135.361c25.274,27.521,62.121,42.839,99.328,46.278c36.569,3.381,69.636-7.448,96.94-31.615     c12.488-11.054,23.024-25.06,36.49-34.814c13.763-9.97,30.159-15.794,43.425-26.427c66.245-53.098,53.233-156.742,5.935-217.792     c-22.693-29.292-56.274-48.297-91.665-58.148c-33.78-9.403-69.54-10.478-104.321-6.033     C136.21,57.244,93.928,96.007,74.522,139.939z"/>
		</g>
		<g>
			<g>
				<g>
					<rect x="50.311" y="119.427" style="fill:#BD6EEB;" width="277.003" height="318.683"/>
				</g>
				<g>
					<rect x="46.838" y="107.27" style="fill:#FFE9DC;" width="268.319" height="319.552"/>
				</g>
				<g>
					<g>
						<path style="fill:#FFA9DD;" d="M84.828,139.182c0,7.194-5.832,13.025-13.025,13.025c-7.194,0-13.025-5.831-13.025-13.025        c0-7.193,5.832-13.025,13.025-13.025C78.996,126.157,84.828,131.989,84.828,139.182z"/>
					</g>
					<g>
						<path style="fill:#FFA9DD;" d="M84.828,191.283c0,7.193-5.832,13.025-13.025,13.025c-7.194,0-13.025-5.832-13.025-13.025        c0-7.194,5.832-13.025,13.025-13.025C78.996,178.258,84.828,184.089,84.828,191.283z"/>
					</g>
					<g>
						<path style="fill:#FFA9DD;" d="M84.828,243.384c0,7.194-5.832,13.025-13.025,13.025c-7.194,0-13.025-5.832-13.025-13.025        c0-7.194,5.832-13.025,13.025-13.025C78.996,230.359,84.828,236.19,84.828,243.384z"/>
					</g>
					<g>
						<path style="fill:#FFA9DD;" d="M84.828,295.485c0,7.193-5.832,13.025-13.025,13.025c-7.194,0-13.025-5.832-13.025-13.025        c0-7.194,5.832-13.025,13.025-13.025C78.996,282.459,84.828,288.291,84.828,295.485z"/>
					</g>
					<g>
						<path style="fill:#FFA9DD;" d="M84.828,347.585c0,7.194-5.832,13.025-13.025,13.025c-7.194,0-13.025-5.831-13.025-13.025        c0-7.193,5.832-13.025,13.025-13.025C78.996,334.56,84.828,340.392,84.828,347.585z"/>
					</g>
					<g>
						<path style="fill:#FFA9DD;" d="M84.828,395.779c0,7.193-5.832,13.025-13.025,13.025c-7.194,0-13.025-5.832-13.025-13.025        c0-7.194,5.832-13.025,13.025-13.025C78.996,382.753,84.828,388.585,84.828,395.779z"/>
					</g>
				</g>
				<g>
					<g>
						<path style="fill:#BD6EEB;" d="M295.891,134.84H98.558c-0.42,0-0.76-0.34-0.76-0.76s0.34-0.76,0.76-0.76h197.332        c0.42,0,0.76,0.34,0.76,0.76S296.31,134.84,295.891,134.84z"/>
					</g>
					<g>
						<path style="fill:#BD6EEB;" d="M295.891,158.937H98.558c-0.42,0-0.76-0.34-0.76-0.76c0-0.42,0.34-0.76,0.76-0.76h197.332        c0.42,0,0.76,0.34,0.76,0.76C296.65,158.597,296.31,158.937,295.891,158.937z"/>
					</g>
					<g>
						<path style="fill:#BD6EEB;" d="M295.891,183.033H98.558c-0.42,0-0.76-0.34-0.76-0.76s0.34-0.76,0.76-0.76h197.332        c0.42,0,0.76,0.34,0.76,0.76S296.31,183.033,295.891,183.033z"/>
					</g>
					<g>
						<path style="fill:#BD6EEB;" d="M295.891,207.131H98.558c-0.42,0-0.76-0.34-0.76-0.76s0.34-0.76,0.76-0.76h197.332        c0.42,0,0.76,0.34,0.76,0.76S296.31,207.131,295.891,207.131z"/>
					</g>
					<g>
						<path style="fill:#BD6EEB;" d="M295.891,231.227H98.558c-0.42,0-0.76-0.34-0.76-0.76s0.34-0.76,0.76-0.76h197.332        c0.42,0,0.76,0.34,0.76,0.76S296.31,231.227,295.891,231.227z"/>
					</g>
					<g>
						<path style="fill:#BD6EEB;" d="M295.891,255.324H98.558c-0.42,0-0.76-0.34-0.76-0.76s0.34-0.76,0.76-0.76h197.332        c0.42,0,0.76,0.34,0.76,0.76S296.31,255.324,295.891,255.324z"/>
					</g>
					<g>
						<path style="fill:#BD6EEB;" d="M295.891,279.421H98.558c-0.42,0-0.76-0.34-0.76-0.76s0.34-0.76,0.76-0.76h197.332        c0.42,0,0.76,0.34,0.76,0.76S296.31,279.421,295.891,279.421z"/>
					</g>
					<g>
						<path style="fill:#BD6EEB;" d="M295.891,303.517H98.558c-0.42,0-0.76-0.34-0.76-0.76s0.34-0.76,0.76-0.76h197.332        c0.42,0,0.76,0.34,0.76,0.76S296.31,303.517,295.891,303.517z"/>
					</g>
					<g>
						<path style="fill:#BD6EEB;" d="M295.891,327.614H98.558c-0.42,0-0.76-0.34-0.76-0.76s0.34-0.76,0.76-0.76h197.332        c0.42,0,0.76,0.34,0.76,0.76S296.31,327.614,295.891,327.614z"/>
					</g>
					<g>
						<path style="fill:#BD6EEB;" d="M295.891,351.71H98.558c-0.42,0-0.76-0.34-0.76-0.76s0.34-0.76,0.76-0.76h197.332        c0.42,0,0.76,0.34,0.76,0.76S296.31,351.71,295.891,351.71z"/>
					</g>
					<g>
						<path style="fill:#BD6EEB;" d="M295.891,375.807H98.558c-0.42,0-0.76-0.34-0.76-0.76s0.34-0.76,0.76-0.76h197.332        c0.42,0,0.76,0.34,0.76,0.76S296.31,375.807,295.891,375.807z"/>
					</g>
					<g>
						<path style="fill:#BD6EEB;" d="M295.891,399.904H98.558c-0.42,0-0.76-0.34-0.76-0.76s0.34-0.76,0.76-0.76h197.332        c0.42,0,0.76,0.34,0.76,0.76S296.31,399.904,295.891,399.904z"/>
					</g>
				</g>
				<g>
					<path style="fill:#512651;" d="M317.328,429.113H50.746c-0.105,0-0.19-0.085-0.19-0.189c0-0.105,0.085-0.19,0.19-0.19h266.393       V119.861c0-0.105,0.085-0.189,0.189-0.189c0.105,0,0.189,0.085,0.189,0.189v309.063       C317.517,429.029,317.433,429.113,317.328,429.113z"/>
				</g>
				<g>
					<path style="fill:#512651;" d="M319.499,431.788H50.746c-0.105,0-0.19-0.085-0.19-0.189c0-0.105,0.085-0.19,0.19-0.19h268.564       V119.97c0-0.105,0.085-0.189,0.189-0.189c0.105,0,0.189,0.085,0.189,0.189v311.629       C319.688,431.703,319.604,431.788,319.499,431.788z"/>
				</g>
				<g>
					<path style="fill:#512651;" d="M322.972,434.827H49.443c-0.105,0-0.189-0.085-0.189-0.19c0-0.105,0.084-0.189,0.189-0.189       h273.34V119.861c0-0.105,0.085-0.189,0.189-0.189c0.105,0,0.189,0.085,0.189,0.189v314.776       C323.162,434.742,323.077,434.827,322.972,434.827z"/>
				</g>
				<g>
					<path style="fill:#512651;" d="M325.578,438.3H50.311c-0.105,0-0.189-0.085-0.189-0.19c0-0.105,0.084-0.189,0.189-0.189       h275.077V119.753c0-0.105,0.085-0.189,0.189-0.189c0.105,0,0.19,0.085,0.19,0.189v318.358       C325.767,438.216,325.683,438.3,325.578,438.3z"/>
				</g>
			</g>
			<g>
				<path style="fill:#512651;" d="M56.164,132.228c-10.407,0-18.875,8.469-18.875,18.876c0,7.015,3.852,13.137,9.54,16.376v-2.474      c-4.464-3.01-7.397-8.111-7.397-13.902c0-9.208,7.499-16.708,16.733-16.708c9.208,0,16.708,7.499,16.708,16.708      c0,0.383,0,0.74-0.051,1.097c0.383-0.051,0.765-0.102,1.148-0.204c0.357-0.076,0.714-0.178,1.046-0.306      c0.025-0.204,0.025-0.382,0.025-0.587C75.04,140.697,66.571,132.228,56.164,132.228z"/>
			</g>
			<g>
				<path style="fill:#512651;" d="M56.164,184.329c-10.407,0-18.875,8.469-18.875,18.876c0,7.014,3.852,13.136,9.54,16.376v-2.474      c-4.464-3.01-7.397-8.111-7.397-13.902c0-9.208,7.499-16.708,16.733-16.708c9.208,0,16.708,7.499,16.708,16.708      c0,0.383,0,0.74-0.051,1.097c0.383-0.051,0.765-0.102,1.148-0.204c0.357-0.076,0.714-0.178,1.046-0.306      c0.025-0.204,0.025-0.382,0.025-0.587C75.04,192.798,66.571,184.329,56.164,184.329z"/>
			</g>
			<g>
				<path style="fill:#512651;" d="M56.164,236.43c-10.407,0-18.875,8.469-18.875,18.876c0,7.014,3.852,13.136,9.54,16.376v-2.474      c-4.464-3.01-7.397-8.111-7.397-13.902c0-9.208,7.499-16.708,16.733-16.708c9.208,0,16.708,7.499,16.708,16.708      c0,0.383,0,0.74-0.051,1.097c0.383-0.051,0.765-0.102,1.148-0.204c0.357-0.076,0.714-0.178,1.046-0.306      c0.025-0.204,0.025-0.382,0.025-0.587C75.04,244.898,66.571,236.43,56.164,236.43z"/>
			</g>
			<g>
				<path style="fill:#512651;" d="M56.164,288.531c-10.407,0-18.875,8.469-18.875,18.876c0,7.014,3.852,13.136,9.54,16.376v-2.474      c-4.464-3.01-7.397-8.111-7.397-13.902c0-9.208,7.499-16.707,16.733-16.707c9.208,0,16.708,7.499,16.708,16.707      c0,0.383,0,0.74-0.051,1.097c0.383-0.051,0.765-0.102,1.148-0.204c0.357-0.076,0.714-0.178,1.046-0.306      c0.025-0.204,0.025-0.383,0.025-0.587C75.04,296.999,66.571,288.531,56.164,288.531z"/>
			</g>
			<g>
				<path style="fill:#512651;" d="M56.164,340.632c-10.407,0-18.875,8.469-18.875,18.876c0,7.015,3.852,13.137,9.54,16.376v-2.474      c-4.464-3.01-7.397-8.112-7.397-13.902c0-9.208,7.499-16.707,16.733-16.707c9.208,0,16.708,7.499,16.708,16.707      c0,0.383,0,0.74-0.051,1.097c0.383-0.051,0.765-0.102,1.148-0.204c0.357-0.076,0.714-0.178,1.046-0.306      c0.025-0.204,0.025-0.383,0.025-0.587C75.04,349.1,66.571,340.632,56.164,340.632z"/>
			</g>
			<g>
				<path style="fill:#512651;" d="M56.164,388.608c-10.407,0-18.875,8.469-18.875,18.876c0,7.015,3.852,13.137,9.54,16.376v-2.474      c-4.464-3.01-7.397-8.111-7.397-13.902c0-9.208,7.499-16.708,16.733-16.708c9.208,0,16.708,7.499,16.708,16.708      c0,0.383,0,0.74-0.051,1.097c0.383-0.051,0.765-0.102,1.148-0.204c0.357-0.077,0.714-0.179,1.046-0.306      c0.025-0.204,0.025-0.383,0.025-0.587C75.04,397.076,66.571,388.608,56.164,388.608z"/>
			</g>
		</g>
		<g>
			<g>
				<polygon style="fill:#7182FF;" points="187.945,171.773 243.561,200.92 243.699,201.026 361.488,457.015 301.069,495.487       177.915,236.761     "/>
			</g>
			<g>
				<polygon style="fill:#FFB289;" points="177.397,149.165 205.577,171.203 243.561,200.92 225.057,197.27 214.089,224.868       187.761,219.379 177.915,236.761 177.599,186.802     "/>
			</g>
			<g>
				<path style="fill:#512651;" d="M177.397,149.165l28.18,22.037c-0.434,0.694-0.917,1.385-1.396,2.028      c-5.353,6.875-16.485,12.819-26.582,13.57L177.397,149.165z"/>
			</g>
			<g>
				<path style="fill:#512651;" d="M309.017,481.694c-0.135,0-0.265-0.077-0.326-0.208L187.435,219.529      c-0.083-0.18-0.005-0.393,0.175-0.476c0.18-0.082,0.393-0.005,0.476,0.175l121.257,261.956c0.083,0.18,0.005,0.393-0.175,0.476      C309.119,481.683,309.067,481.694,309.017,481.694z"/>
			</g>
			<g>
				<path style="fill:#512651;" d="M326.863,467.307c-0.135,0-0.264-0.076-0.325-0.207L213.764,225.019      c-0.084-0.179-0.006-0.393,0.174-0.476c0.176-0.085,0.392-0.007,0.476,0.174l112.774,242.081      c0.084,0.179,0.006,0.392-0.174,0.476C326.965,467.297,326.914,467.307,326.863,467.307z"/>
			</g>
			<g>
				<path style="fill:#512651;" d="M347.148,459.254c-0.135,0-0.264-0.076-0.325-0.207L225.494,198.296      c-0.084-0.18-0.006-0.393,0.174-0.476c0.178-0.086,0.392-0.008,0.476,0.174l121.329,260.751      c0.084,0.179,0.006,0.393-0.174,0.476C347.25,459.244,347.199,459.254,347.148,459.254z"/>
			</g>
			<g>
				<g>
					<path style="fill:#FFB289;" d="M361.488,457.015l0.166,0.398c-3.449,49.941-59.532,40.321-59.532,40.321l-1.052-2.246       c3.853-11.035,12.349-20.059,22.334-26.179c10.236-6.248,21.913-9.595,33.744-11.675       C358.564,457.393,360.03,457.156,361.488,457.015z"/>
				</g>
				<g>
					<path style="fill:#512651;" d="M348.481,471.445l0.083,0.198c-8.493,20.272-29.591,20.041-29.591,20.041l-0.523-1.116       c1.915-5.485,6.138-9.97,11.101-13.012c5.087-3.105,10.892-4.769,16.773-5.803       C347.027,471.633,347.756,471.515,348.481,471.445z"/>
				</g>
			</g>
		</g>
		<g>
			<g>
				<g>
					<path style="fill:#FFB289;" d="M456.647,220.973H288.519c-11.203,0-20.285-9.082-20.285-20.285v-77.59       c0-11.203,9.082-20.285,20.285-20.285h168.128c11.203,0,20.285,9.082,20.285,20.285v77.59       C476.931,211.892,467.85,220.973,456.647,220.973z"/>
				</g>
				<g>
					<polygon style="fill:#FFB289;" points="320.408,211.766 295.856,243.992 346.496,216.37      "/>
				</g>
			</g>
			<g>
				<path style="fill:#FFE9DC;" d="M347.281,174.552c1.591,0,2.799,1.208,2.799,2.799v3.881c0,1.463-1.145,2.799-2.799,2.799      l-21.692-0.063c-2.163,0-3.944-1.654-3.944-3.88v-3.817c0-3.117,2.099-5.28,2.099-5.28s14.695-16.222,15.267-16.922      c0.509-0.7,0.764-1.654,0.764-2.608c0-2.926-2.1-4.135-4.835-4.135c-0.382,0-0.699,0-1.081,0.063      c-1.845,0.191-3.754,0.891-5.725,2.036c0,0-1.718,0.954-2.481,1.591l-1.208-1.845c-0.255-0.318-3.308-6.171,3.499-9.797      c1.208-0.7,4.516-1.654,7.634-1.654c8.333,0,14.122,4.898,14.122,13.486c0,2.99-0.827,5.598-2.29,7.761      c-1.463,2.036-13.995,15.585-13.995,15.585H347.281z"/>
				<path style="fill:#FFE9DC;" d="M375.081,161.129h12.214c0.763,0,1.336,0.572,1.336,1.336v3.69c0,0.764-0.572,1.337-1.336,1.337      h-12.214v12.341c0,0.763-0.573,1.337-1.336,1.337h-3.69c-0.763,0-1.336-0.573-1.336-1.337v-12.341h-12.341      c-0.763,0-1.336-0.572-1.336-1.337v-3.69c0-0.763,0.573-1.336,1.336-1.336h12.341v-12.214c0-0.763,0.573-1.336,1.336-1.336h3.69      c0.763,0,1.336,0.572,1.336,1.336V161.129z"/>
				<path style="fill:#FFE9DC;" d="M419.991,174.552c1.591,0,2.799,1.208,2.799,2.799v3.881c0,1.463-1.145,2.799-2.799,2.799      l-21.692-0.063c-2.163,0-3.944-1.654-3.944-3.88v-3.817c0-3.117,2.099-5.28,2.099-5.28s14.695-16.222,15.267-16.922      c0.509-0.7,0.764-1.654,0.764-2.608c0-2.926-2.1-4.135-4.835-4.135c-0.382,0-0.699,0-1.081,0.063      c-1.845,0.191-3.754,0.891-5.725,2.036c0,0-1.718,0.954-2.481,1.591l-1.208-1.845c-0.255-0.318-3.308-6.171,3.499-9.797      c1.208-0.7,4.516-1.654,7.634-1.654c8.333,0,14.122,4.898,14.122,13.486c0,2.99-0.827,5.598-2.29,7.761      c-1.463,2.036-13.995,15.585-13.995,15.585H419.991z"/>
			</g>
		</g>
		<g>
			<g>
				
					<ellipse transform="matrix(0.2866 -0.9581 0.9581 0.2866 -126.7212 327.0191)" style="fill:#FFA9DD;" cx="156.213" cy="248.595" rx="43.734" ry="43.734"/>
			</g>
			<g>
				<path d="M169.831,235.928l-8.371,13.967l8.179,13.632c0.191,0.287,0.335,0.718,0.335,1.148c0,1.053-0.861,1.914-1.914,1.914      h-3.731c-0.669,0-1.339-0.383-1.674-0.957l-5.31-8.849l-5.31,8.849c-0.335,0.574-1.005,0.957-1.674,0.957h-3.684      c-1.1,0-1.961-0.861-1.961-1.914c0-0.43,0.143-0.861,0.335-1.148l8.18-13.632l-8.371-13.967c-0.239-0.287-0.335-0.718-0.335-1.1      c0-1.101,0.861-1.961,1.913-1.961h3.731c0.67,0,1.339,0.382,1.675,0.957l5.5,9.184l5.549-9.184      c0.287-0.575,0.957-0.957,1.626-0.957h3.731c1.052,0,1.913,0.861,1.913,1.961C170.165,235.211,170.07,235.641,169.831,235.928z"/>
			</g>
		</g>
		<g>
			<g>
				
					<ellipse transform="matrix(0.1395 -0.9902 0.9902 0.1395 95.7922 224.7516)" style="fill:#7182FF;" cx="177.217" cy="57.257" rx="43.734" ry="43.734"/>
			</g>
			<g>
				<path d="M181.354,54.11h12.292c0.768,0,1.344,0.576,1.344,1.345v3.714c0,0.768-0.576,1.344-1.344,1.344h-12.292v12.42      c0,0.768-0.576,1.345-1.345,1.345h-3.713c-0.769,0-1.345-0.577-1.345-1.345v-12.42h-12.42c-0.768,0-1.345-0.576-1.345-1.344      v-3.714c0-0.768,0.577-1.345,1.345-1.345h12.42V41.818c0-0.768,0.576-1.344,1.345-1.344h3.713c0.768,0,1.345,0.576,1.345,1.344      V54.11z"/>
			</g>
		</g>
		<g>
			<g>
				
					<ellipse transform="matrix(0.2866 -0.9581 0.9581 0.2866 -39.4939 548.887)" style="fill:#FF8C9D;" cx="348.797" cy="300.961" rx="43.734" ry="43.734"/>
			</g>
			<g>
				<g>
					<circle cx="349.597" cy="284.65" r="5.268"/>
				</g>
				<g>
					<circle cx="349.597" cy="320.726" r="5.268"/>
				</g>
				<g>
					<path d="M367.795,306.519h-36.076c-2.546,0-4.629-2.083-4.629-4.629l0,0c0-2.546,2.083-4.629,4.629-4.629h36.076       c2.546,0,4.629,2.083,4.629,4.629l0,0C372.424,304.435,370.341,306.519,367.795,306.519z"/>
				</g>
			</g>
		</g>
		<g>
			<polygon style="fill:#FFA9DD;" points="244.693,93.851 319.103,67.738 244.523,15.756    "/>
		</g>
		<g>
			<polygon style="fill:#FFB289;" points="183.244,441.17 137.09,377.228 108.407,463.494    "/>
		</g>
		<g>
			<g>
				<path style="fill:#FFE9DC;" d="M387.161,242.241c-11.515,0-20.884-9.369-20.884-20.884c0-11.515,9.369-20.884,20.884-20.884      c11.515,0,20.884,9.369,20.884,20.884C408.045,232.872,398.676,242.241,387.161,242.241z M387.161,200.808      c-11.331,0-20.549,9.218-20.549,20.549c0,11.331,9.218,20.549,20.549,20.549c11.331,0,20.549-9.218,20.549-20.549      C407.71,210.026,398.492,200.808,387.161,200.808z"/>
			</g>
			<g>
				<path style="fill:#FFE9DC;" d="M249.436,99.912c-11.515,0-20.884-9.369-20.884-20.884s9.369-20.883,20.884-20.883      c11.515,0,20.884,9.368,20.884,20.883S260.951,99.912,249.436,99.912z M249.436,58.48c-11.331,0-20.549,9.218-20.549,20.548      c0,11.331,9.218,20.549,20.549,20.549c11.331,0,20.549-9.218,20.549-20.549C269.985,67.698,260.767,58.48,249.436,58.48z"/>
			</g>
		</g>
	</g>
</g>















</svg>
