<?xml version="1.0" encoding="UTF-8"?>
<!-- Generator: Adobe Illustrator 25.2.1, SVG Export Plug-In . SVG Version: 6.00 Build 0)  -->
<svg xmlns="http://www.w3.org/2000/svg" xmlns:xlink="http://www.w3.org/1999/xlink" version="1.1" id="Capa_1" x="0px" y="0px" viewBox="0 0 512 512" style="enable-background:new 0 0 512 512;" xml:space="preserve" width="512" height="512">
<g>
	<g>
		<path style="fill:#FFFFFF;" d="M507.336,342.34l-21.25-18.097c0.205-1.658,0.306-3.326,0.306-5.001    c0-11.184-4.573-21.912-12.464-29.707c-1.554-9.835-4.303-19.562-8.206-29.024c0.235-2.406,0.352-4.723,0.352-7.006    c0-40.245-31.583-73.348-71.269-75.747c-28.668-20.089-60.616-35.088-95.117-44.66c-6.423-15.155-21.429-25.454-38.438-25.454    c-12.049,0-23.393,5.235-31.232,14.068c-2.35-0.137-4.603-0.246-6.779-0.326c1.213-1.259,2.486-2.411,3.811-3.444    c0.207-0.16,0.533-0.43,0.729-0.602c6.671-5.843,7.344-16.025,1.493-22.708c-3.054-3.48-7.463-5.475-12.092-5.475    c-3.9,0-7.664,1.416-10.576,3.966c-8.749,7.63-15.727,17.787-20.356,29.587c-45.308,5.03-84.343,22.558-113.691,51.072    l-42.198-2.356c-0.246-0.014-0.492-0.021-0.74-0.021c-4.019,0-7.839,1.827-10.362,4.99c-2.678,3.356-3.566,7.802-2.383,11.928    L30.75,236.65c-6.861,16.572-14.315,40.392-14.933,66.646c-0.011,0.434-0.019,0.872-0.026,1.312    C5.885,312.423,0,324.319,0,337.299c0,23.024,18.731,41.755,41.755,41.755c0.119,0,0.237,0,0.358-0.002    c2.955,3.119,6.214,6.045,9.714,8.732c0.194,0.304,0.393,0.604,0.598,0.9c-0.535,0.742-1.01,1.535-1.418,2.376    c0,0-2.139,4.075-2.178,4.152c-3.522,7.044-1.301,15.809,5.037,20.201c6.315,4.517,13.815,7.003,21.146,7.003    c9.669,0,17.961-4.139,23.229-10.804c2.415,5.799,8.104,9.883,14.719,9.883h4.964c8.007,0,14.656-5.983,15.787-13.75    c0.335-0.032,0.671-0.065,1.01-0.099c5.585,9.073,15.174,14.771,26.117,14.771c7.977,0,15.164-3.049,20.626-8.141    c3.149,4.372,8.247,7.219,13.99,7.219h12.27c12.179,0,22.56-6.723,27.951-16.86v0.762c0,9.028,7.008,16.098,15.956,16.098h4.964    c8.799,0,15.956-7.221,15.956-16.098v-16.28l6.494-11.428c3.488,0.006,6.969,0.14,10.407,0.404    c1.811,1.595,3.982,2.786,6.371,3.429v23.874c0,8.877,7.157,16.098,15.956,16.098h4.964c5.031,0,9.524-2.361,12.451-6.041    c2.926,3.68,7.42,6.041,12.451,6.041h18.366c2.806,0,5.443-0.734,7.737-2.022c2.361,1.312,5.068,2.022,7.871,2.022h4.679    c2.879,0,5.603-0.758,7.975-2.104c2.573,1.619,5.609,2.53,8.834,2.53h4.821c3.214,0,6.233-0.9,8.793-2.504    c2.367,1.327,5.102,2.078,8.016,2.078h4.893c3.479,0,6.809-1.094,9.518-3.076c2.784,1.94,6.155,3.076,9.783,3.076h21.347    c3.11,0,6.006-0.917,8.462-2.476c3.207,2.389,7.17,3.823,11.473,3.823c10.517,0,19.074-8.59,19.074-19.146    c0-3.113-0.76-6.045-2.078-8.646c0.24-1.053,0.378-2.144,0.378-3.269V365.35c4.342-0.958,8.006-4.026,9.591-8.319    C513.105,351.813,511.573,345.947,507.336,342.34z"/>
	</g>
	<g>
		<g style="opacity:0.33;">
			<path style="fill:#FFA9DD;" d="M29.074,303.608c-0.579,24.644,5.672,48.363,22.63,66.286     c16.631,17.578,41.731,25.181,65.929,25.346c24.198,0.164,47.906-6.321,71.093-13.244     c38.917-11.619,79.262-23.228,120.059-14.579c21.018,4.456,41.456,11.371,62.487,15.767c14.361,3.002,29.497,4.782,43.54,0.536     c15.526-4.694,28.295-16.56,36.146-30.754c15.975-28.881,13.899-63.636,0.137-92.864c-12.686-26.943-34.115-49.63-57.873-67.208     c-50.292-37.209-111.953-57.042-174.34-58.369c-63.359-1.348-123.527,21.495-159.272,75.6     C43.297,234.817,29.861,270.07,29.074,303.608z"/>
		</g>
		<g>
			<g>
				
					<ellipse transform="matrix(0.7071 -0.7071 0.7071 0.7071 -29.1232 228.4914)" style="fill:#FFA9DD;" cx="261.252" cy="149.4" rx="28.495" ry="28.495"/>
			</g>
			<g>
				
					<ellipse transform="matrix(0.1387 -0.9903 0.9903 0.1387 -298.0761 331.8666)" style="fill:#7182FF;" cx="41.754" cy="337.299" rx="28.495" ry="28.495"/>
			</g>
			<g>
				
					<ellipse transform="matrix(0.7071 -0.7071 0.7071 0.7071 -95.5079 407.9097)" style="fill:#7182FF;" cx="444.637" cy="319.243" rx="28.495" ry="28.495"/>
			</g>
			<g>
				<polygon style="fill:#FFA9DD;" points="29.623,184.667 63.479,302.597 150.939,191.438     "/>
			</g>
			<g>
				<g>
					<path style="fill:#FFB289;" d="M471.173,328.962l-1.719-1.47l-17.187-14.654l-1.719-1.47l-17.187-14.632l-1.742-1.47       l-17.187-14.655l-1.719-1.47l-17.21-14.655l-1.719-1.47l-17.187-14.632l-1.719-1.47l-17.188-14.655l-1.741-1.47l-17.187-14.655       l-1.719-1.447l-17.187-14.655l-1.719-1.47l-17.21-14.655l-1.719-1.47l-13.727-11.692L167.681,352.436       c-0.769-0.769,331.06,0,331.06,0L471.173,328.962z M239.777,317.406l61.151-94.304l110.7,94.304       C411.628,317.406,239.393,316.999,239.777,317.406z"/>
				</g>
				<g>
					<g>
						<g>
							<path style="fill:#512651;" d="M300.928,183.91l-10.606,11.104c-0.204,0.226-0.52,0.339-0.814,0.339         c-0.271,0-0.565-0.09-0.769-0.294c-0.452-0.452-0.475-1.153-0.045-1.606l10.516-11.013L300.928,183.91z"/>
						</g>
					</g>
					<g>
						<g>
							<path style="fill:#512651;" d="M319.857,200.035l-10.561,11.036c-0.226,0.226-0.52,0.362-0.814,0.362         c-0.271,0-0.566-0.113-0.792-0.317c-0.452-0.43-0.452-1.153-0.023-1.606l10.471-10.946L319.857,200.035z"/>
						</g>
					</g>
					<g>
						<g>
							<path style="fill:#512651;" d="M338.763,216.136l-10.493,10.991c-0.226,0.249-0.52,0.362-0.814,0.362         c-0.294,0-0.565-0.113-0.792-0.316c-0.452-0.43-0.475-1.153-0.023-1.606l10.403-10.878L338.763,216.136z"/>
						</g>
					</g>
					<g>
						<g>
							<path style="fill:#512651;" d="M357.691,232.261l-10.448,10.923c-0.226,0.249-0.52,0.362-0.837,0.362         c-0.271,0-0.543-0.113-0.769-0.316c-0.452-0.43-0.475-1.154-0.045-1.606l10.358-10.832L357.691,232.261z"/>
						</g>
					</g>
					<g>
						<g>
							<path style="fill:#512651;" d="M376.598,248.385l-10.403,10.878c-0.204,0.226-0.52,0.339-0.814,0.339         c-0.271,0-0.566-0.091-0.769-0.317c-0.452-0.43-0.475-1.131-0.045-1.583l10.313-10.787L376.598,248.385z"/>
						</g>
					</g>
					<g>
						<g>
							<path style="fill:#512651;" d="M395.504,264.487l-10.335,10.833c-0.226,0.226-0.52,0.339-0.814,0.339         c-0.271,0-0.565-0.091-0.792-0.317c-0.43-0.43-0.452-1.131-0.023-1.583l10.245-10.742L395.504,264.487z"/>
						</g>
					</g>
					<g>
						<g>
							<path style="fill:#512651;" d="M414.432,280.611l-10.29,10.765c-0.226,0.226-0.52,0.339-0.814,0.339         c-0.294,0-0.565-0.091-0.791-0.294c-0.453-0.452-0.475-1.153-0.023-1.606l10.199-10.674L414.432,280.611z"/>
						</g>
					</g>
					<g>
						<g>
							<path style="fill:#512651;" d="M433.361,296.736l-10.245,10.697c-0.226,0.226-0.52,0.362-0.814,0.362         c-0.294,0-0.565-0.113-0.791-0.317c-0.453-0.43-0.475-1.153-0.045-1.606l10.154-10.606L433.361,296.736z"/>
						</g>
					</g>
					<g>
						<g>
							<path style="fill:#512651;" d="M452.267,312.838l-10.199,10.652c-0.203,0.249-0.52,0.362-0.814,0.362         c-0.271,0-0.566-0.113-0.769-0.317c-0.453-0.429-0.475-1.153-0.045-1.605l10.109-10.561L452.267,312.838z"/>
						</g>
					</g>
					<g>
						<g>
							<path style="fill:#512651;" d="M471.173,328.962l-10.131,10.606c-0.226,0.226-0.52,0.339-0.814,0.339         c-0.271,0-0.565-0.113-0.769-0.317c-0.452-0.43-0.475-1.153-0.045-1.606l10.041-10.493L471.173,328.962z"/>
						</g>
					</g>
				</g>
			</g>
			<g>
				<g>
					<g>
						<path style="fill:#512651;" d="M192.564,164.163c-0.017-10.961,1.134-22.098,4.636-32.744        c3.494-10.595,9.406-20.701,18.122-28.3c1.173-1.028,2.958-0.911,3.986,0.263c1.028,1.173,0.911,2.958-0.263,3.986        c-0.037,0.032-0.087,0.073-0.125,0.103c-8.141,6.348-14.209,15.394-18.052,25.263c-3.869,9.92-5.601,20.687-6.158,31.483        c-0.03,0.592-0.535,1.048-1.127,1.017C193.01,165.204,192.566,164.729,192.564,164.163z"/>
					</g>
					<g>
						<g>
							<g>
								<path style="fill:#FF8C9D;" d="M257.582,254.825c-14.652,12.849-33.625,19.631-52.884,21.262          c-18.658,1.574-37.689-1.832-53.285-10.56c-13.107-7.355-23.781-18.487-29.733-33.625          c-8.671-22.121-3.606-51.139,16.169-65.819c17.657-13.078,38.003-11.418,56.633-2.032c0.486,0.258,8.699-5.38,9.93-6.01          c4.264-2.117,8.7-3.806,13.278-5.036c24.639-6.61,49.937,3.148,58.78,28.245c1.946,5.466,3.033,11.304,3.377,17.228          C281.048,219.283,272.892,241.433,257.582,254.825z"/>
							</g>
							<g style="opacity:0.24;">
								<path style="fill:#512651;" d="M257.582,254.825c-14.652,12.849-33.625,19.631-52.884,21.262          c-18.658,1.574-37.689-1.832-53.285-10.56c6.811,1.259,13.793,1.717,20.633,1.459c27.243-1.002,53.743-11.933,74.748-29.304          c13.25-10.932,24.353-24.353,33.053-39.205C281.048,219.283,272.892,241.433,257.582,254.825z"/>
							</g>
						</g>
						<g>
							<g>
								<path style="fill:#FFE9DC;" d="M135.835,180.593c-1.25,2.741-2.083,5.782-1.627,8.76c0.455,2.978,2.419,5.854,5.301,6.732          c1.248,0.38,2.583,0.375,3.881,0.241c8.164-0.84,15.496-7.102,17.605-15.034c0.982-3.694,0.835-7.863-1.266-11.057          C152.279,158.909,139.207,173.2,135.835,180.593z"/>
							</g>
							<g>
								<path style="fill:#FFE9DC;" d="M124.991,208.33c-0.361,2.824,0.712,5.853,2.944,7.62c3.423,2.711,9.006,1.682,11.587-1.84          c2.581-3.522,2.1-8.801-0.743-12.115C133.261,195.567,125.862,201.531,124.991,208.33z"/>
							</g>
						</g>
					</g>
				</g>
				<g>
					<g>
						<path style="fill:#512651;" d="M346.173,323.437v2.942l-1.971,13.708l1.971,11.812v1.998H68.969c0,0-7.16-4.371-7.558-15.473        c-0.398-11.102,7.558-14.987,7.558-14.987H346.173z"/>
					</g>
					<g>
						<path style="fill:#FFB289;" d="M81.651,353.898h-2.457c-3.253-5.426-7.464-16.625,0.678-30.461h2.48        C73.789,337.551,78.515,348.861,81.651,353.898z"/>
					</g>
					<g>
						<path style="fill:#FFB289;" d="M93.561,353.898h-2.457c-2.948-5.482-7.02-16.875-0.421-30.461h2.41        C86.237,337.245,90.683,348.763,93.561,353.898z"/>
					</g>
					<g>
						<path style="fill:#FFB289;" d="M266.22,353.898h-2.457c-2.948-5.482-7.02-16.875-0.445-30.461h2.433        C258.872,337.245,263.342,348.763,266.22,353.898z"/>
					</g>
					<g>
						<path style="fill:#FFB289;" d="M253.982,353.898h-2.457c-2.948-5.482-7.02-16.875-0.445-30.461h2.41        C246.611,337.259,251.104,348.763,253.982,353.898z"/>
					</g>
					<g>
						<g>
							<path style="fill:#FFE9DC;" d="M346.173,326.379v25.52h-55.268c0,0-1.451-0.305-3.206-1.374         c-0.187-0.097-0.351-0.208-0.538-0.333c-0.772-0.5-1.544-1.138-2.293-1.957c-0.117-0.111-0.211-0.222-0.304-0.347         c-0.515-0.569-0.983-1.221-1.381-1.957c-0.07-0.111-0.14-0.222-0.187-0.347c-0.328-0.597-0.608-1.249-0.866-1.957         c-0.023-0.111-0.07-0.236-0.094-0.347c-0.187-0.611-0.351-1.263-0.468-1.957c-0.023-0.111-0.023-0.222-0.046-0.347         c-0.07-0.514-0.141-1.041-0.164-1.596c0-0.125-0.023-0.25,0-0.361c-0.023-0.125-0.023-0.236-0.023-0.347         c-0.023-0.694,0.023-1.346,0.094-1.957c0-0.125,0.023-0.236,0.047-0.347c0.094-0.694,0.234-1.36,0.398-1.957         c0.047-0.125,0.07-0.236,0.117-0.347c0.234-0.708,0.515-1.36,0.866-1.957c0.047-0.125,0.117-0.236,0.187-0.347         c0.445-0.749,0.936-1.388,1.474-1.956c0.117-0.125,0.211-0.236,0.328-0.347c0.866-0.86,1.778-1.499,2.597-1.957         c0.234-0.139,0.445-0.25,0.655-0.347c1.123-0.569,1.919-0.777,1.919-0.777H346.173z"/>
						</g>
						<g>
							<path style="fill:#FFB289;" d="M346.173,327.156v0.347h-58.731c0.234-0.139,0.445-0.25,0.655-0.347H346.173z"/>
						</g>
						<g>
							<path style="fill:#FFB289;" d="M346.173,329.46v0.347h-61.656c0.117-0.125,0.211-0.236,0.328-0.347H346.173z"/>
						</g>
						<g>
							<path style="fill:#FFB289;" d="M346.173,329.46v0.347h-61.656c0.117-0.125,0.211-0.236,0.328-0.347H346.173z"/>
						</g>
						<g>
							<path style="fill:#FFB289;" d="M346.173,331.764v0.347h-63.317c0.047-0.125,0.117-0.236,0.187-0.347H346.173z"/>
						</g>
						<g>
							<path style="fill:#FFB289;" d="M346.173,331.764v0.347h-63.317c0.047-0.125,0.117-0.236,0.187-0.347H346.173z"/>
						</g>
						<g>
							<path style="fill:#FFB289;" d="M346.173,334.067v0.347h-64.3c0.047-0.125,0.07-0.236,0.117-0.347H346.173z"/>
						</g>
						<g>
							<path style="fill:#FFB289;" d="M346.173,336.371v0.347h-64.744c0-0.125,0.023-0.236,0.047-0.347H346.173z"/>
						</g>
						<g>
							<path style="fill:#FFB289;" d="M346.173,338.675v0.347h-64.814c-0.023-0.125-0.023-0.236-0.023-0.347H346.173z"/>
						</g>
						<g>
							<path style="fill:#FFB289;" d="M346.173,340.978v0.347h-64.604c-0.023-0.111-0.023-0.222-0.046-0.347H346.173z"/>
						</g>
						<g>
							<path style="fill:#FFB289;" d="M346.173,343.282v0.347h-64.042c-0.023-0.111-0.07-0.236-0.094-0.347H346.173z"/>
						</g>
						<g>
							<path style="fill:#FFB289;" d="M346.173,345.586v0.347h-62.989c-0.07-0.111-0.14-0.222-0.187-0.347H346.173z"/>
						</g>
						<g>
							<path style="fill:#FFB289;" d="M346.173,347.889v0.347h-61.305c-0.117-0.111-0.211-0.222-0.304-0.347H346.173z"/>
						</g>
						<g>
							<path style="fill:#FFB289;" d="M346.173,350.193v0.333H287.7c-0.187-0.097-0.351-0.208-0.538-0.333H346.173z"/>
						</g>
					</g>
				</g>
				<g>
					<g>
						<path style="fill:#7182FF;" d="M330.37,245.005v4.685l-4.057,20.564l4.057,20.079v3.182H68.548c0,0-6.763-6.962-7.138-24.642        c-0.376-17.68,7.138-23.868,7.138-23.868H330.37z"/>
					</g>
					<g>
						<path style="fill:#FFB289;" d="M80.526,293.515h-2.32c-3.072-8.641-7.05-26.476,0.641-48.51h2.343        C73.101,267.481,77.565,285.493,80.526,293.515z"/>
					</g>
					<g>
						<path style="fill:#FFB289;" d="M91.776,293.515h-2.32c-2.785-8.729-6.63-26.874-0.398-48.51h2.276        C84.858,266.995,89.057,285.338,91.776,293.515z"/>
					</g>
					<g>
						<path style="fill:#FFB289;" d="M254.853,293.515h-2.32c-2.785-8.729-6.63-26.874-0.42-48.51h2.298        C247.914,266.995,252.135,285.338,254.853,293.515z"/>
					</g>
					<g>
						<path style="fill:#FFB289;" d="M243.295,293.515h-2.32c-2.785-8.729-6.63-26.874-0.42-48.51h2.276        C236.333,267.017,240.577,285.338,243.295,293.515z"/>
					</g>
					<g>
						<g>
							<path style="fill:#FFE9DC;" d="M330.37,249.69v40.642h-52.201c0,0-1.37-0.486-3.028-2.188         c-0.177-0.155-0.332-0.332-0.508-0.531c-0.729-0.796-1.459-1.812-2.166-3.116c-0.111-0.177-0.199-0.353-0.288-0.553         c-0.486-0.906-0.928-1.945-1.304-3.116c-0.066-0.177-0.133-0.354-0.177-0.552c-0.309-0.951-0.575-1.989-0.818-3.116         c-0.022-0.177-0.066-0.376-0.088-0.552c-0.177-0.973-0.332-2.011-0.442-3.116c-0.022-0.177-0.022-0.354-0.044-0.552         c-0.066-0.818-0.133-1.658-0.155-2.542c0-0.199-0.022-0.398,0-0.575c-0.022-0.199-0.022-0.376-0.022-0.552         c-0.022-1.105,0.022-2.144,0.088-3.116c0-0.199,0.022-0.376,0.044-0.552c0.088-1.105,0.221-2.166,0.376-3.116         c0.044-0.199,0.066-0.376,0.111-0.553c0.221-1.127,0.486-2.166,0.818-3.116c0.044-0.199,0.111-0.376,0.177-0.553         c0.42-1.193,0.884-2.21,1.392-3.116c0.11-0.199,0.199-0.376,0.309-0.552c0.818-1.37,1.68-2.387,2.453-3.116         c0.221-0.221,0.42-0.398,0.619-0.552c1.061-0.906,1.812-1.238,1.812-1.238H330.37z"/>
						</g>
						<g>
							<path style="fill:#FFB289;" d="M330.37,250.928v0.552h-55.472c0.221-0.221,0.42-0.398,0.619-0.552H330.37z"/>
						</g>
						<g>
							<path style="fill:#FFB289;" d="M330.37,254.597v0.552h-58.234c0.11-0.199,0.199-0.376,0.309-0.552H330.37z"/>
						</g>
						<g>
							<path style="fill:#FFB289;" d="M330.37,254.597v0.552h-58.234c0.11-0.199,0.199-0.376,0.309-0.552H330.37z"/>
						</g>
						<g>
							<path style="fill:#FFB289;" d="M330.37,258.265v0.553h-59.803c0.044-0.199,0.111-0.376,0.177-0.553H330.37z"/>
						</g>
						<g>
							<path style="fill:#FFB289;" d="M330.37,258.265v0.553h-59.803c0.044-0.199,0.111-0.376,0.177-0.553H330.37z"/>
						</g>
						<g>
							<path style="fill:#FFB289;" d="M330.37,261.934v0.553h-60.732c0.044-0.199,0.066-0.376,0.111-0.553H330.37z"/>
						</g>
						<g>
							<path style="fill:#FFB289;" d="M330.37,265.603v0.552h-61.151c0-0.199,0.022-0.376,0.044-0.552H330.37z"/>
						</g>
						<g>
							<path style="fill:#FFB289;" d="M330.37,269.271v0.552h-61.217c-0.022-0.199-0.022-0.376-0.022-0.552H330.37z"/>
						</g>
						<g>
							<path style="fill:#FFB289;" d="M330.37,272.94v0.552h-61.019c-0.022-0.177-0.022-0.354-0.044-0.552H330.37z"/>
						</g>
						<g>
							<path style="fill:#FFB289;" d="M330.37,276.608v0.552h-60.488c-0.022-0.177-0.066-0.376-0.088-0.552H330.37z"/>
						</g>
						<g>
							<path style="fill:#FFB289;" d="M330.37,280.277v0.552h-59.494c-0.066-0.177-0.133-0.354-0.177-0.552H330.37z"/>
						</g>
						<g>
							<path style="fill:#FFB289;" d="M330.37,283.946v0.553h-57.902c-0.111-0.177-0.199-0.353-0.288-0.553H330.37z"/>
						</g>
						<g>
							<path style="fill:#FFB289;" d="M330.37,287.614v0.531h-55.228c-0.177-0.155-0.332-0.332-0.508-0.531H330.37z"/>
						</g>
					</g>
				</g>
				<g>
					<g>
						<path style="fill:#BD6EEB;" d="M333.759,292.967v2.942l-2.56,13.422l2.56,12.098v1.998H56.555c0,0-7.16-4.371-7.557-15.473        c-0.398-11.102,7.557-14.988,7.557-14.988H333.759z"/>
					</g>
					<g>
						<path style="fill:#FFB289;" d="M69.237,323.428H66.78c-3.252-5.426-7.464-16.625,0.679-30.461h2.48        C61.375,307.081,66.102,318.391,69.237,323.428z"/>
					</g>
					<g>
						<path style="fill:#FFB289;" d="M81.147,323.428H78.69c-2.948-5.482-7.02-16.875-0.421-30.461h2.41        C73.823,306.775,78.269,318.293,81.147,323.428z"/>
					</g>
					<g>
						<path style="fill:#FFB289;" d="M253.806,323.428h-2.457c-2.948-5.482-7.02-16.875-0.445-30.461h2.434        C246.459,306.775,250.928,318.293,253.806,323.428z"/>
					</g>
					<g>
						<path style="fill:#FFB289;" d="M241.568,323.428h-2.457c-2.948-5.482-7.02-16.875-0.445-30.461h2.41        C234.198,306.789,238.691,318.293,241.568,323.428z"/>
					</g>
					<g>
						<g>
							<path style="fill:#FFE9DC;" d="M333.759,295.909v25.52h-55.268c0,0-1.451-0.305-3.205-1.374         c-0.187-0.097-0.351-0.208-0.538-0.333c-0.772-0.5-1.544-1.138-2.293-1.957c-0.117-0.111-0.211-0.222-0.304-0.347         c-0.515-0.569-0.983-1.221-1.381-1.957c-0.07-0.111-0.14-0.222-0.187-0.347c-0.328-0.597-0.608-1.249-0.866-1.957         c-0.023-0.111-0.07-0.236-0.093-0.347c-0.187-0.611-0.351-1.263-0.468-1.957c-0.023-0.111-0.023-0.222-0.047-0.347         c-0.07-0.513-0.14-1.041-0.164-1.596c0-0.125-0.023-0.25,0-0.361c-0.023-0.125-0.023-0.236-0.023-0.347         c-0.023-0.694,0.023-1.346,0.094-1.957c0-0.125,0.023-0.236,0.047-0.347c0.093-0.694,0.234-1.36,0.398-1.957         c0.047-0.125,0.07-0.236,0.117-0.347c0.234-0.708,0.515-1.36,0.866-1.957c0.047-0.125,0.117-0.236,0.187-0.347         c0.445-0.749,0.936-1.388,1.474-1.957c0.117-0.125,0.211-0.236,0.328-0.347c0.866-0.86,1.778-1.499,2.597-1.957         c0.234-0.139,0.444-0.25,0.655-0.347c1.123-0.569,1.919-0.777,1.919-0.777H333.759z"/>
						</g>
						<g>
							<path style="fill:#FFB289;" d="M333.759,296.686v0.347h-58.731c0.234-0.139,0.444-0.25,0.655-0.347H333.759z"/>
						</g>
						<g>
							<path style="fill:#FFB289;" d="M333.759,298.99v0.347h-61.656c0.117-0.125,0.211-0.236,0.328-0.347H333.759z"/>
						</g>
						<g>
							<path style="fill:#FFB289;" d="M333.759,298.99v0.347h-61.656c0.117-0.125,0.211-0.236,0.328-0.347H333.759z"/>
						</g>
						<g>
							<path style="fill:#FFB289;" d="M333.759,301.294v0.347h-63.317c0.047-0.125,0.117-0.236,0.187-0.347H333.759z"/>
						</g>
						<g>
							<path style="fill:#FFB289;" d="M333.759,301.294v0.347h-63.317c0.047-0.125,0.117-0.236,0.187-0.347H333.759z"/>
						</g>
						<g>
							<path style="fill:#FFB289;" d="M333.759,303.597v0.347h-64.3c0.047-0.125,0.07-0.236,0.117-0.347H333.759z"/>
						</g>
						<g>
							<path style="fill:#FFB289;" d="M333.759,305.901v0.347h-64.744c0-0.125,0.023-0.236,0.047-0.347H333.759z"/>
						</g>
						<g>
							<path style="fill:#FFB289;" d="M333.759,308.204v0.347h-64.815c-0.023-0.125-0.023-0.236-0.023-0.347H333.759z"/>
						</g>
						<g>
							<path style="fill:#FFB289;" d="M333.759,310.508v0.347h-64.604c-0.023-0.111-0.023-0.222-0.047-0.347H333.759z"/>
						</g>
						<g>
							<path style="fill:#FFB289;" d="M333.759,312.812v0.347h-64.043c-0.023-0.111-0.07-0.236-0.093-0.347H333.759z"/>
						</g>
						<g>
							<path style="fill:#FFB289;" d="M333.759,315.115v0.347h-62.99c-0.07-0.111-0.14-0.222-0.187-0.347H333.759z"/>
						</g>
						<g>
							<path style="fill:#FFB289;" d="M333.759,317.419v0.347h-61.305c-0.117-0.111-0.211-0.222-0.304-0.347H333.759z"/>
						</g>
						<g>
							<path style="fill:#FFB289;" d="M333.759,319.723v0.333h-58.473c-0.187-0.097-0.351-0.208-0.538-0.333H333.759z"/>
						</g>
					</g>
				</g>
			</g>
			<g>
				<path style="fill:#BD6EEB;" d="M390.184,190.875c-22.41,0-42.079,11.779-53.151,29.482c6.586,4.464,15.735,10.763,26.1,17.946      c5.326-9.459,15.448-15.824,27.051-15.824c17.15,0,31.029,13.879,31.029,31.029c0,7.647-2.763,14.63-7.337,20.045      c9.702,6.763,18.675,13.017,25.968,18.122c8.133-10.564,12.973-23.802,12.973-38.167      C452.816,218.92,424.771,190.875,390.184,190.875z"/>
			</g>
			<g>
				<g>
					<path style="fill:#512651;" d="M80.759,394.194c-0.285-2.766-1.347-3.476-7.163-5.958l-1.843-0.78       c-6.738-3.049-10.923-7.091-10.923-14.893c0-8.935,6.242-15.105,14.965-15.105c4.679,0,9.503,1.703,13.26,4.61       c0.993,0.709,1.349,2.269,0.781,3.405l-2.057,4.184c-0.425,0.993-1.347,1.56-2.34,1.56c-0.568,0-1.135-0.142-1.632-0.426       l-0.071-0.07c-3.688-2.482-6.524-2.908-7.871-2.908c-2.978,0-4.752,1.703-4.752,4.326c0,2.27,1.064,3.901,6.667,6.383       c0.283,0.071,1.135,0.425,4.325,1.773c5.674,2.482,8.937,7.376,8.937,13.404c0,9.361-7.092,15.459-16.029,15.459       c-4.61,0-9.431-1.63-13.545-4.609c-0.993-0.639-1.347-2.269-0.779-3.405l2.197-4.184c0.427-0.993,1.349-1.56,2.342-1.56       c0.568,0,1.133,0.141,1.629,0.496h0.071c2.838,1.914,5.603,2.907,8.013,2.907C78.488,398.803,80.687,397.03,80.759,394.194z"/>
				</g>
				<g>
					<path style="fill:#512651;" d="M132.463,365.968c0,1.559-1.204,2.836-2.693,2.836h-9.149v36.594       c0,1.632-1.206,2.837-2.696,2.837h-4.964c-1.489,0-2.696-1.206-2.696-2.837v-36.594h-9.147c-1.489,0-2.696-1.276-2.696-2.836       v-4.894c0-1.631,1.206-2.837,2.696-2.837h28.65c1.489,0,2.693,1.206,2.693,2.837V365.968z"/>
				</g>
				<g>
					<path style="fill:#512651;" d="M178.781,389.016c0,10.497-6.807,20.141-17.941,20.141c-11.134,0-18.015-9.644-18.015-20.141       v-27.941c0-1.56,1.206-2.766,2.696-2.766h4.964c1.489,0,2.696,1.205,2.696,2.766v28.297c0,5.531,2.978,9.077,7.66,9.077       c5.176,0,7.588-4.326,7.588-9.077v-28.297c0-1.56,1.204-2.766,2.694-2.766h5.035c1.489,0,2.624,1.205,2.624,2.766V389.016z"/>
				</g>
				<g>
					<path style="fill:#512651;" d="M226.376,388.448c0,10.568-7.731,19.787-18.651,19.787h-12.27c-2.339,0-4.042-1.986-4.042-4.255       v-41.488c0-1.134,0.425-2.198,1.206-2.978c0.708-0.85,1.772-1.276,2.836-1.276h12.27c10.921,0,18.651,9.29,18.651,19.858       V388.448z M216.021,377.882c0-4.751-3.686-9.077-8.581-9.077h-5.672v28.864h5.672c4.895,0,8.581-4.397,8.581-9.149V377.882z"/>
				</g>
				<g>
					<path style="fill:#512651;" d="M269.858,358.238c1.63,0,2.907,1.276,2.907,2.908c0,0.567-0.214,1.134-0.497,1.631       l-12.977,22.836v19.786c0,1.632-1.206,2.837-2.696,2.837h-4.964c-1.56,0-2.695-1.206-2.695-2.837v-19.786l-12.978-22.836       c-0.354-0.496-0.496-1.064-0.496-1.631c0-1.632,1.275-2.908,2.836-2.908h5.249c1.064,0,1.914,0.496,2.411,1.419l8.156,14.963       l8.156-14.963c0.496-0.923,1.347-1.419,2.411-1.419H269.858z"/>
				</g>
				<g>
					<path style="fill:#512651;" d="M331.281,365.968c0,1.559-1.204,2.836-2.694,2.836h-9.149v36.594       c0,1.632-1.207,2.837-2.696,2.837h-4.964c-1.489,0-2.696-1.206-2.696-2.837v-36.594h-9.147c-1.489,0-2.696-1.276-2.696-2.836       v-4.894c0-1.631,1.207-2.837,2.696-2.837h28.65c1.489,0,2.694,1.206,2.694,2.837V365.968z"/>
				</g>
				<g>
					<path style="fill:#512651;" d="M360.011,357.954c1.489,0,2.696,1.277,2.696,2.837v4.539c0,1.632-1.206,2.837-2.696,2.837       h-3.971v29.856h3.971c1.489,0,2.696,1.276,2.696,2.837v4.539c0,1.632-1.206,2.837-2.696,2.837h-18.366       c-1.489,0-2.696-1.206-2.696-2.837v-4.539c0-1.56,1.206-2.837,2.696-2.837h3.971v-29.856h-3.971       c-1.489,0-2.696-1.205-2.696-2.837v-4.539c0-1.56,1.206-2.837,2.696-2.837H360.011z"/>
				</g>
				<g>
					<path style="fill:#512651;" d="M385.973,380.577l-2.624,24.892c-0.283,1.631-1.56,2.766-3.049,2.766h-4.679       c-0.852,0-1.56-0.284-2.057-0.851c-0.496-0.638-0.781-1.418-0.71-2.34l5.249-43.686c0.14-1.914,1.56-3.262,3.404-3.262h5.745       c1.489,0,2.765,0.993,3.19,2.482l9.432,30.353l9.362-30.424c0.425-1.418,1.772-2.411,3.261-2.411h5.178       c1.915,0,3.335,1.348,3.475,3.262l5.249,43.686c0.071,0.922-0.214,1.702-0.71,2.34c-0.496,0.568-1.204,0.851-2.057,0.851       h-4.893c-1.561,0-2.907-1.206-3.05-2.837l-2.696-24.892l-7.871,25.672c-0.425,1.489-1.703,2.482-3.192,2.482h-4.821       c-1.489,0-2.767-0.993-3.192-2.411L385.973,380.577z"/>
				</g>
				<g>
					<path style="fill:#512651;" d="M449.243,368.804v8.368h10.849c1.489,0,2.696,1.205,2.696,2.766v4.751       c0,1.56-1.207,2.766-2.696,2.766h-10.849v10.213h15.034c1.489,0,2.694,1.277,2.694,2.837v4.893       c0,1.632-1.204,2.837-2.694,2.837H442.93c-2.34,0-4.043-1.986-4.043-4.255v-41.488c0-1.134,0.425-2.198,1.207-2.978       c0.708-0.85,1.772-1.276,2.836-1.276h21.347c1.489,0,2.694,1.206,2.694,2.837v4.894c0,1.559-1.204,2.836-2.694,2.836H449.243z"/>
				</g>
				<g>
					<path style="fill:#512651;" d="M478.254,403.696c0-3.333,2.696-5.887,5.959-5.887c3.261,0,5.814,2.624,5.814,5.887       c0,3.191-2.625,5.886-5.814,5.886C480.949,409.583,478.254,407.03,478.254,403.696z M481.446,393.271       c-0.85,0-1.489-0.638-1.489-1.489v-32.764c0-0.85,0.639-1.489,1.489-1.489h5.389c0.853,0,1.491,0.639,1.491,1.489v32.764       c0,0.851-0.639,1.489-1.491,1.489H481.446z"/>
				</g>
			</g>
		</g>
	</g>
</g>















</svg>
