<?xml version="1.0" encoding="UTF-8"?>
<!-- Generator: Adobe Illustrator 25.2.1, SVG Export Plug-In . SVG Version: 6.00 Build 0)  -->
<svg xmlns="http://www.w3.org/2000/svg" xmlns:xlink="http://www.w3.org/1999/xlink" version="1.1" id="Capa_1" x="0px" y="0px" viewBox="0 0 512 512" style="enable-background:new 0 0 512 512;" xml:space="preserve" width="512" height="512">
<g>
	<g>
		<path style="fill:#FFFFFF;" d="M160.926,484.742c-3.147,0-6.252-1.075-8.762-3.139l-30.799-25.319    c-36.529-5.846-67.315-27.823-80.945-58.058c-6.76-14.992-9.526-31.772-8.233-49.93c-13.939-31.563-17.298-68.211-9.692-106.255    c1.071-5.359,2.4-10.812,3.967-16.299C9.734,210.75,0,189.276,0,166.514c0-43.854,35.678-79.532,79.532-79.532    c14.698,0,29.129,4.117,41.571,11.739c11.955-7.828,24.646-14.548,37.838-20.03L261.26,28.66c1.924-0.941,3.998-1.402,6.057-1.402    c3.172,0,6.315,1.093,8.848,3.209c4.176,3.491,5.909,9.11,4.425,14.347l-0.62,2.181c2.261-0.466,4.589-0.709,6.953-0.709    c13.973,0,26.053,8.247,31.632,20.131c2.135-4.636,6.401-8.211,11.728-9.248c5.451-1.052,11.007-1.817,16.539-2.279    c3.35-0.275,6.946-0.409,11.014-0.409c1.888,0,3.776,0.028,5.667,0.069c11.355,0.381,22.526,1.975,33.363,4.743    c10.852,2.833,21.447,6.886,31.556,12.06c9.703,4.979,19.179,11.306,28.175,18.813c17.24,14.321,31.451,32.863,41.07,53.598    c9.541,20.654,14.492,43.531,14.328,66.174c-0.209,22.839-5.447,45.635-15.147,65.95c-0.433,0.903-0.88,1.794-1.334,2.678    c0.287,24.859-4.257,49.316-13.526,72.842c2.793,7.287,4.205,14.958,4.205,22.886c0,35.44-28.83,64.273-64.27,64.273    c-5.078,0-10.116-0.599-15.037-1.785c-3.918,1.655-7.876,3.047-11.818,4.158c-1.284,0.361-2.571,0.696-3.868,1.004    c-2.476,2.095-5.628,3.264-8.91,3.264h-56.117c-3.857,0-7.539-1.614-10.15-4.454c-2.092-2.272-3.345-5.166-3.597-8.201    c-0.97-0.323-1.935-0.644-2.894-0.961c-1.145,1.661-2.665,3.08-4.49,4.126c-0.615,0.353-15.311,8.686-34.984,12.563    c-5.496,1.073-11.47,1.614-17.778,1.614c-13.32,0-24.064-2.434-24.516-2.537c-5.518-1.268-9.703-5.783-10.547-11.384l-0.617-4.095    c-3.069,2.288-6.167,4.405-9.274,6.333c-9.249,5.752-19.193,10.309-29.659,13.603l-3.096,21.13    c-0.721,4.923-4.037,9.077-8.677,10.868C164.282,484.436,162.598,484.742,160.926,484.742z"/>
	</g>
	<g>
		<g>
			<path style="fill:#FF8C9D;" d="M37.244,244.744c-7.538,37.708-3.955,77.54,15.241,110.821     c23.699,41.087,71.56,70.415,119.526,66.741c18.44-1.413,36.44-6.136,54.601-9.63c16.43-3.161,33.431-5.193,50.155-3.473     c40.64,4.181,72.602,30.625,115.782,18.462c25.268-7.117,46.237-25.661,60.523-47.685     c39.381-60.714,40.593-137.471-0.762-197.648c-38.512-56.04-104.09-97.039-171.619-105.82     C193.64,65.195,110.539,103.528,63.812,177.856C51.255,197.83,42.019,220.861,37.244,244.744z"/>
		</g>
		<g>
			<g>
				<g>
					
						<ellipse transform="matrix(0.1602 -0.9871 0.9871 0.1602 -246.5306 335.1778)" style="fill:#FFE9DC;" cx="73.712" cy="312.47" rx="21.13" ry="21.13"/>
				</g>
				<g>
					<circle style="fill:#FFE9DC;" cx="317.885" cy="374.687" r="21.13"/>
				</g>
				<g>
					<circle style="fill:#FFA9DD;" cx="288.146" cy="81.21" r="21.13"/>
				</g>
			</g>
			<g>
				<polygon style="fill:#FFA9DD;" points="69.799,395.035 162.146,470.948 180.146,348.078     "/>
			</g>
			<g>
				
					<ellipse transform="matrix(0.8817 -0.4719 0.4719 0.8817 -126.5456 243.9534)" style="fill:#FFB289;" cx="423.146" cy="374.296" rx="50.478" ry="50.478"/>
			</g>
		</g>
		<g>
			<circle style="fill:#BD6EEB;" cx="80.755" cy="166.514" r="65.739"/>
		</g>
		<g>
			<g>
				<g>
					<g>
						<path style="fill:#512651;" d="M355.598,409.675c-0.833,0-1.508-0.675-1.508-1.508V72.847c0-0.833,0.675-1.508,1.508-1.508        c0.833,0,1.508,0.675,1.508,1.508v335.32C357.107,409,356.431,409.675,355.598,409.675z"/>
					</g>
					<g>
						<path style="fill:#512651;" d="M334.303,71.718c4.939-0.88,9.932-1.493,14.948-1.84c5.018-0.354,10.055-0.293,15.086-0.128        c10.062,0.444,20.095,1.978,29.862,4.583c9.756,2.648,19.224,6.388,28.198,11.087c8.97,4.712,17.401,10.453,25.157,16.995        c15.567,13.045,28.13,29.659,36.634,48.153c8.498,18.496,12.924,38.888,12.753,59.256c-0.159,20.362-4.758,40.7-13.491,59.095        c-8.734,18.39-21.57,34.788-37.24,47.69c-15.646,12.939-34.148,22.315-53.71,27.404c-9.797,2.486-19.848,3.929-29.918,4.212        c-10.067,0.351-20.153-0.456-30.007-2.353c-0.818-0.158-1.354-0.948-1.196-1.767c0.153-0.793,0.909-1.319,1.7-1.207        c19.419,2.78,39.379,1.639,58.088-3.822c18.726-5.315,36.288-14.637,50.985-27.302c14.651-12.677,26.806-28.291,34.893-45.873        c8.163-17.523,12.505-36.791,12.578-56.123c0.52-38.721-16.84-77.135-46.198-102.567        c-29.041-25.87-69.729-37.819-108.656-32.513c-0.825,0.112-1.586-0.465-1.698-1.291        C332.961,72.604,333.512,71.861,334.303,71.718z"/>
					</g>
				</g>
				<g>
					<g>
						<g>
							<path style="fill:#7182FF;" d="M453.883,283.066c-18.299,24.46-45.817,41.633-77.404,46.392         c-5.839,0.874-11.77,1.334-17.862,1.334c-7.747,0-15.311-0.736-22.621-2.161c-4.422-0.849-12.736-5.858-12.736-5.858         s-9.302-0.548-13.632-2.51c-10.759-4.85-20.644-11.265-29.38-18.943c-3.172-2.759-6.161-5.678-8.989-8.759         c-6.529-7.035-12.161-14.851-16.828-23.288c-5.242-9.471-9.219-19.702-11.724-30.553v-0.023         c-1.977-8.644-3.035-17.633-3.035-26.874c0-5.15,0.322-10.276,0.989-15.265c1.356-10.621,4.115-20.805,8.092-30.345         c13.403-32.346,113.98-73.266,116.026-73.151c7.954,0.391,15.702,1.586,23.173,3.494         c24.345,6.161,45.702,19.863,61.45,38.438C461.469,149.224,464.366,269.089,453.883,283.066z"/>
						</g>
					</g>
					<g>
						<path style="fill:#FFB289;" d="M363.604,137.408c-4.667,8.299-12.345,16.276-10.966,25.702        c0.529,3.609,2.391,6.873,3.471,10.345c4.023,12.828-4.46,28.162-17.472,31.564c-2.759,0.736-5.724,1.012-8.161,2.506        c-4.46,2.782-5.839,8.782-9.885,12.138c-5.218,4.276-14.414,3.931-16.851,10.23c-1.862,4.782,2.092,10.092,6.782,12.161        c4.713,2.046,10.023,1.977,15.058,3.057c5.012,1.081,10.299,4,11.449,9.012c0.713,3.104-0.322,6.621,1.149,9.449        c2.529,4.851,9.885,4.069,14.161,7.494c5.218,4.161,3.471,12.069-0.506,17.885c-0.759,1.104-1.586,2.115-2.46,3.035        c-5.517,5.724-12.92,11.034-13.587,18.966c-0.276,3.494,0.874,6.942,1.126,10.46c0.184,2.414-0.138,4.897-0.919,7.219        c-9.219-1.77-18.046-4.598-26.368-8.368c-0.874-3.793-2.069-7.402-4.828-9.954c-4.276-3.977-10.736-3.954-16.391-5.402        c-2.897-0.736-5.655-1.977-8.161-3.586c-3.54-2.253-6.621-5.265-8.989-8.759c-2.161-3.196-3.724-6.805-4.483-10.621        c-0.391-1.977-0.552-3.977-0.483-5.977c0.184-9.058,4.598-18.046,11.908-23.449c6.667-4.943,15.839-7.563,19.311-15.104        c-6-3.655-12.115-7.426-16.529-12.92c-4.391-5.471-6.805-13.081-4.322-19.656c1.655-4.368,5.264-7.908,6.299-12.46        c-11.678-2.575-24.644-6.046-30.782-16.299c-1.793-3.012-2.828-6.391-3.425-9.862c13.403-32.346,40.737-57.473,74.53-67.979        c11.15-3.471,23.035-5.333,35.334-5.333c2.069,0,4.115,0.046,6.161,0.161C371.352,106.395,369.926,126.189,363.604,137.408z"/>
					</g>
					<g>
						<path style="fill:#FFB289;" d="M477.584,211.823c0,7.931-0.759,15.656-2.23,23.127c-3.517,17.77-10.989,34.139-21.472,48.116        c-17.564,0.414-26.598-29.104-44.507-27.058c-8.276,0.966-16.437,8.874-23.748,4.874c-7.885-4.322-4.483-16.644-8.69-24.575        c-1.931-3.632-5.632-6.644-5.701-10.759c-0.046-2.644,1.494-5.012,2.552-7.449c5.081-11.678,0.184-27.403,9.219-36.369        c5.241-5.195,13.724-6.253,18.506-11.885c3.954-4.644,4.506-11.449,8.276-16.23c2.828-3.563,7.081-5.61,11.196-7.518        c9.426-4.391,18.874-11.678,28.414-11.104c12.069,14.23,20.874,31.334,25.173,50.139        C476.55,193.731,477.584,202.674,477.584,211.823z"/>
					</g>
				</g>
				<g style="opacity:0.25;">
					<path style="fill:#512651;" d="M477.584,211.823c0,7.931-0.759,15.656-2.23,23.127c-9.655,48.898-49.243,87.036-98.876,94.508       c-5.839,0.874-11.77,1.334-17.862,1.334c-7.747,0-15.311-0.736-22.621-2.161c-9.219-1.77-18.046-4.598-26.368-8.368       c-10.759-4.85-20.644-11.265-29.38-18.943c-3.172-2.759-6.161-5.678-8.989-8.759c-6.529-7.035-12.161-14.851-16.828-23.288       c3.793,2.529,7.747,4.736,11.862,6.69c11.77,5.655,24.69,9.104,37.61,11.288c14.897,2.506,30.162,3.356,45.173,1.954       c0.92-0.069,1.839-0.161,2.759-0.253c6.253-0.689,12.437-1.793,18.552-3.333c31.61-8,59.657-28.047,79.335-54.07       c0.529-0.69,1.08-1.402,1.586-2.138c9.885-13.518,17.61-28.483,23.265-44.277C476.55,193.731,477.584,202.674,477.584,211.823z       "/>
				</g>
			</g>
			<g>
				<path style="fill:#512651;" d="M358.581,384.47h-5.478c-3.013,0-5.478-2.465-5.478-5.478l0,0c0-3.013,2.465-5.478,5.478-5.478      h5.478c3.013,0,5.478,2.465,5.478,5.478l0,0C364.059,382.005,361.594,384.47,358.581,384.47z"/>
			</g>
			<g>
				<path style="fill:#512651;" d="M383.513,431.415h-56.116c1.195-14.46,13.288-25.817,28.047-25.817      S382.318,416.955,383.513,431.415z"/>
			</g>
		</g>
		<g>
			<g>
				<g>
					<path style="fill:#7182FF;" d="M187.968,134.03v25.058l-3.01,8.506l3.01,8.506v218.35l-2.876,9.155l2.876,7.857v16.046       c0,0-14.092,5.471-32.093,6.276c-18.115,0.782-36.001-6.276-36.001-6.276v-16.046l3.237-7.681l-3.237-9.331V176.1l2.602-8.506       l-2.602-8.506V134.03H187.968z"/>
				</g>
				<g>
					<rect x="119.874" y="159.088" style="fill:#FFB289;" width="68.094" height="17.012"/>
				</g>
				<g>
					<rect x="119.874" y="394.45" style="fill:#FFB289;" width="68.094" height="17.012"/>
				</g>
				<g>
					
						<ellipse transform="matrix(0.982 -0.1891 0.1891 0.982 -37.2019 32.7369)" style="fill:#FFE9DC;" cx="152.951" cy="211.318" rx="15.848" ry="15.848"/>
				</g>
			</g>
			<g>
				<g>
					<g>
						<path style="fill:#BD6EEB;" d="M255.6,133.562l43.81,290.19c0,0-13.118,7.514-30.796,10.997        c-17.796,3.477-36.535-0.832-36.535-0.832l-43.81-290.19L255.6,133.562z"/>
					</g>
				</g>
				<g>
					<path style="fill:#FFE9DC;" d="M251.064,420.148c-0.166,0-0.311-0.12-0.338-0.289c-0.948-6.005-6.616-10.178-12.628-9.297       c-0.193,0.029-0.358-0.101-0.388-0.285l-38.116-241.585c-0.029-0.187,0.098-0.362,0.284-0.391       c6.053-0.974,10.2-6.693,9.243-12.749c-0.029-0.187,0.098-0.362,0.283-0.391l28.414-4.572c0.198-0.032,0.362,0.098,0.393,0.283       c0.981,6.065,6.724,10.209,12.78,9.228c0.199-0.025,0.362,0.098,0.393,0.284l39.147,241.857       c0.015,0.091-0.008,0.183-0.063,0.257c-0.054,0.074-0.135,0.123-0.226,0.136c-2.98,0.435-5.601,2.012-7.382,4.441       c-1.781,2.429-2.496,5.403-2.015,8.376c0.015,0.091-0.008,0.183-0.063,0.257c-0.053,0.074-0.135,0.123-0.226,0.136l-29.444,4.3       C251.096,420.146,251.08,420.148,251.064,420.148z M239.703,409.76c5.608,0,10.589,4.029,11.642,9.658l28.774-4.203       c-0.402-3.04,0.369-6.062,2.19-8.546c1.821-2.484,4.471-4.129,7.492-4.659l-39.037-241.186       c-6.206,0.815-11.994-3.367-13.168-9.508l-27.749,4.465c0.797,6.188-3.392,11.968-9.523,13.134l38.012,240.924       C238.794,409.786,239.249,409.76,239.703,409.76z"/>
				</g>
			</g>
		</g>
		<g>
			<g>
				<path style="fill:#512651;" d="M202.954,112.432c-0.061,0-0.123-0.016-0.179-0.05c-0.16-0.099-0.211-0.31-0.112-0.471      c0.834-1.364,1.661-2.731,2.479-4.102c0.098-0.163,0.306-0.215,0.469-0.118c0.163,0.098,0.215,0.308,0.119,0.47      c-0.821,1.372-1.647,2.742-2.484,4.108C203.182,112.374,203.07,112.432,202.954,112.432z"/>
			</g>
			<g>
				<path style="fill:#512651;" d="M202.782,112.39c-0.165-0.11-0.219-0.315-0.124-0.479l0,0c0.096-0.164,0.316-0.205,0.48-0.11l0,0      c0.151,0.096,0.205,0.301,0.11,0.466l0,0c-0.068,0.109-0.178,0.164-0.301,0.164l0,0      C202.892,112.431,202.837,112.418,202.782,112.39z"/>
			</g>
			<g>
				<path style="fill:#512651;" d="M139.182,444.329L139.182,444.329c-3.164-0.068-6.354-0.287-9.516-0.643      c-0.178-0.014-0.301-0.164-0.301-0.342c0-0.014,0-0.014,0-0.027c0.013-0.192,0.191-0.315,0.382-0.302      c3.122,0.356,6.299,0.562,9.448,0.63c0.096,0,0.178,0.042,0.233,0.11c0.068,0.069,0.096,0.151,0.096,0.247      C139.524,444.179,139.373,444.329,139.182,444.329z M148.683,444.097c-0.178,0-0.328-0.136-0.342-0.315v-0.027      c0-0.178,0.138-0.328,0.316-0.342c1.082-0.082,2.163-0.178,3.177-0.287c2.026-0.205,4.093-0.479,6.188-0.822      c0.013,0,0.028,0,0.041,0h0.013c0.178-0.027,0.356,0.096,0.384,0.274c0,0.027,0,0.041,0,0.055c0,0.164-0.11,0.302-0.274,0.342      c0,0,0,0-0.013,0c-0.015,0.013-0.028,0.013-0.055,0.013c-2.014,0.315-4.108,0.603-6.203,0.822      c-1.04,0.11-2.122,0.205-3.204,0.287C148.698,444.097,148.683,444.097,148.683,444.097z M120.313,442.207      c-0.013,0-0.042,0-0.068-0.013c-3.094-0.63-6.203-1.411-9.242-2.315c-0.136-0.041-0.233-0.178-0.233-0.328      c0-0.041,0-0.068,0.013-0.096c0.041-0.178,0.246-0.288,0.41-0.233h0.015c0,0,0.013,0,0.027,0.014      c2.999,0.89,6.08,1.67,9.146,2.3c0.164,0.028,0.287,0.164,0.287,0.328c0,0.027-0.013,0.042-0.013,0.068      C120.629,442.098,120.478,442.207,120.313,442.207z M167.428,441.085c-0.165,0-0.301-0.11-0.329-0.26      c-0.013-0.027-0.013-0.055-0.013-0.082c0-0.151,0.11-0.288,0.261-0.329c3.066-0.753,6.133-1.643,9.104-2.642      c0.178-0.055,0.37,0.054,0.425,0.219c0.013,0.042,0.013,0.069,0.013,0.11c0.013,0.15-0.083,0.274-0.233,0.329      c-2.999,1-6.08,1.889-9.147,2.656C167.483,441.085,167.455,441.085,167.428,441.085z M102.13,436.758      c-0.04,0-0.082-0.013-0.123-0.027c-2.943-1.177-5.859-2.506-8.667-3.957c-0.123-0.055-0.191-0.178-0.191-0.315      c0-0.055,0.013-0.096,0.041-0.136c0.082-0.164,0.301-0.233,0.465-0.151c2.765,1.424,5.668,2.738,8.612,3.93      c0.123,0.041,0.205,0.164,0.205,0.301c0,0.054,0,0.096-0.013,0.136C102.404,436.676,102.281,436.758,102.13,436.758z       M185.434,435.074c-0.138,0-0.261-0.082-0.315-0.205c-0.013-0.042-0.027-0.096-0.027-0.137c0-0.137,0.082-0.26,0.205-0.315      c2.903-1.232,5.778-2.601,8.558-4.067c0.164-0.082,0.384-0.027,0.465,0.137c0.028,0.055,0.041,0.11,0.041,0.164      c0,0.137-0.068,0.247-0.178,0.302c-2.807,1.478-5.696,2.847-8.613,4.094C185.529,435.061,185.489,435.074,185.434,435.074z       M85.262,428.077c-0.055,0-0.123-0.027-0.178-0.055c-2.684-1.739-5.286-3.601-7.737-5.573c-0.082-0.054-0.136-0.15-0.136-0.26      c0-0.082,0.027-0.15,0.082-0.219c0.11-0.137,0.329-0.164,0.479-0.055c2.424,1.944,5.012,3.806,7.682,5.532      c0.096,0.055,0.151,0.164,0.151,0.273c0.013,0.069-0.015,0.137-0.041,0.192C85.495,428.009,85.385,428.077,85.262,428.077z       M202.234,426.229c-0.11,0-0.219-0.055-0.287-0.15c-0.027-0.055-0.055-0.124-0.055-0.178c0-0.123,0.068-0.233,0.165-0.301      c2.629-1.671,5.258-3.492,7.79-5.395c0.151-0.096,0.37-0.069,0.48,0.068c0.041,0.055,0.068,0.123,0.068,0.192      c0,0.11-0.042,0.219-0.136,0.288c-2.589,1.944-5.217,3.765-7.818,5.422c-0.015,0-0.015,0-0.015,0      C202.37,426.215,202.302,426.229,202.234,426.229z M70.475,416.206c-0.096,0-0.179-0.041-0.247-0.096      c-2.258-2.259-4.395-4.655-6.353-7.106c-0.055-0.068-0.083-0.15-0.083-0.219c0.015-0.109,0.055-0.205,0.138-0.26      c0.15-0.123,0.369-0.096,0.479,0.055c1.931,2.424,4.039,4.779,6.285,7.024c0,0,0.015,0,0.028,0.014v0.013      c0.068,0.069,0.096,0.151,0.096,0.233c0,0.096-0.041,0.178-0.096,0.246C70.652,416.165,70.57,416.206,70.475,416.206z       M217.446,414.851c-0.11,0-0.193-0.041-0.261-0.11c-0.055-0.068-0.081-0.137-0.081-0.219c0-0.11,0.04-0.206,0.11-0.274      c2.327-1.999,4.655-4.176,6.956-6.436c0.123-0.136,0.356-0.136,0.479,0c0.068,0.069,0.11,0.151,0.11,0.247      c0,0.082-0.042,0.178-0.11,0.233c-2.286,2.259-4.628,4.437-6.969,6.463c0,0.013,0,0.013-0.013,0.013      C217.596,414.823,217.528,414.851,217.446,414.851z M230.974,401.528c-0.083,0-0.165-0.041-0.233-0.096      c-0.068-0.055-0.11-0.137-0.11-0.233c0-0.082,0.027-0.164,0.082-0.233v-0.013c0.013-0.014,0.028-0.027,0.041-0.027      c2.054-2.286,4.121-4.71,6.133-7.175c0.11-0.136,0.329-0.164,0.48-0.055c0.082,0.069,0.123,0.164,0.123,0.274      c0,0.068-0.027,0.15-0.068,0.205c-2.04,2.506-4.121,4.943-6.19,7.23c-0.013,0.013-0.013,0.013-0.013,0.013      C231.152,401.487,231.069,401.528,230.974,401.528z M58.699,401.35c-0.123,0-0.233-0.055-0.301-0.164      c-1.67-2.725-3.164-5.559-4.463-8.421c-0.028-0.055-0.028-0.096-0.028-0.137c-0.013-0.137,0.068-0.274,0.206-0.329      c0.15-0.068,0.369,0.014,0.437,0.179c1.288,2.834,2.78,5.641,4.437,8.352c0.042,0.054,0.055,0.123,0.055,0.191      c-0.013,0.124-0.068,0.219-0.164,0.288C58.822,401.336,58.753,401.35,58.699,401.35z M242.981,386.809      c-0.068,0-0.15-0.027-0.205-0.068c-0.096-0.069-0.138-0.178-0.138-0.288c0-0.069,0.028-0.137,0.068-0.192      c1.821-2.451,3.67-5.052,5.518-7.736c0.096-0.137,0.316-0.178,0.465-0.082c0.096,0.068,0.151,0.178,0.151,0.287      c0,0.055-0.013,0.123-0.055,0.178c0,0,0,0,0,0.014c-0.013,0.013-0.013,0.013-0.027,0.027c-1.794,2.615-3.642,5.217-5.505,7.723      C243.187,386.754,243.091,386.809,242.981,386.809z M50.854,384.084c-0.151,0-0.274-0.096-0.329-0.233      c-0.931-2.984-1.725-6.093-2.341-9.242l0,0c0-0.027,0-0.055,0-0.068c0-0.164,0.11-0.302,0.274-0.342      c0.178-0.027,0.369,0.096,0.397,0.274c0.602,3.094,1.383,6.175,2.313,9.132c0,0.013,0.013,0.027,0.013,0.041v0.014      c0.015,0.027,0.015,0.055,0.015,0.082c0,0.151-0.096,0.288-0.247,0.329C50.922,384.084,50.894,384.084,50.854,384.084z       M253.744,371.145c-0.068,0-0.136-0.027-0.191-0.055c-0.096-0.068-0.151-0.178-0.151-0.287c0-0.069,0.013-0.137,0.055-0.192      c1.683-2.642,3.368-5.354,4.997-8.065c0.096-0.164,0.316-0.219,0.467-0.123c0.11,0.069,0.178,0.178,0.164,0.302      c0,0.068-0.015,0.123-0.041,0.164c-1.685,2.807-3.368,5.532-5.012,8.092C253.963,371.076,253.867,371.145,253.744,371.145z       M47.211,365.476c-0.178,0-0.316-0.137-0.342-0.315c-0.233-2.779-0.356-5.627-0.356-8.435c0-0.37,0-0.725,0.013-1.095      c0-0.192,0.15-0.342,0.329-0.342c0.205,0.014,0.356,0.164,0.342,0.356c0,0.356,0,0.711,0,1.081c0,2.793,0.123,5.614,0.356,8.38      v0.014c0,0,0,0.013,0,0.027c0,0.164-0.138,0.315-0.316,0.328C47.238,365.476,47.225,365.476,47.211,365.476z M263.561,354.865      c-0.055,0-0.123-0.013-0.164-0.041c-0.11-0.069-0.178-0.178-0.178-0.302c0-0.055,0.013-0.123,0.042-0.178      c1.383-2.396,2.875-5.012,4.683-8.257c0.082-0.164,0.301-0.233,0.465-0.136c0.11,0.055,0.178,0.178,0.178,0.301      c0,0.055-0.013,0.11-0.042,0.165c-1.697,3.04-3.23,5.751-4.683,8.27C263.794,354.797,263.684,354.865,263.561,354.865z       M47.389,346.499c-0.013,0-0.028,0-0.041-0.014c-0.164-0.013-0.301-0.164-0.301-0.328c0-0.014,0-0.027,0-0.042      c0.301-3.108,0.753-6.285,1.314-9.433c0.042-0.178,0.206-0.315,0.397-0.274c0.164,0.027,0.287,0.164,0.287,0.342      c0,0.014,0,0.041-0.013,0.055c-0.561,3.149-1,6.299-1.301,9.379C47.703,346.362,47.554,346.499,47.389,346.499z M272.83,338.27      c-0.053,0-0.108-0.013-0.163-0.041c-0.11-0.055-0.179-0.178-0.179-0.302c0-0.055,0.028-0.109,0.055-0.164      c1.589-2.903,3.19-5.846,4.56-8.325c0.083-0.164,0.302-0.233,0.467-0.137c0.108,0.055,0.178,0.178,0.178,0.302      c0,0.054-0.015,0.109-0.041,0.164c-0.862,1.575-1.74,3.163-2.602,4.737c-0.657,1.191-1.314,2.396-1.971,3.587      c0,0.014,0,0.014,0,0.014C273.064,338.215,272.954,338.27,272.83,338.27z M50.729,327.796c-0.027,0-0.055,0-0.082-0.013      c-0.151-0.027-0.261-0.164-0.261-0.329c0-0.027,0-0.055,0.015-0.082c0.779-3.026,1.67-6.107,2.684-9.146      c0.04-0.164,0.246-0.274,0.424-0.219c0.138,0.055,0.233,0.192,0.233,0.329c0,0.041,0,0.082-0.013,0.109      c-1,3.053-1.903,6.107-2.67,9.106C51.017,327.7,50.894,327.796,50.729,327.796z M281.991,321.621      c-0.055,0-0.11-0.014-0.165-0.041c-0.11-0.068-0.178-0.178-0.178-0.301c0-0.069,0.013-0.124,0.042-0.164      c1.711-3.067,3.23-5.778,4.669-8.284c0.095-0.164,0.314-0.219,0.465-0.137c0.11,0.068,0.178,0.178,0.178,0.287      c0,0.068-0.013,0.137-0.055,0.192c-1.411,2.478-2.903,5.107-4.656,8.256v0.013C282.237,321.552,282.114,321.621,281.991,321.621      z M56.658,309.75c-0.04,0-0.082-0.014-0.123-0.027c-0.136-0.055-0.219-0.179-0.219-0.329c0-0.041,0.015-0.068,0.028-0.11      c1.177-2.944,2.451-5.887,3.792-8.736c0.083-0.164,0.287-0.247,0.452-0.164c0.123,0.055,0.206,0.178,0.206,0.301      c0,0.055-0.013,0.11-0.041,0.15c-1.328,2.848-2.601,5.778-3.779,8.695C56.919,309.667,56.796,309.75,56.658,309.75z       M291.452,305.135c-0.068,0-0.123-0.027-0.178-0.055c-0.11-0.069-0.164-0.178-0.164-0.302c0-0.055,0.013-0.123,0.041-0.164      c1.697-2.821,3.368-5.546,4.983-8.106c0.096-0.15,0.314-0.205,0.479-0.109c0.096,0.068,0.151,0.164,0.151,0.288      c0,0.068-0.013,0.123-0.055,0.191c-1.63,2.575-3.3,5.299-4.97,8.092C291.685,305.066,291.575,305.135,291.452,305.135z       M64.737,292.552c-0.055,0-0.11-0.014-0.164-0.041c-0.11-0.055-0.178-0.178-0.178-0.301c0-0.055,0.013-0.11,0.042-0.164      c1.464-2.711,3.053-5.491,4.696-8.257c0.013,0,0.013,0,0.013-0.013c0.096-0.15,0.316-0.205,0.465-0.11      c0.11,0.055,0.179,0.178,0.164,0.301c0,0.068-0.013,0.123-0.04,0.164c-1.643,2.753-3.232,5.518-4.697,8.243      C64.983,292.483,64.86,292.552,64.737,292.552z M301.625,289.088c-0.068,0-0.136-0.027-0.191-0.068      c-0.096-0.055-0.151-0.164-0.151-0.274c0-0.068,0.013-0.137,0.055-0.191c0.439-0.658,0.959-1.411,1.492-2.177      c1.329-1.93,2.684-3.806,4.039-5.586c0.11-0.15,0.329-0.178,0.48-0.068c0.082,0.068,0.123,0.15,0.136,0.26      c0,0.082-0.028,0.15-0.068,0.219c-1.314,1.725-2.629,3.546-4.026,5.572c-0.479,0.685-0.959,1.397-1.479,2.164      C301.844,289.019,301.735,289.088,301.625,289.088z M74.473,276.245c-0.07,0-0.138-0.027-0.193-0.055      c-0.095-0.068-0.15-0.178-0.15-0.288c0-0.068,0.013-0.137,0.055-0.192c1.657-2.547,3.382-5.135,5.298-7.9      c0.11-0.15,0.329-0.191,0.48-0.082c0.096,0.055,0.15,0.164,0.15,0.288c0,0.068-0.027,0.123-0.068,0.191      c-1.903,2.738-3.628,5.326-5.284,7.873C74.691,276.176,74.582,276.245,74.473,276.245z M313.141,273.971      c-0.082,0-0.164-0.027-0.219-0.082c-0.082-0.068-0.123-0.164-0.123-0.273c0.013-0.069,0.041-0.15,0.082-0.205l0,0      c0.015,0,0.015-0.014,0.028-0.014c2.19-2.478,4.422-4.778,6.627-6.819c0.138-0.137,0.37-0.123,0.493,0.014      c0.055,0.068,0.095,0.15,0.082,0.246c0,0.082-0.041,0.178-0.11,0.233c-2.19,2.026-4.409,4.314-6.599,6.791c0,0,0,0-0.015,0      C313.332,273.931,313.237,273.971,313.141,273.971z M327.148,261.17c-0.11,0-0.219-0.055-0.288-0.137      c-0.028-0.069-0.055-0.124-0.055-0.192c0-0.123,0.04-0.233,0.136-0.288c2.697-1.903,5.464-3.519,8.215-4.82      c0,0,0.013,0,0.027-0.014c0,0,0,0,0.015,0c0.164-0.081,0.369,0,0.437,0.164c0.028,0.041,0.041,0.096,0.041,0.151      c0,0.123-0.082,0.246-0.191,0.301c0,0,0,0-0.015,0l-0.013,0.014c-2.738,1.287-5.464,2.889-8.119,4.765      C327.285,261.142,327.216,261.17,327.148,261.17z M85.275,260.608c-0.068,0-0.136-0.027-0.206-0.069      c-0.082-0.068-0.136-0.178-0.136-0.287c0-0.068,0.027-0.136,0.055-0.178c0.013-0.013,0.013-0.013,0.013-0.013      c0-0.014,0.013-0.027,0.028-0.027c1.725-2.383,3.56-4.861,5.627-7.613c0.11-0.137,0.342-0.178,0.48-0.069      c0.082,0.069,0.136,0.151,0.136,0.261c0.013,0.082-0.013,0.15-0.055,0.219h-0.013c0,0.014-0.013,0.014-0.013,0.027      c-2.027,2.698-3.875,5.176-5.628,7.586c0,0,0,0.014-0.013,0.027c0,0,0,0-0.013,0C85.481,260.553,85.385,260.608,85.275,260.608z       M344.277,253.242c-0.151,0-0.288-0.11-0.329-0.274c-0.013-0.027-0.013-0.055-0.013-0.082c0-0.15,0.11-0.288,0.274-0.328      l0.205-0.041c0.193-0.041,0.37,0.069,0.41,0.26c0.015,0.082,0,0.179-0.055,0.26c-0.04,0.069-0.123,0.124-0.205,0.151      c-0.028,0-0.068,0.013-0.096,0.013c-0.041,0.014-0.068,0.014-0.11,0.027h-0.013      C344.318,253.228,344.304,253.242,344.277,253.242z M96.694,245.41c-0.068,0-0.151-0.027-0.204-0.068      c-0.083-0.069-0.138-0.165-0.138-0.26c0-0.082,0.028-0.164,0.068-0.219c1.74-2.259,3.506-4.546,5.218-6.751l0.602-0.78l0,0      c0.123-0.137,0.342-0.164,0.48-0.055c0.082,0.055,0.123,0.15,0.123,0.26c0.013,0.082-0.013,0.15-0.068,0.219      c-2.232,2.876-4.081,5.272-5.806,7.517C96.9,245.355,96.804,245.41,96.694,245.41z M108.319,230.362      c-0.083,0-0.151-0.027-0.206-0.069c-0.082-0.055-0.136-0.15-0.136-0.26c-0.013-0.082,0.013-0.15,0.068-0.219      c2.205-2.875,4.04-5.285,5.751-7.558c0.11-0.15,0.329-0.178,0.479-0.068c0.083,0.068,0.138,0.15,0.138,0.26      c0,0.082-0.015,0.15-0.069,0.219c-1.642,2.191-3.477,4.6-5.75,7.558C108.524,230.321,108.429,230.362,108.319,230.362z       M119.725,215.164c-0.068,0-0.138-0.014-0.192-0.055c-0.095-0.069-0.15-0.178-0.15-0.302c0-0.055,0.027-0.123,0.055-0.178      c0.013,0,0.013,0,0.013,0c0.013-0.013,0.013-0.027,0.027-0.041c1.562-2.15,2.903-4.039,4.122-5.778      c0.534-0.753,0.959-1.369,1.341-1.931c0.11-0.15,0.329-0.191,0.48-0.082c0.095,0.055,0.15,0.164,0.15,0.274      c0,0.068-0.027,0.123-0.055,0.178c0,0.014,0,0.014,0,0.014l-0.04-0.014l0.027,0.027c0,0.014-0.013,0.014-0.013,0.028      c-0.439,0.63-0.891,1.274-1.328,1.903c-1.342,1.931-2.738,3.875-4.149,5.805l-0.013,0.014      C119.944,215.122,119.835,215.164,119.725,215.164z M130.405,199.445c-0.068,0-0.123-0.014-0.178-0.055      c-0.096-0.055-0.164-0.151-0.164-0.274c0-0.068,0.013-0.137,0.055-0.192c1.766-2.916,3.259-5.627,4.573-8.297      c0.068-0.164,0.287-0.233,0.452-0.151c0.11,0.055,0.191,0.165,0.191,0.288c0,0.069-0.013,0.124-0.04,0.164      c-1.314,2.698-2.821,5.436-4.601,8.352C130.637,199.391,130.528,199.445,130.405,199.445z M101.213,187.259      c-0.369,0-0.698,0-1.012-0.013c-0.096,0-0.179-0.041-0.247-0.11c-0.055-0.055-0.095-0.15-0.095-0.233      c0-0.192,0.163-0.342,0.342-0.342c0.246,0.013,0.479,0.013,0.725,0.013h0.287c0.548,0,1.042-0.013,1.534-0.027      c2.273-0.055,4.601-0.219,6.901-0.493c0.178-0.013,0.356,0.11,0.37,0.301c0,0.013,0,0.027,0,0.041      c0.013,0.164-0.124,0.315-0.302,0.342c-2.3,0.26-4.641,0.438-6.941,0.493C102.268,187.245,101.733,187.259,101.213,187.259z       M90.752,186.287c-0.013,0-0.041,0-0.055-0.013c-3.245-0.616-6.339-1.506-9.187-2.67c-0.123-0.055-0.206-0.178-0.206-0.315      c0-0.041,0-0.082,0.015-0.137c0.068-0.164,0.273-0.26,0.452-0.178c2.792,1.137,5.833,2.026,9.05,2.629      c0.165,0.027,0.274,0.178,0.274,0.329c0,0.027,0,0.055,0,0.082C91.053,186.164,90.917,186.287,90.752,186.287z M119.04,185.096      c-0.164,0-0.301-0.11-0.342-0.274c0-0.027,0-0.055,0-0.082c0-0.15,0.11-0.287,0.259-0.328c3.026-0.712,6.093-1.602,9.078-2.656      c0.179-0.055,0.37,0.041,0.439,0.205c0.013,0.041,0.013,0.082,0.013,0.123c0,0.137-0.081,0.274-0.218,0.315      c-3.026,1.068-6.107,1.971-9.161,2.684C119.082,185.082,119.067,185.096,119.04,185.096z M138.661,182.371      c-0.041,0-0.068-0.013-0.11-0.027c-0.138-0.041-0.233-0.164-0.233-0.315c0-0.041,0.013-0.082,0.027-0.11      c0.493-1.465,0.932-2.916,1.301-4.326c-0.849,0.41-1.712,0.821-2.547,1.218c-0.178,0.082-0.383,0-0.452-0.164      c-0.027-0.055-0.04-0.096-0.04-0.151c0-0.137,0.082-0.246,0.205-0.301c1.027-0.479,2.054-0.972,3.054-1.479      c0.314-1.328,0.575-2.656,0.781-3.943c0.027-0.192,0.218-0.315,0.396-0.287c0.165,0.027,0.289,0.164,0.289,0.342      c0,0.013,0,0.027,0,0.054c-0.179,1.123-0.412,2.287-0.671,3.423c1.534-0.794,3.053-1.629,4.545-2.478      c0.164-0.096,0.384-0.042,0.48,0.123c0.027,0.041,0.042,0.11,0.042,0.15c0,0.137-0.07,0.247-0.179,0.315      c-1.67,0.972-3.395,1.903-5.093,2.766c-0.397,1.616-0.889,3.286-1.465,4.957C138.936,182.275,138.811,182.371,138.661,182.371z       M73.376,179.003c-0.082,0-0.15-0.027-0.205-0.068c-2.657-2.013-4.875-4.354-6.587-6.942c-0.04-0.068-0.055-0.137-0.055-0.205      c0-0.11,0.055-0.219,0.151-0.274c0.151-0.109,0.37-0.054,0.479,0.096c1.657,2.533,3.82,4.806,6.422,6.777      c0.082,0.055,0.123,0.151,0.136,0.247c0,0.082-0.027,0.164-0.068,0.233C73.582,178.948,73.473,179.003,73.376,179.003z       M153.407,169.363c-0.11,0-0.219-0.055-0.288-0.15c-0.042-0.055-0.055-0.11-0.055-0.178c0-0.124,0.055-0.233,0.138-0.288      c2.559-1.78,5.107-3.697,7.571-5.71c0.138-0.123,0.37-0.096,0.48,0.041c0.055,0.068,0.082,0.15,0.082,0.219      c0,0.11-0.055,0.206-0.123,0.274c-2.478,2.013-5.025,3.943-7.586,5.71c-0.013,0.014-0.013,0.014-0.027,0.027h-0.015      C153.53,169.35,153.475,169.363,153.407,169.363z M141.51,163.695c-0.193,0-0.342-0.136-0.342-0.328l-0.028-0.329      c-0.178-2.984-0.726-5.983-1.602-8.927c-0.013-0.027-0.013-0.068-0.013-0.096c0-0.15,0.096-0.288,0.246-0.328      c0.178-0.055,0.37,0.054,0.425,0.219c0,0.014,0,0.014,0,0.014c0,0.013,0,0.013,0,0.027c0.889,2.957,1.437,6.01,1.629,9.05      c0.013,0.055,0.013,0.123,0.013,0.178l0.015,0.178c0,0.178-0.151,0.329-0.329,0.342H141.51z M63.245,163.421      c-0.165,0-0.301-0.124-0.329-0.274c-0.329-1.629-0.493-3.299-0.493-4.984c0-1.533,0.138-3.067,0.397-4.6      c0.028-0.178,0.206-0.301,0.384-0.273c0.165,0.027,0.287,0.178,0.287,0.342c0,0.013,0,0.027,0,0.055      c-0.246,1.492-0.384,2.999-0.384,4.477c0,1.643,0.165,3.273,0.48,4.834c0,0,0,0,0,0.013c0,0.014,0,0.042,0,0.069      c0,0.164-0.11,0.301-0.274,0.328C63.3,163.421,63.271,163.421,63.245,163.421z M168.113,157.369      c-0.096,0-0.178-0.041-0.246-0.11c-0.055-0.069-0.096-0.15-0.096-0.247c0.013-0.096,0.041-0.178,0.11-0.246      c2.258-2.123,4.505-4.382,6.682-6.723c0.123-0.137,0.342-0.137,0.493-0.014c0.055,0.069,0.095,0.151,0.095,0.233      c0.015,0.096-0.027,0.178-0.082,0.246c-2.218,2.383-4.478,4.655-6.71,6.764C168.291,157.328,168.209,157.369,168.113,157.369z       M136.142,145.635c-0.124,0-0.234-0.068-0.302-0.178c-1.547-2.738-3.395-5.299-5.504-7.613      c-0.068-0.068-0.096-0.164-0.096-0.246c0.013-0.096,0.041-0.178,0.11-0.247c0.136-0.123,0.37-0.11,0.493,0.027      c2.135,2.355,4.025,4.957,5.6,7.75c0.027,0.041,0.042,0.109,0.042,0.164c0,0.124-0.07,0.233-0.179,0.301      C136.265,145.621,136.197,145.635,136.142,145.635z M66.106,144.977c-0.041,0-0.096-0.013-0.151-0.041      c-0.11-0.055-0.191-0.178-0.178-0.315c0-0.041,0-0.096,0.028-0.137c1.409-2.834,3.204-5.504,5.339-7.941      c0.123-0.137,0.357-0.151,0.493-0.027c0.068,0.068,0.11,0.164,0.11,0.26c0,0.082-0.028,0.164-0.083,0.219      c-2.094,2.383-3.86,4.998-5.244,7.777v0.014C66.367,144.895,66.243,144.977,66.106,144.977z M181.107,143.499      c-0.083,0-0.164-0.027-0.219-0.082c-0.083-0.069-0.123-0.165-0.123-0.261c0-0.081,0.027-0.164,0.082-0.219      c1.958-2.355,3.943-4.847,5.887-7.421c0.124-0.151,0.342-0.192,0.493-0.069c0.082,0.055,0.123,0.15,0.123,0.247      c0.013,0.082-0.013,0.165-0.055,0.233c-1.957,2.574-3.943,5.08-5.929,7.448C181.298,143.458,181.202,143.499,181.107,143.499z       M123.436,131.724c-0.068,0-0.138-0.027-0.193-0.069c-0.602-0.397-1.095-0.725-1.574-1.013      c-2.122-1.314-4.395-2.424-6.764-3.313c-0.136-0.041-0.233-0.178-0.219-0.316c0-0.041,0-0.082,0.015-0.123      c0.068-0.178,0.274-0.26,0.437-0.192c2.411,0.904,4.738,2.026,6.888,3.355c0.562,0.342,1.095,0.699,1.615,1.041      c0.083,0.068,0.151,0.164,0.151,0.288c-0.013,0.068-0.027,0.136-0.068,0.191C123.655,131.669,123.559,131.724,123.436,131.724z       M78.525,130.847c-0.124,0-0.219-0.055-0.287-0.15c-0.028-0.055-0.055-0.124-0.055-0.192c0-0.11,0.055-0.205,0.136-0.274h0.013      c0.015-0.013,0.028-0.013,0.028-0.027c1.712-1.137,3.505-2.109,5.339-2.902c1.042-0.452,2.137-0.863,3.245-1.233      c0.178-0.068,0.384,0.042,0.439,0.219c0.013,0.027,0.013,0.068,0.013,0.096c0,0.151-0.096,0.287-0.233,0.329      c-1.095,0.37-2.177,0.767-3.19,1.219c-1.821,0.78-3.588,1.739-5.258,2.861l-0.013,0.013      C78.648,130.833,78.594,130.847,78.525,130.847z M192.594,128.369c-0.068,0-0.136-0.027-0.191-0.068      c-0.096-0.055-0.151-0.164-0.151-0.274c0-0.068,0.028-0.137,0.068-0.192c1.74-2.506,3.519-5.162,5.286-7.886      c0.096-0.15,0.314-0.205,0.479-0.096c0.151,0.096,0.193,0.301,0.096,0.466c-1.753,2.711-3.546,5.367-5.299,7.9      C192.814,128.314,192.704,128.369,192.594,128.369z M105.827,125.042c-0.013,0-0.027,0-0.055,0      c-3.081-0.424-6.23-0.493-9.392-0.219c-0.192,0.013-0.357-0.124-0.384-0.315c0-0.014,0-0.014,0-0.027      c0-0.178,0.136-0.329,0.314-0.342c3.122-0.274,6.422-0.206,9.558,0.219c0.164,0.027,0.301,0.164,0.301,0.342      c0,0.014,0,0.027,0,0.055C106.143,124.919,105.991,125.042,105.827,125.042z"/>
			</g>
			<g>
				<path style="fill:#512651;" d="M344.483,253.192c-0.156,0-0.298-0.108-0.334-0.267c-0.041-0.184,0.074-0.368,0.258-0.409      c1.573-0.357,3.176-0.625,4.767-0.796c0.175-0.021,0.356,0.116,0.377,0.303c0.02,0.188-0.116,0.357-0.305,0.377      c-1.563,0.168-3.141,0.431-4.687,0.782C344.534,253.189,344.508,253.192,344.483,253.192z"/>
			</g>
		</g>
		<g>
			<g>
				<polygon style="fill:#FFE9DC;" points="156.87,95.654 268.543,41.052 233.754,163.718 204.286,129.981 212.507,112.919       193.29,122.882     "/>
			</g>
			<g>
				<path style="fill:#512651;" d="M204.59,131.43c-0.028,0-0.057-0.007-0.084-0.022c-0.076-0.043-0.107-0.136-0.074-0.217      l7.727-17.899l-18.791,9.742c-0.076,0.039-0.166,0.017-0.215-0.047c-0.049-0.066-0.046-0.159,0.011-0.22l75.254-81.83      c0.06-0.065,0.164-0.073,0.233-0.017c0.071,0.057,0.084,0.159,0.032,0.232l-63.953,90.207      C204.697,131.404,204.643,131.43,204.59,131.43z M212.507,112.747c0.043,0,0.084,0.016,0.116,0.046      c0.053,0.049,0.069,0.126,0.041,0.193l-7.271,16.844l61.452-86.678l-72.772,79.131l18.355-9.516      C212.454,112.753,212.48,112.747,212.507,112.747z"/>
			</g>
			<g>
				<path style="fill:#512651;" d="M212.507,113.09c-0.037,0-0.074-0.012-0.106-0.036c-0.074-0.058-0.087-0.166-0.029-0.24      l56.036-71.867c0.057-0.076,0.164-0.088,0.241-0.03c0.074,0.058,0.087,0.166,0.029,0.24l-56.036,71.867      C212.609,113.067,212.558,113.09,212.507,113.09z"/>
			</g>
		</g>
	</g>
</g>















</svg>
