<?xml version="1.0" encoding="UTF-8"?>
<!-- Generator: Adobe Illustrator 25.2.1, SVG Export Plug-In . SVG Version: 6.00 Build 0)  -->
<svg xmlns="http://www.w3.org/2000/svg" xmlns:xlink="http://www.w3.org/1999/xlink" version="1.1" id="Capa_1" x="0px" y="0px" viewBox="0 0 512 512" style="enable-background:new 0 0 512 512;" xml:space="preserve" width="512" height="512">
<g>
	<g>
		<g>
			<path style="fill:#FFFFFF;" d="M248.182,469.181c-22.05,0-43.752-3.429-64.503-10.193c-1.503-0.468-3.139-1.037-4.749-1.608     c-25.023-8.803-47.801-22.116-67.773-39.608c-1.686,0.331-3.343,0.639-4.986,0.928c-13.971,2.463-26.917,3.712-38.47,3.712     c-41.405,0-56.393-16.675-61.675-30.664c-0.495-1.311-0.789-2.689-0.875-4.088c-0.069-1.142-1.287-25.167,16.183-50.181     c-9.388-10.715-17.948-23.219-20.639-38.52c-1.011-5.754-0.924-10.828,0.27-15.509c1.852-7.264,6.577-13.404,12.797-17.371     C6.201,248.83,1.89,229.785,1.405,210.882c-0.175-6.824,0.02-17.04,3.732-26.947c4.153-11.089,12.134-19.816,21.898-23.943     c4.521-1.911,9.37-2.88,14.415-2.88c7.254,0,14.861,2.003,22.733,5.975c0.263-0.496,0.529-0.992,0.797-1.486     c-10.475-10.708-17.174-24.45-19.208-39.744C41.483,89.665,60.52,58.236,91.036,47.129c7.845-2.86,15.996-4.31,24.222-4.31     c20.968,0,40.618,9.419,53.767,25.214c25.08-10.337,51.654-15.569,79.157-15.569c45.115,0,87.864,14.134,123.95,40.925h111.229     c15.496,0,28.104,12.607,28.104,28.105v54.043c0,6.018-1.902,11.6-5.134,16.176c4.925,7.091,6.84,16.77,4.955,26.875     c-3.424,18.344-15.692,32.045-28.44,44.116c-8.929,8.456-18.317,16.651-27.976,24.416c-1.64,13.055-4.486,25.865-8.483,38.158     c-6.941,21.386-17.287,41.423-30.749,59.547c-0.271,0.377-0.646,0.872-1.024,1.365c-15.167,20.139-33.736,37.258-55.136,50.797     c-14.564,9.242-30.317,16.647-46.81,22.005C291.932,465.752,270.23,469.181,248.182,469.181z"/>
		</g>
	</g>
	<g>
		<g>
			<g>
				<path style="fill:#FFA9DD;" d="M443.367,260.834c0,20.988-3.331,41.208-9.481,60.123l-17.402,24.654l-10.002,29.148      c-0.421,0.58-0.845,1.158-1.272,1.733c-0.303,0.419-0.606,0.815-0.908,1.211c-14.14,18.775-31.587,34.872-51.504,47.474      c-13.511,8.572-28.163,15.491-43.654,20.523c-18.939,6.173-39.181,9.504-60.17,9.504c-21.012,0-41.231-3.331-60.17-9.504      c-1.491-0.466-2.958-0.978-4.403-1.491c-25.694-9.038-48.895-23.318-68.346-41.581c-4.007-3.727-7.85-7.664-11.507-11.74      c-9.854-10.902-18.473-22.945-25.647-35.897c-0.023-0.023-0.023-0.023-0.023-0.023c-1.281-2.329-2.539-4.706-3.727-7.105      c-2.958-5.87-5.614-11.927-7.967-18.123c-2.306-6.033-4.286-12.206-5.963-18.519c-4.31-16.073-6.616-32.962-6.616-50.386      c0-107.365,87.028-194.393,194.37-194.393C356.339,66.441,443.367,153.47,443.367,260.834z"/>
			</g>
		</g>
		<g>
			<g>
				<path style="fill:#BD6EEB;" d="M346.747,242.407c9.689-17.284,24.843-31.451,42.74-39.955c3.83-1.82,8.051-3.419,12.222-2.655      c4.461,0.817,8.111,4.317,10.003,8.439c1.892,4.121,2.234,8.795,1.976,13.323c-0.229,4.016-0.907,8.005-2.018,11.871      c18.956-16.923,40.029-33.468,64.922-38.571c5.224-1.071,11.031-1.462,15.533,1.396c6.197,3.934,7.56,12.554,6.213,19.769      c-2.731,14.629-13.505,26.3-24.311,36.532c-32.166,30.46-68.904,56.083-108.601,75.746      c-10.117,5.011-20.703,9.711-31.965,10.512c-2.267,0.161-4.7,0.118-6.592-1.141c-1.646-1.096-2.621-2.953-3.29-4.814      c-2.714-7.549-1.4-15.895,0.249-23.745C328.502,286.871,335.633,262.233,346.747,242.407z"/>
			</g>
		</g>
		<g>
			<g>
				<path style="fill:#7182FF;" d="M42.809,339.102c-12.003-12.283-24.58-25.648-27.553-42.563c-0.56-3.188-0.753-6.5,0.047-9.637      c2.122-8.322,12.036-13.7,20.169-10.941c-11.997-19.399-18.716-42.636-19.302-65.438c-0.188-7.334,0.274-14.815,2.848-21.685      c2.573-6.87,7.494-13.115,14.251-15.972c12.364-5.227,26.343,1.956,37.014,10.099c19.444,14.837,35.793,33.711,47.706,55.072      c1.851-14.214,18.423-24.696,32.285-21.045c13.904,3.662,21.903,17.924,27.621,31.116c10.04,23.158,18.062,48.086,15.855,73.23      c-2.206,25.144-16.664,50.525-40.289,59.411c-18.549,6.977-39.51,2.974-57.927-4.343      C75.751,368.546,57.687,354.328,42.809,339.102z"/>
			</g>
		</g>
		<g>
			<g>
				<g>
					<path style="fill:#FFE9DC;" d="M433.886,320.957c-6.546,20.173-16.306,38.879-28.676,55.534       c-0.303,0.023-0.606,0.07-0.908,0.116c-19.008,2.446-42.652,5.265-71.002,8.037c-25.251,2.446-54.253,4.869-87.005,6.919       c-9.737,0.606-19.055,0.862-27.977,0.792c-0.233,0.023-0.466,0.023-0.699,0h-0.955c-1.444-0.023-2.889-0.047-4.309-0.07       c-0.839-0.023-1.654-0.047-2.493-0.07c-0.652-0.023-1.281-0.023-1.934-0.07h-0.396c-0.559-0.023-1.095-0.047-1.654-0.07       c-0.093,0-0.186,0-0.279-0.023c-0.606,0-1.188-0.023-1.77-0.07c-0.722-0.023-1.444-0.047-2.143-0.093       c-0.909-0.047-1.794-0.093-2.679-0.163c-9.877-0.582-19.171-1.584-27.93-2.889c-20.942-3.145-38.739-8.13-53.717-13.93       c-15.84-6.126-28.512-13.161-38.459-19.917c-0.023-0.023-0.023-0.023-0.023-0.023c-3.89-2.656-7.361-5.241-10.436-7.711       c-10.762-8.712-16.656-15.957-18.729-18.729h-0.466c0,0-1.654-0.885,11.973-17.308c5.171-6.196,12.439-14.792,22.712-26.696       c31.005-35.92,93.737-64.107,114.493-72.772c4.356-1.817,6.849-2.772,6.849-2.772l117.754,2.376       c0.908,0.349,1.817,0.699,2.725,1.072C367.497,229.55,407.82,281.357,433.886,320.957z"/>
				</g>
			</g>
			<g>
				<g>
					<path style="fill:#512651;" d="M361.488,376.689c-0.274,0-0.518-0.195-0.571-0.473c-7.035-36.932-30.019-73.183-30.25-73.545       c-0.174-0.271-0.094-0.631,0.176-0.804c0.269-0.175,0.631-0.095,0.804,0.176c0.233,0.364,23.337,36.805,30.414,73.954       c0.06,0.316-0.147,0.621-0.463,0.681C361.561,376.686,361.524,376.689,361.488,376.689z"/>
				</g>
			</g>
			<g>
				<g>
					<path style="fill:#BD6EEB;" d="M406.483,374.759l-2.18,2.944c-14.14,18.775-31.587,34.872-51.504,47.474l-22.224,6.288       l-21.43,14.235c-18.939,6.173-39.181,9.504-60.17,9.504c-21.012,0-41.231-3.331-60.17-9.504       c-1.491-0.466-2.958-0.978-4.403-1.491c-25.694-9.038-48.895-23.318-68.346-41.581c-3.238,0.722-7.128,1.537-11.507,2.306       v-30.027L406.483,374.759z"/>
				</g>
			</g>
			<g>
				<g>
					<path style="fill:#FFE9DC;" d="M352.798,425.177c-13.511,8.572-28.163,15.491-43.654,20.523h-120.34       c-1.491-0.466-2.958-0.978-4.403-1.491l1.048-2.073l21.384-39.647l2.889-5.358l1.048-1.934l1.584-2.912l1.817-3.378       l0.722-1.328l1.654-3.098l0.326-0.559l0.676-1.281h114.795l0.955,2.003L352.798,425.177z"/>
				</g>
			</g>
			<g>
				<g>
					<g>
						<g>
							<path style="fill:#FF8C9D;" d="M326.167,206.647c7.585,0.093,15.454-2.144,20.893-7.431         c5.439-5.288,7.875-13.931,4.695-20.818c-1.199-2.597-3.194-4.903-5.809-6.062c-2.799-1.241-6.026-1.076-9.025-0.458         c-3.029,0.623-5.967,1.684-8.695,3.139c-1.22,9.827-2.025,19.144-3.246,28.971         C324.866,204.91,325.823,205.785,326.167,206.647z"/>
						</g>
					</g>
					<g>
						<g>
							<path style="fill:#512651;" d="M329.832,192.399c-0.133,0-0.267-0.045-0.377-0.138c-0.245-0.208-0.276-0.575-0.068-0.821         c3.734-4.413,8.608-7.705,14.095-9.52c0.307-0.105,0.636,0.065,0.736,0.37c0.101,0.306-0.065,0.635-0.37,0.736         c-5.283,1.748-9.976,4.918-13.572,9.168C330.162,192.329,329.997,192.399,329.832,192.399z"/>
						</g>
					</g>
				</g>
				<g>
					<g>
						<g>
							<path style="fill:#FF8C9D;" d="M200.313,203.376c-7.585,0.093-15.454-2.144-20.893-7.432         c-5.439-5.287-7.875-13.931-4.696-20.818c1.199-2.597,3.194-4.902,5.809-6.061c2.799-1.241,6.026-1.076,9.026-0.458         c3.029,0.623,5.967,1.684,8.695,3.139c1.22,9.827,2.025,19.144,3.246,28.971         C201.615,201.639,200.658,202.513,200.313,203.376z"/>
						</g>
					</g>
					<g>
						<g>
							<path style="fill:#512651;" d="M197.271,191.451c-0.175,0-0.349-0.08-0.464-0.231c-1.936-2.555-3.718-4.816-5.916-6.614         c-1.757-1.438-4.545-3.16-7.849-3.197c-0.322-0.003-0.579-0.267-0.576-0.589c0.004-0.32,0.264-0.575,0.582-0.575         c0.002,0,0.005,0,0.007,0c3.641,0.041,6.672,1.905,8.573,3.461c2.298,1.879,4.125,4.196,6.107,6.812         c0.195,0.256,0.144,0.621-0.113,0.816C197.518,191.412,197.394,191.451,197.271,191.451z"/>
						</g>
					</g>
				</g>
				<g>
					<g>
						<path style="fill:#FF8C9D;" d="M195.552,153.272c0,0,1.586-40.047,28.945-53.924c27.358-13.877,102.694-9.12,110.624,34.099        c7.93,43.219-4.758,96.35-40.84,108.245c-36.082,11.895-88.817-0.793-96.35-31.72        C190.398,179.045,195.552,153.272,195.552,153.272z"/>
					</g>
				</g>
				<g>
					<g>
						<g>
							<path style="fill:#512651;" d="M236.888,192.328c0,3.777-3.062,6.84-6.84,6.84c-3.778,0-6.84-3.062-6.84-6.84         c0-3.777,3.062-6.84,6.84-6.84C233.826,185.488,236.888,188.55,236.888,192.328z"/>
						</g>
					</g>
					<g>
						<g>
							<path style="fill:#512651;" d="M304.987,192.625c0,3.777-3.062,6.84-6.839,6.84c-3.777,0-6.84-3.062-6.84-6.84         c0-3.777,3.062-6.84,6.84-6.84C301.925,185.786,304.987,188.848,304.987,192.625z"/>
						</g>
					</g>
					<g>
						<g>
							<g>
								<path style="fill:#512651;" d="M270.803,209.725c-0.263,0-0.529-0.016-0.797-0.05c-0.32-0.041-0.545-0.332-0.505-0.651          c0.041-0.321,0.327-0.55,0.651-0.505c2.758,0.344,5.269-1.589,6.516-3.667c1.704-2.839,1.823-6.573,0.304-9.513          c-0.148-0.285-0.035-0.637,0.25-0.785c0.284-0.146,0.637-0.036,0.785,0.25c1.701,3.292,1.566,7.471-0.34,10.648          C276.342,207.657,273.765,209.725,270.803,209.725z"/>
							</g>
						</g>
						<g>
							<g>
								<path style="fill:#512651;" d="M264.064,209.169c-0.019,0-0.037-0.001-0.057-0.002c-0.321-0.032-0.555-0.316-0.524-0.636          c0.057-0.588-0.326-1.223-0.871-1.447c-0.547-0.225-1.266-0.043-1.639,0.416c-0.204,0.249-0.573,0.286-0.82,0.083          c-0.249-0.204-0.286-0.57-0.083-0.82c0.702-0.86,1.955-1.177,2.984-0.757c1.027,0.422,1.696,1.531,1.589,2.637          C264.614,208.943,264.36,209.169,264.064,209.169z"/>
							</g>
						</g>
					</g>
					<g>
						<g>
							<path style="fill:#512651;" d="M268.192,216.089c-3.758,0-7.527-1.217-10.448-3.568c-0.25-0.201-0.29-0.569-0.089-0.819         c0.204-0.25,0.568-0.289,0.819-0.089c4.606,3.706,11.481,4.38,16.722,1.642c0.284-0.146,0.637-0.04,0.786,0.247         c0.149,0.285,0.039,0.637-0.247,0.786C273.421,215.497,270.809,216.089,268.192,216.089z"/>
						</g>
					</g>
					<g>
						<g>
							<path style="fill:#512651;" d="M218.621,164.325c-0.67,0.774-1.271,1.688-1.317,2.711c-0.074,1.683,1.456,3.116,3.108,3.444         c1.652,0.327,3.355-0.204,4.889-0.901c1.499-0.681,2.963-1.561,3.943-2.884c0.98-1.323,1.389-3.165,0.679-4.65         C227.577,157.138,220.76,161.856,218.621,164.325z"/>
						</g>
					</g>
					<g>
						<g>
							<path style="fill:#512651;" d="M309.331,164.794c0.746,0.702,1.437,1.55,1.586,2.563c0.246,1.667-1.13,3.248-2.741,3.742         c-1.611,0.494-3.358,0.139-4.955-0.398c-1.56-0.525-3.107-1.251-4.217-2.467c-1.11-1.216-1.704-3.007-1.149-4.557         C299.69,158.557,306.952,162.556,309.331,164.794z"/>
						</g>
					</g>
				</g>
				<g>
					<g>
						<path style="fill:#512651;" d="M341.038,123.454c0.605-1.295,1.103-2.641,1.466-4.019c1.539-5.847,0.932-12.139-1.099-17.833        c-1.414-3.965-3.53-7.717-6.462-10.736c-4.772-4.915-11.385-7.603-17.997-9.396c-6.46-1.752-12.852-1.402-19.245-0.361        c-3.271-1.338-6.986-4.545-10.552-5.755c-11.962-4.059-24.964-5.01-37.39-2.735c-12.425,2.274-24.247,7.769-33.996,15.802        c-3.39,2.794-6.592,5.967-8.546,9.902c-1.184,2.385-1.865,5.124-1.398,7.725c-3.249-0.225-6.52,0.572-9.019,2.65        c-2.469,2.053-3.974,5.02-5.261,7.961c-6.789,15.521-7.348,34.273-5.285,51.088c-0.023-0.33,0.491-0.334,0.793-0.199        c3.08,1.382,5.86,3.426,8.099,5.953c2.364-0.096,4.372-1.444,5.958-3.2c1.585-1.756,2.607-3.952,3.359-6.195        c2.035-6.069,2.221-12.745,0.526-18.918c5.09,0.681,10.767-2.54,13.657-6.785c2.89-4.245,3.694-9.665,3.049-14.759        c-0.229-1.813-0.676-3.612-1.294-5.344c2.269,1.234,4.844,1.958,7.423,2.016c5.617,0.126,11.066-2.448,15.239-6.21        c4.173-3.762,7.193-8.638,9.657-13.688c0.699,2.944,1.519,6.644,2.902,9.335c3.87,7.529,12.924,11.71,21.329,10.695        c8.405-1.015,15.871-6.722,19.965-14.132c-0.03,5.416,1.983,10.33,5.137,14.733c3.155,4.402,7.475,7.898,12.239,10.474        c4.503,2.436,9.803,4.071,14.726,2.754c-1.694,6.909-0.58,14.544,3.389,20.472c-3.336,6.845-1.988,15.663,3.058,21.366        c5.569-5.705,8.594-14.126,9.458-22.052C346.051,143.727,345.18,132.928,341.038,123.454z"/>
					</g>
				</g>
			</g>
			<g>
				<g>
					<g>
						<g>
							<path style="fill:#F7607D;" d="M161.175,316.435c0,0-5.841-8.046,2.581-12.411c9.275-4.807,12.342,4.676,12.342,4.676         L161.175,316.435z"/>
						</g>
					</g>
					<g>
						<g>
							<polygon style="fill:#FFB289;" points="176.098,308.701 180.806,318.274 216.022,389.857 216.414,390.654 220.545,417.511          201.456,396.584 201.23,396.129 165.966,325.966 161.175,316.435        "/>
						</g>
					</g>
					<g>
						<g>
							<g>
								<path style="fill:#512651;" d="M201.776,391.1c-0.057,0-0.112-0.03-0.138-0.085l-32.889-67.63          c-0.037-0.076-0.005-0.167,0.07-0.205c0.074-0.036,0.169-0.004,0.205,0.07l32.889,67.63          c0.036,0.076,0.004,0.167-0.071,0.205C201.821,391.096,201.798,391.1,201.776,391.1z"/>
							</g>
						</g>
						<g>
							<g>
								<path style="fill:#512651;" d="M209.879,386.9c-0.056,0-0.11-0.031-0.137-0.084l-33.364-67.155          c-0.038-0.076-0.007-0.167,0.068-0.205c0.073-0.039,0.167-0.007,0.205,0.068l33.364,67.155          c0.038,0.076,0.007,0.167-0.068,0.205C209.925,386.895,209.901,386.9,209.879,386.9z"/>
							</g>
						</g>
					</g>
					<g>
						<g>
							<g>
								<polygon style="fill:#FFA9DD;" points="216.022,389.857 216.414,390.654 218.935,407.047 220.545,417.511 213.281,409.548           201.456,396.584 201.23,396.129 201.776,390.948 209.822,394.983 209.985,386.693         "/>
							</g>
						</g>
						<g>
							<g>
								<path style="fill:#512651;" d="M218.935,407.047l1.61,10.464l-7.263-7.963c0.526-1.989,1.927-3.395,3.459-3.384          c0.51,0.004,1.071,0.124,1.627,0.462C218.563,406.739,218.758,406.888,218.935,407.047z"/>
							</g>
						</g>
					</g>
					<g>
						<g>
							<g>
								<polygon style="fill:#7182FF;" points="176.098,308.701 177.682,311.92 177.856,312.277 178.845,314.285 179.019,314.642           180.806,318.274 165.966,325.966 164.146,322.351 163.971,321.994 162.966,319.994 162.784,319.642 161.175,316.435                   "/>
							</g>
						</g>
						<g>
							<g>
								<polygon style="fill:#FFE9DC;" points="177.682,311.92 177.856,312.277 162.966,319.994 162.784,319.642         "/>
							</g>
						</g>
						<g>
							<g>
								<polygon style="fill:#FFE9DC;" points="178.845,314.285 179.019,314.642 164.146,322.351 163.971,321.994         "/>
							</g>
						</g>
					</g>
				</g>
				<g>
					<g>
						<g>
							<path style="fill:#FF8C9D;" d="M216.874,383.923c-0.815-3.075-1.864-6.266-2.842-9.015c-1.188-3.378-2.26-6.08-2.609-7.128         c-0.186-0.536-0.489-1.118-0.908-1.77c-0.023-0.023-0.023-0.047-0.047-0.07c-1.258-1.84-3.494-3.96-6.895-6.08         c-0.07-0.023-0.116-0.047-0.163-0.093c-0.932-0.559-1.934-1.141-3.028-1.677c-1.77-0.909-3.797-1.794-6.033-2.609         c-1.118-0.419-2.306-0.815-3.564-1.188c-2.329-0.699-4.868-1.118-7.477-1.328c-1.281-0.093-2.562-0.14-3.844-0.163         c-9.714-0.093-19.288,2.12-21.221,2.609c-0.233,0.047-0.349,0.07-0.349,0.07l-23.807-2.772         c-23.271-15.258-49.804-20.895-66.902-22.968c-9.248-1.142-15.724-1.211-17.471-1.211c-0.303,0-0.466,0-0.466,0         c-31.331,26.16-29.351,58.283-29.351,58.283c10.133,26.835,56.769,23.038,84.652,18.123c4.379-0.769,8.27-1.584,11.507-2.306         c6.01-1.304,9.714-2.329,9.714-2.329s7.524,3.168,36.479,9.9c19.777,4.612,35.221-3.681,43.025-9.411         c2.027-1.467,3.518-2.795,4.449-3.657c0.745-0.675,1.141-1.095,1.141-1.095s0.606,2.027,3.937,1.281h0.023         c0.419-0.093,0.885-0.256,1.421-0.443c0-0.023,0.023-0.023,0.023-0.023c0.093-0.023,0.21-0.07,0.303-0.117         c0.256-0.116,0.489-0.256,0.699-0.466c0.769-0.769,1.072-2.143,1.048-3.914C218.295,390.026,217.713,387.044,216.874,383.923         z M209.537,395.71c-0.419-0.396-1.095-1.025-1.957-1.84l-0.023-0.023c-0.582-0.536-1.258-1.142-1.957-1.794         c-0.536-0.513-1.118-1.025-1.701-1.561l-0.186-0.163c-1.305-1.188-2.656-2.353-3.844-3.331h-0.023         c-0.909-0.769-1.724-1.398-2.353-1.817c-0.676-0.443-1.654-1.188-2.795-2.05l-0.023-0.023l-0.792-0.629         c-2.982-2.399-6.779-5.614-9.062-7.571c-0.419-0.373-0.745-0.629-1.048-0.932l-0.047-0.023         c-0.489-0.419-0.815-0.699-0.932-0.792c0.28,0.093,2.539,0.839,5.241,1.747c0.978,0.326,2.027,0.699,3.052,1.048         c0.908,0.303,1.794,0.629,2.609,0.932l0.07,0.023c0.512,0.186,1.002,0.373,1.444,0.536c1.328,0.489,2.353,0.909,2.865,1.188         c0.792,0.419,2.399,2.609,4.263,5.311c0.023,0.047,0.047,0.093,0.093,0.14c1.072,1.584,2.166,3.331,3.168,4.962         c0.093,0.117,0.163,0.233,0.256,0.349c0.606,0.978,1.188,1.91,1.677,2.749c0.606,0.955,1.118,1.794,1.514,2.446v0.023         c0.117,0.186,0.233,0.373,0.303,0.536c0.023,0,0.023,0,0.023,0.023c0.303,0.489,0.512,0.792,0.536,0.862         C209.863,395.989,209.723,395.873,209.537,395.71z"/>
						</g>
					</g>
					<g>
						<g>
							<path style="fill:#512651;" d="M200.217,401.798c-2.438,0-4.927-0.622-7.78-1.335c-7.148-1.788-21.76-11.175-22.378-11.574         c-0.271-0.174-0.349-0.535-0.174-0.804c0.174-0.27,0.537-0.352,0.804-0.174c0.15,0.097,15.069,9.682,22.03,11.422         c6.312,1.579,10.121,2.532,15.651-1.871c0.397-0.316,0.626-0.795,0.626-1.314c0.001-0.545-0.241-1.051-0.665-1.389         l-27.019-21.567c-0.251-0.2-0.293-0.566-0.092-0.818c0.202-0.251,0.569-0.29,0.818-0.092l27.02,21.567         c0.703,0.561,1.104,1.399,1.103,2.3c0,0.876-0.389,1.686-1.065,2.225C205.868,400.941,203.077,401.798,200.217,401.798z"/>
						</g>
					</g>
					<g>
						<g>
							<path style="fill:#512651;" d="M214.84,397.886c-5.924,0.001-14.46-16.024-15.925-18.862l-16.165-4.737         c-0.308-0.09-0.486-0.414-0.395-0.722c0.09-0.307,0.41-0.489,0.722-0.395l16.646,4.877l0.114,0.223         c2.91,5.698,11.417,20.099,15.714,18.314c0.486-0.201,0.844-0.638,1.096-1.336c2.111-5.836-4.917-25.733-6.939-29.576         c-2.827-5.369-17.661-10.33-24.975-11.793c-6.758-1.351-26.541,2.139-26.739,2.174l-0.076,0.014l-22.289-1.98l-80.889-7.533         c-0.321-0.03-0.556-0.314-0.527-0.634c0.031-0.322,0.317-0.543,0.634-0.527l80.887,7.533l22.133,1.967         c1.558-0.274,20.276-3.52,27.093-2.156c6.742,1.348,22.593,6.341,25.778,12.393c1.74,3.307,9.409,23.864,7.004,30.513         c-0.365,1.01-0.952,1.688-1.746,2.017C215.625,397.814,215.238,397.886,214.84,397.886z"/>
						</g>
					</g>
					<g>
						<g>
							<path style="fill:#512651;" d="M186.665,405.994c-0.589,0-1.197-0.005-1.826-0.013c-11.329-0.149-22.855-7.076-23.341-7.37         c-0.274-0.167-0.362-0.526-0.196-0.801c0.167-0.272,0.527-0.359,0.801-0.196c0.116,0.071,11.746,7.057,22.752,7.202         c11.607,0.174,15.927-0.979,21.016-5.504c0.238-0.213,0.608-0.193,0.822,0.049c0.214,0.24,0.192,0.609-0.049,0.823         C201.632,404.639,197.162,405.994,186.665,405.994z"/>
						</g>
					</g>
					<g>
						<g>
							<path style="fill:#512651;" d="M134.086,353.29c-0.122,0-0.243-0.038-0.348-0.115c-0.258-0.192-0.312-0.557-0.12-0.816         l24.195-32.508c0.194-0.257,0.559-0.308,0.815-0.12c0.258,0.192,0.312,0.557,0.12,0.815l-24.195,32.508         C134.439,353.209,134.264,353.29,134.086,353.29z"/>
						</g>
					</g>
				</g>
			</g>
		</g>
		<g>
			<g>
				<g>
					<g>
						<path style="fill:#FFE9DC;" d="M484.154,189.665H367.051c-7.803,0-14.128-6.325-14.128-14.129v-54.042        c0-7.803,6.326-14.129,14.128-14.129h117.103c7.803,0,14.129,6.326,14.129,14.129v54.042        C498.283,183.34,491.957,189.665,484.154,189.665z"/>
					</g>
				</g>
				<g>
					<g>
						<polygon style="fill:#FFE9DC;" points="389.262,183.252 372.161,205.698 407.432,186.459       "/>
					</g>
				</g>
			</g>
			<g>
				<g>
					<path style="fill:#512651;" d="M404.526,145.449v5.275l3.057-0.045c1.198,0,1.951,1.065,1.951,1.952v2.837       c0,0.885-0.753,1.95-1.951,1.95h-2.969v4.566c0,1.065-0.887,1.95-1.951,1.95h-2.793c-1.108,0-1.951-0.93-1.951-1.95       l-0.044-3.324v-1.285h-10.593c-0.665,0-1.285-0.266-1.729-0.755c-0.488-0.444-0.71-1.062-0.71-1.729v-1.861       c0-0.621,0.177-1.24,0.488-1.772l9.087-14.45c3.014-4.566,7.8-4.832,8.51-4.832c0.709,0,2.127,0.045,2.127,0.045       l-11.702,18.704h4.521c0-3.59,3.147-5.275,5.54-5.275H404.526z"/>
				</g>
				<g>
					<path style="fill:#512651;" d="M436.739,135.521l-7.757,12.942l7.58,12.632c0.178,0.266,0.311,0.667,0.311,1.065       c0,0.976-0.798,1.772-1.773,1.772h-3.458c-0.62,0-1.241-0.355-1.551-0.885l-4.919-8.201l-4.921,8.201       c-0.31,0.53-0.93,0.885-1.551,0.885h-3.412c-1.02,0-1.817-0.796-1.817-1.772c0-0.398,0.133-0.799,0.31-1.065l7.58-12.632       l-7.757-12.942c-0.222-0.266-0.31-0.664-0.31-1.019c0-1.021,0.798-1.817,1.773-1.817h3.458c0.62,0,1.241,0.355,1.55,0.885       l5.098,8.51l5.141-8.51c0.266-0.53,0.887-0.885,1.507-0.885h3.458c0.975,0,1.772,0.796,1.772,1.817       C437.048,134.857,436.959,135.255,436.739,135.521z"/>
				</g>
				<g>
					<path style="fill:#512651;" d="M460.087,145.449v5.275l3.057-0.045c1.198,0,1.951,1.065,1.951,1.952v2.837       c0,0.885-0.753,1.95-1.951,1.95h-2.969v4.566c0,1.065-0.887,1.95-1.951,1.95h-2.792c-1.108,0-1.951-0.93-1.951-1.95       l-0.044-3.324v-1.285h-10.593c-0.665,0-1.285-0.266-1.729-0.755c-0.488-0.444-0.71-1.062-0.71-1.729v-1.861       c0-0.621,0.178-1.24,0.488-1.772l9.087-14.45c3.014-4.566,7.8-4.832,8.51-4.832c0.709,0,2.127,0.045,2.127,0.045       l-11.702,18.704h4.521c0-3.59,3.147-5.275,5.54-5.275H460.087z"/>
				</g>
			</g>
		</g>
		<g>
			<g>
				<g>
					<g>
						<path style="fill:#FFE9DC;" d="M170.44,99.56c6.108,25.04-5.65,50.246-27.126,62.211l3.947,16.179        c0.419,1.717,0.365,3.445-0.041,5.021c-0.083,0.31-0.19,0.627-0.279,0.912c-1.142,3.101-3.748,5.609-7.208,6.453l-4.879,1.19        c-3.609,0.88-7.269-0.284-9.722-2.771c-0.21-0.212-0.426-0.45-0.618-0.693c-0.852-1.005-1.516-2.215-1.894-3.547        c-0.067-0.168-0.11-0.342-0.152-0.517l-3.704-15.184c-28.295,1.417-54.366-18.859-58.346-48.797        C56.993,94.295,72.218,69.14,96.61,60.263C128.555,48.619,162.607,67.45,170.44,99.56z"/>
					</g>
				</g>
				<g>
					<g>
						<path style="fill:#FFB289;" d="M141.947,110.545c-1.398-2.164-4.276-4.126-7.288-3.391l-0.1,0.024        c-1.861,0.48-3.261,1.877-4.268,3.045c-1.357,1.571-2.542,3.31-3.516,5.156c-1.433-3.712-3.232-7.413-6.106-10.22        c-2.386-2.319-5.115-3.236-7.307-2.384c-2.074,0.796-3.453,2.926-4.207,6.538c-1.22,5.704-1.371,11.569-0.478,17.285        c-0.582-0.438-1.176-0.821-1.77-1.203c-2.26-1.374-4.091-1.744-5.642-1.182c-1.931,0.735-2.862,2.861-2.935,4.619        c-0.073,1.864,0.607,3.676,1.355,5.34c4.259,9.457,11.266,17.427,18.052,25.133c1.062,1.218,2.118,2.411,3.18,3.629        c2.605,3.004,5.024,6,6.067,9.517c0.104,0.212,0.165,0.461,0.226,0.71l0.622-0.152c-0.055-0.224-0.116-0.473-0.195-0.691        c-1.079-3.666-3.566-6.726-6.239-9.792c-1.037-1.224-2.124-2.435-3.186-3.653c-6.749-7.663-13.719-15.589-17.928-24.953        c-0.737-1.614-1.392-3.326-1.313-5.06c0.065-1.572,0.858-3.401,2.521-4.044c1.358-0.489,3.021-0.157,5.071,1.11        c0.78,0.495,1.542,1.022,2.284,1.579c0.476,2.706,1.175,5.357,2.099,7.954c1.082,3.032,3.152,6.325,5.442,5.766        c0.025-0.006,0.025-0.006,0.05-0.012l0.118-0.055c1.854-1.375-0.43-6.304-2.082-8.643c-1.387-2.009-3.092-3.808-5.022-5.342        c-0.986-5.878-0.889-11.967,0.319-17.721c0.728-3.395,1.957-5.383,3.819-6.075c2.896-1.102,5.808,1.432,6.643,2.256        c2.911,2.85,4.716,6.682,6.154,10.525c-0.837,1.76-1.468,3.602-1.902,5.501c-1.071,4.797-0.494,9.219,1.613,12.45        c0.259,0.411,0.567,0.811,1.051,0.957c0.372,0.12,0.764,0.104,1.107-0.112c0.723-0.387,1.145-1.361,1.317-2.062        c1.249-5.368-0.33-10.864-2.214-15.996c-0.086-0.243-0.171-0.485-0.276-0.697c0.987-2.008,2.216-3.89,3.704-5.572        c0.951-1.076,2.238-2.392,3.925-2.83l0.075-0.018c2.614-0.638,5.301,1.08,6.619,3.132c1.559,2.389,1.871,5.398,1.951,7.779        c0.311,7.546-1.249,15.205-2.758,22.641c-1.848,9.18-3.785,18.646-2.16,27.902c0.096,0.61,0.211,1.188,0.357,1.785        l0.622-0.152c-0.152-0.622-0.279-1.251-0.375-1.86c-1.557-9.088,0.348-18.466,2.189-27.566        c1.509-7.436,3.082-15.151,2.777-22.778C143.91,116.212,143.592,113.072,141.947,110.545z M113.956,132.881        c1.701,2.433,3.46,6.725,2.255,7.731c-1.997,0.461-3.847-3.123-4.655-5.352c-0.826-2.304-1.483-4.675-1.948-7.12        C111.265,129.529,112.742,131.147,113.956,132.881z M128.957,132.755c-0.14,0.614-0.511,1.364-1.022,1.647        c-0.187,0.098-0.386,0.147-0.59,0.065c-0.285-0.089-0.52-0.401-0.723-0.694c-2.704-4.166-2.109-9.296-1.497-11.977        c0.363-1.645,0.894-3.251,1.599-4.794l0.024,0.099C128.614,122.158,130.168,127.555,128.957,132.755z"/>
					</g>
				</g>
				<g>
					<g>
						<path style="fill:#7182FF;" d="M144.547,166.824l2.714,11.126c0.419,1.717,0.365,3.445-0.041,5.021        c-0.083,0.31-0.19,0.627-0.279,0.912c-1.142,3.101-3.748,5.609-7.208,6.453l-4.879,1.19c-3.609,0.88-7.269-0.284-9.722-2.771        c-0.21-0.212-0.426-0.45-0.618-0.693c-0.852-1.005-1.516-2.215-1.894-3.547c-0.067-0.168-0.11-0.342-0.152-0.517l-2.532-10.38        c2.425-0.328,4.764-0.687,7.047-1.165c0.23-0.03,0.46-0.06,0.653-0.133c3.646-0.731,7.181-1.699,10.799-3.083        c0.199-0.048,0.417-0.128,0.604-0.226c1.283-0.471,2.547-1.017,3.856-1.6C143.489,167.134,144.024,166.951,144.547,166.824z"/>
					</g>
				</g>
				<g>
					<g>
						<path style="fill:#FFE9DC;" d="M145.118,169.163l0.164,0.672c-2.86,2.438-6.407,4.438-10.417,5.838        c-1.308,0.477-2.714,0.873-4.158,1.225c-2.862,0.698-6.01,1.202-9.609,1.474l-0.152-0.622        c5.409-0.423,9.807-1.311,13.718-2.687C138.698,173.657,142.239,171.632,145.118,169.163z"/>
					</g>
				</g>
				<g>
					<g>
						<path style="fill:#FFE9DC;" d="M146.575,175.137l0.17,0.697c-4.383,3.654-9.63,6.253-15.206,7.613        c-2.912,0.71-5.91,1.072-8.917,1.068c-0.067-0.168-0.11-0.342-0.152-0.517l-0.036-0.149        C131.188,183.954,139.931,180.766,146.575,175.137z"/>
					</g>
				</g>
				<g>
					<g>
						<path style="fill:#FFE9DC;" d="M147.22,182.971c-0.083,0.31-0.19,0.627-0.279,0.912c-2.805,1.581-6.137,2.842-10.02,3.79        c0,0,0,0-0.025,0.006c-4.505,1.099-8.348,1.456-11.763,1.076c-0.21-0.212-0.426-0.45-0.618-0.693        c3.496,0.492,7.475,0.154,12.229-1.005c0.025-0.006,0.025-0.006,0.025-0.006C140.852,186.054,144.346,184.7,147.22,182.971z"/>
					</g>
				</g>
			</g>
			<g>
				<g>
					<g>
						<path style="fill:#FFFFFF;" d="M136.917,77.398c0.723,3.02,2.437,5.728,4.499,8.049c1.591,1.791,3.461,3.42,5.713,4.238        c0.84,0.305,1.746,0.493,2.627,0.345c1.43-0.24,2.609-1.365,3.182-2.697c0.573-1.332,0.607-2.842,0.391-4.276        c-0.838-5.563-5.104-9.926-9.387-13.573c-0.83-0.707-1.699-1.42-2.742-1.742C136.433,66.269,136.251,74.618,136.917,77.398z"/>
					</g>
				</g>
				<g>
					<g>
						<path style="fill:#FFFFFF;" d="M158.881,103.364c0.767-0.003,1.555-0.15,2.193-0.575c0.456-0.304,0.814-0.736,1.113-1.195        c2.888-4.446-0.946-13.159-6.871-10.214C149.382,94.328,152.836,103.39,158.881,103.364z"/>
					</g>
				</g>
			</g>
		</g>
		<g>
			<g>
				<g>
					<polygon style="fill:#FFB289;" points="73.033,231.582 76.007,209.576 83.342,230.194 104.753,227.684 88.113,239.653        92.784,258.921 78.48,245.2 67.678,263.008 69.722,241.989 51.622,237.318      "/>
				</g>
			</g>
			<g>
				<g>
					<polygon style="fill:#FFB289;" points="395.985,262.509 398.959,240.503 406.294,261.121 427.705,258.611 411.065,270.581        415.736,289.848 401.431,276.127 390.63,293.935 392.673,272.916 374.574,268.245      "/>
				</g>
			</g>
			<g>
				<g>
					<g>
						<path style="fill:#FFE9DC;" d="M167.599,208.386c0,3.285-2.663,5.948-5.948,5.948c-3.285,0-5.947-2.663-5.947-5.948        c0-3.285,2.663-5.948,5.947-5.948C164.936,202.439,167.599,205.102,167.599,208.386z"/>
					</g>
				</g>
				<g>
					<g>
						<path style="fill:#7182FF;" d="M196.147,95.383c0,3.285-2.663,5.948-5.948,5.948c-3.285,0-5.947-2.663-5.947-5.948        c0-3.285,2.663-5.948,5.947-5.948C193.484,89.435,196.147,92.098,196.147,95.383z"/>
					</g>
				</g>
				<g>
					<g>
						<path style="fill:#7182FF;" d="M362.976,209.278c0,3.285-2.663,5.948-5.948,5.948c-3.285,0-5.948-2.663-5.948-5.948        c0-3.285,2.663-5.948,5.948-5.948C360.313,203.331,362.976,205.994,362.976,209.278z"/>
					</g>
				</g>
			</g>
		</g>
	</g>
</g>















</svg>
