<?xml version="1.0" encoding="iso-8859-1"?>
<!-- Generator: Adobe Illustrator 19.0.0, SVG Export Plug-In . SVG Version: 6.00 Build 0)  -->
<svg version="1.1" id="Capa_1" xmlns="http://www.w3.org/2000/svg" xmlns:xlink="http://www.w3.org/1999/xlink" x="0px" y="0px"
	 viewBox="0 0 512.001 512.001" style="enable-background:new 0 0 512.001 512.001;" xml:space="preserve">
<path style="fill:#C8C5CD;" d="M498.794,13.205c-17.607-17.607-46.032-17.607-63.64,0l-21.213,21.213
	c-5.94,5.94-5.94,15.273,0,21.213l42.426,42.426c5.94,5.94,15.273,5.94,21.213,0l21.213-21.213
	C516.402,59.238,516.402,30.813,498.794,13.205z"/>
<path style="fill:#AFAEB2;" d="M456.368,98.058l-21.213-21.213l63.64-63.64c17.607,17.607,17.607,46.032,0,63.64l-21.213,21.213
	C471.641,103.999,462.308,103.999,456.368,98.058z"/>
<path style="fill:#6E77E5;" d="M498.794,98.058l-84.853-84.853c-17.607-17.607-46.032-17.607-63.64,0l-21.213,21.213
	c-5.94,5.94-5.94,15.273,0,21.213L456.367,182.91c5.94,5.94,15.273,5.94,21.213,0l21.213-21.213
	C516.402,144.091,516.402,115.666,498.794,98.058z"/>
<path style="fill:#4C5CE1;" d="M498.794,161.698l-21.213,21.213c-5.94,5.94-15.273,5.94-21.213,0l-63.64-63.64l63.64-63.64
	l42.426,42.426C516.402,115.666,516.402,144.091,498.794,161.698z"/>
<g>
	<path style="fill:#C8C5CD;" d="M98.058,456.368l-42.426-42.426c-5.94-5.94-15.273-5.94-21.213,0l-21.213,21.213
		c-17.607,17.607-17.607,46.032,0,63.64c17.607,17.607,46.032,17.607,63.64,0l21.213-21.213
		C103.999,471.641,103.999,462.308,98.058,456.368z"/>
	<polygon style="fill:#C8C5CD;" points="403.335,172.305 339.695,235.944 316.785,234.247 277.753,195.215 276.056,172.305 
		339.695,108.665 	"/>
	<polygon style="fill:#C8C5CD;" points="235.944,339.695 172.305,403.335 108.665,339.695 172.305,276.056 195.215,277.753 
		235.944,318.482 	"/>
</g>
<g>
	<polygon style="fill:#AFAEB2;" points="316.785,234.247 297.269,214.731 371.515,140.485 403.335,172.305 339.695,235.944 	"/>
	<polygon style="fill:#AFAEB2;" points="172.305,403.335 140.485,371.515 214.731,297.269 235.944,318.482 235.944,339.695 	"/>
	<path style="fill:#AFAEB2;" d="M98.058,477.581l-21.213,21.213c-17.607,17.607-46.032,17.607-63.64,0l63.64-63.64l21.213,21.213
		C103.999,462.308,103.999,471.641,98.058,477.581z"/>
</g>
<path style="fill:#6E77E5;" d="M182.911,456.368L55.632,329.089c-5.94-5.94-15.273-5.94-21.213,0l-21.213,21.213
	c-17.607,17.607-17.607,46.032,0,63.64l84.853,84.853c17.607,17.607,46.032,17.607,63.64,0l21.213-21.213
	C188.851,471.641,188.851,462.308,182.911,456.368z"/>
<path style="fill:#4C5CE1;" d="M182.911,477.581l-21.213,21.213c-17.607,17.607-46.032,17.607-63.64,0l-42.426-42.426l63.64-63.64
	l63.64,63.64C188.851,462.308,188.851,471.641,182.911,477.581z"/>
<path style="fill:#4A98F7;" d="M267.764,456.368L55.632,244.236c-5.94-5.94-15.273-5.94-21.213,0l-21.213,21.213
	c-17.607,17.607-17.607,46.032,0,63.64l169.706,169.706c17.607,17.607,46.032,17.607,63.64,0l21.213-21.213
	C273.704,471.641,273.704,462.308,267.764,456.368z"/>
<path style="fill:#4A7AFF;" d="M267.764,477.581l-21.213,21.213c-17.607,17.607-46.032,17.607-63.64,0l-84.853-84.853l63.64-63.64
	l106.066,106.066C273.704,462.308,273.704,471.641,267.764,477.581z"/>
<path style="fill:#4A98F7;" d="M498.794,182.911L329.089,13.205c-17.607-17.607-46.032-17.607-63.64,0l-21.213,21.213
	c-5.94,5.94-5.94,15.273,0,21.213l212.132,212.132c5.94,5.94,15.273,5.94,21.213,0l21.213-21.213
	C516.402,228.943,516.402,200.518,498.794,182.911z"/>
<path style="fill:#4A7AFF;" d="M498.794,246.551l-21.213,21.213c-5.94,5.94-15.273,5.94-21.213,0L350.302,161.698l63.64-63.64
	l84.853,84.853C516.402,200.518,516.402,228.943,498.794,246.551z"/>
<rect x="182.634" y="210.997" transform="matrix(-0.7071 0.7071 -0.7071 -0.7071 618.0338 255.9955)" style="fill:#D9D9D9;" width="146.729" height="89.999"/>
<rect x="249.406" y="198.545" transform="matrix(-0.7071 -0.7071 0.7071 -0.7071 271.9044 656.4443)" style="fill:#C8C5CD;" width="45" height="146.729"/>
<g>
</g>
<g>
</g>
<g>
</g>
<g>
</g>
<g>
</g>
<g>
</g>
<g>
</g>
<g>
</g>
<g>
</g>
<g>
</g>
<g>
</g>
<g>
</g>
<g>
</g>
<g>
</g>
<g>
</g>
</svg>
