<svg version="1.1" id="fi_548481" xmlns="http://www.w3.org/2000/svg" xmlns:xlink="http://www.w3.org/1999/xlink" x="0px" y="0px" viewBox="0 0 512 512" style="enable-background:new 0 0 512 512;" xml:space="preserve">
<path style="fill:#FE9923;" d="M497,361H346c-8.291,0-15,6.709-15,15v136h166c8.291,0,15-6.709,15-15V376
	C512,367.709,505.291,361,497,361z"></path>
<path style="fill:#FEA832;" d="M166,331H15c-8.291,0-15,6.709-15,15v151c0,8.291,6.709,15,15,15h166V346
	C181,337.709,174.291,331,166,331z"></path>
<path style="fill:#FEDB41;" d="M361,256v256H151V256c0-8.401,6.599-15,15-15h180C354.401,241,361,247.599,361,256z"></path>
<path style="fill:#FFCC33;" d="M361,256v256H256V241h90C354.401,241,361,247.599,361,256z"></path>
<path style="fill:#FEDB41;" d="M352.301,73.599l-57.001-9L270.399,8.717C268.001,3.616,262-0.284,256,0.016
	c-4.799,0-9.3,2.401-12.599,8.401l-26.1,54.982l-57.001,7.5C148.001,72.7,142.599,87.7,151.601,96.4l40.8,40.8l-10.499,56.7
	c-2.401,12.299,10.499,21.899,21.599,16.199l51.301-26.1L256,184.6l49.501,26.7c10.8,5.999,24-3.001,21.899-15.3l-9-57.001
	l41.699-39.901C369.401,90.7,364.6,75.399,352.301,73.599z"></path>
<path style="fill:#0D70B2;" d="M271,316v90c0,8.399-6.599,15-15,15c-8.401,0-15-6.601-15-15v-53.701l-4.501,4.2
	c-5.7,6-15.298,6-20.999,0c-6-5.7-6-15.3,0-21l30-30c3-2.999,6.6-4.499,10.5-4.499C263.5,301,271,307,271,316z"></path>
<path style="fill:#095C92;" d="M271,316v90c0,8.399-6.599,15-15,15V301C263.5,301,271,307,271,316z"></path>
<path style="fill:#FFCC33;" d="M360.099,99.099L318.4,139l9,57.001c2.1,12.299-11.1,21.299-21.899,15.3L256,184.6V0.016
	c6-0.3,12.001,3.6,14.399,8.701L295.3,64.6l57.001,9C364.6,75.399,369.401,90.7,360.099,99.099z"></path>
<g>
</g>
<g>
</g>
<g>
</g>
<g>
</g>
<g>
</g>
<g>
</g>
<g>
</g>
<g>
</g>
<g>
</g>
<g>
</g>
<g>
</g>
<g>
</g>
<g>
</g>
<g>
</g>
<g>
</g>
</svg>