<svg id="fi_5509597" enable-background="new 0 0 458.125 458.125" height="512" viewBox="0 0 458.125 458.125" width="512" xmlns="http://www.w3.org/2000/svg"><g><g clip-rule="evenodd" fill-rule="evenodd"><path d="m210.991.001c-59.383 0-107.521 48.138-107.521 107.52s48.138 107.519 107.521 107.519c59.382 0 107.52-48.138 107.52-107.519 0-59.382-48.138-107.52-107.52-107.52z" fill="#90a7b2"></path><path d="m345.07 212.48c16.261 0 30.872 7.15 40.825 18.426 5.614 6.359 5.007 16.067-1.352 21.68-6.361 5.614-16.067 5.007-21.68-1.352-4.368-4.95-10.711-8.034-17.793-8.034h-39.078c-13.097 0-23.716 10.619-23.716 23.718v136.77c0 13.099 10.619 23.718 23.716 23.718h39.078c7.082 0 13.425-3.084 17.793-8.034 5.614-6.359 15.319-6.965 21.68-1.352 6.359 5.614 6.965 15.321 1.352 21.68-9.953 11.276-24.564 18.426-40.825 18.426h-39.078c-30.065 0-54.436-24.371-54.436-54.438v-136.77c0-30.065 24.371-54.438 54.436-54.438zm58.12 174.641 40.96-40.96c5.997-5.999 5.997-15.722 0-21.721l-40.96-40.96c-5.999-5.999-15.725-5.999-21.723 0s-5.999 15.723 0 21.721l14.739 14.739h-75.559c-8.483 0-15.36 6.877-15.36 15.36s6.877 15.36 15.36 15.36h75.559l-14.739 14.74c-5.999 5.999-5.999 15.723 0 21.721s15.724 5.999 21.723 0z" fill="#f44336"></path></g><path d="m221.147 259.586c-.207 2.417-.311 4.862-.311 7.332v136.77c0 15.274 4.02 29.608 11.061 42.002h-186.579c-19.794 0-35.84-16.046-35.84-35.84v-75.201c0-12.556 6.93-24.087 18.018-29.979 60.429-32.112 127.245-47.14 193.651-45.084z" fill="#90a7b2"></path><g clip-rule="evenodd" fill-rule="evenodd"><path d="m210.756 259.404v186.286h-165.438c-19.794 0-35.84-16.046-35.84-35.84v-75.201c0-12.556 6.93-24.087 18.018-29.979 57.278-30.437 120.293-45.526 183.26-45.266zm0-259.404v215.04c-59.382 0-107.52-48.138-107.52-107.519-.001-59.382 48.138-107.52 107.52-107.521z" fill="#7e97a3"></path><path d="m305.287 335.303h143.36c0 3.93-1.499 7.86-4.497 10.858l-40.96 40.96c-5.999 5.999-15.725 5.999-21.723 0s-5.999-15.723 0-21.721l14.739-14.739h-75.559c-8.48 0-15.358-6.876-15.36-15.358zm-23.011 0v68.385c0 13.099 10.619 23.718 23.716 23.718h39.078c7.082 0 13.425-3.084 17.793-8.034 5.614-6.359 15.319-6.965 21.68-1.352 6.359 5.614 6.965 15.321 1.352 21.68-9.953 11.276-24.564 18.426-40.825 18.426h-39.078c-30.065 0-54.436-24.371-54.436-54.438v-68.385z" fill="#cc382d"></path></g></g></svg>