<svg id="fi_6348026" enable-background="new 0 0 512 512" height="512" viewBox="0 0 512 512" width="512" xmlns="http://www.w3.org/2000/svg"><g><g><path d="m15.49 136.652h481.02c8.555 0 15.49-5.909 15.49-24.49v-96.672c0-8.555-6.935-15.49-15.49-15.49h-481.02c-8.555 0-15.49 6.935-15.49 15.49v96.673c0 18.58 6.935 24.489 15.49 24.489z" fill="#f9da86"></path><path d="m496.51 127.652h-481.02c-8.555 0-15.49-6.935-15.49-15.49v18.581c0 8.555 6.935 15.49 15.49 15.49h481.02c8.555 0 15.49-6.935 15.49-15.49v-18.581c0 8.555-6.935 15.49-15.49 15.49z" fill="#f1c976"></path><path d="m15.49 319.536h481.02c8.555 0 15.49-5.909 15.49-24.49v-96.673c0-8.555-6.935-15.49-15.49-15.49h-481.02c-8.555 0-15.49 6.935-15.49 15.49v96.673c0 18.581 6.935 24.49 15.49 24.49z" fill="#b7e598"></path><path d="m15.49 502.419h481.02c8.555 0 15.49-5.909 15.49-24.49v-96.673c0-8.555-6.935-15.49-15.49-15.49h-481.02c-8.555 0-15.49 6.935-15.49 15.49v96.673c0 18.581 6.935 24.49 15.49 24.49z" fill="#b7effe"></path><path d="m145.075 104.064c1.124.583 2.348.87 3.569.87 1.573 0 3.139-.478 4.472-1.419l39.811-28.089 4.516-12.186-44.327-31.276c-2.367-1.672-5.469-1.881-8.041-.549-2.573 1.333-4.188 3.989-4.188 6.887v49.875c0 7.965 1.615 14.554 4.188 15.887z" fill="#fc686c"></path><path d="m496.51 310.536h-481.02c-8.555 0-15.49-6.935-15.49-15.49v18.581c0 8.555 6.935 15.49 15.49 15.49h481.02c8.555 0 15.49-6.935 15.49-15.49v-18.581c0 8.555-6.935 15.49-15.49 15.49z" fill="#9ed4a4"></path><path d="m496.51 493.419h-481.02c-8.555 0-15.49-6.935-15.49-15.49v18.581c0 8.555 6.935 15.49 15.49 15.49h481.02c8.555 0 15.49-6.935 15.49-15.49v-18.581c0 8.555-6.935 15.49-15.49 15.49z" fill="#a0e9f3"></path><path d="m201.216 65.902-3.773-2.662-44.327 31.276c-1.333.941-2.899 1.419-4.472 1.419-1.221 0-2.445-.287-3.569-.87-2.573-1.333-4.188-3.989-4.188-6.887v18c0 2.898 1.615 5.554 4.188 6.887 1.124.583 2.348.87 3.569.87 1.573 0 3.139-.478 4.472-1.419l48.1-33.938c2.06-1.453 3.285-3.817 3.285-6.338s-1.225-4.885-3.285-6.338z" fill="#ec6267"></path><path d="m145.075 287.306c1.124.583 2.348.87 3.569.87 1.573 0 3.139-.478 4.472-1.419l39.811-28.089 4.516-12.186-44.327-31.276c-2.367-1.672-5.469-1.881-8.041-.549-2.573 1.333-4.188 3.989-4.188 6.887v49.875c0 7.965 1.615 14.554 4.188 15.887z" fill="#fc686c"></path><path d="m201.216 249.144-3.773-2.662-44.327 31.276c-1.333.941-2.899 1.419-4.472 1.419-1.221 0-2.445-.287-3.569-.87-2.573-1.333-4.188-3.989-4.188-6.887v18c0 2.898 1.615 5.554 4.188 6.887 1.124.583 2.348.87 3.569.87 1.573 0 3.139-.478 4.472-1.419l48.1-33.938c2.06-1.453 3.285-3.817 3.285-6.338s-1.225-4.885-3.285-6.338z" fill="#ec6267"></path><path d="m145.075 470.42c1.124.583 2.348.87 3.569.87 1.573 0 3.139-.478 4.472-1.419l39.811-28.089 4.516-12.186-44.327-31.276c-2.367-1.672-5.469-1.881-8.041-.549-2.573 1.333-4.188 3.989-4.188 6.887v49.875c0 7.964 1.615 14.554 4.188 15.887z" fill="#fc686c"></path><path d="m201.216 432.257-3.773-2.662-44.327 31.276c-1.333.941-2.899 1.419-4.472 1.419-1.221 0-2.445-.287-3.569-.87-2.573-1.333-4.188-3.989-4.188-6.887v18c0 2.898 1.615 5.554 4.188 6.887 1.124.583 2.348.87 3.569.87 1.573 0 3.139-.478 4.472-1.419l48.1-33.938c2.06-1.453 3.285-3.817 3.285-6.338s-1.225-4.885-3.285-6.338z" fill="#ec6267"></path></g><g fill="#585e74"><path d="m71.65 111.484c4.284 0 7.757-3.473 7.757-7.757v-64.481c0-4.284-3.473-7.757-7.757-7.757h-13.771c-4.284 0-7.757 3.473-7.757 7.757s3.473 7.757 7.757 7.757h6.014v56.724c.001 4.284 3.474 7.757 7.757 7.757z"></path><path d="m464.249 50.785c0-4.284-3.473-7.757-7.757-7.757h-201.451c-4.284 0-7.757 3.473-7.757 7.757s3.473 7.757 7.757 7.757h201.451c4.284 0 7.757-3.473 7.757-7.757z"></path><path d="m255.041 85.938c-4.284 0-7.757 3.473-7.757 7.757s3.473 7.757 7.757 7.757h111.867c4.284 0 7.757-3.473 7.757-7.757s-3.473-7.757-7.757-7.757z"></path><path d="m66.206 250.09c-10.2 14.585-16.287 22.561-19.557 26.845-4.007 5.251-6.018 7.886-4.705 12.157.775 2.519 2.681 4.452 5.229 5.302 1.048.35 1.992.666 14.445.666 4.933 0 11.674-.049 20.941-.166 4.284-.054 7.713-3.57 7.659-7.854s-3.59-7.694-7.854-7.659c-6.167.078-12.697.13-18.229.144 3.538-4.748 8.364-11.365 14.784-20.544 4.15-5.935 6.858-11.551 8.05-16.693.059-.254.105-.51.138-.769l.318-2.494c.041-.326.062-.653.062-.982 0-13.375-10.876-24.256-24.244-24.256-11.559 0-21.564 8.228-23.789 19.564-.825 4.204 1.913 8.281 6.117 9.106 4.202.827 8.281-1.913 9.106-6.117.801-4.079 4.403-7.038 8.566-7.038 4.674 0 8.503 3.698 8.72 8.326l-.192 1.503c-.793 3.126-2.664 6.812-5.565 10.959z"></path><path d="m255.041 241.784h201.451c4.284 0 7.757-3.473 7.757-7.757s-3.473-7.757-7.757-7.757h-201.451c-4.284 0-7.757 3.473-7.757 7.757s3.473 7.757 7.757 7.757z"></path><path d="m255.041 284.694h111.867c4.284 0 7.757-3.473 7.757-7.757s-3.473-7.757-7.757-7.757h-111.867c-4.284 0-7.757 3.473-7.757 7.757s3.473 7.757 7.757 7.757z"></path><path d="m464.249 417.268c0-4.284-3.473-7.757-7.757-7.757h-201.451c-4.284 0-7.757 3.473-7.757 7.757s3.473 7.757 7.757 7.757h201.451c4.284 0 7.757-3.473 7.757-7.757z"></path><path d="m255.041 452.421c-4.284 0-7.757 3.473-7.757 7.757s3.473 7.757 7.757 7.757h111.867c4.284 0 7.757-3.473 7.757-7.757s-3.473-7.757-7.757-7.757z"></path><path d="m64.765 397.84c-11.559 0-21.564 8.228-23.789 19.564-.825 4.204 1.913 8.281 6.117 9.106 4.204.826 8.281-1.914 9.106-6.117.801-4.079 4.403-7.039 8.566-7.039 4.813 0 8.729 3.922 8.729 8.742s-3.916 8.742-8.729 8.742c-4.284 0-7.757 3.473-7.757 7.757s3.473 7.757 7.757 7.757c4.813 0 8.729 3.922 8.729 8.742s-3.916 8.742-8.729 8.742c-4.332 0-8.048-3.23-8.646-7.514-.056-.401-.084-.815-.084-1.228 0-4.284-3.473-7.757-7.757-7.757s-7.757 3.473-7.757 7.757c0 1.129.079 2.264.233 3.372 1.66 11.906 11.982 20.884 24.011 20.884 13.368 0 24.243-10.882 24.243-24.257 0-6.368-2.469-12.167-6.494-16.5 4.026-4.332 6.494-10.132 6.494-16.499 0-13.373-10.875-24.254-24.243-24.254z"></path></g></g></svg>